<svg width="130" height="23" viewBox="0 0 130 23" fill="none" xmlns="http://www.w3.org/2000/svg">
<path d="M20.0263 19.0609C21.2639 17.823 22.1704 16.3671 22.7369 14.8154C21.569 13.0021 19.9566 11.4939 18.0653 10.4478C18.1525 12.1739 17.5337 13.9261 16.2176 15.2512C14.6226 16.8466 12.3827 17.4133 10.3259 16.9512C9.20154 16.6984 8.12952 16.1317 7.24925 15.2512C5.93319 13.9349 5.31439 12.1739 5.40154 10.4478C3.50154 11.4939 1.89787 13.0021 0.72998 14.8154C1.29649 16.3584 2.1942 17.8143 3.44053 19.0609C8.02494 23.6465 15.4506 23.6465 20.035 19.0609H20.0263Z" fill="#075AD3"/>
<path d="M11.7294 12.5399C12.9857 12.5399 14.0041 11.5212 14.0041 10.2646C14.0041 9.00796 12.9857 7.98926 11.7294 7.98926C10.473 7.98926 9.45459 9.00796 9.45459 10.2646C9.45459 11.5212 10.473 12.5399 11.7294 12.5399Z" fill="#075AD3"/>
<g style="mix-blend-mode:multiply" opacity="0.5">
<path d="M5.65429 12.5575C5.45384 11.8688 5.36668 11.1539 5.40154 10.4478C3.50154 11.4939 1.89787 13.0021 0.72998 14.8154C1.04374 15.661 1.45338 16.4717 1.95888 17.2389C2.73457 15.382 4.03319 13.7431 5.65429 12.5575Z" fill="#65E5CC"/>
</g>
<g style="mix-blend-mode:multiply" opacity="0.5">
<path d="M18.057 10.4478C18.0918 11.1539 18.0047 11.8688 17.8042 12.5575C19.5299 13.5077 20.9505 15.0072 21.7785 16.803C22.162 16.1666 22.4758 15.5041 22.7285 14.8154C21.5606 13.0021 19.9482 11.4939 18.057 10.4478Z" fill="#4A00FF"/>
</g>
<path d="M3.43188 2.4627C0.363987 5.54007 -0.647023 9.89025 0.39885 13.8132C0.486006 14.1532 0.599308 14.4845 0.721327 14.8158C1.88922 13.0025 3.5016 11.4943 5.39289 10.4482C5.47133 8.93129 6.08142 7.44055 7.2406 6.28109C7.54564 5.97596 7.86812 5.71443 8.20803 5.48777C8.975 4.98214 9.44564 4.13651 9.44564 3.22115C9.44564 1.09401 7.075 -0.222377 5.29702 0.945806C4.63463 1.38169 4.00711 1.88733 3.42316 2.47142L3.43188 2.4627Z" fill="#373737"/>
<path d="M23.1029 7.89356C22.6061 5.90591 21.5777 4.02287 20.0176 2.46238C19.4337 1.87829 18.8061 1.37266 18.1437 0.936772C16.3658 -0.23141 13.9951 1.08497 13.9951 3.21211C13.9951 4.12748 14.4658 4.9731 15.2327 5.47873C15.5814 5.7054 15.9038 5.97565 16.2089 6.28077C17.3681 7.44024 17.9781 8.93097 18.0566 10.4479C19.9566 11.494 21.5603 13.0022 22.7281 14.8155C23.5474 12.5924 23.6694 10.1776 23.1029 7.89356Z" fill="#373737"/>
<path d="M27.1642 19.9154C26.9202 19.9154 26.7372 19.8631 26.6152 19.7498C26.4931 19.6364 26.4321 19.4447 26.4321 19.1657V18.2678C26.4321 17.9888 26.4931 17.797 26.6152 17.6837C26.7372 17.5703 26.9202 17.518 27.1642 17.518H29.7702V14.6324C28.7592 14.3971 27.9661 13.9612 27.3996 13.3335C26.8243 12.7058 26.5367 11.8776 26.5367 10.8402V6.34183C26.5367 5.69672 26.65 5.13006 26.8941 4.63315C27.1381 4.13624 27.4606 3.7265 27.8963 3.38651C28.3234 3.05523 28.8463 2.80242 29.4564 2.63678C30.0665 2.47114 30.7376 2.38396 31.4785 2.38396C32.2193 2.38396 32.8904 2.47114 33.5005 2.63678C34.1106 2.80242 34.6248 3.05523 35.0606 3.38651C35.4876 3.71778 35.8275 4.13624 36.0629 4.63315C36.2982 5.13006 36.4202 5.69672 36.4202 6.34183V10.8402C36.4202 11.8689 36.1326 12.7058 35.5661 13.3335C34.9908 13.9612 34.2064 14.3971 33.2129 14.6324V17.518H35.8188C36.0629 17.518 36.2459 17.5703 36.3679 17.6837C36.4899 17.797 36.5509 17.9888 36.5509 18.2678V19.1657C36.5509 19.4447 36.4899 19.6364 36.3679 19.7498C36.2459 19.8631 36.0629 19.9154 35.8188 19.9154H27.1904H27.1642ZM33.0647 6.28953C33.0647 5.99312 33.0211 5.74902 32.934 5.55723C32.8468 5.36544 32.7248 5.1998 32.5766 5.07776C32.4285 4.95571 32.2629 4.85981 32.0711 4.8075C31.8794 4.7552 31.6789 4.72033 31.461 4.72033C31.0252 4.72033 30.6592 4.84238 30.3367 5.07776C30.023 5.31314 29.8574 5.72287 29.8574 6.28953V10.8751C29.8574 11.4505 30.0142 11.8515 30.3367 12.0868C30.6505 12.3222 31.0252 12.4443 31.461 12.4443C31.6789 12.4443 31.8794 12.4181 32.0711 12.3571C32.2629 12.3048 32.4285 12.2089 32.5766 12.0868C32.7248 11.9648 32.8468 11.7992 32.934 11.6074C33.0211 11.4156 33.0647 11.1715 33.0647 10.8751V6.28953ZM38.7037 19.9154C38.4335 19.9154 38.2418 19.8544 38.1372 19.7236C38.0326 19.6016 37.9716 19.4098 37.9716 19.157V3.13369C37.9716 2.88088 38.0239 2.6978 38.1372 2.56704C38.2418 2.44499 38.4335 2.37524 38.7037 2.37524H40.6821C40.9523 2.37524 41.1441 2.43627 41.2487 2.56704C41.3532 2.68908 41.4055 2.88088 41.4055 3.13369V9.74177H42.1551C42.3991 9.74177 42.5821 9.79407 42.7042 9.9074C42.8262 10.0207 42.8872 10.2125 42.8872 10.4915V12.4356C42.8872 12.7145 42.8262 12.9063 42.7042 13.0197C42.5821 13.133 42.3991 13.1853 42.1551 13.1853H41.4055V19.1482C41.4055 19.4011 41.3532 19.5841 41.2487 19.7149C41.1441 19.837 40.9523 19.9067 40.6821 19.9067H38.7037V19.9154Z" fill="#075AD3"/>
<path d="M43.5586 6.69054C43.5586 6.03671 43.637 5.4439 43.8026 4.91212C43.9682 4.38033 44.2297 3.92701 44.587 3.55214C44.9444 3.17728 45.4324 2.88959 46.0251 2.68037C46.6178 2.47986 47.3499 2.37524 48.2302 2.37524C49.1104 2.37524 49.8251 2.47986 50.4265 2.68037C51.0279 2.88088 51.5072 3.16856 51.8733 3.55214C52.2393 3.92701 52.5008 4.38033 52.6577 4.91212C52.8233 5.4439 52.9017 6.03671 52.9017 6.69054V15.1817C52.9017 15.8355 52.8233 16.4283 52.6577 16.9601C52.5008 17.4919 52.2306 17.9452 51.8733 18.3201C51.5072 18.6949 51.0279 18.9826 50.4265 19.1918C49.8251 19.3923 49.093 19.497 48.2302 19.497C47.3673 19.497 46.6178 19.3923 46.0251 19.1918C45.4324 18.9913 44.9531 18.7036 44.587 18.3201C44.221 17.9365 43.9595 17.4919 43.8026 16.9601C43.637 16.4283 43.5586 15.8355 43.5586 15.1817V6.69054ZM46.9925 15.6263C46.9925 16.1406 47.0797 16.5504 47.254 16.838C47.4283 17.1344 47.7508 17.2739 48.2214 17.2739C48.6921 17.2739 49.0146 17.1257 49.1889 16.838C49.3632 16.5504 49.4503 16.1406 49.4503 15.6263V6.24594C49.4503 5.73159 49.3632 5.32185 49.1889 5.03417C49.0146 4.74648 48.6921 4.59828 48.2214 4.59828C47.7508 4.59828 47.4283 4.74648 47.254 5.03417C47.0797 5.33057 46.9925 5.73159 46.9925 6.24594V15.6175V15.6263ZM56.2834 19.9154C56.0132 19.9154 55.8214 19.8544 55.7169 19.7236C55.6123 19.6016 55.5513 19.4098 55.5513 19.157V3.13369C55.5513 2.88088 55.6036 2.6978 55.7169 2.56704C55.8214 2.44499 56.0132 2.37524 56.2834 2.37524H58.2618C58.532 2.37524 58.7237 2.43627 58.8283 2.56704C58.9329 2.68908 58.9852 2.88088 58.9852 3.13369V19.157C58.9852 19.4098 58.9329 19.5929 58.8283 19.7236C58.7237 19.8457 58.532 19.9154 58.2618 19.9154H56.2834Z" fill="#075AD3"/>
<path d="M61.8005 19.916C61.5564 19.916 61.3734 19.8637 61.2514 19.7503C61.1294 19.637 61.0684 19.4452 61.0684 19.1662V18.2422C61.0684 17.9632 61.1294 17.7714 61.2514 17.6581C61.3734 17.5447 61.5564 17.4924 61.8005 17.4924H75.6844C75.9285 17.4924 76.1115 17.5447 76.2335 17.6581C76.3555 17.7714 76.4165 17.9632 76.4165 18.2422V19.1662C76.4165 19.4452 76.3555 19.637 76.2335 19.7503C76.1115 19.8637 75.9285 19.916 75.6844 19.916H61.8005ZM70.4551 4.8255V5.64497C70.4551 5.92394 70.5422 6.22034 70.7252 6.53418C70.9083 6.84802 71.1436 7.16186 71.4399 7.4757C71.7363 7.78954 72.0762 8.10338 72.4596 8.40851C72.8431 8.71363 73.2353 9.00132 73.6275 9.25413C74.0197 9.50695 74.4119 9.74233 74.8041 9.94284C75.1876 10.1433 75.5275 10.2915 75.8239 10.3962C75.9459 10.4397 76.0418 10.5356 76.1028 10.6926C76.1725 10.8495 76.2074 11.0151 76.2074 11.1982V13.3079C76.2074 13.5171 76.1638 13.6305 76.0679 13.6566C75.972 13.674 75.8587 13.6653 75.728 13.6217C75.2138 13.4561 74.6473 13.2207 74.011 12.9069C73.3748 12.6018 72.7385 12.253 72.0936 11.8695C71.4486 11.4859 70.8298 11.0761 70.2459 10.649C69.6619 10.2131 69.1564 9.79463 68.7381 9.37618C68.3372 9.79463 67.8317 10.2218 67.239 10.649C66.6463 11.0849 66.0275 11.4859 65.3913 11.8695C64.7551 12.253 64.1101 12.6018 63.4739 12.9069C62.8376 13.212 62.2624 13.4474 61.7656 13.6217C61.6349 13.6653 61.5129 13.674 61.4257 13.6566C61.3385 13.6392 61.2862 13.5171 61.2862 13.3079V11.1982C61.2862 11.0151 61.3211 10.8495 61.3908 10.6926C61.4606 10.5356 61.5564 10.4397 61.6697 10.3962C61.9661 10.2828 62.306 10.1346 62.6895 9.93412C63.0729 9.73361 63.4651 9.51566 63.8661 9.25413C64.267 8.9926 64.6505 8.71363 65.034 8.40851C65.4174 8.10338 65.7574 7.78954 66.0537 7.4757C66.35 7.16186 66.5853 6.84802 66.7684 6.53418C66.9514 6.22034 67.0385 5.92394 67.0385 5.64497V4.8255H62.0096C61.7656 4.8255 61.5826 4.77319 61.4606 4.65986C61.3385 4.54653 61.2775 4.35474 61.2775 4.07577V3.13425C61.2775 2.85528 61.3385 2.66349 61.4606 2.55016C61.5826 2.43683 61.7656 2.38452 62.0096 2.38452H75.484C75.728 2.38452 75.911 2.43683 76.033 2.55016C76.1551 2.66349 76.2161 2.85528 76.2161 3.13425V4.07577C76.2161 4.35474 76.1551 4.54653 76.033 4.65986C75.911 4.77319 75.728 4.8255 75.484 4.8255H70.4551Z" fill="#075AD3"/>
<path d="M78.7785 12.8023C78.5345 12.8023 78.3514 12.75 78.2294 12.6366C78.1074 12.5233 78.0464 12.3315 78.0464 12.0525V11.1546C78.0464 10.8756 78.1074 10.6838 78.2294 10.5705C78.3514 10.4572 78.5345 10.4049 78.7785 10.4049H84.217V8.79209H81.6546C81.1404 8.79209 80.6698 8.73106 80.234 8.6003C79.7982 8.47825 79.4147 8.28646 79.0923 8.02492C78.7698 7.76339 78.517 7.43212 78.334 7.0311C78.151 6.63008 78.0638 6.14188 78.0638 5.58395C78.0638 5.02601 78.151 4.56397 78.334 4.16295C78.517 3.76193 78.7698 3.42194 79.0923 3.1604C79.4147 2.89887 79.7982 2.69836 80.234 2.57631C80.6698 2.45426 81.1491 2.38452 81.6808 2.38452H90.1872C90.7101 2.38452 91.1895 2.44555 91.634 2.57631C92.0698 2.69836 92.4533 2.89887 92.7757 3.1604C93.0982 3.42194 93.351 3.76193 93.534 4.16295C93.717 4.56397 93.8042 5.04344 93.8042 5.58395C93.8042 6.12445 93.717 6.62136 93.534 7.0311C93.351 7.44083 93.0982 7.76339 92.7757 8.02492C92.4533 8.28646 92.0698 8.47825 91.634 8.6003C91.1982 8.72235 90.7189 8.79209 90.2134 8.79209H87.651V10.4049H93.0895C93.3335 10.4049 93.5166 10.4572 93.6386 10.5705C93.7606 10.6838 93.8216 10.8756 93.8216 11.1546V12.0525C93.8216 12.3315 93.7606 12.5233 93.6386 12.6366C93.5166 12.75 93.3335 12.8023 93.0895 12.8023H78.8046H78.7785ZM93.7955 19.1575C93.7955 19.4103 93.7432 19.5934 93.6299 19.7242C93.5253 19.8462 93.3335 19.916 93.0634 19.916H78.7785C78.5083 19.916 78.3166 19.8549 78.212 19.7242C78.1074 19.6021 78.0464 19.4103 78.0464 19.1575V15.034C78.0464 14.7812 78.0987 14.5981 78.212 14.4674C78.3166 14.3453 78.5083 14.2756 78.7785 14.2756H80.7569C81.0271 14.2756 81.2189 14.3366 81.3234 14.4674C81.428 14.5894 81.489 14.7812 81.489 15.034V17.5011H93.0721C93.3423 17.5011 93.534 17.5622 93.6386 17.6929C93.7432 17.815 93.8042 18.0068 93.8042 18.2596V19.1575H93.7955ZM89.7079 6.35983C90.0216 6.35983 90.2308 6.29009 90.3528 6.1506C90.4748 6.01112 90.5358 5.81933 90.5358 5.58395C90.5358 5.0696 90.2569 4.80806 89.7079 4.80806H82.134C81.5849 4.80806 81.306 5.0696 81.306 5.58395C81.306 5.81933 81.367 6.01112 81.489 6.1506C81.6111 6.29009 81.829 6.35983 82.134 6.35983H89.7079Z" fill="#075AD3"/>
<path d="M98.0046 19.9154C97.7605 19.9154 97.5775 19.8631 97.4555 19.7498C97.3335 19.6364 97.2725 19.4447 97.2725 19.1657V18.2416C97.2725 17.9626 97.3335 17.7708 97.4555 17.6575C97.5775 17.5442 97.7605 17.4919 98.0046 17.4919H111.889C112.133 17.4919 112.316 17.5442 112.438 17.6575C112.56 17.7708 112.621 17.9626 112.621 18.2416V19.1657C112.621 19.4447 112.56 19.6364 112.438 19.7498C112.316 19.8631 112.133 19.9154 111.889 19.9154H98.0046ZM111.923 13.6125C111.409 13.4468 110.843 13.2114 110.206 12.8976C109.57 12.5925 108.934 12.2438 108.289 11.8602C107.644 11.4766 107.025 11.0669 106.441 10.6397C105.857 10.2038 105.352 9.78536 104.933 9.3669C104.533 9.78536 104.027 10.2125 103.434 10.6397C102.842 11.0756 102.223 11.4766 101.587 11.8602C100.95 12.2438 100.305 12.5925 99.6693 12.8976C99.033 13.2027 98.4578 13.4381 97.961 13.6125C97.8303 13.656 97.7082 13.6648 97.6211 13.6473C97.5252 13.6299 97.4816 13.5078 97.4816 13.2986V10.9797C97.4816 10.7966 97.5165 10.631 97.5862 10.4741C97.6559 10.3171 97.7518 10.2212 97.8651 10.1777C98.1615 10.0643 98.5014 9.91612 98.8848 9.74177C99.2683 9.55869 99.6605 9.34947 100.061 9.10537C100.462 8.86127 100.846 8.59974 101.229 8.31205C101.613 8.02436 101.953 7.73668 102.249 7.43156C102.545 7.13515 102.789 6.83003 102.964 6.52491C103.147 6.21978 103.234 5.92338 103.234 5.64441V3.13369C103.234 2.88088 103.286 2.6978 103.391 2.56704C103.495 2.44499 103.687 2.37524 103.957 2.37524H105.918C106.189 2.37524 106.38 2.43627 106.485 2.56704C106.589 2.68908 106.65 2.88088 106.65 3.13369V5.64441C106.65 5.92338 106.738 6.21978 106.921 6.52491C107.104 6.83003 107.339 7.13515 107.635 7.43156C107.932 7.72796 108.272 8.02436 108.655 8.31205C109.039 8.59974 109.431 8.86127 109.832 9.10537C110.233 9.34947 110.616 9.56741 111 9.75048C111.383 9.93356 111.723 10.0818 112.019 10.1777C112.141 10.2212 112.237 10.3171 112.298 10.4741C112.359 10.631 112.403 10.7966 112.403 10.9797V13.2986C112.403 13.5078 112.359 13.6212 112.263 13.6473C112.167 13.6735 112.054 13.656 111.923 13.6125Z" fill="#353535"/>
<path d="M114.251 3.13369C114.251 2.88088 114.303 2.6978 114.416 2.56704C114.521 2.44499 114.713 2.37524 114.983 2.37524H129.268C129.538 2.37524 129.73 2.43627 129.834 2.56704C129.939 2.68908 130 2.88088 130 3.13369V8.00693C130 8.25974 129.948 8.44282 129.834 8.57358C129.73 8.69563 129.538 8.76538 129.268 8.76538H127.289C127.019 8.76538 126.828 8.70435 126.723 8.57358C126.618 8.45154 126.566 8.25974 126.566 8.00693V7.6495H114.983C114.739 7.6495 114.556 7.59719 114.434 7.48386C114.312 7.37053 114.251 7.17874 114.251 6.89977V6.18491C114.251 5.90594 114.312 5.71415 114.434 5.60082C114.556 5.48749 114.739 5.43518 114.983 5.43518H126.566V4.59828H114.983C114.713 4.59828 114.521 4.53725 114.416 4.40649C114.312 4.28444 114.251 4.09265 114.251 3.83983V3.12497V3.13369ZM114.251 15.8704C114.251 15.6175 114.303 15.4345 114.416 15.3037C114.521 15.1817 114.713 15.1119 114.983 15.1119H126.566V14.6063H114.887C114.469 14.6063 114.26 14.4058 114.26 13.996V13.072C114.26 12.6709 114.469 12.4617 114.887 12.4617H120.422V11.7469H114.983C114.739 11.7469 114.556 11.6945 114.434 11.5812C114.312 11.4679 114.251 11.2761 114.251 10.9971V10.2038C114.251 9.92484 114.312 9.73305 114.434 9.61972C114.556 9.50639 114.739 9.45408 114.983 9.45408H129.268C129.512 9.45408 129.695 9.50639 129.817 9.61972C129.939 9.73305 130 9.92484 130 10.2038V10.9971C130 11.2761 129.939 11.4679 129.817 11.5812C129.695 11.6945 129.512 11.7469 129.268 11.7469H123.829V12.4617H129.268C129.538 12.4617 129.73 12.5227 129.834 12.6535C129.939 12.7756 130 12.9673 130 13.2202V16.5068C130 16.7596 129.948 16.9427 129.834 17.0734C129.73 17.1955 129.538 17.2652 129.268 17.2652H117.685V17.7883H129.364C129.782 17.7883 129.991 17.9888 129.991 18.3985V19.2965C129.991 19.6975 129.782 19.9067 129.364 19.9067H114.974C114.704 19.9067 114.512 19.8457 114.408 19.7149C114.303 19.5929 114.242 19.4011 114.242 19.1482V15.8616L114.251 15.8704Z" fill="#353535"/>
</svg>
