<svg width="191" height="148" viewBox="0 0 191 148" fill="none" xmlns="http://www.w3.org/2000/svg">
<circle cx="5.5" cy="10" r="5.5" fill="#FF7F0E"/>
<path d="M23.778 14.082C22.602 14.222 21.2487 14.3293 19.718 14.404C18.2807 14.4787 16.9507 14.516 15.728 14.516L15.546 13.452C16.9833 13.452 18.0987 13.4427 18.892 13.424V11.464C18.0893 11.3613 17.4313 11.0487 16.918 10.526C16.414 10.0033 16.162 9.364 16.162 8.608C16.162 7.74 16.4793 7.02133 17.114 6.452C17.7487 5.88267 18.542 5.598 19.494 5.598C20.4553 5.598 21.2533 5.878 21.888 6.438C22.532 6.98867 22.854 7.712 22.854 8.608C22.854 9.364 22.602 9.99867 22.098 10.512C21.594 11.0253 20.9407 11.3427 20.138 11.464V13.368C21.7713 13.3027 22.9473 13.214 23.666 13.102L23.778 14.082ZM25.654 16.98H24.422V4.744H25.654V16.98ZM21.566 8.594C21.566 8.01533 21.3653 7.55333 20.964 7.208C20.572 6.86267 20.082 6.69 19.494 6.69C18.9153 6.69 18.4253 6.872 18.024 7.236C17.6227 7.59067 17.422 8.04333 17.422 8.594C17.422 9.13533 17.618 9.57867 18.01 9.924C18.4113 10.26 18.906 10.428 19.494 10.428C20.0633 10.428 20.5487 10.26 20.95 9.924C21.3607 9.57867 21.566 9.13533 21.566 8.594ZM37.3053 9.644H33.7773V10.554H38.6913V11.562H27.6453V10.554H32.5313V9.644H29.0033V5.192H37.2633V6.158H30.2493V6.942H37.0673V7.866H30.2493V8.678H37.3053V9.644ZM37.6973 16.882H28.9753V14.096H36.1153V13.2H28.9473V12.248H37.3473V14.978H30.2213V15.93H37.6973V16.882ZM49.8526 16.98H48.6066V4.744H49.8526V16.98ZM40.1926 9.98C40.1926 8.70133 40.4586 7.66533 40.9906 6.872C41.5226 6.06933 42.3066 5.668 43.3426 5.668C44.3786 5.668 45.1579 6.06933 45.6806 6.872C46.2126 7.66533 46.4786 8.706 46.4786 9.994C46.4786 11.282 46.2126 12.3273 45.6806 13.13C45.1579 13.9233 44.3786 14.32 43.3426 14.32C42.3066 14.32 41.5226 13.9187 40.9906 13.116C40.4586 12.3133 40.1926 11.268 40.1926 9.98ZM44.7566 12.36C45.0832 11.7627 45.2466 10.974 45.2466 9.994C45.2466 9.014 45.0832 8.22533 44.7566 7.628C44.4299 7.03067 43.9586 6.732 43.3426 6.732C42.7359 6.732 42.2692 7.03067 41.9426 7.628C41.6159 8.22533 41.4526 9.014 41.4526 9.994C41.4526 10.974 41.6159 11.7627 41.9426 12.36C42.2692 12.948 42.7359 13.242 43.3426 13.242C43.9586 13.242 44.4299 12.948 44.7566 12.36ZM60.9018 13.284C61.6205 13.6573 61.9798 14.18 61.9798 14.852C61.9798 15.524 61.6205 16.0467 60.9018 16.42C60.1925 16.7933 59.1798 16.98 57.8638 16.98C56.5478 16.98 55.5398 16.7933 54.8398 16.42C54.1398 16.056 53.7898 15.5333 53.7898 14.852C53.7898 14.1707 54.1398 13.6433 54.8398 13.27C55.5398 12.8967 56.5478 12.71 57.8638 12.71C59.1798 12.71 60.1925 12.9013 60.9018 13.284ZM57.8638 13.676C56.9865 13.676 56.3005 13.7833 55.8058 13.998C55.3112 14.2033 55.0638 14.488 55.0638 14.852C55.0638 15.216 55.3065 15.5053 55.7918 15.72C56.2865 15.9253 56.9772 16.028 57.8638 16.028C58.7598 16.028 59.4552 15.9253 59.9498 15.72C60.4445 15.5147 60.6918 15.2253 60.6918 14.852C60.6918 14.488 60.4398 14.2033 59.9358 13.998C59.4412 13.7833 58.7505 13.676 57.8638 13.676ZM58.7598 8.986V7.992H60.6638V4.744H61.9098V12.598H60.6638V11.254H58.7598V10.274H60.6638V8.986H58.7598ZM57.1498 5.92H53.5938V4.912H57.1498V5.92ZM58.5358 7.684H51.8858V6.69H58.5358V7.684ZM58.1578 10.218C58.1578 10.8153 57.8918 11.3007 57.3598 11.674C56.8278 12.0473 56.1512 12.234 55.3298 12.234C54.5085 12.234 53.8318 12.052 53.2998 11.688C52.7678 11.3147 52.5018 10.8247 52.5018 10.218C52.5018 9.602 52.7632 9.112 53.2858 8.748C53.8178 8.37467 54.4992 8.188 55.3298 8.188C56.1512 8.188 56.8278 8.37467 57.3598 8.748C57.8918 9.112 58.1578 9.602 58.1578 10.218ZM56.4498 10.988C56.7672 10.792 56.9258 10.5353 56.9258 10.218C56.9258 9.90067 56.7672 9.644 56.4498 9.448C56.1418 9.24267 55.7685 9.14 55.3298 9.14C54.8912 9.14 54.5132 9.24267 54.1958 9.448C53.8785 9.644 53.7198 9.90067 53.7198 10.218C53.7198 10.5353 53.8785 10.792 54.1958 10.988C54.5132 11.184 54.8912 11.282 55.3298 11.282C55.7685 11.282 56.1418 11.184 56.4498 10.988Z" fill="#020712"/>
<path d="M110.02 15.412V14.684L112.176 12.444C112.96 11.6227 113.529 10.9413 113.884 10.4C114.248 9.84933 114.43 9.27533 114.43 8.678C114.43 8.062 114.276 7.60933 113.968 7.32C113.66 7.02133 113.179 6.872 112.526 6.872C111.882 6.872 111.186 7.11933 110.44 7.614L110.146 6.662C110.986 6.102 111.858 5.822 112.764 5.822C113.716 5.822 114.448 6.06467 114.962 6.55C115.475 7.03533 115.732 7.70267 115.732 8.552C115.732 9.308 115.522 10.0033 115.102 10.638C114.691 11.2633 114.028 12.038 113.114 12.962L111.714 14.376H115.914V15.412H110.02ZM126.179 12.85C126.916 13.2793 127.285 13.8627 127.285 14.6C127.285 15.3373 126.921 15.916 126.193 16.336C125.465 16.7653 124.438 16.98 123.113 16.98C121.806 16.98 120.784 16.7653 120.047 16.336C119.319 15.916 118.955 15.3373 118.955 14.6C118.955 13.8627 119.319 13.2793 120.047 12.85C120.784 12.4207 121.806 12.206 123.113 12.206C124.429 12.206 125.451 12.4207 126.179 12.85ZM123.113 13.228C122.217 13.228 121.512 13.3493 120.999 13.592C120.495 13.8347 120.243 14.1707 120.243 14.6C120.243 15.0293 120.495 15.3653 120.999 15.608C121.512 15.8413 122.217 15.958 123.113 15.958C124.037 15.958 124.751 15.8413 125.255 15.608C125.768 15.3653 126.025 15.0293 126.025 14.6C126.025 14.1707 125.768 13.8347 125.255 13.592C124.751 13.3493 124.037 13.228 123.113 13.228ZM123.981 7.67V6.676H125.969V4.744H127.215V12.248H125.969V10.19H123.981V9.196H125.969V7.67H123.981ZM123.365 11.268H117.723V5.696H123.365V11.268ZM122.133 10.288V6.676H118.955V10.288H122.133ZM130.59 10.75V9.966H137.87L136.876 8.3L137.072 8.076L139.816 10.358L137.072 12.626L136.876 12.402L137.87 10.75H130.59ZM144.659 15.468V7.236L142.951 7.614V6.9L145.219 5.85H145.891V15.468H144.659ZM158.8 12.85C159.537 13.2793 159.906 13.8627 159.906 14.6C159.906 15.3373 159.542 15.916 158.814 16.336C158.086 16.7653 157.059 16.98 155.734 16.98C154.427 16.98 153.405 16.7653 152.668 16.336C151.94 15.916 151.576 15.3373 151.576 14.6C151.576 13.8627 151.94 13.2793 152.668 12.85C153.405 12.4207 154.427 12.206 155.734 12.206C157.05 12.206 158.072 12.4207 158.8 12.85ZM155.734 13.228C154.838 13.228 154.133 13.3493 153.62 13.592C153.116 13.8347 152.864 14.1707 152.864 14.6C152.864 15.0293 153.116 15.3653 153.62 15.608C154.133 15.8413 154.838 15.958 155.734 15.958C156.658 15.958 157.372 15.8413 157.876 15.608C158.389 15.3653 158.646 15.0293 158.646 14.6C158.646 14.1707 158.389 13.8347 157.876 13.592C157.372 13.3493 156.658 13.228 155.734 13.228ZM156.602 7.67V6.676H158.59V4.744H159.836V12.248H158.59V10.19H156.602V9.196H158.59V7.67H156.602ZM155.986 11.268H150.344V5.696H155.986V11.268ZM154.754 10.288V6.676H151.576V10.288H154.754ZM164.599 16.84C163.871 16.1213 163.278 15.2767 162.821 14.306C162.364 13.3353 162.135 12.276 162.135 11.128V10.89C162.135 8.69667 162.956 6.79733 164.599 5.192H165.649C164.977 5.93867 164.426 6.79733 163.997 7.768C163.577 8.73867 163.367 9.742 163.367 10.778V11.142C163.367 12.15 163.582 13.1673 164.011 14.194C164.44 15.2207 164.986 16.1027 165.649 16.84H164.599ZM170.456 10.344V11.156H166.606V10.344H170.456ZM173.589 15.468V7.236L171.881 7.614V6.9L174.149 5.85H174.821V15.468H173.589ZM176.517 16.84C177.199 16.0933 177.749 15.2347 178.169 14.264C178.599 13.2933 178.813 12.29 178.813 11.254V10.876C178.813 9.868 178.599 8.85533 178.169 7.838C177.74 6.81133 177.189 5.92933 176.517 5.192H177.581C178.319 5.91067 178.916 6.75533 179.373 7.726C179.831 8.68733 180.059 9.742 180.059 10.89V11.128C180.059 12.276 179.831 13.3353 179.373 14.306C178.916 15.2767 178.319 16.1213 177.581 16.84H176.517Z" fill="#FF7F0E"/>
<circle cx="5.5" cy="42" r="5.5" fill="#FFBC0E"/>
<path d="M26.186 42.694L25.514 43.674C24.5527 43.4033 23.638 42.932 22.77 42.26C21.9113 41.588 21.3373 40.9067 21.048 40.216C20.8053 40.916 20.25 41.602 19.382 42.274C18.514 42.9367 17.5807 43.3987 16.582 43.66L15.952 42.652C17.0347 42.4653 18.0473 41.9707 18.99 41.168C19.942 40.356 20.418 39.4647 20.418 38.494V37.654H21.692V38.494C21.692 39.138 21.9393 39.7727 22.434 40.398C22.9287 41.014 23.5167 41.518 24.198 41.91C24.8793 42.302 25.542 42.5633 26.186 42.694ZM26.578 47.426H15.532V46.418H20.404V43.38H21.65V46.418H26.578V47.426ZM33.7633 48.994H32.5173V44.598H27.6453V43.604H38.6913V44.598H33.7633V48.994ZM38.2713 41.378L37.6833 42.386C36.7499 42.2087 35.8399 41.8447 34.9533 41.294C34.0759 40.7433 33.4786 40.1367 33.1613 39.474C32.8999 40.1273 32.3259 40.734 31.4393 41.294C30.5526 41.8447 29.6239 42.2133 28.6533 42.4L28.0933 41.392C29.2413 41.2427 30.2633 40.8273 31.1593 40.146C32.0646 39.4647 32.5173 38.7133 32.5173 37.892V37.122H33.8193V37.892C33.8193 38.4333 34.0526 38.97 34.5193 39.502C34.9859 40.0247 35.5599 40.454 36.2413 40.79C36.9226 41.1167 37.5993 41.3127 38.2713 41.378ZM50.8423 43.492L50.2123 44.5C49.6523 44.3227 49.0736 44.0007 48.4763 43.534C47.879 43.058 47.459 42.5633 47.2163 42.05C47.0296 42.6007 46.6423 43.1467 46.0543 43.688C45.4663 44.22 44.841 44.6027 44.1783 44.836L43.4923 43.87C44.3416 43.5993 45.0603 43.1373 45.6483 42.484C46.2456 41.8213 46.5536 41.0933 46.5723 40.3H43.8983V39.306H50.5623V40.3H47.8463C47.865 41.0653 48.173 41.742 48.7703 42.33C49.377 42.918 50.0676 43.3053 50.8423 43.492ZM53.7543 48.658H45.4943V45.018H46.7403V47.65H53.7543V48.658ZM53.4743 45.732H52.2283V36.744H53.4743V45.732ZM48.9243 38.214H45.5223V37.22H48.9243V38.214ZM65.1956 37.64C65.1956 39.7493 65.0462 41.5367 64.7476 43.002H66.5956V43.996H61.6816V48.98H60.4356V43.996H55.5496V43.002H63.5296C63.8002 41.91 63.9356 40.4633 63.9356 38.662H56.8236V37.64H65.1956ZM82.6106 41.322H80.7906V44.346H79.5446V36.744H80.7906V40.3H82.6106V41.322ZM76.5766 37.962H73.0206V36.954H76.5766V37.962ZM78.3126 39.74H71.2706V38.746H78.3126V39.74ZM77.6126 42.302C77.6126 42.8993 77.3419 43.3893 76.8006 43.772C76.2686 44.1453 75.5966 44.332 74.7846 44.332C73.9633 44.332 73.2866 44.1453 72.7546 43.772C72.2226 43.3987 71.9566 42.9087 71.9566 42.302C71.9566 41.686 72.2179 41.1913 72.7406 40.818C73.2726 40.4447 73.9539 40.258 74.7846 40.258C75.6059 40.258 76.2826 40.4447 76.8146 40.818C77.3466 41.1913 77.6126 41.686 77.6126 42.302ZM75.9046 43.086C76.2219 42.8807 76.3806 42.6193 76.3806 42.302C76.3806 41.9847 76.2219 41.7233 75.9046 41.518C75.5966 41.3127 75.2233 41.21 74.7846 41.21C74.3366 41.21 73.9539 41.3127 73.6366 41.518C73.3286 41.7233 73.1746 41.9847 73.1746 42.302C73.1746 42.6193 73.3333 42.8807 73.6506 43.086C73.9679 43.282 74.3459 43.38 74.7846 43.38C75.2233 43.38 75.5966 43.282 75.9046 43.086ZM72.8386 44.99H80.7906V48.994H79.5586V45.998H72.8386V44.99ZM92.7919 44.948C93.5385 45.3587 93.9119 45.9233 93.9119 46.642C93.9119 47.3607 93.5385 47.9253 92.7919 48.336C92.0452 48.756 91.0139 48.966 89.6979 48.966C88.3912 48.966 87.3645 48.756 86.6179 48.336C85.8805 47.9253 85.5119 47.3607 85.5119 46.642C85.5119 45.9233 85.8805 45.3587 86.6179 44.948C87.3645 44.528 88.3912 44.318 89.6979 44.318C91.0139 44.318 92.0452 44.528 92.7919 44.948ZM93.7859 44.402H92.5959V40.93H91.2239V43.772H90.0479V36.968H91.2239V39.922H92.5959V36.744H93.7859V44.402ZM89.6979 45.326C88.8205 45.326 88.1205 45.4473 87.5979 45.69C87.0752 45.9233 86.8139 46.2407 86.8139 46.642C86.8139 47.0433 87.0705 47.3607 87.5839 47.594C88.1065 47.8273 88.8112 47.944 89.6979 47.944C90.5939 47.944 91.3032 47.8273 91.8259 47.594C92.3579 47.3607 92.6239 47.0433 92.6239 46.642C92.6239 46.2407 92.3579 45.9233 91.8259 45.69C91.3032 45.4473 90.5939 45.326 89.6979 45.326ZM89.5719 42.428L88.9139 43.366C88.4752 43.1513 88.0179 42.8107 87.5419 42.344C87.0659 41.868 86.7392 41.42 86.5619 41C86.4125 41.4853 86.0999 41.9987 85.6239 42.54C85.1572 43.072 84.6532 43.4873 84.1119 43.786L83.3699 42.89C84.0979 42.498 84.7092 41.952 85.2039 41.252C85.6985 40.5427 85.9459 39.7633 85.9459 38.914V37.444H87.1499V38.886C87.1499 39.7167 87.3925 40.4447 87.8779 41.07C88.3725 41.686 88.9372 42.1387 89.5719 42.428Z" fill="#020712"/>
<path d="M110.286 47.412V46.684L112.442 44.444C113.226 43.6227 113.796 42.9413 114.15 42.4C114.514 41.8493 114.696 41.2753 114.696 40.678C114.696 40.062 114.542 39.6093 114.234 39.32C113.926 39.0213 113.446 38.872 112.792 38.872C112.148 38.872 111.453 39.1193 110.706 39.614L110.412 38.662C111.252 38.102 112.125 37.822 113.03 37.822C113.982 37.822 114.715 38.0647 115.228 38.55C115.742 39.0353 115.998 39.7027 115.998 40.552C115.998 41.308 115.788 42.0033 115.368 42.638C114.958 43.2633 114.295 44.038 113.38 44.962L111.98 46.376H116.18V47.412H110.286ZM128.277 44.85C129.014 45.2793 129.383 45.8627 129.383 46.6C129.383 47.3373 129.019 47.916 128.291 48.336C127.563 48.7653 126.536 48.98 125.211 48.98C123.904 48.98 122.882 48.7653 122.145 48.336C121.417 47.916 121.053 47.3373 121.053 46.6C121.053 45.8627 121.417 45.2793 122.145 44.85C122.882 44.4207 123.904 44.206 125.211 44.206C126.527 44.206 127.549 44.4207 128.277 44.85ZM125.211 45.228C124.315 45.228 123.61 45.3493 123.097 45.592C122.593 45.8347 122.341 46.1707 122.341 46.6C122.341 47.0293 122.593 47.3653 123.097 47.608C123.61 47.8413 124.315 47.958 125.211 47.958C126.135 47.958 126.849 47.8413 127.353 47.608C127.866 47.3653 128.123 47.0293 128.123 46.6C128.123 46.1707 127.866 45.8347 127.353 45.592C126.849 45.3493 126.135 45.228 125.211 45.228ZM126.079 39.67V38.676H128.067V36.744H129.313V44.248H128.067V42.19H126.079V41.196H128.067V39.67H126.079ZM125.463 43.268H119.821V37.696H125.463V43.268ZM124.231 42.288V38.676H121.053V42.288H124.231ZM132.688 42.75V41.966H139.968L138.974 40.3L139.17 40.076L141.914 42.358L139.17 44.626L138.974 44.402L139.968 42.75H132.688ZM147.668 47.552C146.594 47.552 145.731 47.328 145.078 46.88L145.33 45.928C145.591 46.1053 145.927 46.2547 146.338 46.376C146.758 46.488 147.145 46.544 147.5 46.544C148.246 46.544 148.82 46.3853 149.222 46.068C149.632 45.7507 149.838 45.3027 149.838 44.724C149.838 44.1547 149.637 43.73 149.236 43.45C148.834 43.1607 148.279 43.016 147.57 43.016H146.66V41.994H147.486C148.092 41.9847 148.578 41.84 148.942 41.56C149.306 41.2707 149.488 40.8787 149.488 40.384C149.488 39.376 148.872 38.872 147.64 38.872C147.033 38.872 146.347 39.0867 145.582 39.516L145.4 38.536C145.698 38.3493 146.086 38.186 146.562 38.046C147.047 37.906 147.495 37.836 147.906 37.836C148.774 37.836 149.464 38.046 149.978 38.466C150.5 38.8767 150.762 39.4507 150.762 40.188C150.762 41.252 150.169 41.9847 148.984 42.386C150.393 42.6473 151.098 43.436 151.098 44.752C151.098 45.592 150.785 46.2687 150.16 46.782C149.544 47.2953 148.713 47.552 147.668 47.552ZM163.263 44.85C164.001 45.2793 164.369 45.8627 164.369 46.6C164.369 47.3373 164.005 47.916 163.277 48.336C162.549 48.7653 161.523 48.98 160.197 48.98C158.891 48.98 157.869 48.7653 157.131 48.336C156.403 47.916 156.039 47.3373 156.039 46.6C156.039 45.8627 156.403 45.2793 157.131 44.85C157.869 44.4207 158.891 44.206 160.197 44.206C161.513 44.206 162.535 44.4207 163.263 44.85ZM160.197 45.228C159.301 45.228 158.597 45.3493 158.083 45.592C157.579 45.8347 157.327 46.1707 157.327 46.6C157.327 47.0293 157.579 47.3653 158.083 47.608C158.597 47.8413 159.301 47.958 160.197 47.958C161.121 47.958 161.835 47.8413 162.339 47.608C162.853 47.3653 163.109 47.0293 163.109 46.6C163.109 46.1707 162.853 45.8347 162.339 45.592C161.835 45.3493 161.121 45.228 160.197 45.228ZM161.065 39.67V38.676H163.053V36.744H164.299V44.248H163.053V42.19H161.065V41.196H163.053V39.67H161.065ZM160.449 43.268H154.807V37.696H160.449V43.268ZM159.217 42.288V38.676H156.039V42.288H159.217ZM169.063 48.84C168.335 48.1213 167.742 47.2767 167.285 46.306C166.827 45.3353 166.599 44.276 166.599 43.128V42.89C166.599 40.6967 167.42 38.7973 169.063 37.192H170.113C169.441 37.9387 168.89 38.7973 168.461 39.768C168.041 40.7387 167.831 41.742 167.831 42.778V43.142C167.831 44.15 168.045 45.1673 168.475 46.194C168.904 47.2207 169.45 48.1027 170.113 48.84H169.063ZM173.66 46.054V43.408H170.958V42.372H173.66V39.67H174.752V42.372H177.3V43.408H174.752V46.054H173.66ZM180.322 47.468V39.236L178.614 39.614V38.9L180.882 37.85H181.554V47.468H180.322ZM183.251 48.84C183.932 48.0933 184.483 47.2347 184.903 46.264C185.332 45.2933 185.547 44.29 185.547 43.254V42.876C185.547 41.868 185.332 40.8553 184.903 39.838C184.473 38.8113 183.923 37.9293 183.251 37.192H184.315C185.052 37.9107 185.649 38.7553 186.107 39.726C186.564 40.6873 186.793 41.742 186.793 42.89V43.128C186.793 44.276 186.564 45.3353 186.107 46.306C185.649 47.2767 185.052 48.1213 184.315 48.84H183.251Z" fill="#FFBC0E"/>
<circle cx="5.5" cy="74" r="5.5" fill="#2EA5E8"/>
<path d="M24.548 76.906C25.276 77.3167 25.64 77.886 25.64 78.614C25.64 79.342 25.276 79.9113 24.548 80.322C23.82 80.742 22.7933 80.952 21.468 80.952C20.1613 80.952 19.1393 80.742 18.402 80.322C17.674 79.9113 17.31 79.342 17.31 78.614C17.31 77.886 17.674 77.3167 18.402 76.906C19.1393 76.486 20.1613 76.276 21.468 76.276C22.7933 76.276 23.82 76.486 24.548 76.906ZM25.57 76.136H24.324V74.05H22.518V73.07H24.324V71.824H22.518V70.858H24.324V68.744H25.57V76.136ZM23.61 79.58C24.1233 79.3467 24.38 79.0247 24.38 78.614C24.38 78.2033 24.1233 77.8813 23.61 77.648C23.106 77.4147 22.392 77.298 21.468 77.298C20.572 77.298 19.8673 77.4147 19.354 77.648C18.85 77.8813 18.598 78.2033 18.598 78.614C18.598 79.0247 18.85 79.3467 19.354 79.58C19.8673 79.804 20.572 79.916 21.468 79.916C22.392 79.916 23.106 79.804 23.61 79.58ZM22.504 74.33L22.602 75.282C22.0233 75.394 21.0153 75.4873 19.578 75.562C18.374 75.6367 17.0627 75.6833 15.644 75.702L15.504 74.61H17.086L16.764 71.362L17.982 71.222L18.206 74.596C18.8967 74.5773 19.4193 74.5587 19.774 74.54L20.012 71.194L21.23 71.334L20.88 74.484C21.4867 74.456 22.028 74.4047 22.504 74.33ZM22.252 70.578H15.854V69.57H22.252V70.578ZM37.2353 69.416C37.2353 71.32 37.1139 72.818 36.8713 73.91H38.6913V74.918H35.7373V78.04H34.4913V74.918H32.3633V77.97H31.1313V74.918H27.6453V73.91H35.6393C35.8819 72.8553 35.9939 71.6933 35.9753 70.424H29.0873V69.416H37.2353ZM37.4033 80.602H29.0873V76.906H30.3193V79.608H37.4033V80.602ZM40.0386 70.662V69.654H46.7306V70.662H44.0566V71.152C44.0566 71.964 44.3552 72.7013 44.9526 73.364C45.5499 74.0173 46.2266 74.4607 46.9826 74.694L46.2966 75.688C45.7366 75.464 45.1812 75.1093 44.6306 74.624C44.0799 74.1293 43.6832 73.6113 43.4406 73.07C43.2539 73.6393 42.8572 74.2087 42.2506 74.778C41.6439 75.3473 41.0139 75.7673 40.3606 76.038L39.6606 75.058C40.5006 74.7593 41.2332 74.246 41.8586 73.518C42.4839 72.7807 42.7966 72.0013 42.7966 71.18V70.662H40.0386ZM41.6066 76.64H49.8106V80.98H48.5506V77.648H41.6066V76.64ZM49.7966 75.996H48.5506V72.902H46.2826V71.894H48.5506V68.744H49.7966V75.996ZM61.9098 77.634H60.6638V68.744H61.9098V77.634ZM62.1898 80.602H53.8598V76.794H55.1058V79.608H62.1898V80.602ZM53.0758 70.452C53.6918 69.864 54.4712 69.57 55.4138 69.57C56.3565 69.57 57.1358 69.8593 57.7518 70.438C58.3772 71.0167 58.6898 71.7447 58.6898 72.622C58.6898 73.4993 58.3818 74.218 57.7658 74.778C57.1498 75.3287 56.3658 75.604 55.4138 75.604C54.4712 75.604 53.6918 75.3287 53.0758 74.778C52.4598 74.218 52.1518 73.504 52.1518 72.636C52.1518 71.7587 52.4598 71.0307 53.0758 70.452ZM55.4138 70.634C54.8445 70.634 54.3732 70.8207 53.9998 71.194C53.6358 71.5673 53.4538 72.0387 53.4538 72.608C53.4538 73.168 53.6358 73.6347 53.9998 74.008C54.3732 74.3813 54.8445 74.568 55.4138 74.568C56.0112 74.568 56.4872 74.386 56.8418 74.022C57.1965 73.658 57.3738 73.1913 57.3738 72.622C57.3738 72.034 57.1965 71.558 56.8418 71.194C56.4872 70.8207 56.0112 70.634 55.4138 70.634ZM78.9329 73.322H77.1129V76.346H75.8669V68.744H77.1129V72.3H78.9329V73.322ZM72.8989 69.962H69.3429V68.954H72.8989V69.962ZM74.6349 71.74H67.5929V70.746H74.6349V71.74ZM73.9349 74.302C73.9349 74.8993 73.6642 75.3893 73.1229 75.772C72.5909 76.1453 71.9189 76.332 71.1069 76.332C70.2855 76.332 69.6089 76.1453 69.0769 75.772C68.5449 75.3987 68.2789 74.9087 68.2789 74.302C68.2789 73.686 68.5402 73.1913 69.0629 72.818C69.5949 72.4447 70.2762 72.258 71.1069 72.258C71.9282 72.258 72.6049 72.4447 73.1369 72.818C73.6689 73.1913 73.9349 73.686 73.9349 74.302ZM72.2269 75.086C72.5442 74.8807 72.7029 74.6193 72.7029 74.302C72.7029 73.9847 72.5442 73.7233 72.2269 73.518C71.9189 73.3127 71.5455 73.21 71.1069 73.21C70.6589 73.21 70.2762 73.3127 69.9589 73.518C69.6509 73.7233 69.4969 73.9847 69.4969 74.302C69.4969 74.6193 69.6555 74.8807 69.9729 75.086C70.2902 75.282 70.6682 75.38 71.1069 75.38C71.5455 75.38 71.9189 75.282 72.2269 75.086ZM69.1609 76.99H77.1129V80.994H75.8809V77.998H69.1609V76.99ZM89.1141 76.948C89.8608 77.3587 90.2341 77.9233 90.2341 78.642C90.2341 79.3607 89.8608 79.9253 89.1141 80.336C88.3675 80.756 87.3361 80.966 86.0201 80.966C84.7135 80.966 83.6868 80.756 82.9401 80.336C82.2028 79.9253 81.8341 79.3607 81.8341 78.642C81.8341 77.9233 82.2028 77.3587 82.9401 76.948C83.6868 76.528 84.7135 76.318 86.0201 76.318C87.3361 76.318 88.3675 76.528 89.1141 76.948ZM90.1081 76.402H88.9181V72.93H87.5461V75.772H86.3701V68.968H87.5461V71.922H88.9181V68.744H90.1081V76.402ZM86.0201 77.326C85.1428 77.326 84.4428 77.4473 83.9201 77.69C83.3975 77.9233 83.1361 78.2407 83.1361 78.642C83.1361 79.0433 83.3928 79.3607 83.9061 79.594C84.4288 79.8273 85.1335 79.944 86.0201 79.944C86.9161 79.944 87.6255 79.8273 88.1481 79.594C88.6801 79.3607 88.9461 79.0433 88.9461 78.642C88.9461 78.2407 88.6801 77.9233 88.1481 77.69C87.6255 77.4473 86.9161 77.326 86.0201 77.326ZM85.8941 74.428L85.2361 75.366C84.7975 75.1513 84.3401 74.8107 83.8641 74.344C83.3881 73.868 83.0615 73.42 82.8841 73C82.7348 73.4853 82.4221 73.9987 81.9461 74.54C81.4795 75.072 80.9755 75.4873 80.4341 75.786L79.6921 74.89C80.4201 74.498 81.0315 73.952 81.5261 73.252C82.0208 72.5427 82.2681 71.7633 82.2681 70.914V69.444H83.4721V70.886C83.4721 71.7167 83.7148 72.4447 84.2001 73.07C84.6948 73.686 85.2595 74.1387 85.8941 74.428Z" fill="#020712"/>
<path d="M113.373 79.58C112.309 79.58 111.492 79.216 110.923 78.488C110.363 77.7507 110.083 76.71 110.083 75.366V74.638C110.083 73.014 110.414 71.81 111.077 71.026C111.749 70.2327 112.659 69.836 113.807 69.836C114.245 69.836 114.665 69.8967 115.067 70.018C115.477 70.13 115.795 70.256 116.019 70.396L115.711 71.306C115.524 71.194 115.253 71.096 114.899 71.012C114.544 70.9187 114.222 70.872 113.933 70.872C113.102 70.872 112.472 71.138 112.043 71.67C111.623 72.1927 111.385 73.1307 111.329 74.484C111.982 73.8307 112.747 73.504 113.625 73.504C114.446 73.504 115.123 73.7653 115.655 74.288C116.187 74.8107 116.453 75.506 116.453 76.374C116.453 77.3073 116.177 78.0773 115.627 78.684C115.076 79.2813 114.325 79.58 113.373 79.58ZM113.345 78.586C113.933 78.586 114.395 78.404 114.731 78.04C115.067 77.6667 115.235 77.1533 115.235 76.5C115.235 75.1747 114.609 74.512 113.359 74.512C112.957 74.512 112.57 74.6287 112.197 74.862C111.833 75.086 111.543 75.3473 111.329 75.646V75.744C111.329 77.6387 112.001 78.586 113.345 78.586ZM128.485 76.85C129.223 77.2793 129.591 77.8627 129.591 78.6C129.591 79.3373 129.227 79.916 128.499 80.336C127.771 80.7653 126.745 80.98 125.419 80.98C124.113 80.98 123.091 80.7653 122.353 80.336C121.625 79.916 121.261 79.3373 121.261 78.6C121.261 77.8627 121.625 77.2793 122.353 76.85C123.091 76.4207 124.113 76.206 125.419 76.206C126.735 76.206 127.757 76.4207 128.485 76.85ZM125.419 77.228C124.523 77.228 123.819 77.3493 123.305 77.592C122.801 77.8347 122.549 78.1707 122.549 78.6C122.549 79.0293 122.801 79.3653 123.305 79.608C123.819 79.8413 124.523 79.958 125.419 79.958C126.343 79.958 127.057 79.8413 127.561 79.608C128.075 79.3653 128.331 79.0293 128.331 78.6C128.331 78.1707 128.075 77.8347 127.561 77.592C127.057 77.3493 126.343 77.228 125.419 77.228ZM126.287 71.67V70.676H128.275V68.744H129.521V76.248H128.275V74.19H126.287V73.196H128.275V71.67H126.287ZM125.671 75.268H120.029V69.696H125.671V75.268ZM124.439 74.288V70.676H121.261V74.288H124.439ZM132.896 74.75V73.966H140.176L139.182 72.3L139.378 72.076L142.122 74.358L139.378 76.626L139.182 76.402L140.176 74.75H132.896ZM148.646 79.594C147.619 79.594 146.802 79.3607 146.196 78.894C145.598 78.418 145.3 77.7927 145.3 77.018C145.3 76.4487 145.5 75.9493 145.902 75.52C146.303 75.0813 146.793 74.75 147.372 74.526C146.177 74.0407 145.58 73.2707 145.58 72.216C145.58 71.516 145.855 70.942 146.406 70.494C146.956 70.046 147.689 69.822 148.604 69.822C149.518 69.822 150.251 70.0273 150.802 70.438C151.352 70.8487 151.628 71.418 151.628 72.146C151.628 73.042 151.002 73.8073 149.752 74.442C151.245 74.9367 151.992 75.7533 151.992 76.892C151.992 77.676 151.688 78.3247 151.082 78.838C150.475 79.342 149.663 79.594 148.646 79.594ZM148.618 78.6C149.224 78.6 149.719 78.4507 150.102 78.152C150.494 77.8533 150.69 77.4753 150.69 77.018C150.69 76.486 150.512 76.08 150.158 75.8C149.803 75.5107 149.201 75.2353 148.352 74.974C147.838 75.1513 147.404 75.408 147.05 75.744C146.704 76.08 146.532 76.4813 146.532 76.948C146.532 77.452 146.723 77.8533 147.106 78.152C147.488 78.4507 147.992 78.6 148.618 78.6ZM148.842 73.994C149.859 73.5553 150.368 72.958 150.368 72.202C150.368 71.7913 150.214 71.46 149.906 71.208C149.607 70.9467 149.182 70.816 148.632 70.816C148.09 70.816 147.661 70.9373 147.344 71.18C147.036 71.4227 146.882 71.7587 146.882 72.188C146.882 73.0653 147.535 73.6673 148.842 73.994ZM164.073 76.85C164.81 77.2793 165.179 77.8627 165.179 78.6C165.179 79.3373 164.815 79.916 164.087 80.336C163.359 80.7653 162.332 80.98 161.007 80.98C159.7 80.98 158.678 80.7653 157.941 80.336C157.213 79.916 156.849 79.3373 156.849 78.6C156.849 77.8627 157.213 77.2793 157.941 76.85C158.678 76.4207 159.7 76.206 161.007 76.206C162.323 76.206 163.345 76.4207 164.073 76.85ZM161.007 77.228C160.111 77.228 159.406 77.3493 158.893 77.592C158.389 77.8347 158.137 78.1707 158.137 78.6C158.137 79.0293 158.389 79.3653 158.893 79.608C159.406 79.8413 160.111 79.958 161.007 79.958C161.931 79.958 162.645 79.8413 163.149 79.608C163.662 79.3653 163.919 79.0293 163.919 78.6C163.919 78.1707 163.662 77.8347 163.149 77.592C162.645 77.3493 161.931 77.228 161.007 77.228ZM161.875 71.67V70.676H163.863V68.744H165.109V76.248H163.863V74.19H161.875V73.196H163.863V71.67H161.875ZM161.259 75.268H155.617V69.696H161.259V75.268ZM160.027 74.288V70.676H156.849V74.288H160.027ZM169.872 80.84C169.144 80.1213 168.552 79.2767 168.094 78.306C167.637 77.3353 167.408 76.276 167.408 75.128V74.89C167.408 72.6967 168.23 70.7973 169.872 69.192H170.922C170.25 69.9387 169.7 70.7973 169.27 71.768C168.85 72.7387 168.64 73.742 168.64 74.778V75.142C168.64 76.15 168.855 77.1673 169.284 78.194C169.714 79.2207 170.26 80.1027 170.922 80.84H169.872ZM174.469 78.054V75.408H171.767V74.372H174.469V71.67H175.561V74.372H178.109V75.408H175.561V78.054H174.469ZM179.606 79.412V78.684L181.762 76.444C182.546 75.6227 183.115 74.9413 183.47 74.4C183.834 73.8493 184.016 73.2753 184.016 72.678C184.016 72.062 183.862 71.6093 183.554 71.32C183.246 71.0213 182.765 70.872 182.112 70.872C181.468 70.872 180.772 71.1193 180.026 71.614L179.732 70.662C180.572 70.102 181.444 69.822 182.35 69.822C183.302 69.822 184.034 70.0647 184.548 70.55C185.061 71.0353 185.318 71.7027 185.318 72.552C185.318 73.308 185.108 74.0033 184.688 74.638C184.277 75.2633 183.614 76.038 182.7 76.962L181.3 78.376H185.5V79.412H179.606ZM186.384 80.84C187.066 80.0933 187.616 79.2347 188.036 78.264C188.466 77.2933 188.68 76.29 188.68 75.254V74.876C188.68 73.868 188.466 72.8553 188.036 71.838C187.607 70.8113 187.056 69.9293 186.384 69.192H187.448C188.186 69.9107 188.783 70.7553 189.24 71.726C189.698 72.6873 189.926 73.742 189.926 74.89V75.128C189.926 76.276 189.698 77.3353 189.24 78.306C188.783 79.2767 188.186 80.1213 187.448 80.84H186.384Z" fill="#2EA5E8"/>
<circle cx="5.5" cy="106" r="5.5" fill="#4459F5"/>
<path d="M22.938 107.492L22.308 108.5C21.748 108.323 21.1693 108.001 20.572 107.534C19.9747 107.058 19.5547 106.563 19.312 106.05C19.1253 106.601 18.738 107.147 18.15 107.688C17.562 108.22 16.9367 108.603 16.274 108.836L15.588 107.87C16.4373 107.599 17.156 107.137 17.744 106.484C18.3413 105.821 18.6493 105.093 18.668 104.3H15.994V103.306H22.658V104.3H19.942C19.9607 105.065 20.2687 105.742 20.866 106.33C21.4727 106.918 22.1633 107.305 22.938 107.492ZM25.85 112.658H17.59V109.018H18.836V111.65H25.85V112.658ZM25.57 109.732H24.324V100.744H25.57V109.732ZM21.02 102.214H17.618V101.22H21.02V102.214ZM37.2913 101.64C37.2913 103.749 37.1419 105.537 36.8433 107.002H38.6913V107.996H33.7773V112.98H32.5313V107.996H27.6453V107.002H35.6253C35.8959 105.91 36.0313 104.463 36.0313 102.662H28.9193V101.64H37.2913ZM48.3083 112.434C47.2256 112.695 45.961 112.826 44.5143 112.826V108.318H45.7043V111.79C46.6283 111.753 47.4356 111.636 48.1263 111.44L48.3083 112.434ZM52.4663 108.276H49.5963V107.31H52.4663V108.276ZM54.0203 109.69H47.9723V108.752H54.0203V109.69ZM52.6203 110.432C53.059 110.703 53.2783 111.081 53.2783 111.566C53.2783 112.051 53.0543 112.429 52.6063 112.7C52.1676 112.98 51.6263 113.12 50.9823 113.12C50.3383 113.12 49.797 112.98 49.3583 112.7C48.9196 112.429 48.7003 112.051 48.7003 111.566C48.7003 111.071 48.915 110.689 49.3443 110.418C49.783 110.147 50.329 110.012 50.9823 110.012C51.6356 110.012 52.1816 110.152 52.6203 110.432ZM51.7803 112.042C52.0043 111.93 52.1163 111.771 52.1163 111.566C52.1163 111.361 52.0043 111.202 51.7803 111.09C51.5656 110.978 51.2996 110.922 50.9823 110.922C50.665 110.922 50.3943 110.983 50.1703 111.104C49.9556 111.216 49.8483 111.37 49.8483 111.566C49.8483 111.771 49.9556 111.93 50.1703 112.042C50.3943 112.154 50.665 112.21 50.9823 112.21C51.2996 112.21 51.5656 112.154 51.7803 112.042ZM49.6383 106.638H43.8703V101.584H49.6383V106.638ZM48.4203 105.658V102.578H45.0883V105.658H48.4203ZM54.7063 104.426H52.8863V106.806H51.6403V100.744H52.8863V103.404H54.7063V104.426ZM66.5956 107.982H55.5496V106.974H66.5956V107.982ZM65.2796 112.616H56.9776V109.06H58.2096V111.622H65.2796V112.616ZM64.2156 101.766C64.9716 102.186 65.3496 102.774 65.3496 103.53C65.3496 104.286 64.9669 104.879 64.2016 105.308C63.4456 105.737 62.4002 105.952 61.0656 105.952C59.7309 105.952 58.6856 105.737 57.9296 105.308C57.1829 104.879 56.8096 104.286 56.8096 103.53C56.8096 102.774 57.1829 102.186 57.9296 101.766C58.6856 101.337 59.7309 101.122 61.0656 101.122C62.4096 101.122 63.4596 101.337 64.2156 101.766ZM61.0656 102.13C60.1696 102.13 59.4556 102.256 58.9236 102.508C58.4009 102.76 58.1396 103.101 58.1396 103.53C58.1396 103.959 58.4009 104.3 58.9236 104.552C59.4556 104.804 60.1696 104.93 61.0656 104.93C61.9709 104.93 62.6942 104.804 63.2356 104.552C63.7769 104.3 64.0476 103.959 64.0476 103.53C64.0476 103.101 63.7769 102.76 63.2356 102.508C62.6942 102.256 61.9709 102.13 61.0656 102.13ZM82.6106 105.322H80.7906V108.346H79.5446V100.744H80.7906V104.3H82.6106V105.322ZM76.5766 101.962H73.0206V100.954H76.5766V101.962ZM78.3126 103.74H71.2706V102.746H78.3126V103.74ZM77.6126 106.302C77.6126 106.899 77.3419 107.389 76.8006 107.772C76.2686 108.145 75.5966 108.332 74.7846 108.332C73.9633 108.332 73.2866 108.145 72.7546 107.772C72.2226 107.399 71.9566 106.909 71.9566 106.302C71.9566 105.686 72.2179 105.191 72.7406 104.818C73.2726 104.445 73.9539 104.258 74.7846 104.258C75.6059 104.258 76.2826 104.445 76.8146 104.818C77.3466 105.191 77.6126 105.686 77.6126 106.302ZM75.9046 107.086C76.2219 106.881 76.3806 106.619 76.3806 106.302C76.3806 105.985 76.2219 105.723 75.9046 105.518C75.5966 105.313 75.2233 105.21 74.7846 105.21C74.3366 105.21 73.9539 105.313 73.6366 105.518C73.3286 105.723 73.1746 105.985 73.1746 106.302C73.1746 106.619 73.3333 106.881 73.6506 107.086C73.9679 107.282 74.3459 107.38 74.7846 107.38C75.2233 107.38 75.5966 107.282 75.9046 107.086ZM72.8386 108.99H80.7906V112.994H79.5586V109.998H72.8386V108.99ZM92.7919 108.948C93.5385 109.359 93.9119 109.923 93.9119 110.642C93.9119 111.361 93.5385 111.925 92.7919 112.336C92.0452 112.756 91.0139 112.966 89.6979 112.966C88.3912 112.966 87.3645 112.756 86.6179 112.336C85.8805 111.925 85.5119 111.361 85.5119 110.642C85.5119 109.923 85.8805 109.359 86.6179 108.948C87.3645 108.528 88.3912 108.318 89.6979 108.318C91.0139 108.318 92.0452 108.528 92.7919 108.948ZM93.7859 108.402H92.5959V104.93H91.2239V107.772H90.0479V100.968H91.2239V103.922H92.5959V100.744H93.7859V108.402ZM89.6979 109.326C88.8205 109.326 88.1205 109.447 87.5979 109.69C87.0752 109.923 86.8139 110.241 86.8139 110.642C86.8139 111.043 87.0705 111.361 87.5839 111.594C88.1065 111.827 88.8112 111.944 89.6979 111.944C90.5939 111.944 91.3032 111.827 91.8259 111.594C92.3579 111.361 92.6239 111.043 92.6239 110.642C92.6239 110.241 92.3579 109.923 91.8259 109.69C91.3032 109.447 90.5939 109.326 89.6979 109.326ZM89.5719 106.428L88.9139 107.366C88.4752 107.151 88.0179 106.811 87.5419 106.344C87.0659 105.868 86.7392 105.42 86.5619 105C86.4125 105.485 86.0999 105.999 85.6239 106.54C85.1572 107.072 84.6532 107.487 84.1119 107.786L83.3699 106.89C84.0979 106.498 84.7092 105.952 85.2039 105.252C85.6985 104.543 85.9459 103.763 85.9459 102.914V101.444H87.1499V102.886C87.1499 103.717 87.3925 104.445 87.8779 105.07C88.3725 105.686 88.9372 106.139 89.5719 106.428Z" fill="#020712"/>
<path d="M112.511 111.58C111.419 111.58 110.532 111.347 109.851 110.88L110.089 109.9C110.369 110.077 110.709 110.231 111.111 110.362C111.512 110.493 111.89 110.558 112.245 110.558C112.973 110.558 113.542 110.371 113.953 109.998C114.363 109.615 114.569 109.097 114.569 108.444C114.569 107.156 113.813 106.512 112.301 106.512C111.675 106.512 111.022 106.666 110.341 106.974L110.677 101.99H115.479V103.012H111.657L111.475 105.756C111.96 105.625 112.399 105.56 112.791 105.56C113.761 105.56 114.513 105.803 115.045 106.288C115.577 106.773 115.843 107.501 115.843 108.472C115.843 109.349 115.539 110.087 114.933 110.684C114.326 111.281 113.519 111.58 112.511 111.58ZM127.824 108.85C128.561 109.279 128.93 109.863 128.93 110.6C128.93 111.337 128.566 111.916 127.838 112.336C127.11 112.765 126.083 112.98 124.758 112.98C123.451 112.98 122.429 112.765 121.692 112.336C120.964 111.916 120.6 111.337 120.6 110.6C120.6 109.863 120.964 109.279 121.692 108.85C122.429 108.421 123.451 108.206 124.758 108.206C126.074 108.206 127.096 108.421 127.824 108.85ZM124.758 109.228C123.862 109.228 123.157 109.349 122.644 109.592C122.14 109.835 121.888 110.171 121.888 110.6C121.888 111.029 122.14 111.365 122.644 111.608C123.157 111.841 123.862 111.958 124.758 111.958C125.682 111.958 126.396 111.841 126.9 111.608C127.413 111.365 127.67 111.029 127.67 110.6C127.67 110.171 127.413 109.835 126.9 109.592C126.396 109.349 125.682 109.228 124.758 109.228ZM125.626 103.67V102.676H127.614V100.744H128.86V108.248H127.614V106.19H125.626V105.196H127.614V103.67H125.626ZM125.01 107.268H119.368V101.696H125.01V107.268ZM123.778 106.288V102.676H120.6V106.288H123.778ZM132.235 106.75V105.966H139.515L138.521 104.3L138.717 104.076L141.461 106.358L138.717 108.626L138.521 108.402L139.515 106.75H132.235ZM146.166 111.58C145.102 111.58 144.286 111.216 143.716 110.488C143.156 109.751 142.876 108.71 142.876 107.366V106.638C142.876 105.014 143.208 103.81 143.87 103.026C144.542 102.233 145.452 101.836 146.6 101.836C147.039 101.836 147.459 101.897 147.86 102.018C148.271 102.13 148.588 102.256 148.812 102.396L148.504 103.306C148.318 103.194 148.047 103.096 147.692 103.012C147.338 102.919 147.016 102.872 146.726 102.872C145.896 102.872 145.266 103.138 144.836 103.67C144.416 104.193 144.178 105.131 144.122 106.484C144.776 105.831 145.541 105.504 146.418 105.504C147.24 105.504 147.916 105.765 148.448 106.288C148.98 106.811 149.246 107.506 149.246 108.374C149.246 109.307 148.971 110.077 148.42 110.684C147.87 111.281 147.118 111.58 146.166 111.58ZM146.138 110.586C146.726 110.586 147.188 110.404 147.524 110.04C147.86 109.667 148.028 109.153 148.028 108.5C148.028 107.175 147.403 106.512 146.152 106.512C145.751 106.512 145.364 106.629 144.99 106.862C144.626 107.086 144.337 107.347 144.122 107.646V107.744C144.122 109.639 144.794 110.586 146.138 110.586ZM161.279 108.85C162.016 109.279 162.385 109.863 162.385 110.6C162.385 111.337 162.021 111.916 161.293 112.336C160.565 112.765 159.538 112.98 158.213 112.98C156.906 112.98 155.884 112.765 155.147 112.336C154.419 111.916 154.055 111.337 154.055 110.6C154.055 109.863 154.419 109.279 155.147 108.85C155.884 108.421 156.906 108.206 158.213 108.206C159.529 108.206 160.551 108.421 161.279 108.85ZM158.213 109.228C157.317 109.228 156.612 109.349 156.099 109.592C155.595 109.835 155.343 110.171 155.343 110.6C155.343 111.029 155.595 111.365 156.099 111.608C156.612 111.841 157.317 111.958 158.213 111.958C159.137 111.958 159.851 111.841 160.355 111.608C160.868 111.365 161.125 111.029 161.125 110.6C161.125 110.171 160.868 109.835 160.355 109.592C159.851 109.349 159.137 109.228 158.213 109.228ZM159.081 103.67V102.676H161.069V100.744H162.315V108.248H161.069V106.19H159.081V105.196H161.069V103.67H159.081ZM158.465 107.268H152.823V101.696H158.465V107.268ZM157.233 106.288V102.676H154.055V106.288H157.233ZM167.078 112.84C166.35 112.121 165.758 111.277 165.3 110.306C164.843 109.335 164.614 108.276 164.614 107.128V106.89C164.614 104.697 165.436 102.797 167.078 101.192H168.128C167.456 101.939 166.906 102.797 166.476 103.768C166.056 104.739 165.846 105.742 165.846 106.778V107.142C165.846 108.15 166.061 109.167 166.49 110.194C166.92 111.221 167.466 112.103 168.128 112.84H167.078ZM171.675 110.054V107.408H168.973V106.372H171.675V103.67H172.767V106.372H175.315V107.408H172.767V110.054H171.675ZM178.338 111.468V103.236L176.63 103.614V102.9L178.898 101.85H179.57V111.468H178.338ZM181.266 112.84C181.948 112.093 182.498 111.235 182.918 110.264C183.348 109.293 183.562 108.29 183.562 107.254V106.876C183.562 105.868 183.348 104.855 182.918 103.838C182.489 102.811 181.938 101.929 181.266 101.192H182.33C183.068 101.911 183.665 102.755 184.122 103.726C184.58 104.687 184.808 105.742 184.808 106.89V107.128C184.808 108.276 184.58 109.335 184.122 110.306C183.665 111.277 183.068 112.121 182.33 112.84H181.266Z" fill="#4459F5"/>
<circle cx="6.5" cy="137.5" r="5.5" fill="#2CA02C"/>
<path d="M27.886 138.638H25.982V144.98H24.75V132.744H25.982V137.616H27.886V138.638ZM23.742 141.074L23 141.998C22.4027 141.606 21.81 141.065 21.222 140.374C20.634 139.683 20.2327 139.007 20.018 138.344C19.8127 139.081 19.43 139.809 18.87 140.528C18.3193 141.247 17.694 141.839 16.994 142.306L16.224 141.382C17.1667 140.794 17.9273 140.001 18.506 139.002C19.0847 138.003 19.374 136.949 19.374 135.838V133.794H20.648V135.782C20.648 136.883 20.9373 137.901 21.516 138.834C22.0947 139.767 22.8367 140.514 23.742 141.074ZM39.6913 143.202H28.6453V142.18H31.3053V138.134H32.5513V142.18H34.3433V138.134H35.5753V142.18H39.6913V143.202ZM38.4033 134.088C38.4033 137.084 38.2259 139.315 37.8713 140.78L36.6673 140.584C37.0033 139.231 37.1619 137.401 37.1433 135.096H29.7793V134.088H38.4033ZM51.4686 138.946L50.7966 139.926C49.8352 139.655 48.9112 139.179 48.0246 138.498C47.1472 137.817 46.5639 137.135 46.2746 136.454C46.0319 137.145 45.4672 137.831 44.5806 138.512C43.6939 139.184 42.7512 139.651 41.7526 139.912L41.1226 138.904C41.8132 138.783 42.4992 138.526 43.1806 138.134C43.8619 137.742 44.4406 137.238 44.9166 136.622C45.4019 136.006 45.6446 135.371 45.6446 134.718V133.766H46.9186V134.718C46.9186 135.362 47.1706 135.997 47.6746 136.622C48.1786 137.247 48.7712 137.761 49.4526 138.162C50.1432 138.554 50.8152 138.815 51.4686 138.946ZM51.8046 143.328H40.7586V142.32H51.8046V143.328ZM54.5518 141.074C57.1372 141.074 58.9945 140.939 60.1238 140.668L60.2358 141.676C58.9572 141.937 57.0345 142.082 54.4678 142.11H53.3198V133.878H59.1718V134.872H54.5518V137.336H58.8638V138.344H54.5518V141.074ZM62.3218 132.744V137.518H64.2258V138.554H62.3218V144.98H61.0898V132.744H62.3218Z" fill="#020712"/>
<path d="M113.671 143.552C112.597 143.552 111.734 143.328 111.081 142.88L111.333 141.928C111.594 142.105 111.93 142.255 112.341 142.376C112.761 142.488 113.148 142.544 113.503 142.544C114.249 142.544 114.823 142.385 115.225 142.068C115.635 141.751 115.841 141.303 115.841 140.724C115.841 140.155 115.64 139.73 115.239 139.45C114.837 139.161 114.282 139.016 113.573 139.016H112.663V137.994H113.489C114.095 137.985 114.581 137.84 114.945 137.56C115.309 137.271 115.491 136.879 115.491 136.384C115.491 135.376 114.875 134.872 113.643 134.872C113.036 134.872 112.35 135.087 111.585 135.516L111.403 134.536C111.701 134.349 112.089 134.186 112.565 134.046C113.05 133.906 113.498 133.836 113.909 133.836C114.777 133.836 115.467 134.046 115.981 134.466C116.503 134.877 116.765 135.451 116.765 136.188C116.765 137.252 116.172 137.985 114.987 138.386C116.396 138.647 117.101 139.436 117.101 140.752C117.101 141.592 116.788 142.269 116.163 142.782C115.547 143.295 114.716 143.552 113.671 143.552ZM129.266 140.85C130.004 141.279 130.372 141.863 130.372 142.6C130.372 143.337 130.008 143.916 129.28 144.336C128.552 144.765 127.526 144.98 126.2 144.98C124.894 144.98 123.872 144.765 123.134 144.336C122.406 143.916 122.042 143.337 122.042 142.6C122.042 141.863 122.406 141.279 123.134 140.85C123.872 140.421 124.894 140.206 126.2 140.206C127.516 140.206 128.538 140.421 129.266 140.85ZM126.2 141.228C125.304 141.228 124.6 141.349 124.086 141.592C123.582 141.835 123.33 142.171 123.33 142.6C123.33 143.029 123.582 143.365 124.086 143.608C124.6 143.841 125.304 143.958 126.2 143.958C127.124 143.958 127.838 143.841 128.342 143.608C128.856 143.365 129.112 143.029 129.112 142.6C129.112 142.171 128.856 141.835 128.342 141.592C127.838 141.349 127.124 141.228 126.2 141.228ZM127.068 135.67V134.676H129.056V132.744H130.302V140.248H129.056V138.19H127.068V137.196H129.056V135.67H127.068ZM126.452 139.268H120.81V133.696H126.452V139.268ZM125.22 138.288V134.676H122.042V138.288H125.22ZM133.678 138.75V137.966H140.958L139.964 136.3L140.16 136.076L142.904 138.358L140.16 140.626L139.964 140.402L140.958 138.75H133.678ZM148.657 143.552C147.584 143.552 146.72 143.328 146.067 142.88L146.319 141.928C146.58 142.105 146.916 142.255 147.327 142.376C147.747 142.488 148.134 142.544 148.489 142.544C149.236 142.544 149.81 142.385 150.211 142.068C150.622 141.751 150.827 141.303 150.827 140.724C150.827 140.155 150.626 139.73 150.225 139.45C149.824 139.161 149.268 139.016 148.559 139.016H147.649V137.994H148.475C149.082 137.985 149.567 137.84 149.931 137.56C150.295 137.271 150.477 136.879 150.477 136.384C150.477 135.376 149.861 134.872 148.629 134.872C148.022 134.872 147.336 135.087 146.571 135.516L146.389 134.536C146.688 134.349 147.075 134.186 147.551 134.046C148.036 133.906 148.484 133.836 148.895 133.836C149.763 133.836 150.454 134.046 150.967 134.466C151.49 134.877 151.751 135.451 151.751 136.188C151.751 137.252 151.158 137.985 149.973 138.386C151.382 138.647 152.087 139.436 152.087 140.752C152.087 141.592 151.774 142.269 151.149 142.782C150.533 143.295 149.702 143.552 148.657 143.552ZM164.253 140.85C164.99 141.279 165.359 141.863 165.359 142.6C165.359 143.337 164.995 143.916 164.267 144.336C163.539 144.765 162.512 144.98 161.187 144.98C159.88 144.98 158.858 144.765 158.121 144.336C157.393 143.916 157.029 143.337 157.029 142.6C157.029 141.863 157.393 141.279 158.121 140.85C158.858 140.421 159.88 140.206 161.187 140.206C162.503 140.206 163.525 140.421 164.253 140.85ZM161.187 141.228C160.291 141.228 159.586 141.349 159.073 141.592C158.569 141.835 158.317 142.171 158.317 142.6C158.317 143.029 158.569 143.365 159.073 143.608C159.586 143.841 160.291 143.958 161.187 143.958C162.111 143.958 162.825 143.841 163.329 143.608C163.842 143.365 164.099 143.029 164.099 142.6C164.099 142.171 163.842 141.835 163.329 141.592C162.825 141.349 162.111 141.228 161.187 141.228ZM162.055 135.67V134.676H164.043V132.744H165.289V140.248H164.043V138.19H162.055V137.196H164.043V135.67H162.055ZM161.439 139.268H155.797V133.696H161.439V139.268ZM160.207 138.288V134.676H157.029V138.288H160.207ZM170.052 144.84C169.324 144.121 168.731 143.277 168.274 142.306C167.817 141.335 167.588 140.276 167.588 139.128V138.89C167.588 136.697 168.409 134.797 170.052 133.192H171.102C170.43 133.939 169.879 134.797 169.45 135.768C169.03 136.739 168.82 137.742 168.82 138.778V139.142C168.82 140.15 169.035 141.167 169.464 142.194C169.893 143.221 170.439 144.103 171.102 144.84H170.052ZM175.727 143.58C174.672 143.58 173.823 143.211 173.179 142.474C172.544 141.727 172.227 140.589 172.227 139.058V138.316C172.227 136.757 172.554 135.623 173.207 134.914C173.86 134.195 174.705 133.836 175.741 133.836C176.758 133.836 177.58 134.191 178.205 134.9C178.84 135.6 179.157 136.72 179.157 138.26V139.072C179.157 140.603 178.84 141.737 178.205 142.474C177.58 143.211 176.754 143.58 175.727 143.58ZM175.727 142.572C176.446 142.572 176.982 142.306 177.337 141.774C177.701 141.242 177.883 140.393 177.883 139.226V138.26C177.883 135.983 177.169 134.844 175.741 134.844C174.276 134.844 173.543 135.95 173.543 138.162V139.156C173.543 141.433 174.271 142.572 175.727 142.572ZM180.302 144.84C180.984 144.093 181.534 143.235 181.954 142.264C182.384 141.293 182.598 140.29 182.598 139.254V138.876C182.598 137.868 182.384 136.855 181.954 135.838C181.525 134.811 180.974 133.929 180.302 133.192H181.366C182.104 133.911 182.701 134.755 183.158 135.726C183.616 136.687 183.844 137.742 183.844 138.89V139.128C183.844 140.276 183.616 141.335 183.158 142.306C182.701 143.277 182.104 144.121 181.366 144.84H180.302Z" fill="#2CA02C"/>
</svg>
