<svg width="173" height="264" viewBox="0 0 173 264" fill="none" xmlns="http://www.w3.org/2000/svg">
<mask id="mask0_73_6469" style="mask-type:alpha" maskUnits="userSpaceOnUse" x="0" y="16" width="115" height="116">
<circle cx="57.5" cy="74.1614" r="57.5" fill="#D9D9D9"/>
</mask>
<g mask="url(#mask0_73_6469)">
<circle cx="57.5" cy="74.1614" r="57.5" fill="#99A1AE"/>
<path d="M60.4285 74.3678V1.93921L106.714 7.51064L60.4285 74.3678Z" fill="#EF4444"/>
<path d="M59.5715 73.9393L114.429 -2.34644L142.286 28.0821L59.5715 73.9393Z" fill="#FBBF24"/>
<path d="M27.3411 78.632V82.132H29.1051V83.49H27.3411V87.676H25.6891V78.632H27.3411ZM27.6351 90.742H19.2491V86.752H20.8871V89.44H27.6351V90.742ZM18.6891 84.89C18.0918 84.3207 17.7931 83.588 17.7931 82.692C17.7931 81.796 18.0964 81.0633 18.7031 80.494C19.3098 79.9247 20.1031 79.64 21.0831 79.64C22.0724 79.64 22.8658 79.9247 23.4631 80.494C24.0698 81.0633 24.3731 81.796 24.3731 82.692C24.3731 83.588 24.0698 84.3207 23.4631 84.89C22.8658 85.4593 22.0724 85.744 21.0831 85.744C20.0938 85.744 19.2958 85.4593 18.6891 84.89ZM19.4591 82.692C19.4591 83.1867 19.6038 83.5927 19.8931 83.91C20.1918 84.2273 20.5884 84.386 21.0831 84.386C21.5778 84.386 21.9744 84.2273 22.2731 83.91C22.5718 83.5927 22.7211 83.1867 22.7211 82.692C22.7211 82.2067 22.5718 81.81 22.2731 81.502C21.9744 81.1847 21.5778 81.026 21.0831 81.026C20.5978 81.026 20.2058 81.1847 19.9071 81.502C19.6084 81.81 19.4591 82.2067 19.4591 82.692ZM30.1304 80.97V79.626H36.7104V80.97H34.3164C34.3257 81.8753 34.5964 82.6687 35.1284 83.35C35.6697 84.022 36.323 84.4793 37.0884 84.722L36.1924 86.01C35.6977 85.8233 35.1844 85.492 34.6524 85.016C34.1297 84.54 33.7424 84.0267 33.4904 83.476C33.3037 84.0733 32.9257 84.652 32.3564 85.212C31.7964 85.7627 31.2084 86.1453 30.5924 86.36L29.6264 85.072C30.541 84.736 31.269 84.2087 31.8104 83.49C32.361 82.7713 32.6364 81.9453 32.6364 81.012V80.97H30.1304ZM40.0144 87.676H38.3764V83.266H36.5004V81.95H38.3764V78.632H40.0144V87.676ZM40.2804 90.77H31.6704V86.836H33.3224V89.482H40.2804V90.77ZM51.6376 79.192C51.6376 81.264 51.507 82.818 51.2456 83.854H53.0796V85.156H48.2496V88.222H46.6116V85.156H41.8096V83.854H49.6636C49.9063 82.902 50.0183 81.7867 49.9996 80.508H43.2656V79.192H51.6376ZM51.7916 90.77H43.2516V86.808H44.8756V89.482H51.7916V90.77ZM57.9087 89.426V88.418L59.7427 86.486C60.5547 85.6273 61.1567 84.918 61.5487 84.358C61.9407 83.7887 62.1367 83.2333 62.1367 82.692C62.1367 82.1227 61.9827 81.712 61.6747 81.46C61.376 81.208 60.914 81.082 60.2887 81.082C59.6727 81.082 59.01 81.2967 58.3007 81.726L58.0207 80.452C58.8513 79.9667 59.7613 79.724 60.7507 79.724C61.7867 79.724 62.5753 79.962 63.1167 80.438C63.658 80.914 63.9287 81.5907 63.9287 82.468C63.9287 82.8693 63.854 83.2753 63.7047 83.686C63.5647 84.0873 63.3407 84.498 63.0327 84.918C62.7247 85.3287 62.454 85.6647 62.2207 85.926C61.9967 86.178 61.6887 86.5093 61.2967 86.92L60.1627 88.082H64.0127V89.426H57.9087ZM69.1529 89.594C68.0329 89.594 67.1322 89.216 66.4509 88.46C65.7695 87.6947 65.4289 86.5373 65.4289 84.988V84.386C65.4289 83.5553 65.5269 82.832 65.7229 82.216C65.9282 81.6 66.2082 81.1147 66.5629 80.76C66.9175 80.4053 67.3095 80.144 67.7389 79.976C68.1775 79.808 68.6535 79.724 69.1669 79.724C70.2589 79.724 71.1455 80.0973 71.8269 80.844C72.5175 81.5907 72.8629 82.7573 72.8629 84.344V84.946C72.8629 86.5327 72.5175 87.704 71.8269 88.46C71.1362 89.216 70.2449 89.594 69.1529 89.594ZM69.1529 88.278C69.8062 88.278 70.2915 88.026 70.6089 87.522C70.9262 87.0087 71.0849 86.1873 71.0849 85.058V84.344C71.0849 82.1507 70.4455 81.054 69.1669 81.054C68.5042 81.054 68.0142 81.3107 67.6969 81.824C67.3795 82.328 67.2209 83.1353 67.2209 84.246V84.988C67.2209 87.1813 67.8649 88.278 69.1529 88.278ZM82.8236 81.74H81.1156V80.452H82.8236V78.632H84.4476V85.898H82.8236V84.316H81.1016V83.028H82.8236V81.74ZM80.4156 85.156H74.6476V79.528H80.4156V85.156ZM78.8056 83.896V80.788H76.2576V83.896H78.8056ZM84.5456 88.586C84.5456 89.3607 84.1676 89.972 83.4116 90.42C82.6556 90.8773 81.601 91.106 80.2476 91.106C78.9223 91.106 77.8816 90.8773 77.1256 90.42C76.379 89.972 76.0056 89.3607 76.0056 88.586C76.0056 87.802 76.379 87.186 77.1256 86.738C77.8723 86.2807 78.913 86.052 80.2476 86.052C81.601 86.052 82.6556 86.276 83.4116 86.724C84.1676 87.172 84.5456 87.7927 84.5456 88.586ZM80.2476 87.354C79.4543 87.354 78.8243 87.466 78.3576 87.69C77.9003 87.9047 77.6716 88.2033 77.6716 88.586C77.6716 88.9593 77.9003 89.2533 78.3576 89.468C78.8243 89.6827 79.4543 89.79 80.2476 89.79C81.069 89.79 81.7083 89.6827 82.1656 89.468C82.623 89.2533 82.8516 88.9593 82.8516 88.586C82.8516 88.2033 82.623 87.9047 82.1656 87.69C81.7083 87.466 81.069 87.354 80.2476 87.354Z" fill="white"/>
</g>
<path d="M120.888 31.5336C120.888 32.2802 120.58 32.9009 119.964 33.3956C119.358 33.8809 118.578 34.1236 117.626 34.1236C116.665 34.1236 115.886 33.8809 115.288 33.3956C114.691 32.9102 114.392 32.2896 114.392 31.5336C114.392 30.7589 114.691 30.1242 115.288 29.6296C115.886 29.1256 116.665 28.8736 117.626 28.8736C118.597 28.8736 119.381 29.1256 119.978 29.6296C120.585 30.1242 120.888 30.7589 120.888 31.5336ZM123.996 28.2856V40.7596H122.372V28.2856H123.996ZM118.494 40.3956H116.828V36.2656C115.643 36.3216 114.616 36.3496 113.748 36.3496L113.51 35.0056C116.534 35.0056 119.269 34.8796 121.714 34.6276L121.854 35.8876C121.024 35.9996 119.904 36.0976 118.494 36.1816V40.3956ZM119.25 31.5196C119.25 31.1369 119.096 30.8242 118.788 30.5816C118.49 30.3296 118.102 30.2036 117.626 30.2036C117.169 30.2036 116.786 30.3296 116.478 30.5816C116.18 30.8242 116.03 31.1369 116.03 31.5196C116.03 31.8929 116.18 32.1962 116.478 32.4296C116.777 32.6629 117.16 32.7796 117.626 32.7796C118.112 32.7796 118.504 32.6629 118.802 32.4296C119.101 32.1962 119.25 31.8929 119.25 31.5196ZM136.04 40.7596H134.402V28.2856H136.04V40.7596ZM132.204 29.5876C132.101 33.5636 130.244 36.5362 126.632 38.5056L125.624 37.2736C126.968 36.6576 128.078 35.7662 128.956 34.5996C129.833 33.4236 130.328 32.2056 130.44 30.9456H126.38V29.5876H132.204ZM147.663 28.8456C147.663 30.9176 147.532 32.4716 147.271 33.5076H149.105V34.8096H144.275V37.8756H142.637V34.8096H137.835V33.5076H145.689C145.932 32.5556 146.044 31.4402 146.025 30.1616H139.291V28.8456H147.663ZM147.817 40.4236H139.277V36.4616H140.901V39.1356H147.817V40.4236ZM153.934 39.0796V38.0716L155.768 36.1396C156.58 35.2809 157.182 34.5716 157.574 34.0116C157.966 33.4422 158.162 32.8869 158.162 32.3456C158.162 31.7762 158.008 31.3656 157.7 31.1136C157.401 30.8616 156.939 30.7356 156.314 30.7356C155.698 30.7356 155.035 30.9502 154.326 31.3796L154.046 30.1056C154.877 29.6202 155.787 29.3776 156.776 29.3776C157.812 29.3776 158.601 29.6156 159.142 30.0916C159.683 30.5676 159.954 31.2442 159.954 32.1216C159.954 32.5229 159.879 32.9289 159.73 33.3396C159.59 33.7409 159.366 34.1516 159.058 34.5716C158.75 34.9822 158.479 35.3182 158.246 35.5796C158.022 35.8316 157.714 36.1629 157.322 36.5736L156.188 37.7356H160.038V39.0796H153.934ZM169.798 31.3936H168.09V30.1056H169.798V28.2856H171.422V35.5516H169.798V33.9696H168.076V32.6816H169.798V31.3936ZM167.39 34.8096H161.622V29.1816H167.39V34.8096ZM165.78 33.5496V30.4416H163.232V33.5496H165.78ZM171.52 38.2396C171.52 39.0142 171.142 39.6256 170.386 40.0736C169.63 40.5309 168.576 40.7596 167.222 40.7596C165.897 40.7596 164.856 40.5309 164.1 40.0736C163.354 39.6256 162.98 39.0142 162.98 38.2396C162.98 37.4556 163.354 36.8396 164.1 36.3916C164.847 35.9342 165.888 35.7056 167.222 35.7056C168.576 35.7056 169.63 35.9296 170.386 36.3776C171.142 36.8256 171.52 37.4462 171.52 38.2396ZM167.222 37.0076C166.429 37.0076 165.799 37.1196 165.332 37.3436C164.875 37.5582 164.646 37.8569 164.646 38.2396C164.646 38.6129 164.875 38.9069 165.332 39.1216C165.799 39.3362 166.429 39.4436 167.222 39.4436C168.044 39.4436 168.683 39.3362 169.14 39.1216C169.598 38.9069 169.826 38.6129 169.826 38.2396C169.826 37.8569 169.598 37.5582 169.14 37.3436C168.683 37.1196 168.044 37.0076 167.222 37.0076Z" fill="#101727"/>
<path d="M90.815 15.6944H79.545V14.3924H83.591V10.1924H85.229V14.3924H90.815V15.6944ZM89.527 6.06238C89.583 9.20771 89.4057 11.5644 88.995 13.1324L87.427 12.9364C87.7817 11.6204 87.931 9.76771 87.875 7.37838H80.749V6.06238H89.527ZM98.9383 8.21838C98.9383 8.96505 98.6303 9.58571 98.0143 10.0804C97.4076 10.5657 96.6283 10.8084 95.6763 10.8084C94.7149 10.8084 93.9356 10.5657 93.3383 10.0804C92.7409 9.59505 92.4423 8.97438 92.4423 8.21838C92.4423 7.44371 92.7409 6.80905 93.3383 6.31438C93.9356 5.81038 94.7149 5.55838 95.6763 5.55838C96.6469 5.55838 97.4309 5.81038 98.0283 6.31438C98.6349 6.80905 98.9383 7.44371 98.9383 8.21838ZM102.046 4.97038V17.4444H100.422V4.97038H102.046ZM96.5443 17.0804H94.8783V12.9504C93.6929 13.0064 92.6663 13.0344 91.7983 13.0344L91.5603 11.6904C94.5843 11.6904 97.3189 11.5644 99.7643 11.3124L99.9043 12.5724C99.0736 12.6844 97.9536 12.7824 96.5443 12.8664V17.0804ZM97.3003 8.20438C97.3003 7.82171 97.1463 7.50905 96.8383 7.26638C96.5396 7.01438 96.1523 6.88838 95.6763 6.88838C95.2189 6.88838 94.8363 7.01438 94.5283 7.26638C94.2296 7.50905 94.0803 7.82171 94.0803 8.20438C94.0803 8.57771 94.2296 8.88105 94.5283 9.11438C94.8269 9.34771 95.2096 9.46438 95.6763 9.46438C96.1616 9.46438 96.5536 9.34771 96.8523 9.11438C97.1509 8.88105 97.3003 8.57771 97.3003 8.20438ZM114.09 17.4444H112.452V4.97038H114.09V17.4444ZM110.254 6.27238C110.151 10.2484 108.294 13.221 104.682 15.1904L103.674 13.9584C105.018 13.3424 106.128 12.451 107.006 11.2844C107.883 10.1084 108.378 8.89038 108.49 7.63038H104.43V6.27238H110.254ZM125.713 5.53038C125.713 7.60238 125.582 9.15638 125.321 10.1924H127.155V11.4944H122.325V14.5604H120.687V11.4944H115.885V10.1924H123.739C123.982 9.24038 124.094 8.12505 124.075 6.84638H117.341V5.53038H125.713ZM125.867 17.1084H117.327V13.1464H118.951V15.8204H125.867V17.1084ZM134.56 15.9044C134.009 15.9044 133.473 15.839 132.95 15.7084C132.437 15.5777 132.035 15.419 131.746 15.2324L132.026 13.9864C132.269 14.1357 132.609 14.2664 133.048 14.3784C133.496 14.481 133.902 14.5324 134.266 14.5324C134.919 14.5324 135.423 14.397 135.778 14.1264C136.133 13.8557 136.31 13.4544 136.31 12.9224C136.31 11.9704 135.647 11.485 134.322 11.4664L133.328 11.4384V10.1924L134.21 10.1784C134.77 10.1597 135.218 10.029 135.554 9.78638C135.89 9.53438 136.058 9.18904 136.058 8.75038C136.058 7.87304 135.489 7.43438 134.35 7.43438C133.715 7.43438 133.034 7.60238 132.306 7.93838L132.11 6.66438C132.409 6.49638 132.815 6.35638 133.328 6.24438C133.841 6.12305 134.331 6.06238 134.798 6.06238C135.703 6.06238 136.427 6.27238 136.968 6.69238C137.509 7.10305 137.78 7.68638 137.78 8.44238C137.78 9.53438 137.206 10.281 136.058 10.6824C137.421 10.953 138.102 11.737 138.102 13.0344C138.102 13.921 137.785 14.621 137.15 15.1344C136.515 15.6477 135.652 15.9044 134.56 15.9044ZM147.862 8.07838H146.154V6.79038H147.862V4.97038H149.486V12.2364H147.862V10.6544H146.14V9.36638H147.862V8.07838ZM145.454 11.4944H139.686V5.86638H145.454V11.4944ZM143.844 10.2344V7.12638H141.296V10.2344H143.844ZM149.584 14.9244C149.584 15.699 149.206 16.3104 148.45 16.7584C147.694 17.2157 146.639 17.4444 145.286 17.4444C143.96 17.4444 142.92 17.2157 142.164 16.7584C141.417 16.3104 141.044 15.699 141.044 14.9244C141.044 14.1404 141.417 13.5244 142.164 13.0764C142.91 12.619 143.951 12.3904 145.286 12.3904C146.639 12.3904 147.694 12.6144 148.45 13.0624C149.206 13.5104 149.584 14.131 149.584 14.9244ZM145.286 13.6924C144.492 13.6924 143.862 13.8044 143.396 14.0284C142.938 14.243 142.71 14.5417 142.71 14.9244C142.71 15.2977 142.938 15.5917 143.396 15.8064C143.862 16.021 144.492 16.1284 145.286 16.1284C146.107 16.1284 146.746 16.021 147.204 15.8064C147.661 15.5917 147.89 15.2977 147.89 14.9244C147.89 14.5417 147.661 14.243 147.204 14.0284C146.746 13.8044 146.107 13.6924 145.286 13.6924Z" fill="#101727"/>
<path d="M77.5 9.65356H70V47.1536" stroke="#101727"/>
<circle cx="70" cy="46.6536" r="2" fill="#101727"/>
<path d="M110 35.6536H94V51.6536" stroke="#101727"/>
<circle cx="94" cy="50.6536" r="2" fill="#101727"/>
<rect width="86.5" height="32" transform="translate(0 135.661)" fill="#014A70"/>
<path d="M30.7134 157.017H19.4434V155.715H23.4894V151.515H25.1274V155.715H30.7134V157.017ZM29.4254 147.385C29.4814 150.531 29.3041 152.887 28.8934 154.455L27.3254 154.259C27.6801 152.943 27.8294 151.091 27.7734 148.701H20.6474V147.385H29.4254ZM38.8367 149.541C38.8367 150.288 38.5287 150.909 37.9127 151.403C37.3061 151.889 36.5267 152.131 35.5747 152.131C34.6134 152.131 33.8341 151.889 33.2367 151.403C32.6394 150.918 32.3407 150.297 32.3407 149.541C32.3407 148.767 32.6394 148.132 33.2367 147.637C33.8341 147.133 34.6134 146.881 35.5747 146.881C36.5454 146.881 37.3294 147.133 37.9267 147.637C38.5334 148.132 38.8367 148.767 38.8367 149.541ZM41.9447 146.293V158.767H40.3207V146.293H41.9447ZM36.4427 158.403H34.7767V154.273C33.5914 154.329 32.5647 154.357 31.6967 154.357L31.4587 153.013C34.4827 153.013 37.2174 152.887 39.6627 152.635L39.8027 153.895C38.9721 154.007 37.8521 154.105 36.4427 154.189V158.403ZM37.1987 149.527C37.1987 149.145 37.0447 148.832 36.7367 148.589C36.4381 148.337 36.0507 148.211 35.5747 148.211C35.1174 148.211 34.7347 148.337 34.4267 148.589C34.1281 148.832 33.9787 149.145 33.9787 149.527C33.9787 149.901 34.1281 150.204 34.4267 150.437C34.7254 150.671 35.1081 150.787 35.5747 150.787C36.0601 150.787 36.4521 150.671 36.7507 150.437C37.0494 150.204 37.1987 149.901 37.1987 149.527ZM53.988 158.767H52.35V146.293H53.988V158.767ZM50.152 147.595C50.0493 151.571 48.192 154.544 44.58 156.513L43.572 155.281C44.916 154.665 46.0267 153.774 46.904 152.607C47.7813 151.431 48.276 150.213 48.388 148.953H44.328V147.595H50.152ZM65.6113 146.853C65.6113 148.925 65.4806 150.479 65.2193 151.515H67.0533V152.817H62.2233V155.883H60.5853V152.817H55.7833V151.515H63.6373C63.8799 150.563 63.9919 149.448 63.9733 148.169H57.2393V146.853H65.6113ZM65.7653 158.431H57.2253V154.469H58.8493V157.143H65.7653V158.431Z" fill="white"/>
<rect width="86.5" height="32" transform="translate(86.5 135.661)" fill="#0068A8"/>
<path d="M116.891 151.823L116.121 153.111C115.207 152.897 114.301 152.481 113.405 151.865C112.519 151.249 111.907 150.554 111.571 149.779C111.366 150.311 111.007 150.815 110.493 151.291C109.98 151.767 109.42 152.159 108.813 152.467C108.216 152.766 107.623 152.981 107.035 153.111L106.293 151.781C106.993 151.679 107.675 151.455 108.337 151.109C109 150.755 109.565 150.274 110.031 149.667C110.498 149.051 110.731 148.393 110.731 147.693V146.937H112.439V147.693C112.439 148.216 112.579 148.725 112.859 149.219C113.149 149.705 113.513 150.125 113.951 150.479C114.399 150.825 114.88 151.119 115.393 151.361C115.907 151.595 116.406 151.749 116.891 151.823ZM117.213 157.213H105.943V155.925H110.717V152.957H112.369V155.925H117.213V157.213ZM126.205 155.939C123.862 156.229 121.263 156.373 118.407 156.373C118.304 155.841 118.225 155.403 118.169 155.057C119.569 155.057 120.605 155.048 121.277 155.029V153.041C120.511 152.901 119.895 152.579 119.429 152.075C118.962 151.571 118.729 150.946 118.729 150.199C118.729 149.331 119.046 148.608 119.681 148.029C120.315 147.451 121.113 147.161 122.075 147.161C123.036 147.161 123.839 147.451 124.483 148.029C125.136 148.608 125.463 149.331 125.463 150.199C125.463 150.927 125.229 151.543 124.763 152.047C124.296 152.551 123.685 152.878 122.929 153.027V154.959C124.254 154.875 125.309 154.782 126.093 154.679L126.205 155.939ZM128.417 146.293V158.767H126.765V146.293H128.417ZM123.839 150.199C123.839 149.695 123.666 149.294 123.321 148.995C122.985 148.687 122.569 148.533 122.075 148.533C121.589 148.533 121.179 148.687 120.843 148.995C120.507 149.303 120.339 149.705 120.339 150.199C120.339 150.666 120.507 151.044 120.843 151.333C121.179 151.613 121.589 151.753 122.075 151.753C122.56 151.753 122.975 151.613 123.321 151.333C123.666 151.044 123.839 150.666 123.839 150.199ZM136.596 158.781H134.944V154.343H130.17V153.055H141.44V154.343H136.596V158.781ZM140.978 150.689L140.264 152.019C139.321 151.879 138.416 151.539 137.548 150.997C136.689 150.456 136.111 149.849 135.812 149.177C135.541 149.849 134.977 150.456 134.118 150.997C133.269 151.529 132.359 151.875 131.388 152.033L130.688 150.689C131.827 150.568 132.821 150.181 133.67 149.527C134.519 148.874 134.944 148.099 134.944 147.203V146.559H136.68V147.203C136.68 147.801 136.899 148.361 137.338 148.883C137.786 149.406 138.332 149.821 138.976 150.129C139.629 150.437 140.297 150.624 140.978 150.689ZM152.993 150.465L152.293 151.753C151.407 151.66 150.543 151.394 149.703 150.955C148.873 150.507 148.28 149.989 147.925 149.401C147.617 150.027 147.062 150.554 146.259 150.983C145.457 151.413 144.556 151.669 143.557 151.753L142.871 150.493C143.926 150.437 144.841 150.195 145.615 149.765C146.39 149.327 146.857 148.771 147.015 148.099H143.445V146.783H152.433V148.099H148.863C148.985 148.538 149.269 148.939 149.717 149.303C150.165 149.667 150.679 149.947 151.257 150.143C151.836 150.33 152.415 150.437 152.993 150.465ZM148.849 156.023H147.225V153.783H142.283V152.467H153.553V153.783H148.849V156.023ZM152.265 158.431H143.641V154.791H145.265V157.143H152.265V158.431Z" fill="white"/>
<mask id="path-14-inside-1_73_6469" fill="white">
<path d="M0 167.661H86.5V199.661H0V167.661Z"/>
</mask>
<path d="M0 167.661H86.5V199.661H0V167.661Z" fill="#F2F4F6"/>
<path d="M86.5 199.661V198.661H0V199.661V200.661H86.5V199.661Z" fill="#D0D5DB" mask="url(#path-14-inside-1_73_6469)"/>
<path d="M37.9372 190.613H29.7332V185.839H37.9372V190.613ZM36.2992 189.339V187.113H31.3852V189.339H36.2992ZM37.9512 185.209H36.2992V178.293H37.9512V185.209ZM34.1572 179.049C34.1386 180.72 33.6299 182.087 32.6312 183.151C31.6419 184.215 30.2839 184.953 28.5572 185.363L27.7452 184.061C28.8746 183.865 29.8826 183.45 30.7692 182.815C31.6559 182.181 32.1832 181.373 32.3512 180.393H28.3612V179.049H34.1572ZM44.2685 189.241C42.9432 189.241 41.8932 188.831 41.1185 188.009C40.3438 187.188 39.9565 185.998 39.9565 184.439V184.131C39.9565 182.61 40.3532 181.429 41.1465 180.589C41.9492 179.749 43.0178 179.329 44.3525 179.329C45.6685 179.329 46.7138 179.74 47.4885 180.561C48.2725 181.383 48.6645 182.573 48.6645 184.131V184.439C48.6645 185.961 48.2632 187.141 47.4605 187.981C46.6672 188.821 45.6032 189.241 44.2685 189.241ZM44.3245 187.911C45.1458 187.911 45.7665 187.617 46.1865 187.029C46.6158 186.432 46.8305 185.629 46.8305 184.621V184.145C46.8305 181.84 45.9765 180.683 44.2685 180.673C43.4565 180.673 42.8405 180.967 42.4205 181.555C42.0005 182.134 41.7905 182.927 41.7905 183.935V184.425C41.7905 186.749 42.6352 187.911 44.3245 187.911ZM54.2626 189.241C52.9373 189.241 51.8873 188.831 51.1126 188.009C50.338 187.188 49.9506 185.998 49.9506 184.439V184.131C49.9506 182.61 50.3473 181.429 51.1406 180.589C51.9433 179.749 53.012 179.329 54.3466 179.329C55.6626 179.329 56.708 179.74 57.4826 180.561C58.2666 181.383 58.6586 182.573 58.6586 184.131V184.439C58.6586 185.961 58.2573 187.141 57.4546 187.981C56.6613 188.821 55.5973 189.241 54.2626 189.241ZM54.3186 187.911C55.14 187.911 55.7606 187.617 56.1806 187.029C56.61 186.432 56.8246 185.629 56.8246 184.621V184.145C56.8246 181.84 55.9706 180.683 54.2626 180.673C53.4506 180.673 52.8346 180.967 52.4146 181.555C51.9946 182.134 51.7846 182.927 51.7846 183.935V184.425C51.7846 186.749 52.6293 187.911 54.3186 187.911Z" fill="#354152"/>
<mask id="path-17-inside-2_73_6469" fill="white">
<path d="M86.5 167.661H173V199.661H86.5V167.661Z"/>
</mask>
<path d="M173 199.661V198.661H86.5V199.661V200.661H173V199.661Z" fill="#D0D5DB" mask="url(#path-17-inside-2_73_6469)"/>
<path d="M128.781 188.485C128.137 188.999 127.255 189.255 126.135 189.255C125.015 189.255 124.138 189.022 123.503 188.555C122.878 188.089 122.565 187.459 122.565 186.665C122.565 186.096 122.752 185.597 123.125 185.167C123.498 184.738 123.97 184.411 124.539 184.187C123.41 183.674 122.845 182.909 122.845 181.891C122.845 181.145 123.144 180.543 123.741 180.085C124.338 179.619 125.136 179.385 126.135 179.385C127.143 179.385 127.936 179.595 128.515 180.015C129.094 180.435 129.383 181.019 129.383 181.765C129.383 182.727 128.8 183.487 127.633 184.047C129.052 184.523 129.761 185.331 129.761 186.469C129.761 187.3 129.434 187.972 128.781 188.485ZM124.693 187.603C125.038 187.865 125.505 187.995 126.093 187.995C126.681 187.995 127.148 187.869 127.493 187.617C127.848 187.356 128.025 187.015 128.025 186.595C128.025 186.119 127.848 185.741 127.493 185.461C127.148 185.172 126.602 184.929 125.855 184.733C125.388 184.892 124.992 185.13 124.665 185.447C124.348 185.765 124.189 186.124 124.189 186.525C124.189 186.983 124.357 187.342 124.693 187.603ZM126.373 183.473C127.297 183.091 127.759 182.563 127.759 181.891C127.759 181.518 127.624 181.215 127.353 180.981C127.082 180.748 126.686 180.631 126.163 180.631C125.668 180.631 125.276 180.743 124.987 180.967C124.707 181.182 124.567 181.476 124.567 181.849C124.567 182.633 125.169 183.175 126.373 183.473ZM133.481 189.227C132.38 189.227 131.47 189.008 130.751 188.569L131.059 187.253C131.703 187.636 132.366 187.827 133.047 187.827C133.719 187.827 134.242 187.673 134.615 187.365C134.998 187.048 135.189 186.6 135.189 186.021C135.189 184.873 134.499 184.299 133.117 184.299C132.511 184.299 131.862 184.472 131.171 184.817L131.521 179.539H136.533V180.883H132.837L132.655 183.221C133.085 183.109 133.486 183.053 133.859 183.053C134.839 183.053 135.6 183.305 136.141 183.809C136.692 184.313 136.967 185.065 136.967 186.063C136.967 186.978 136.65 187.734 136.015 188.331C135.39 188.929 134.545 189.227 133.481 189.227Z" fill="#354152"/>
<mask id="path-20-inside-3_73_6469" fill="white">
<path d="M0 199.661H86.5V231.661H0V199.661Z"/>
</mask>
<path d="M0 199.661H86.5V231.661H0V199.661Z" fill="#F2F4F6"/>
<path d="M86.5 231.661V230.661H0V231.661V232.661H86.5V231.661Z" fill="#D0D5DB" mask="url(#path-20-inside-3_73_6469)"/>
<path d="M37.9232 222.767H36.2992V210.293H37.9232V222.767ZM28.8232 218.833C28.2539 218.021 27.9692 216.948 27.9692 215.613C27.9692 214.279 28.2539 213.201 28.8232 212.379C29.4019 211.558 30.1906 211.147 31.1892 211.147C32.1972 211.147 32.9859 211.558 33.5552 212.379C34.1339 213.201 34.4232 214.279 34.4232 215.613C34.4232 216.939 34.1339 218.012 33.5552 218.833C32.9859 219.645 32.1972 220.051 31.1892 220.051C30.1906 220.051 29.4019 219.645 28.8232 218.833ZM32.8552 215.613C32.8552 214.643 32.7012 213.877 32.3932 213.317C32.0852 212.748 31.6839 212.463 31.1892 212.463C30.7132 212.463 30.3212 212.748 30.0132 213.317C29.7146 213.877 29.5652 214.643 29.5652 215.613C29.5652 216.575 29.7146 217.335 30.0132 217.895C30.3212 218.455 30.7132 218.735 31.1892 218.735C31.6839 218.735 32.0852 218.455 32.3932 217.895C32.7012 217.335 32.8552 216.575 32.8552 215.613ZM44.2685 221.241C42.9432 221.241 41.8932 220.831 41.1185 220.009C40.3438 219.188 39.9565 217.998 39.9565 216.439V216.131C39.9565 214.61 40.3532 213.429 41.1465 212.589C41.9492 211.749 43.0178 211.329 44.3525 211.329C45.6685 211.329 46.7138 211.74 47.4885 212.561C48.2725 213.383 48.6645 214.573 48.6645 216.131V216.439C48.6645 217.961 48.2632 219.141 47.4605 219.981C46.6672 220.821 45.6032 221.241 44.2685 221.241ZM44.3245 219.911C45.1458 219.911 45.7665 219.617 46.1865 219.029C46.6158 218.432 46.8305 217.629 46.8305 216.621V216.145C46.8305 213.84 45.9765 212.683 44.2685 212.673C43.4565 212.673 42.8405 212.967 42.4205 213.555C42.0005 214.134 41.7905 214.927 41.7905 215.935V216.425C41.7905 218.749 42.6352 219.911 44.3245 219.911ZM54.2626 221.241C52.9373 221.241 51.8873 220.831 51.1126 220.009C50.338 219.188 49.9506 217.998 49.9506 216.439V216.131C49.9506 214.61 50.3473 213.429 51.1406 212.589C51.9433 211.749 53.012 211.329 54.3466 211.329C55.6626 211.329 56.708 211.74 57.4826 212.561C58.2666 213.383 58.6586 214.573 58.6586 216.131V216.439C58.6586 217.961 58.2573 219.141 57.4546 219.981C56.6613 220.821 55.5973 221.241 54.2626 221.241ZM54.3186 219.911C55.14 219.911 55.7606 219.617 56.1806 219.029C56.61 218.432 56.8246 217.629 56.8246 216.621V216.145C56.8246 213.84 55.9706 212.683 54.2626 212.673C53.4506 212.673 52.8346 212.967 52.4146 213.555C51.9946 214.134 51.7846 214.927 51.7846 215.935V216.425C51.7846 218.749 52.6293 219.911 54.3186 219.911Z" fill="#354152"/>
<mask id="path-23-inside-4_73_6469" fill="white">
<path d="M86.5 199.661H173V231.661H86.5V199.661Z"/>
</mask>
<path d="M173 231.661V230.661H86.5V231.661V232.661H173V231.661Z" fill="#D0D5DB" mask="url(#path-23-inside-4_73_6469)"/>
<path d="M123.493 221.087L126.993 212.911H122.639V211.553H128.855V212.575L125.397 221.087H123.493ZM133.513 221.255C132.365 221.255 131.487 220.882 130.881 220.135C130.283 219.379 129.985 218.334 129.985 216.999V216.313C129.985 214.624 130.363 213.383 131.119 212.589C131.875 211.796 132.869 211.399 134.101 211.399C134.987 211.399 135.734 211.577 136.341 211.931L136.005 213.191C135.809 213.089 135.533 212.995 135.179 212.911C134.824 212.818 134.497 212.771 134.199 212.771C133.433 212.771 132.841 213.009 132.421 213.485C132.001 213.952 131.758 214.769 131.693 215.935C132.346 215.375 133.093 215.095 133.933 215.095C134.782 215.095 135.468 215.352 135.991 215.865C136.523 216.369 136.789 217.069 136.789 217.965C136.789 218.917 136.499 219.706 135.921 220.331C135.342 220.947 134.539 221.255 133.513 221.255ZM133.471 219.981C133.984 219.981 134.385 219.818 134.675 219.491C134.973 219.155 135.123 218.689 135.123 218.091C135.123 216.915 134.558 216.327 133.428 216.327C133.102 216.327 132.78 216.421 132.463 216.607C132.145 216.794 131.893 217.013 131.707 217.265V217.349C131.707 219.104 132.295 219.981 133.471 219.981Z" fill="#354152"/>
<mask id="path-26-inside-5_73_6469" fill="white">
<path d="M0 231.661H86.5V263.661H0V231.661Z"/>
</mask>
<path d="M0 231.661H86.5V263.661H0V231.661Z" fill="#F2F4F6"/>
<path d="M86.5 263.661V262.661H0V263.661V264.661H86.5V263.661Z" fill="#D0D5DB" mask="url(#path-26-inside-5_73_6469)"/>
<path d="M39.1412 246.661H37.3772V249.573H35.7112V242.293H37.3772V245.331H39.1412V246.661ZM29.1872 250.189H37.3772V254.781H35.7252V251.491H29.1872V250.189ZM33.8352 248.859H27.9272V243.049H29.5512V244.799H32.1832V243.035H33.8352V248.859ZM32.1832 247.571V246.073H29.5512V247.571H32.1832ZM44.2685 253.241C42.9432 253.241 41.8932 252.831 41.1185 252.009C40.3438 251.188 39.9565 249.998 39.9565 248.439V248.131C39.9565 246.61 40.3532 245.429 41.1465 244.589C41.9492 243.749 43.0178 243.329 44.3525 243.329C45.6685 243.329 46.7138 243.74 47.4885 244.561C48.2725 245.383 48.6645 246.573 48.6645 248.131V248.439C48.6645 249.961 48.2632 251.141 47.4605 251.981C46.6672 252.821 45.6032 253.241 44.2685 253.241ZM44.3245 251.911C45.1458 251.911 45.7665 251.617 46.1865 251.029C46.6158 250.432 46.8305 249.629 46.8305 248.621V248.145C46.8305 245.84 45.9765 244.683 44.2685 244.673C43.4565 244.673 42.8405 244.967 42.4205 245.555C42.0005 246.134 41.7905 246.927 41.7905 247.935V248.425C41.7905 250.749 42.6352 251.911 44.3245 251.911ZM54.2626 253.241C52.9373 253.241 51.8873 252.831 51.1126 252.009C50.338 251.188 49.9506 249.998 49.9506 248.439V248.131C49.9506 246.61 50.3473 245.429 51.1406 244.589C51.9433 243.749 53.012 243.329 54.3466 243.329C55.6626 243.329 56.708 243.74 57.4826 244.561C58.2666 245.383 58.6586 246.573 58.6586 248.131V248.439C58.6586 249.961 58.2573 251.141 57.4546 251.981C56.6613 252.821 55.5973 253.241 54.2626 253.241ZM54.3186 251.911C55.14 251.911 55.7606 251.617 56.1806 251.029C56.61 250.432 56.8246 249.629 56.8246 248.621V248.145C56.8246 245.84 55.9706 244.683 54.2626 244.673C53.4506 244.673 52.8346 244.967 52.4146 245.555C51.9946 246.134 51.7846 246.927 51.7846 247.935V248.425C51.7846 250.749 52.6293 251.911 54.3186 251.911Z" fill="#354152"/>
<mask id="path-29-inside-6_73_6469" fill="white">
<path d="M86.5 231.661H173V263.661H86.5V231.661Z"/>
</mask>
<path d="M173 263.661V262.661H86.5V263.661V264.661H173V263.661Z" fill="#D0D5DB" mask="url(#path-29-inside-6_73_6469)"/>
<path d="M125.87 253.255C124.722 253.255 123.845 252.882 123.238 252.135C122.641 251.379 122.342 250.334 122.342 248.999V248.313C122.342 246.624 122.72 245.383 123.476 244.589C124.232 243.796 125.226 243.399 126.458 243.399C127.345 243.399 128.091 243.577 128.698 243.931L128.362 245.191C128.166 245.089 127.891 244.995 127.536 244.911C127.181 244.818 126.855 244.771 126.556 244.771C125.791 244.771 125.198 245.009 124.778 245.485C124.358 245.952 124.115 246.769 124.05 247.935C124.703 247.375 125.45 247.095 126.29 247.095C127.139 247.095 127.825 247.352 128.348 247.865C128.88 248.369 129.146 249.069 129.146 249.965C129.146 250.917 128.857 251.706 128.278 252.331C127.699 252.947 126.897 253.255 125.87 253.255ZM125.828 251.981C126.341 251.981 126.743 251.818 127.032 251.491C127.331 251.155 127.48 250.689 127.48 250.091C127.48 248.915 126.915 248.327 125.786 248.327C125.459 248.327 125.137 248.421 124.82 248.607C124.503 248.794 124.251 249.013 124.064 249.265V249.349C124.064 251.104 124.652 251.981 125.828 251.981ZM133.516 243.399C134.664 243.399 135.546 243.763 136.162 244.491C136.787 245.219 137.1 246.26 137.1 247.613V248.257C137.1 251.589 135.756 253.255 133.068 253.255C132.181 253.255 131.402 253.055 130.73 252.653L131.024 251.393C131.239 251.515 131.537 251.627 131.92 251.729C132.303 251.823 132.653 251.869 132.97 251.869C133.735 251.869 134.323 251.655 134.734 251.225C135.145 250.787 135.369 249.998 135.406 248.859C134.781 249.429 134.029 249.713 133.152 249.713C132.321 249.713 131.635 249.443 131.094 248.901C130.562 248.36 130.296 247.637 130.296 246.731C130.296 245.751 130.576 244.953 131.136 244.337C131.696 243.712 132.489 243.399 133.516 243.399ZM133.558 244.673C133.045 244.673 132.648 244.846 132.368 245.191C132.088 245.537 131.948 246.008 131.948 246.605C131.948 247.221 132.102 247.688 132.41 248.005C132.727 248.313 133.143 248.467 133.656 248.467C133.992 248.467 134.319 248.374 134.636 248.187C134.963 248.001 135.215 247.781 135.392 247.529V247.291C135.392 245.546 134.781 244.673 133.558 244.673Z" fill="#354152"/>
</svg>
