<svg width="169" height="198" viewBox="0 0 169 198" fill="none" xmlns="http://www.w3.org/2000/svg">
<path d="M71.578 36.234H60.532V35.226H65.404V33.966H61.554V32.972H63.486L63.136 30.956L64.368 30.774L64.648 32.972H67.406L67.714 30.76L68.96 30.942L68.554 32.972H70.514V33.966H66.65V35.226H71.578V36.234ZM61.806 37.116H70.164V41.036H68.918V38.11H61.806V37.116ZM70.528 30.34H61.54V29.346H70.528V30.34ZM79.0993 34.526L79.2393 35.492C78.2126 35.6973 76.7986 35.8 74.9973 35.8H73.1073V32.048H77.3493V30.438H73.0933V29.444H78.5813V33.028H74.3533V34.806H74.9693C76.8546 34.806 78.2313 34.7127 79.0993 34.526ZM82.6833 36.36H81.4373V34.148H79.4353V33.126H81.4373V31.53H79.4353V30.522H81.4373V28.744H82.6833V36.36ZM74.3953 36.892H82.6833V41.036H81.4373V37.9H74.3953V36.892ZM94.5586 35.576H90.8766V38.376H95.8046V39.384H84.7586V38.376H89.6306V35.576H86.0606V29.766H87.2926V34.582H94.5586V35.576ZM106.98 40.742H98.2298V38.026H105.342V37.242H98.1878V36.276H101.744V35.38H96.8718V34.414H107.918V35.38H102.99V36.276H106.574V38.922H99.4758V39.776H106.98V40.742ZM107.372 32.972L106.854 33.98C105.846 33.868 104.927 33.6347 104.096 33.28C103.275 32.916 102.705 32.5007 102.388 32.034C102.099 32.5193 101.539 32.9393 100.708 33.294C99.8865 33.6487 98.9672 33.8773 97.9498 33.98L97.4038 32.972C98.3092 32.9533 99.1678 32.7947 99.9798 32.496C100.801 32.1973 101.347 31.8333 101.618 31.404H98.0198V30.438H106.756V31.404H103.186C103.475 31.824 104.026 32.1833 104.838 32.482C105.659 32.7807 106.504 32.944 107.372 32.972ZM104.362 29.724H100.4V28.744H104.362V29.724Z" fill="#0084D1"/>
<path d="M77.928 70.582H76.206V76.98H74.988V64.744H76.206V69.532H77.928V70.582ZM70.312 73.424C69.416 73.6387 68.2633 73.746 66.854 73.746V66.018H69.934V67.026H68.086V72.724C68.786 72.724 69.4767 72.6353 70.158 72.458L70.312 73.424ZM74.442 73.452C73.5367 73.648 72.272 73.746 70.648 73.746V66.018H73.882V67.026H71.866V72.724C72.734 72.724 73.5367 72.6447 74.274 72.486L74.442 73.452ZM88.3053 69.042H84.7773V70.12H89.6913V71.128H78.6453V70.12H83.5313V69.042H79.9893V65.206H88.2633V66.214H81.2353V68.02H88.3053V69.042ZM88.6973 76.896H79.8913V73.928H87.0453V72.962H79.8773V71.954H88.2913V74.866H81.1233V75.874H88.6973V76.896ZM100.797 76.812H92.6626V72.682H100.797V76.812ZM99.5506 75.818V73.676H93.8946V75.818H99.5506ZM100.797 72.038H99.5506V64.744H100.797V72.038ZM98.1786 70.162L98.3326 71.156C97.1939 71.3707 95.4999 71.4967 93.2506 71.534C93.0546 71.534 92.7466 71.5387 92.3266 71.548C91.9066 71.548 91.5892 71.548 91.3746 71.548V67.922H95.8126V66.438H91.3186V65.416H97.0586V68.874H92.6066V70.526C95.3506 70.526 97.2079 70.4047 98.1786 70.162Z" fill="#0084D1"/>
<path d="M67.548 108.878C68.276 109.298 68.64 109.877 68.64 110.614C68.64 111.351 68.2807 111.93 67.562 112.35C66.8433 112.77 65.826 112.98 64.51 112.98C63.2127 112.98 62.2 112.77 61.472 112.35C60.7533 111.93 60.394 111.351 60.394 110.614C60.394 109.877 60.7533 109.298 61.472 108.878C62.2 108.449 63.2127 108.234 64.51 108.234C65.8167 108.234 66.8293 108.449 67.548 108.878ZM58.812 102.746V101.738H65.504V102.746H62.83V103.152C62.83 103.964 63.1287 104.701 63.726 105.364C64.3233 106.017 65 106.461 65.756 106.694L65.07 107.688C64.51 107.464 63.9547 107.109 63.404 106.624C62.8533 106.129 62.4567 105.611 62.214 105.07C62.0273 105.639 61.6307 106.209 61.024 106.778C60.4173 107.347 59.7873 107.767 59.134 108.038L58.434 107.058C59.274 106.759 60.0067 106.246 60.632 105.518C61.2573 104.781 61.57 104.001 61.57 103.18V102.746H58.812ZM64.51 109.256C63.614 109.256 62.914 109.377 62.41 109.62C61.906 109.853 61.654 110.185 61.654 110.614C61.654 111.043 61.906 111.379 62.41 111.622C62.914 111.855 63.614 111.972 64.51 111.972C65.4153 111.972 66.12 111.855 66.624 111.622C67.128 111.379 67.38 111.043 67.38 110.614C67.38 110.185 67.128 109.853 66.624 109.62C66.12 109.377 65.4153 109.256 64.51 109.256ZM67.324 104.846H65.042V103.824H67.324V100.744H68.57V108.332H67.324V104.846ZM80.7393 112.98H79.4933V106.092H76.7633V105.042H79.4933V100.744H80.7393V112.98ZM78.0093 109.144L77.2673 110.068C76.6699 109.676 76.0773 109.135 75.4893 108.444C74.9013 107.753 74.4999 107.072 74.2853 106.4C74.0799 107.137 73.6973 107.87 73.1373 108.598C72.5866 109.317 71.9659 109.905 71.2753 110.362L70.4913 109.452C71.4339 108.864 72.1946 108.071 72.7733 107.072C73.3519 106.073 73.6413 105.019 73.6413 103.908V101.794H74.9153V103.852C74.9153 104.953 75.2046 105.971 75.7833 106.904C76.3619 107.837 77.1039 108.584 78.0093 109.144ZM96.5583 112.756H87.7523V109.942H94.8643V109.158H87.7383V108.136H91.3083V107.128H86.4363V106.162H97.4823V107.128H92.5543V108.136H96.0963V110.894H88.9843V111.734H96.5583V112.756ZM96.1103 105.294H87.8363V101.066H89.0823V102.27H94.8783V101.052H96.1103V105.294ZM94.8783 104.3V103.264H89.0823V104.3H94.8783ZM109.834 105.35H108V109.634H106.768V100.744H108V104.314H109.834V105.35ZM108.406 112.588H100.258V108.752H101.49V111.58H108.406V112.588ZM99.6416 102.508C100.267 101.92 101.051 101.626 101.994 101.626C102.936 101.626 103.716 101.92 104.332 102.508C104.957 103.087 105.27 103.824 105.27 104.72C105.27 105.616 104.962 106.344 104.346 106.904C103.73 107.464 102.95 107.744 102.008 107.744C101.046 107.744 100.258 107.464 99.6416 106.904C99.0256 106.344 98.7176 105.621 98.7176 104.734C98.7176 103.829 99.0256 103.087 99.6416 102.508ZM101.994 102.676C101.406 102.676 100.925 102.867 100.552 103.25C100.178 103.633 99.9916 104.118 99.9916 104.706C99.9916 105.294 100.178 105.775 100.552 106.148C100.925 106.512 101.41 106.694 102.008 106.694C102.605 106.694 103.086 106.512 103.45 106.148C103.814 105.784 103.996 105.308 103.996 104.72C103.996 104.123 103.814 103.633 103.45 103.25C103.086 102.867 102.6 102.676 101.994 102.676Z" fill="#0084D1"/>
<path d="M143.282 180.978C142.497 177.041 141.316 173.16 139.783 169.464C138.279 165.825 136.423 162.316 134.254 159.039C132.103 155.791 129.648 152.738 126.925 149.964C124.211 147.19 121.229 144.668 118.054 142.471C114.842 140.256 111.417 138.357 107.854 136.821C104.235 135.248 100.442 134.048 96.5923 133.247C92.6415 132.419 88.5708 132 84.5 132C80.4385 132 76.3678 132.419 72.417 133.247C68.5585 134.048 64.7739 135.258 61.1462 136.821C57.5923 138.357 54.1584 140.256 50.9554 142.471C47.78 144.668 44.7892 147.19 42.0753 149.964C39.3615 152.738 36.8969 155.791 34.7553 159.039C32.5861 162.316 30.7214 165.825 29.2168 169.464C27.6845 173.16 26.5122 177.041 25.7184 180.978C24.9153 185.018 24.5 189.178 24.5 193.339H27.417C27.4078 161.106 52.9677 134.969 84.5 134.969C116.032 134.969 141.592 161.106 141.592 193.339H144.5C144.5 189.178 144.094 185.018 143.282 180.978Z" fill="#F0F2F5"/>
<path d="M141.593 193.339H119.762C119.762 183.398 115.802 174.388 109.424 167.863L124.867 152.068C130.11 157.42 134.227 163.666 137.098 170.619C140.079 177.814 141.593 185.465 141.593 193.339Z" fill="#1F4168"/>
<path d="M124.866 152.068L109.423 167.864C103.035 161.329 94.22 157.29 84.5 157.29V134.969C92.1985 134.969 99.6845 136.515 106.728 139.558C113.521 142.5 119.632 146.707 124.866 152.068Z" fill="#57718E"/>
<path d="M84.5008 134.969V157.29C74.7808 157.29 65.9653 161.329 59.5776 167.864L44.1348 152.068C49.3686 146.707 55.4793 142.5 62.2732 139.558C69.3163 136.515 76.8023 134.969 84.5008 134.969Z" fill="#B4C0CD"/>
<path d="M59.5763 167.863C53.1979 174.388 49.2379 183.398 49.2379 193.339H27.4072C27.4072 185.465 28.9211 177.814 31.9026 170.619C34.7734 163.666 38.8904 157.42 44.1335 152.068L59.5763 167.863Z" fill="#E1E6EB"/>
<path d="M100.811 150.876C100.903 150.616 100.885 150.392 100.756 150.188C100.626 149.992 100.368 149.731 99.9618 149.415C99.5556 149.089 99.2512 148.81 99.0389 148.568C98.4574 147.898 98.282 147.228 98.522 146.548C98.642 146.194 98.8542 145.915 99.1403 145.71C99.4357 145.506 99.7957 145.394 100.211 145.375C100.626 145.347 101.07 145.422 101.522 145.589C101.974 145.757 102.353 145.99 102.648 146.297C102.943 146.595 103.137 146.93 103.229 147.311C103.313 147.693 103.294 148.084 103.156 148.475L101.836 147.991C101.946 147.693 101.928 147.423 101.808 147.19C101.679 146.958 101.448 146.772 101.116 146.651C100.793 146.539 100.525 146.511 100.294 146.585C100.073 146.66 99.9158 146.809 99.8327 147.032C99.7589 147.246 99.8048 147.46 99.9618 147.684C100.119 147.907 100.377 148.149 100.737 148.428C101.411 148.931 101.854 149.424 102.076 149.89C102.297 150.355 102.316 150.839 102.14 151.351C101.937 151.909 101.577 152.282 101.042 152.449C100.516 152.617 99.888 152.57 99.1865 152.31C98.6973 152.124 98.2818 151.872 97.9403 151.537C97.5987 151.202 97.3866 150.839 97.285 150.439C97.1835 150.039 97.2111 149.629 97.3588 149.21L98.6789 149.694C98.4204 150.42 98.7158 150.932 99.5558 151.249C99.8697 151.36 100.137 151.388 100.359 151.323C100.58 151.258 100.737 151.109 100.811 150.876Z" fill="white"/>
<path d="M111.103 151.789L109.303 150.727L106.487 155.744L105.278 155.028L108.094 150.02L106.312 148.977L106.875 147.972L111.666 150.783L111.103 151.789Z" fill="white"/>
<path d="M113.781 157.95L112.931 157.225L111.335 159.17L110.264 158.248L114.621 152.934L116.559 154.59C117.168 155.121 117.528 155.661 117.63 156.229C117.741 156.796 117.575 157.336 117.159 157.848C116.864 158.211 116.541 158.444 116.181 158.556C115.83 158.667 115.442 158.658 115.008 158.537L114.353 161.674L114.307 161.72L113.162 160.734L113.781 157.95ZM113.661 156.331L114.519 157.076C114.796 157.308 115.054 157.411 115.322 157.401C115.581 157.383 115.812 157.262 116.015 157.01C116.218 156.759 116.319 156.508 116.292 156.238C116.273 155.977 116.116 155.726 115.83 155.475L114.971 154.739L113.661 156.331Z" fill="white"/>
<path d="M120.878 164.773L119.143 162.679L117.758 163.879L119.798 166.337L118.94 167.081L115.995 163.535L121.174 159.049L124.109 162.586L123.241 163.34L121.22 160.882L119.983 161.953L121.718 164.047L120.878 164.773Z" fill="white"/>
<path d="M123.676 171.307C123.907 171.168 124.037 170.981 124.064 170.749C124.092 170.507 124.046 170.134 123.935 169.622C123.824 169.12 123.76 168.701 123.75 168.375C123.713 167.482 124 166.849 124.609 166.476C124.923 166.29 125.255 166.206 125.606 166.244C125.956 166.272 126.307 166.42 126.64 166.672C126.981 166.932 127.267 167.268 127.516 167.696C127.756 168.115 127.904 168.543 127.95 168.971C127.987 169.39 127.923 169.781 127.756 170.134C127.59 170.488 127.332 170.767 126.981 170.981L126.261 169.753C126.529 169.585 126.695 169.371 126.741 169.11C126.787 168.85 126.722 168.561 126.538 168.254C126.372 167.947 126.169 167.752 125.947 167.668C125.726 167.575 125.513 167.584 125.31 167.714C125.126 167.826 125.024 168.021 125.006 168.291C124.987 168.571 125.034 168.924 125.144 169.371C125.347 170.199 125.384 170.86 125.264 171.363C125.144 171.875 124.858 172.266 124.406 172.536C123.898 172.843 123.39 172.889 122.873 172.666C122.357 172.452 121.913 172.015 121.526 171.354C121.267 170.888 121.101 170.423 121.046 169.948C121 169.473 121.055 169.045 121.23 168.673C121.396 168.301 121.673 168.003 122.052 167.779L122.762 169.008C122.116 169.399 122.024 169.985 122.486 170.777C122.652 171.065 122.836 171.261 123.049 171.354C123.261 171.447 123.473 171.437 123.686 171.307H123.676Z" fill="white"/>
<path d="M126.86 178.586C127.11 178.493 127.267 178.325 127.331 178.102C127.396 177.869 127.424 177.497 127.396 176.976C127.377 176.455 127.387 176.026 127.423 175.701C127.543 174.816 127.931 174.249 128.596 173.997C128.937 173.867 129.279 173.839 129.62 173.941C129.962 174.035 130.276 174.239 130.562 174.546C130.857 174.863 131.079 175.245 131.254 175.71C131.42 176.166 131.494 176.613 131.457 177.041C131.43 177.469 131.3 177.841 131.079 178.158C130.848 178.474 130.543 178.698 130.165 178.847L129.676 177.506C129.962 177.395 130.156 177.218 130.248 176.967C130.34 176.715 130.322 176.427 130.202 176.082C130.082 175.757 129.916 175.533 129.713 175.403C129.519 175.272 129.306 175.245 129.085 175.338C128.873 175.412 128.744 175.589 128.679 175.85C128.614 176.12 128.605 176.483 128.633 176.939C128.688 177.786 128.614 178.447 128.411 178.921C128.208 179.405 127.857 179.731 127.359 179.926C126.814 180.131 126.307 180.085 125.836 179.787C125.365 179.48 124.996 178.968 124.737 178.242C124.553 177.748 124.47 177.255 124.497 176.78C124.525 176.296 124.654 175.896 124.894 175.552C125.125 175.217 125.448 174.975 125.854 174.816L126.343 176.157C125.642 176.427 125.457 176.994 125.771 177.851C125.882 178.167 126.039 178.391 126.233 178.521C126.427 178.651 126.63 178.67 126.86 178.586Z" fill="white"/>
<path d="M81.7863 191.785L109.432 163.74L87.2141 196.439C86.088 198.086 83.8817 198.496 82.2663 197.351C80.651 196.206 80.2542 193.944 81.3711 192.297C81.4911 192.11 81.6479 191.934 81.7863 191.785Z" fill="#1F4168"/>
<path d="M85.7176 196.066C86.5484 195.219 86.5484 193.841 85.7176 192.994C84.8869 192.138 83.5486 192.138 82.7178 192.994C81.887 193.841 81.887 195.219 82.7178 196.066C83.5486 196.913 84.8869 196.913 85.7176 196.066Z" fill="white"/>
</svg>
