<svg width="544" height="324" viewBox="0 0 544 324" fill="none" xmlns="http://www.w3.org/2000/svg">
<g clip-path="url(#clip0_73_6587)">
<g clip-path="url(#clip1_73_6587)">
<path d="M15.0486 47.9312H238.969" stroke="#E7E7E7" stroke-dasharray="2 2"/>
<path d="M15.0486 109.41H238.969" stroke="#E7E7E7" stroke-dasharray="2 2"/>
<path d="M15.0486 170.89H238.969" stroke="#E7E7E7" stroke-dasharray="2 2"/>
<path d="M15.0486 232.369H238.969" stroke="#E7E7E7" stroke-dasharray="2 2"/>
<path d="M94.6647 78.2554H71.4434V294.263H94.6647V78.2554Z" fill="#FFD840"/>
<path d="M94.6647 78.2554H71.4434V294.263H94.6647V78.2554Z" fill="#094185"/>
<path d="M126.179 253.554H102.958V294.263H126.179V253.554Z" fill="#1E71D6"/>
<path d="M157.694 253.554H134.473V294.263H157.694V253.554Z" fill="#5BA5FF"/>
<path d="M14.634 27.5767V293.433" stroke="#B2B3BD"/>
<path d="M14.2195 293.848H214.089" stroke="#B2B3BD"/>
<path d="M0.133545 52.0819V51.6134L1.72587 49.9584C2.28318 49.3735 2.68458 48.8917 2.93006 48.5128C3.18218 48.134 3.30823 47.7252 3.30823 47.2866C3.30823 46.4026 2.85044 45.9606 1.93486 45.9606C1.4638 45.9606 0.966197 46.1434 0.442058 46.5089L0.213161 45.8809C0.843455 45.4754 1.46048 45.2727 2.06423 45.2727C2.7277 45.2727 3.23857 45.4455 3.59684 45.7911C3.95511 46.1367 4.13425 46.612 4.13425 47.2168C4.13425 47.7485 3.99161 48.2337 3.70631 48.6723C3.42102 49.111 2.94664 49.6693 2.28318 50.3472L1.23822 51.404H4.28353V52.0819H0.133545ZM7.55309 52.2016C6.82328 52.2016 6.23279 51.939 5.78164 51.414C5.33048 50.8823 5.1049 50.0781 5.1049 49.0013V48.443C5.1049 47.3397 5.33048 46.5388 5.78164 46.0404C6.23943 45.5352 6.83323 45.2827 7.56304 45.2827C8.27959 45.2827 8.85349 45.5319 9.28474 46.0304C9.72263 46.5222 9.94157 47.3132 9.94157 48.4032V49.0113C9.94157 50.088 9.72263 50.8889 9.28474 51.414C8.85349 51.939 8.27627 52.2016 7.55309 52.2016ZM7.55309 51.5436C8.07723 51.5436 8.47199 51.3508 8.73738 50.9654C9.00277 50.5799 9.13546 49.9684 9.13546 49.1309V48.3932C9.13546 46.7582 8.61132 45.9407 7.56304 45.9407C6.48823 45.9407 5.95082 46.7416 5.95082 48.3433V49.0811C5.95082 50.7228 6.48491 51.5436 7.55309 51.5436Z" fill="#808191"/>
<path d="M2.82365 112.77V106.838L1.5896 107.128V106.669L3.16202 105.931H3.58V112.77H2.82365ZM6.3542 112.85C5.57131 112.85 4.94765 112.681 4.48322 112.342L4.6325 111.704C4.82491 111.836 5.06707 111.949 5.359 112.043C5.65756 112.136 5.93953 112.182 6.20492 112.182C6.72906 112.182 7.13709 112.046 7.42902 111.773C7.72758 111.494 7.87686 111.115 7.87686 110.637C7.87686 109.686 7.32949 109.211 6.23478 109.211C5.79025 109.211 5.32583 109.321 4.8415 109.54L5.08034 106.031H8.46402V106.709H5.71727L5.57794 108.743C5.93622 108.65 6.25468 108.603 6.53334 108.603C7.22334 108.603 7.75743 108.772 8.13561 109.111C8.51378 109.45 8.70287 109.962 8.70287 110.647C8.70287 111.265 8.49056 111.787 8.06594 112.212C7.64132 112.637 7.07074 112.85 6.3542 112.85Z" fill="#808191"/>
<path d="M2.17252 173.419V167.487L0.938477 167.776V167.317L2.51089 166.58H2.92888V173.419H2.17252ZM6.67829 173.498C5.94848 173.498 5.35799 173.236 4.90683 172.711C4.45568 172.179 4.2301 171.375 4.2301 170.298V169.74C4.2301 168.637 4.45568 167.836 4.90683 167.337C5.36463 166.832 5.95843 166.58 6.68824 166.58C7.40479 166.58 7.97869 166.829 8.40994 167.327C8.84783 167.819 9.06677 168.61 9.06677 169.7V170.308C9.06677 171.385 8.84783 172.186 8.40994 172.711C7.97869 173.236 7.40147 173.498 6.67829 173.498ZM6.67829 172.841C7.20243 172.841 7.59719 172.648 7.86258 172.262C8.12797 171.877 8.26066 171.265 8.26066 170.428V169.69C8.26066 168.055 7.73652 167.238 6.68824 167.238C5.61343 167.238 5.07602 168.038 5.07602 169.64V170.378C5.07602 172.02 5.61011 172.841 6.67829 172.841Z" fill="#808191"/>
<path d="M4.78309 234.147C4.00019 234.147 3.37654 233.977 2.91211 233.638L3.06139 233C3.25379 233.133 3.49596 233.246 3.78789 233.339C4.08645 233.432 4.36842 233.479 4.63381 233.479C5.15794 233.479 5.56598 233.343 5.8579 233.07C6.15646 232.791 6.30574 232.412 6.30574 231.934C6.30574 230.983 5.75838 230.508 4.66366 230.508C4.21914 230.508 3.75471 230.618 3.27038 230.837L3.50923 227.328H6.89291V228.006H4.14616L4.00683 230.039C4.3651 229.946 4.68357 229.9 4.96222 229.9C5.65223 229.9 6.18632 230.069 6.5645 230.408C6.94267 230.747 7.13176 231.259 7.13176 231.944C7.13176 232.562 6.91945 233.083 6.49483 233.509C6.07021 233.934 5.49963 234.147 4.78309 234.147Z" fill="#808191"/>
<path d="M5.10713 294.795C4.37731 294.795 3.78683 294.533 3.33567 294.008C2.88452 293.476 2.65894 292.672 2.65894 291.595V291.037C2.65894 289.933 2.88452 289.133 3.33567 288.634C3.79346 288.129 4.38727 287.876 5.11708 287.876C5.83362 287.876 6.40752 288.126 6.83878 288.624C7.27666 289.116 7.49561 289.907 7.49561 290.997V291.605C7.49561 292.682 7.27666 293.483 6.83878 294.008C6.40752 294.533 5.83031 294.795 5.10713 294.795ZM5.10713 294.137C5.63127 294.137 6.02603 293.945 6.29142 293.559C6.5568 293.174 6.6895 292.562 6.6895 291.725V290.987C6.6895 289.352 6.16536 288.534 5.11708 288.534C4.04226 288.534 3.50486 289.335 3.50486 290.937V291.675C3.50486 293.316 4.03895 294.137 5.10713 294.137Z" fill="#808191"/>
<path d="M243.945 231.123C246.693 231.123 248.921 228.891 248.921 226.138C248.921 223.385 246.693 221.153 243.945 221.153C241.197 221.153 238.969 223.385 238.969 226.138C238.969 228.891 241.197 231.123 243.945 231.123Z" fill="#094185"/>
<path d="M248.921 221.153H238.969V231.123H248.921V221.153Z" fill="#094185"/>
<path d="M252.996 223.682V223.044H257.673V223.682H255.723C255.723 224.068 255.726 224.304 255.733 224.39C255.766 224.922 255.998 225.42 256.429 225.885C256.861 226.344 257.342 226.66 257.872 226.832L257.444 227.441C257.027 227.268 256.615 226.995 256.21 226.623C255.806 226.251 255.514 225.872 255.335 225.487C255.215 225.885 254.94 226.294 254.509 226.713C254.084 227.132 253.633 227.444 253.155 227.65L252.717 227.062C253.295 226.836 253.805 226.47 254.25 225.965C254.694 225.46 254.927 224.932 254.947 224.38C254.953 224.3 254.956 224.068 254.956 223.682H252.996ZM259.853 228.657H259.097V225.337H257.365V224.699H259.097V222.276H259.853V228.657ZM260.042 230.701H254.18V228.019H254.937V230.063H260.042V230.701ZM268.039 230.99H267.283V228.039H265.76V227.421H267.283V225.945H265.76V225.327H267.283V222.276H268.039V230.99ZM265.9 224.998H260.904V224.37H265.9V224.998ZM262.138 223.523V222.875H264.695V223.523H262.138ZM265.462 227.371C265.462 227.883 265.273 228.311 264.894 228.657C264.516 228.996 264.025 229.165 263.421 229.165C262.818 229.165 262.327 228.996 261.949 228.657C261.577 228.318 261.391 227.889 261.391 227.371C261.391 226.852 261.577 226.42 261.949 226.075C262.327 225.729 262.818 225.556 263.421 225.556C264.025 225.556 264.516 225.729 264.894 226.075C265.273 226.42 265.462 226.852 265.462 227.371ZM264.337 228.208C264.576 227.989 264.695 227.71 264.695 227.371C264.695 227.032 264.573 226.753 264.327 226.533C264.088 226.307 263.786 226.194 263.421 226.194C263.057 226.194 262.751 226.307 262.506 226.533C262.267 226.753 262.148 227.032 262.148 227.371C262.148 227.71 262.267 227.989 262.506 228.208C262.751 228.421 263.057 228.527 263.421 228.527C263.793 228.527 264.098 228.421 264.337 228.208ZM278.445 226.962H277.688V224.978H276.226V224.35H277.688V222.276H278.445V226.962ZM279.301 230.422L278.853 230.98C278.528 230.787 278.226 230.541 277.947 230.242C277.669 229.936 277.483 229.641 277.39 229.355C277.31 229.647 277.134 229.953 276.862 230.272C276.597 230.591 276.295 230.84 275.957 231.02L275.539 230.461C276.017 230.242 276.385 229.92 276.644 229.494C276.902 229.069 277.032 228.614 277.032 228.129V227.391H277.768V228.129C277.768 228.6 277.907 229.046 278.186 229.464C278.465 229.877 278.836 230.196 279.301 230.422ZM275.33 230.87H272.364V227.49H273.081V228.577H274.613V227.49H275.33V230.87ZM274.613 230.272V229.155H273.081V230.272H274.613ZM273.648 222.705C274.278 222.705 274.806 222.894 275.23 223.273C275.662 223.646 275.877 224.134 275.877 224.739C275.877 225.344 275.662 225.832 275.23 226.204C274.806 226.577 274.278 226.763 273.648 226.763C273.024 226.763 272.494 226.58 272.056 226.214C271.624 225.842 271.409 225.354 271.409 224.749C271.409 224.151 271.624 223.662 272.056 223.283C272.494 222.898 273.024 222.705 273.648 222.705ZM273.648 223.363C273.217 223.363 272.862 223.493 272.583 223.752C272.304 224.004 272.165 224.333 272.165 224.739C272.165 225.151 272.304 225.487 272.583 225.746C272.862 226.005 273.217 226.135 273.648 226.135C274.093 226.135 274.447 226.008 274.713 225.756C274.985 225.497 275.121 225.161 275.121 224.749C275.121 224.337 274.985 224.004 274.713 223.752C274.447 223.493 274.093 223.363 273.648 223.363ZM286.243 222.276V225.736H287.656V226.374H286.243V230.99H285.487V222.276H286.243ZM280.64 228.208H281.138C282.723 228.208 283.951 228.115 284.82 227.929L284.9 228.557C283.858 228.757 282.468 228.856 280.73 228.856H279.874V223.184H284.004V223.822H280.64V228.208Z" fill="#808191"/>
<path d="M243.945 252.724C246.693 252.724 248.921 250.492 248.921 247.739C248.921 244.986 246.693 242.754 243.945 242.754C241.197 242.754 238.969 244.986 238.969 247.739C238.969 250.492 241.197 252.724 243.945 252.724Z" fill="#1E71D6"/>
<path d="M248.921 242.754H238.969V252.724H248.921V242.754Z" fill="#1E71D6"/>
<path d="M260.971 247.466H259.647V250.308H258.891V243.877H259.647V246.828H260.971V247.466ZM259.986 252.311H254.194V250.078H254.95V251.673H259.986V252.311ZM256.672 244.854H254.164V244.186H256.672V244.854ZM258.015 246.14H252.92V245.512H258.015V246.14ZM257.518 248.134C257.518 248.586 257.325 248.955 256.94 249.241C256.555 249.52 256.065 249.66 255.467 249.66C254.884 249.66 254.396 249.52 254.004 249.241C253.62 248.955 253.427 248.586 253.427 248.134C253.427 247.676 253.62 247.307 254.004 247.028C254.389 246.748 254.877 246.609 255.467 246.609C256.065 246.609 256.555 246.748 256.94 247.028C257.325 247.307 257.518 247.676 257.518 248.134ZM256.801 248.134C256.801 247.855 256.672 247.632 256.413 247.466C256.154 247.293 255.839 247.207 255.467 247.207C255.103 247.207 254.791 247.293 254.532 247.466C254.273 247.632 254.144 247.855 254.144 248.134C254.144 248.407 254.273 248.629 254.532 248.802C254.791 248.968 255.103 249.051 255.467 249.051C255.832 249.051 256.144 248.968 256.403 248.802C256.668 248.629 256.801 248.407 256.801 248.134ZM270.332 247.835H264.34V244.406H270.222V245.044H265.097V247.207H270.332V247.835ZM267.644 252.501H266.888V249.61H263.355V248.972H271.207V249.61H267.644V252.501ZM277.901 247.008H276.378V246.37H277.901V243.877H278.657V250.228H277.901V247.008ZM278.876 252.302H273.014V249.65H273.771V251.673H278.876V252.302ZM275.92 248.882H271.88V244.455H272.646V246.041H275.154V244.455H275.92V248.882ZM275.154 248.254V246.669H272.646V248.254H275.154ZM289.949 246.798H288.625V249.091H287.869V243.877H288.625V246.17H289.949V246.798ZM288.734 250.896C288.734 251.394 288.482 251.793 287.978 252.092C287.48 252.398 286.771 252.551 285.848 252.551C284.926 252.551 284.216 252.401 283.719 252.102C283.221 251.803 282.972 251.401 282.972 250.896C282.972 250.384 283.221 249.979 283.719 249.68C284.216 249.38 284.926 249.231 285.848 249.231C286.764 249.231 287.474 249.384 287.978 249.689C288.482 249.989 288.734 250.391 288.734 250.896ZM287.381 251.654C287.759 251.467 287.948 251.215 287.948 250.896C287.948 250.577 287.759 250.328 287.381 250.148C287.009 249.962 286.499 249.869 285.848 249.869C285.198 249.869 284.687 249.962 284.316 250.148C283.944 250.334 283.758 250.583 283.758 250.896C283.758 251.208 283.944 251.457 284.316 251.644C284.687 251.83 285.198 251.923 285.848 251.923C286.499 251.923 287.009 251.833 287.381 251.654ZM282.992 247.865H283.42C284.747 247.865 285.921 247.769 286.943 247.576L287.023 248.194C285.888 248.393 284.528 248.493 282.942 248.493H282.236V244.575H286.157V245.213H282.992V247.865ZM298.155 247.466H296.831V250.308H296.075V243.877H296.831V246.828H298.155V247.466ZM297.17 252.311H291.378V250.078H292.134V251.673H297.17V252.311ZM293.856 244.854H291.348V244.186H293.856V244.854ZM295.199 246.14H290.104V245.512H295.199V246.14ZM294.701 248.134C294.701 248.586 294.509 248.955 294.124 249.241C293.739 249.52 293.249 249.66 292.651 249.66C292.068 249.66 291.58 249.52 291.188 249.241C290.804 248.955 290.611 248.586 290.611 248.134C290.611 247.676 290.804 247.307 291.188 247.028C291.573 246.748 292.061 246.609 292.651 246.609C293.249 246.609 293.739 246.748 294.124 247.028C294.509 247.307 294.701 247.676 294.701 248.134ZM293.985 248.134C293.985 247.855 293.856 247.632 293.597 247.466C293.338 247.293 293.023 247.207 292.651 247.207C292.286 247.207 291.975 247.293 291.716 247.466C291.457 247.632 291.328 247.855 291.328 248.134C291.328 248.407 291.457 248.629 291.716 248.802C291.975 248.968 292.286 249.051 292.651 249.051C293.016 249.051 293.328 248.968 293.587 248.802C293.852 248.629 293.985 248.407 293.985 248.134ZM300.768 245.193V244.555H305.455V245.193H303.515C303.515 245.466 303.518 245.639 303.525 245.712C303.558 246.27 303.784 246.778 304.202 247.237C304.626 247.696 305.107 248.015 305.645 248.194L305.227 248.802C304.809 248.636 304.397 248.36 303.993 247.975C303.594 247.589 303.306 247.2 303.127 246.808C303.007 247.214 302.725 247.642 302.281 248.094C301.836 248.546 301.378 248.875 300.907 249.081L300.499 248.473C301.083 248.247 301.597 247.878 302.042 247.367C302.486 246.855 302.719 246.303 302.739 245.712C302.745 245.639 302.749 245.466 302.749 245.193H300.768ZM301.853 249.53H307.655V252.591H306.889V250.158H301.853V249.53ZM307.645 249.071H306.889V246.828H305.147V246.2H306.889V243.877H307.645V249.071ZM318.041 248.942H317.284V243.877H318.041V248.942ZM318.419 252.611H318.409C318.097 252.458 317.779 252.215 317.453 251.883C317.128 251.55 316.916 251.235 316.817 250.936C316.71 251.261 316.495 251.597 316.17 251.943C315.851 252.295 315.516 252.557 315.164 252.73L314.687 252.222C315.178 251.982 315.589 251.64 315.921 251.195C316.259 250.743 316.428 250.264 316.428 249.759V249.231H317.185V249.729C317.185 250.241 317.354 250.72 317.692 251.165C318.037 251.604 318.432 251.906 318.877 252.072L318.419 252.611ZM315.184 251.414L314.667 251.933C314.441 251.813 314.222 251.65 314.01 251.444C313.804 251.231 313.655 251.009 313.562 250.776C313.456 251.108 313.234 251.457 312.895 251.823C312.564 252.182 312.212 252.451 311.841 252.631L311.383 252.092C311.86 251.886 312.272 251.56 312.617 251.115C312.968 250.67 313.144 250.195 313.144 249.689V249.261H313.901V249.62C313.901 250.052 314.023 250.424 314.269 250.736C314.514 251.049 314.819 251.275 315.184 251.414ZM311.801 244.954C312.239 244.562 312.773 244.366 313.403 244.366C314.033 244.366 314.564 244.562 314.995 244.954C315.433 245.339 315.652 245.841 315.652 246.459C315.652 247.084 315.436 247.586 315.005 247.965C314.574 248.344 314.04 248.533 313.403 248.533C312.766 248.533 312.229 248.344 311.791 247.965C311.359 247.586 311.144 247.087 311.144 246.469C311.144 245.851 311.363 245.346 311.801 244.954ZM313.403 244.984C312.965 244.984 312.6 245.123 312.308 245.403C312.023 245.682 311.88 246.034 311.88 246.459C311.88 246.891 312.023 247.244 312.308 247.516C312.594 247.782 312.958 247.915 313.403 247.915C313.854 247.915 314.219 247.782 314.498 247.516C314.783 247.25 314.926 246.901 314.926 246.469C314.926 246.031 314.786 245.675 314.508 245.403C314.229 245.123 313.861 244.984 313.403 244.984ZM325.839 243.877V247.337H327.252V247.975H325.839V252.591H325.082V243.877H325.839ZM320.236 249.809H320.733C322.319 249.809 323.547 249.716 324.416 249.53L324.495 250.158C323.454 250.357 322.064 250.457 320.325 250.457H319.47V244.784H323.6V245.422H320.236V249.809Z" fill="#808191"/>
<path d="M243.945 274.324C246.693 274.324 248.921 272.093 248.921 269.34C248.921 266.587 246.693 264.355 243.945 264.355C241.197 264.355 238.969 266.587 238.969 269.34C238.969 272.093 241.197 274.324 243.945 274.324Z" fill="#5BA5FF"/>
<path d="M248.921 264.355H238.969V274.324H248.921V264.355Z" fill="#5BA5FF"/>
<path d="M257.902 271.579L257.445 272.148C256.993 271.862 256.552 271.47 256.121 270.971C255.69 270.473 255.401 269.981 255.255 269.496C255.109 270.021 254.84 270.539 254.449 271.051C254.058 271.556 253.596 271.992 253.066 272.357L252.568 271.789C253.225 271.397 253.769 270.848 254.2 270.144C254.638 269.433 254.857 268.695 254.857 267.931V267.033H252.847V266.395H257.654V267.033H255.643V267.911C255.643 268.682 255.859 269.396 256.29 270.054C256.721 270.705 257.259 271.214 257.902 271.579ZM260.848 269.655H259.435V274.191H258.679V265.478H259.435V269.017H260.848V269.655ZM268.427 268.987L268.069 269.625C267.366 269.506 266.706 269.257 266.089 268.878C265.472 268.492 265.064 268.093 264.865 267.681C264.685 268.1 264.291 268.502 263.68 268.888C263.07 269.273 262.403 269.526 261.68 269.645L261.332 269.007C262.101 268.928 262.811 268.672 263.461 268.24C264.118 267.801 264.457 267.296 264.476 266.724H261.66V266.096H268.069V266.724H265.273C265.286 267.11 265.465 267.472 265.81 267.811C266.155 268.15 266.56 268.419 267.024 268.618C267.495 268.811 267.963 268.934 268.427 268.987ZM265.233 274.191H264.476V271.071H260.944V270.433H268.796V271.071H265.233V274.191ZM278.445 270.543H277.689V265.478H278.445V270.543ZM278.823 274.211H278.813C278.501 274.059 278.183 273.816 277.858 273.484C277.533 273.151 277.32 272.836 277.221 272.537C277.115 272.862 276.899 273.198 276.574 273.543C276.256 273.896 275.92 274.158 275.569 274.331L275.091 273.823C275.582 273.583 275.993 273.241 276.325 272.796C276.664 272.344 276.833 271.865 276.833 271.36V270.832H277.589V271.33C277.589 271.842 277.758 272.321 278.097 272.766C278.442 273.204 278.836 273.507 279.281 273.673L278.823 274.211ZM275.589 273.015L275.071 273.533C274.846 273.414 274.627 273.251 274.414 273.045C274.209 272.832 274.059 272.61 273.967 272.377C273.86 272.709 273.638 273.058 273.3 273.424C272.968 273.783 272.616 274.052 272.245 274.231L271.787 273.693C272.265 273.487 272.676 273.161 273.021 272.716C273.373 272.271 273.549 271.795 273.549 271.29V270.862H274.305V271.221C274.305 271.653 274.428 272.025 274.673 272.337C274.919 272.65 275.224 272.875 275.589 273.015ZM272.205 266.555C272.643 266.163 273.177 265.967 273.807 265.967C274.438 265.967 274.968 266.163 275.4 266.555C275.838 266.94 276.056 267.442 276.056 268.06C276.056 268.685 275.841 269.187 275.41 269.566C274.978 269.944 274.444 270.134 273.807 270.134C273.17 270.134 272.633 269.944 272.195 269.566C271.764 269.187 271.548 268.688 271.548 268.07C271.548 267.452 271.767 266.947 272.205 266.555ZM273.807 266.585C273.369 266.585 273.005 266.724 272.713 267.003C272.427 267.283 272.285 267.635 272.285 268.06C272.285 268.492 272.427 268.844 272.713 269.117C272.998 269.383 273.363 269.516 273.807 269.516C274.258 269.516 274.623 269.383 274.902 269.117C275.187 268.851 275.33 268.502 275.33 268.07C275.33 267.631 275.191 267.276 274.912 267.003C274.633 266.724 274.265 266.585 273.807 266.585ZM286.243 265.478V268.937H287.656V269.576H286.243V274.191H285.487V265.478H286.243ZM280.64 271.41H281.138C282.723 271.41 283.951 271.317 284.82 271.131L284.9 271.759C283.858 271.958 282.468 272.058 280.73 272.058H279.874V266.385H284.004V267.023H280.64V271.41Z" fill="#808191"/>
<path d="M243.945 295.925C246.693 295.925 248.921 293.693 248.921 290.94C248.921 288.187 246.693 285.956 243.945 285.956C241.197 285.956 238.969 288.187 238.969 290.94C238.969 293.693 241.197 295.925 243.945 295.925Z" fill="#BABACC"/>
<path d="M248.921 285.956H238.969V295.925H248.921V285.956Z" fill="#BABACC"/>
<path d="M259.836 291.087H253.935V287.567H259.836V291.087ZM259.08 290.459V288.195H254.701V290.459H259.08ZM257.259 295.802H256.502V292.831H252.969V292.193H260.822V292.831H257.259V295.802ZM269.018 291.775H261.166V291.146H269.018V291.775ZM268.192 294.117C268.192 294.629 267.92 295.021 267.376 295.294C266.832 295.573 266.075 295.713 265.107 295.713C264.138 295.713 263.382 295.573 262.838 295.294C262.3 295.021 262.032 294.629 262.032 294.117C262.032 293.612 262.304 293.22 262.848 292.941C263.392 292.662 264.141 292.522 265.097 292.522C266.065 292.522 266.822 292.662 267.366 292.941C267.917 293.22 268.192 293.612 268.192 294.117ZM265.097 293.16C264.38 293.16 263.816 293.243 263.405 293.41C262.994 293.569 262.788 293.805 262.788 294.117C262.788 294.43 262.994 294.669 263.405 294.835C263.816 294.995 264.38 295.075 265.097 295.075C265.827 295.075 266.397 294.995 266.809 294.835C267.22 294.676 267.426 294.436 267.426 294.117C267.426 293.805 267.217 293.569 266.799 293.41C266.387 293.243 265.82 293.16 265.097 293.16ZM268.132 288.883C268.132 289.375 267.86 289.771 267.316 290.07C266.779 290.362 266.036 290.508 265.087 290.508C264.145 290.508 263.405 290.362 262.868 290.07C262.33 289.771 262.061 289.375 262.061 288.883C262.061 288.378 262.33 287.979 262.868 287.687C263.405 287.388 264.145 287.238 265.087 287.238C266.036 287.238 266.779 287.388 267.316 287.687C267.86 287.979 268.132 288.378 268.132 288.883ZM266.769 289.631C267.187 289.452 267.396 289.202 267.396 288.883C267.396 288.564 267.187 288.312 266.769 288.126C266.351 287.94 265.79 287.847 265.087 287.847C264.384 287.847 263.826 287.94 263.415 288.126C263.004 288.312 262.798 288.564 262.798 288.883C262.798 289.202 263.004 289.452 263.415 289.631C263.826 289.811 264.384 289.9 265.087 289.9C265.79 289.9 266.351 289.811 266.769 289.631ZM277.363 289.771H276.039V291.755H275.283V287.079H276.039V289.133H277.363V289.771ZM276.039 295.673H270.575V292.233H271.332V293.33H275.293V292.203H276.039V295.673ZM275.293 295.045V293.938H271.332V295.045H275.293ZM270.456 290.728H270.884C272.171 290.728 273.312 290.628 274.307 290.429L274.367 291.057C273.246 291.256 271.926 291.356 270.406 291.356H269.69V287.657H273.581V288.295H270.456V290.728Z" fill="#808191"/>
</g>
<g clip-path="url(#clip2_73_6587)">
<mask id="mask0_73_6587" style="mask-type:luminance" maskUnits="userSpaceOnUse" x="348" y="67" width="129" height="34">
<path d="M348 67H476.466V100.175H348V67Z" fill="white"/>
</mask>
<g mask="url(#mask0_73_6587)">
<path d="M476.466 100.175V99.4207H348V100.175V100.929H476.466V100.175Z" fill="#E7E7E7"/>
</g>
<path d="M412.187 82.5167H410.811V84.554H409.87V79.6245H410.811V81.7356H412.187V82.5167ZM410.811 88.7234H404.94V85.0501H405.871V86.1478H409.88V85.0395H410.811V88.7234ZM409.88 87.974V86.8762H405.871V87.974H409.88ZM404.94 83.414C406.639 83.414 407.965 83.3119 408.917 83.1078C408.939 83.1923 408.96 83.3154 408.981 83.4773C409.009 83.6392 409.034 83.7623 409.055 83.8467C408.053 84.0508 406.685 84.1599 404.95 84.174H404.009V80.2262H408.156V80.9862H404.94V83.414ZM416.985 84.934H412.816V80.2367H413.758V81.8201H416.054V80.2262H416.985V84.934ZM420.031 79.6245V86.3484H419.09V83.9417H417.492V83.1712H419.09V81.9151H417.492V81.1445H419.09V79.6245H420.031ZM420.243 88.5651H414.033V85.7467H414.964V87.8051H420.243V88.5651ZM416.054 84.1845V82.559H413.758V84.1845H416.054Z" fill="#808191"/>
<mask id="mask1_73_6587" style="mask-type:luminance" maskUnits="userSpaceOnUse" x="348" y="100" width="129" height="40">
<path d="M348 100.175H476.466V139.381H348V100.175Z" fill="white"/>
</mask>
<g mask="url(#mask1_73_6587)">
<path d="M476.466 139.381V138.627H348V139.381V140.135H476.466V139.381Z" fill="#E7E7E7"/>
</g>
<path d="M363.769 117.377V116.607H368.752V117.377H366.763V117.81C366.763 118.429 366.982 118.999 367.419 119.52C367.857 120.034 368.357 120.375 368.922 120.544L368.403 121.293C367.987 121.124 367.578 120.853 367.176 120.48C366.781 120.1 366.488 119.703 366.298 119.288C366.15 119.731 365.857 120.171 365.42 120.607C364.99 121.043 364.531 121.36 364.045 121.557L363.494 120.818C364.115 120.593 364.655 120.195 365.113 119.625C365.579 119.055 365.811 118.457 365.811 117.831V117.377H363.769ZM371.101 122.549H370.159V119.087H368.382V118.327H370.159V115.815H371.101V122.549ZM371.302 124.755H365.018V121.895H365.949V123.995H371.302V124.755ZM379.866 125.04H378.935V121.99H377.423V121.23H378.935V119.837H377.423V119.077H378.935V115.815H379.866V125.04ZM377.571 118.76H372.239V118.01H377.571V118.76ZM373.54 117.177V116.417H376.291V117.177H373.54ZM377.105 121.23C377.105 121.779 376.901 122.24 376.492 122.613C376.09 122.979 375.564 123.162 374.915 123.162C374.266 123.162 373.737 122.982 373.328 122.623C372.926 122.257 372.725 121.793 372.725 121.23C372.725 120.674 372.93 120.21 373.339 119.837C373.748 119.464 374.273 119.277 374.915 119.277C375.564 119.277 376.09 119.464 376.492 119.837C376.901 120.203 377.105 120.667 377.105 121.23ZM375.814 122.064C376.047 121.846 376.164 121.568 376.164 121.23C376.164 120.892 376.044 120.614 375.804 120.396C375.571 120.171 375.275 120.058 374.915 120.058C374.556 120.058 374.256 120.171 374.016 120.396C373.776 120.614 373.656 120.892 373.656 121.23C373.656 121.568 373.776 121.846 374.016 122.064C374.256 122.275 374.556 122.38 374.915 122.38C375.289 122.38 375.589 122.275 375.814 122.064ZM391.054 120.818H390.113V118.728H388.632V117.958H390.113V115.815H391.054V120.818ZM388.251 118.359C388.251 118.971 388.025 119.474 387.574 119.868C387.129 120.262 386.576 120.459 385.913 120.459C385.257 120.459 384.7 120.266 384.241 119.879C383.79 119.492 383.564 118.989 383.564 118.369C383.564 117.75 383.786 117.24 384.231 116.839C384.682 116.431 385.239 116.227 385.902 116.227C386.565 116.227 387.122 116.427 387.574 116.828C388.025 117.229 388.251 117.74 388.251 118.359ZM387.32 118.359C387.32 117.979 387.189 117.662 386.928 117.409C386.667 117.155 386.325 117.029 385.902 117.029C385.507 117.029 385.172 117.155 384.897 117.409C384.622 117.662 384.484 117.979 384.484 118.359C384.484 118.732 384.618 119.041 384.886 119.288C385.162 119.534 385.504 119.657 385.913 119.657C386.329 119.657 386.667 119.534 386.928 119.288C387.189 119.034 387.32 118.725 387.32 118.359ZM391.89 124.407L391.319 125.062C391.023 124.907 390.73 124.668 390.441 124.344C390.152 124.027 389.954 123.735 389.848 123.468C389.771 123.749 389.591 124.045 389.309 124.354C389.034 124.664 388.73 124.907 388.399 125.083C388.335 125.005 388.24 124.9 388.113 124.766C387.986 124.632 387.891 124.527 387.828 124.449C388.328 124.238 388.716 123.904 388.991 123.447C389.273 122.989 389.414 122.504 389.414 121.99V121.272H390.314V121.99C390.314 122.483 390.455 122.958 390.737 123.415C391.026 123.872 391.41 124.203 391.89 124.407ZM387.679 124.914H384.474V121.335H385.363V122.423H386.791V121.325H387.679V124.914ZM386.791 124.207V123.119H385.363V124.207H386.791ZM393.567 122.011H393.948C395.598 122.011 396.882 121.913 397.799 121.715L397.905 122.475C396.946 122.673 395.535 122.778 393.673 122.792H392.636V116.786H397.006V117.557H393.567V122.011ZM399.386 115.815V119.414H400.825V120.195H399.386V125.04H398.455V115.815H399.386Z" fill="#808191"/>
<mask id="mask2_73_6587" style="mask-type:luminance" maskUnits="userSpaceOnUse" x="348" y="139" width="129" height="40">
<path d="M348 139.381H476.466V178.587H348V139.381Z" fill="white"/>
</mask>
<g mask="url(#mask2_73_6587)">
<path d="M476.466 178.587V177.833H348V178.587V179.341H476.466V178.587Z" fill="#E7E7E7"/>
</g>
<path d="M372.043 158.906H370.657V161.819H369.726V155.021H370.657V158.114H372.043V158.906ZM370.974 163.972H364.806V161.555H365.737V163.223H370.974V163.972ZM367.472 156.066H364.785V155.306H367.472V156.066ZM368.89 157.449H363.463V156.7H368.89V157.449ZM368.372 159.539C368.372 160.039 368.167 160.44 367.758 160.742C367.349 161.038 366.823 161.186 366.182 161.186C365.547 161.186 365.025 161.038 364.616 160.742C364.207 160.44 364.002 160.039 364.002 159.539C364.002 159.026 364.203 158.621 364.605 158.325C365.014 158.03 365.54 157.882 366.182 157.882C366.823 157.882 367.349 158.03 367.758 158.325C368.167 158.621 368.372 159.026 368.372 159.539ZM367.441 159.539C367.441 159.258 367.317 159.036 367.07 158.874C366.83 158.712 366.534 158.631 366.182 158.631C365.829 158.631 365.533 158.712 365.293 158.874C365.053 159.036 364.933 159.258 364.933 159.539C364.933 159.807 365.053 160.025 365.293 160.193C365.54 160.356 365.836 160.436 366.182 160.436C366.534 160.436 366.83 160.356 367.07 160.193C367.317 160.031 367.441 159.813 367.441 159.539ZM382.099 159.243H375.698V155.591H382.003V156.351H376.639V158.473H382.099V159.243ZM379.316 164.194H378.375V161.101H374.693V160.352H383.04V161.101H379.316V164.194ZM388.145 160.331H383.839V155.633H384.781V157.291H387.214V155.623H388.145V160.331ZM387.214 159.571V158.051H384.781V159.571H387.214ZM390.113 158.367H388.674V157.597H390.113V155.021H391.054V161.745H390.113V158.367ZM391.266 163.962H385.056V161.122H385.987V163.212H391.266V163.962ZM395.884 159.106H396.296C397.848 159.106 399.051 159.011 399.904 158.821L400.031 159.571C399.008 159.782 397.63 159.887 395.894 159.887H394.963V155.739H399.153V156.488H395.884V159.106ZM403.163 158.156H401.787V160.5H400.846V155.021H401.787V157.386H403.163V158.156ZM401.904 162.431C401.904 162.973 401.632 163.406 401.089 163.73C400.546 164.061 399.784 164.226 398.804 164.226C397.824 164.226 397.062 164.064 396.519 163.74C395.983 163.417 395.715 162.98 395.715 162.431C395.715 161.876 395.983 161.435 396.519 161.112C397.062 160.788 397.824 160.626 398.804 160.626C399.784 160.626 400.546 160.791 401.089 161.122C401.632 161.446 401.904 161.882 401.904 162.431ZM400.37 163.181C400.75 162.997 400.941 162.748 400.941 162.431C400.941 162.115 400.75 161.865 400.37 161.682C399.989 161.492 399.467 161.397 398.804 161.397C398.141 161.397 397.619 161.492 397.238 161.682C396.864 161.865 396.677 162.115 396.677 162.431C396.677 162.748 396.864 162.997 397.238 163.181C397.619 163.364 398.141 163.455 398.804 163.455C399.467 163.455 399.989 163.364 400.37 163.181ZM411.949 158.906H410.563V161.819H409.632V155.021H410.563V158.114H411.949V158.906ZM410.881 163.972H404.713V161.555H405.644V163.223H410.881V163.972ZM407.379 156.066H404.692V155.306H407.379V156.066ZM408.796 157.449H403.369V156.7H408.796V157.449ZM408.278 159.539C408.278 160.039 408.073 160.44 407.664 160.742C407.255 161.038 406.73 161.186 406.088 161.186C405.453 161.186 404.931 161.038 404.522 160.742C404.113 160.44 403.909 160.039 403.909 159.539C403.909 159.026 404.11 158.621 404.512 158.325C404.921 158.03 405.446 157.882 406.088 157.882C406.73 157.882 407.255 158.03 407.664 158.325C408.073 158.621 408.278 159.026 408.278 159.539ZM407.347 159.539C407.347 159.258 407.224 159.036 406.977 158.874C406.737 158.712 406.441 158.631 406.088 158.631C405.735 158.631 405.439 158.712 405.199 158.874C404.96 159.036 404.84 159.258 404.84 159.539C404.84 159.807 404.96 160.025 405.199 160.193C405.446 160.356 405.743 160.436 406.088 160.436C406.441 160.436 406.737 160.356 406.977 160.193C407.224 160.031 407.347 159.813 407.347 159.539ZM412.41 156.467V155.707H417.467V156.467H415.446V156.837C415.446 157.449 415.672 158.005 416.123 158.505C416.574 158.997 417.086 159.332 417.657 159.507L417.139 160.257C416.715 160.088 416.296 159.82 415.88 159.455C415.464 159.081 415.164 158.691 414.98 158.283C414.839 158.712 414.54 159.142 414.081 159.571C413.623 160 413.147 160.316 412.653 160.521L412.124 159.782C412.759 159.556 413.312 159.17 413.785 158.621C414.257 158.065 414.494 157.477 414.494 156.858V156.467H412.41ZM413.595 160.975H419.794V164.247H418.842V161.735H413.595V160.975ZM419.784 160.489H418.842V158.156H417.128V157.396H418.842V155.021H419.784V160.489ZM430.961 160.299H430.019V155.021H430.961V160.299ZM424.296 156.161C424.761 155.739 425.333 155.528 426.01 155.528C426.687 155.528 427.254 155.739 427.713 156.161C428.178 156.577 428.411 157.111 428.411 157.766C428.411 158.413 428.182 158.937 427.724 159.338C427.265 159.74 426.694 159.94 426.01 159.94C425.333 159.94 424.761 159.74 424.296 159.338C423.837 158.937 423.608 158.413 423.608 157.766C423.608 157.118 423.837 156.583 424.296 156.161ZM426.01 156.33C425.586 156.33 425.237 156.467 424.962 156.742C424.687 157.009 424.55 157.343 424.55 157.745C424.55 158.16 424.687 158.501 424.962 158.768C425.237 159.036 425.586 159.17 426.01 159.17C426.44 159.17 426.789 159.039 427.057 158.779C427.332 158.511 427.47 158.174 427.47 157.766C427.47 157.343 427.336 156.999 427.068 156.731C426.807 156.464 426.454 156.33 426.01 156.33ZM431.247 164.289C430.929 164.134 430.601 163.884 430.263 163.54C429.931 163.195 429.709 162.864 429.596 162.547C429.49 162.892 429.279 163.244 428.961 163.603C428.644 163.969 428.299 164.236 427.925 164.405L427.322 163.782C427.857 163.529 428.291 163.166 428.623 162.695C428.961 162.224 429.131 161.713 429.131 161.165V160.7H430.051V161.133C430.051 161.682 430.227 162.192 430.58 162.663C430.94 163.135 431.356 163.455 431.828 163.624L431.247 164.289ZM427.935 162.843L427.3 163.466C427.096 163.36 426.892 163.206 426.687 163.001C426.482 162.797 426.331 162.586 426.232 162.368C426.126 162.72 425.897 163.086 425.544 163.466C425.191 163.846 424.821 164.124 424.433 164.3L423.883 163.645C424.398 163.413 424.832 163.065 425.184 162.6C425.537 162.136 425.713 161.633 425.713 161.091V160.7H426.634V161.038C426.634 161.467 426.757 161.84 427.004 162.157C427.251 162.473 427.561 162.702 427.935 162.843ZM433.474 161.217H433.854C435.505 161.217 436.789 161.119 437.705 160.922L437.811 161.682C436.852 161.879 435.441 161.984 433.579 161.998H432.543V155.992H436.912V156.763H433.474V161.217ZM439.292 155.021V158.621H440.731V159.402H439.292V164.247H438.361V155.021H439.292Z" fill="#808191"/>
<mask id="mask3_73_6587" style="mask-type:luminance" maskUnits="userSpaceOnUse" x="348" y="178" width="129" height="40">
<path d="M348 178.587H476.466V217.794H348V178.587Z" fill="white"/>
</mask>
<g mask="url(#mask3_73_6587)">
<path d="M476.466 217.794V217.04H348V217.794V218.548H476.466V217.794Z" fill="#E7E7E7"/>
</g>
<path d="M368.964 200.614L368.414 201.3C367.949 201.032 367.494 200.642 367.049 200.128C366.605 199.615 366.312 199.111 366.171 198.619C366.03 199.146 365.744 199.681 365.314 200.223C364.891 200.758 364.404 201.194 363.854 201.532L363.251 200.846C363.978 200.43 364.563 199.854 365.007 199.115C365.459 198.376 365.685 197.577 365.685 196.719V195.959H363.6V195.188H368.689V195.959H366.647V196.708C366.647 197.567 366.859 198.337 367.282 199.02C367.712 199.702 368.273 200.234 368.964 200.614ZM372.106 198.693H370.657V203.453H369.726V194.228H370.657V197.911H372.106V198.693ZM380.269 197.848L379.845 198.598C379.147 198.485 378.463 198.239 377.793 197.859C377.13 197.479 376.686 197.078 376.46 196.655C376.255 197.092 375.829 197.504 375.18 197.89C374.538 198.27 373.85 198.517 373.117 198.629L372.673 197.89C373.455 197.806 374.185 197.553 374.862 197.13C375.54 196.701 375.91 196.208 375.973 195.653H373.064V194.882H379.888V195.653H376.968C377.038 196.201 377.416 196.687 378.1 197.109C378.791 197.525 379.514 197.77 380.269 197.848ZM376.915 203.453H375.973V200.223H372.292V199.463H380.639V200.223H376.915V203.453ZM391.054 199.505H390.113V194.228H391.054V199.505ZM384.389 195.368C384.855 194.945 385.426 194.734 386.103 194.734C386.78 194.734 387.348 194.945 387.807 195.368C388.272 195.783 388.505 196.318 388.505 196.972C388.505 197.62 388.276 198.144 387.817 198.545C387.359 198.946 386.787 199.146 386.103 199.146C385.426 199.146 384.855 198.946 384.389 198.545C383.931 198.144 383.702 197.62 383.702 196.972C383.702 196.324 383.931 195.79 384.389 195.368ZM386.103 195.536C385.68 195.536 385.331 195.674 385.056 195.948C384.781 196.216 384.643 196.55 384.643 196.951C384.643 197.366 384.781 197.707 385.056 197.975C385.331 198.242 385.68 198.376 386.103 198.376C386.533 198.376 386.883 198.245 387.151 197.985C387.426 197.718 387.563 197.38 387.563 196.972C387.563 196.55 387.429 196.205 387.161 195.938C386.9 195.67 386.548 195.536 386.103 195.536ZM391.34 203.495C391.023 203.341 390.695 203.09 390.356 202.746C390.025 202.401 389.803 202.07 389.69 201.754C389.584 202.098 389.372 202.45 389.055 202.809C388.738 203.175 388.392 203.443 388.018 203.611L387.415 202.989C387.951 202.735 388.385 202.373 388.716 201.901C389.055 201.43 389.224 200.92 389.224 200.371V199.906H390.145V200.339C390.145 200.888 390.321 201.399 390.674 201.87C391.033 202.341 391.449 202.661 391.922 202.83L391.34 203.495ZM388.029 202.049L387.394 202.672C387.189 202.566 386.985 202.412 386.78 202.208C386.576 202.003 386.424 201.792 386.325 201.574C386.22 201.926 385.99 202.292 385.638 202.672C385.285 203.052 384.915 203.33 384.527 203.506L383.977 202.851C384.492 202.619 384.925 202.271 385.278 201.806C385.631 201.342 385.807 200.839 385.807 200.297V199.906H386.727V200.244C386.727 200.673 386.851 201.046 387.098 201.363C387.345 201.68 387.655 201.908 388.029 202.049ZM393.567 200.424H393.948C395.599 200.424 396.882 200.325 397.799 200.128L397.905 200.888C396.946 201.085 395.535 201.19 393.673 201.205H392.636V195.199H397.006V195.969H393.567V200.424ZM399.386 194.228V197.827H400.825V198.608H399.386V203.453H398.455V194.228H399.386Z" fill="#808191"/>
<mask id="mask4_73_6587" style="mask-type:luminance" maskUnits="userSpaceOnUse" x="348" y="217" width="129" height="40">
<path d="M348 217.794H476.466V257H348V217.794Z" fill="white"/>
</mask>
<g mask="url(#mask4_73_6587)">
<path d="M476.466 257V256.246H348V257V257.754H476.466V257Z" fill="#E7E7E7"/>
</g>
<path d="M370.826 237.688H364.531V233.951H370.826V237.688ZM369.895 236.939V234.711H365.473V236.939H369.895ZM368.139 242.67H367.197V239.567H363.516V238.807H371.863V239.567H368.139V242.67ZM380.639 238.48H372.292V237.72H380.639V238.48ZM379.644 235.324C379.644 235.851 379.362 236.274 378.798 236.59C378.241 236.9 377.461 237.055 376.46 237.055C375.465 237.055 374.686 236.9 374.122 236.59C373.565 236.274 373.286 235.851 373.286 235.324C373.286 234.789 373.565 234.367 374.122 234.057C374.686 233.74 375.465 233.582 376.46 233.582C377.461 233.582 378.241 233.74 378.798 234.057C379.362 234.367 379.644 234.789 379.644 235.324ZM378.671 235.324C378.671 235.021 378.474 234.781 378.079 234.606C377.684 234.43 377.144 234.342 376.46 234.342C375.783 234.342 375.247 234.43 374.852 234.606C374.464 234.781 374.27 235.021 374.27 235.324C374.27 235.619 374.467 235.858 374.862 236.041C375.257 236.217 375.79 236.305 376.46 236.305C377.13 236.305 377.666 236.217 378.068 236.041C378.47 235.858 378.671 235.619 378.671 235.324ZM379.74 240.865C379.74 241.407 379.45 241.826 378.872 242.121C378.301 242.417 377.5 242.565 376.471 242.565C375.448 242.565 374.647 242.417 374.069 242.121C373.498 241.826 373.212 241.407 373.212 240.865C373.212 240.331 373.501 239.915 374.08 239.62C374.658 239.324 375.455 239.176 376.471 239.176C377.493 239.176 378.294 239.324 378.872 239.62C379.45 239.915 379.74 240.331 379.74 240.865ZM376.471 239.957C375.772 239.957 375.219 240.038 374.81 240.2C374.4 240.355 374.196 240.58 374.196 240.876C374.196 241.171 374.4 241.4 374.81 241.562C375.219 241.716 375.772 241.794 376.471 241.794C377.183 241.794 377.744 241.716 378.153 241.562C378.562 241.407 378.766 241.178 378.766 240.876C378.766 240.58 378.558 240.355 378.142 240.2C377.733 240.038 377.176 239.957 376.471 239.957ZM389.584 236.326H388.209V238.364H387.267V233.434H388.209V235.545H389.584V236.326ZM388.209 242.533H382.337V238.86H383.268V239.957H387.278V238.849H388.209V242.533ZM387.278 241.784V240.686H383.268V241.784H387.278ZM382.337 237.224C384.037 237.224 385.363 237.122 386.315 236.917C386.336 237.002 386.357 237.125 386.378 237.287C386.407 237.449 386.431 237.572 386.453 237.656C385.451 237.861 384.083 237.969 382.348 237.984H381.406V234.036H385.553V234.796H382.337V237.224ZM389.494 242.554L391.949 233.772H392.763L390.309 242.554H389.494ZM400.574 242.66H399.643V233.434H400.574V242.66ZM397.929 240.306H393.496V234.363H397.929V240.306ZM396.998 239.535V235.123H394.427V239.535H396.998ZM408.927 242.533H403.013V239.409H408.927V242.533ZM407.054 238.068L406.567 238.807C406.151 238.673 405.735 238.444 405.319 238.121C404.91 237.79 404.607 237.424 404.409 237.023C404.254 237.438 403.961 237.84 403.531 238.226C403.108 238.606 402.642 238.885 402.134 239.06L401.627 238.353C402.233 238.163 402.748 237.853 403.171 237.424C403.601 236.988 403.848 236.491 403.912 235.936H401.891V235.176H406.874V235.936H404.906C404.97 236.464 405.206 236.917 405.615 237.297C406.031 237.677 406.511 237.935 407.054 238.068ZM407.996 241.794V240.158H403.954V241.794H407.996ZM410.302 236.622H408.927V238.923H407.996V233.434H408.927V235.851H410.302V236.622ZM405.689 234.437H403.118V233.677H405.689V234.437ZM417.205 236.179H415.513L415.502 235.387H417.205V233.434H418.136V242.66H417.205V239.219H415.502L415.513 238.437H417.205V236.179ZM411.207 239.704C410.819 239.099 410.625 238.315 410.625 237.35C410.625 236.386 410.819 235.602 411.207 234.996C411.595 234.391 412.169 234.089 412.931 234.089C413.693 234.089 414.264 234.391 414.645 234.996C415.033 235.602 415.227 236.39 415.227 237.361C415.227 238.325 415.033 239.109 414.645 239.715C414.264 240.313 413.693 240.612 412.931 240.612C412.169 240.612 411.595 240.31 411.207 239.704ZM414.328 237.361C414.328 236.622 414.204 236.027 413.957 235.577C413.717 235.119 413.375 234.891 412.931 234.891C412.487 234.891 412.145 235.116 411.905 235.566C411.672 236.016 411.556 236.615 411.556 237.361C411.556 238.093 411.672 238.684 411.905 239.134C412.145 239.584 412.487 239.81 412.931 239.81C413.375 239.81 413.717 239.584 413.957 239.134C414.204 238.684 414.328 238.093 414.328 237.361Z" fill="#808191"/>
<mask id="mask5_73_6587" style="mask-type:luminance" maskUnits="userSpaceOnUse" x="476" y="67" width="285" height="34">
<path d="M476.466 67H760.602V100.175H476.466V67Z" fill="white"/>
</mask>
<g mask="url(#mask5_73_6587)">
<path d="M760.602 100.175V99.4207H476.466V100.175V100.929H760.602V100.175Z" fill="#E7E7E7"/>
</g>
<mask id="mask6_73_6587" style="mask-type:luminance" maskUnits="userSpaceOnUse" x="476" y="100" width="285" height="40">
<path d="M476.466 100.175H760.602V139.381H476.466V100.175Z" fill="white"/>
</mask>
<g mask="url(#mask6_73_6587)">
<path d="M760.602 139.381V138.627H476.466V139.381V140.135H760.602V139.381Z" fill="#E7E7E7"/>
</g>
<path d="M507.416 120.364H500.751V117.884H506.231V116.923H500.74V116.195H507.162V118.602H501.682V119.625H507.416V120.364ZM502.856 125.051H501.925V122.074H499.788V121.325H508.135V122.074H505.977V125.051H505.046V122.074H502.856V125.051ZM516.371 125.04H515.472V115.815H516.371V125.04ZM514.541 124.587H513.652V119.858H512.192V119.087H513.652V116.026H514.541V124.587ZM513.166 122.085L512.594 122.739C512.235 122.493 511.883 122.134 511.536 121.663C511.191 121.191 510.952 120.716 510.817 120.238C510.704 120.744 510.472 121.251 510.119 121.758C509.773 122.264 509.371 122.673 508.913 122.982L508.331 122.328C508.91 121.955 509.393 121.406 509.78 120.681C510.169 119.956 510.362 119.15 510.362 118.264V116.691H511.261V118.253C511.261 119.105 511.438 119.872 511.79 120.554C512.15 121.23 512.609 121.74 513.166 122.085ZM525.962 120.248H524.481V125.04H523.54V115.815H524.481V119.478H525.962V120.248ZM518.07 122.095C517.675 121.49 517.478 120.702 517.478 119.731C517.478 118.76 517.675 117.975 518.07 117.377C518.465 116.772 519.05 116.469 519.826 116.469C520.602 116.469 521.183 116.772 521.572 117.377C521.966 117.975 522.164 118.763 522.164 119.742C522.164 120.706 521.966 121.49 521.572 122.095C521.183 122.694 520.602 122.993 519.826 122.993C519.05 122.993 518.465 122.694 518.07 122.095ZM521.244 119.742C521.244 119.003 521.12 118.408 520.874 117.958C520.627 117.5 520.277 117.272 519.826 117.272C519.374 117.272 519.025 117.497 518.779 117.947C518.539 118.398 518.419 118.996 518.419 119.742C518.419 120.473 518.539 121.065 518.779 121.515C519.025 121.965 519.374 122.19 519.826 122.19C520.277 122.19 520.627 121.965 520.874 121.515C521.12 121.065 521.244 120.473 521.244 119.742Z" fill="#1B1D21"/>
<path d="M549.734 120.364H543.069V117.884H548.549V116.923H543.058V116.195H549.48V118.602H544V119.625H549.734V120.364ZM545.174 125.051H544.243V122.074H542.106V121.325H550.453V122.074H548.295V125.051H547.364V122.074H545.174V125.051ZM559.229 123.869H550.882V123.109H554.563V120.945H551.876V116.564H558.245V117.324H552.807V120.185H558.298V120.945H555.505V123.109H559.229V123.869ZM560.388 117.071C560.846 116.621 561.421 116.395 562.113 116.395C562.803 116.395 563.375 116.621 563.827 117.071C564.278 117.514 564.504 118.074 564.504 118.749C564.504 119.425 564.278 119.981 563.827 120.417C563.382 120.846 562.811 121.061 562.113 121.061C561.414 121.061 560.839 120.846 560.388 120.417C559.936 119.988 559.711 119.435 559.711 118.76C559.711 118.077 559.936 117.514 560.388 117.071ZM562.113 117.208C561.689 117.208 561.34 117.356 561.065 117.652C560.797 117.94 560.663 118.306 560.663 118.749C560.663 119.186 560.797 119.545 561.065 119.826C561.34 120.108 561.689 120.248 562.113 120.248C562.549 120.248 562.899 120.111 563.16 119.837C563.421 119.555 563.551 119.193 563.551 118.749C563.551 118.299 563.421 117.93 563.16 117.641C562.899 117.353 562.549 117.208 562.113 117.208ZM566.302 117.863H564.758L564.736 117.082H566.302V115.815H567.244V122.518H566.302V120.164H564.736L564.758 119.393H566.302V117.863ZM567.434 124.755H561.245V121.916H562.176V124.006H567.434V124.755Z" fill="#1B1D21"/>
<mask id="mask7_73_6587" style="mask-type:luminance" maskUnits="userSpaceOnUse" x="476" y="139" width="285" height="40">
<path d="M476.466 139.381H760.602V178.587H476.466V139.381Z" fill="white"/>
</mask>
<g mask="url(#mask7_73_6587)">
<path d="M760.602 178.587V177.833H476.466V178.587V179.341H760.602V178.587Z" fill="#E7E7E7"/>
</g>
<path d="M508.304 158.114H506.929V160.552H505.987V155.021H506.929V157.343H508.304V158.114ZM507.056 162.431C507.056 162.987 506.777 163.427 506.22 163.751C505.67 164.074 504.908 164.236 503.935 164.236C502.962 164.236 502.196 164.074 501.639 163.751C501.089 163.427 500.814 162.987 500.814 162.431C500.814 161.868 501.089 161.428 501.639 161.112C502.196 160.788 502.962 160.626 503.935 160.626C504.908 160.626 505.67 160.788 506.22 161.112C506.777 161.428 507.056 161.868 507.056 162.431ZM505.511 161.661C505.13 161.477 504.605 161.386 503.935 161.386C503.265 161.386 502.739 161.477 502.359 161.661C501.978 161.844 501.787 162.1 501.787 162.431C501.787 162.755 501.978 163.012 502.359 163.202C502.739 163.385 503.265 163.476 503.935 163.476C504.605 163.476 505.13 163.385 505.511 163.202C505.899 163.012 506.093 162.755 506.093 162.431C506.093 162.1 505.899 161.844 505.511 161.661ZM500.179 155.718H504.358C504.316 156.9 503.921 157.899 503.173 158.716C502.433 159.525 501.438 160.116 500.19 160.489L499.703 159.729C500.606 159.539 501.403 159.148 502.094 158.557C502.792 157.959 503.201 157.27 503.321 156.488H500.179V155.718ZM508.902 156.626V155.866H513.97V156.626H511.928V157.006C511.928 157.625 512.158 158.198 512.615 158.726C513.081 159.247 513.599 159.596 514.171 159.771L513.652 160.521C513.237 160.352 512.813 160.071 512.383 159.676C511.96 159.282 511.653 158.878 511.462 158.462C511.314 158.899 511.015 159.342 510.563 159.792C510.112 160.242 509.646 160.567 509.167 160.763L508.606 160.025C509.234 159.799 509.784 159.398 510.256 158.821C510.736 158.244 510.976 157.646 510.976 157.027V156.626H508.902ZM516.35 163.972H510.119V161.112H511.06V163.223H516.35V163.972ZM516.149 161.724H515.207V155.021H516.149V161.724ZM524.693 157.132C524.693 157.702 524.41 158.149 523.846 158.473C523.282 158.79 522.503 158.948 521.508 158.948C520.506 158.948 519.727 158.79 519.17 158.473C518.62 158.149 518.345 157.702 518.345 157.132C518.345 156.569 518.623 156.13 519.181 155.813C519.738 155.489 520.514 155.327 521.508 155.327C522.503 155.327 523.282 155.489 523.846 155.813C524.41 156.13 524.693 156.569 524.693 157.132ZM522.027 162.252H521.096V160.457H517.34V159.697H525.687V160.457H522.027V162.252ZM521.508 156.098C520.824 156.098 520.284 156.189 519.89 156.372C519.494 156.556 519.297 156.812 519.297 157.143C519.297 157.474 519.494 157.73 519.89 157.913C520.284 158.097 520.821 158.188 521.498 158.188C522.188 158.188 522.736 158.097 523.138 157.913C523.54 157.73 523.741 157.474 523.741 157.143C523.741 156.812 523.54 156.556 523.138 156.372C522.742 156.189 522.199 156.098 521.508 156.098ZM524.693 163.972H518.43V161.291H519.361V163.212H524.693V163.972Z" fill="#1B1D21"/>
<path d="M548.919 161.154C549.469 161.471 549.744 161.907 549.744 162.463C549.744 163.019 549.473 163.455 548.93 163.772C548.387 164.088 547.618 164.247 546.623 164.247C545.643 164.247 544.878 164.088 544.328 163.772C543.784 163.455 543.513 163.019 543.513 162.463C543.513 161.907 543.784 161.471 544.328 161.154C544.878 160.831 545.643 160.668 546.623 160.668C547.611 160.668 548.376 160.831 548.919 161.154ZM542.318 156.531V155.771H547.375V156.531H545.354V156.837C545.354 157.449 545.58 158.005 546.031 158.505C546.482 158.997 546.994 159.332 547.565 159.507L547.047 160.257C546.623 160.088 546.204 159.82 545.788 159.455C545.371 159.081 545.072 158.691 544.888 158.283C544.747 158.712 544.448 159.142 543.989 159.571C543.53 160 543.054 160.316 542.561 160.521L542.032 159.782C542.667 159.556 543.221 159.17 543.693 158.621C544.165 158.065 544.402 157.477 544.402 156.858V156.531H542.318ZM546.623 161.439C545.946 161.439 545.417 161.53 545.037 161.713C544.656 161.889 544.465 162.139 544.465 162.463C544.465 162.786 544.656 163.04 545.037 163.223C545.417 163.399 545.946 163.487 546.623 163.487C547.307 163.487 547.84 163.399 548.221 163.223C548.602 163.04 548.792 162.786 548.792 162.463C548.792 162.139 548.602 161.889 548.221 161.713C547.84 161.53 547.307 161.439 546.623 161.439ZM548.75 158.114H547.026V157.343H548.75V155.021H549.692V160.742H548.75V158.114ZM559.494 159.645H558.023V164.247H557.081V155.021H558.023V158.863H559.494V159.645ZM554.965 156.383H552.204V155.623H554.965V156.383ZM556.309 157.966H550.829V157.217H556.309V157.966ZM555.791 160.436C555.791 160.992 555.59 161.453 555.188 161.819C554.786 162.185 554.26 162.368 553.611 162.368C552.963 162.368 552.434 162.188 552.024 161.83C551.622 161.464 551.421 160.999 551.421 160.436C551.421 159.881 551.626 159.416 552.035 159.043C552.445 158.67 552.97 158.483 553.611 158.483C554.26 158.483 554.786 158.67 555.188 159.043C555.59 159.409 555.791 159.873 555.791 160.436ZM554.521 161.27C554.754 161.052 554.87 160.774 554.87 160.436C554.87 160.098 554.751 159.82 554.511 159.602C554.271 159.377 553.971 159.265 553.611 159.265C553.252 159.265 552.952 159.374 552.712 159.592C552.479 159.81 552.363 160.092 552.363 160.436C552.363 160.774 552.479 161.052 552.712 161.27C552.945 161.481 553.245 161.587 553.611 161.587C553.992 161.587 554.296 161.481 554.521 161.27ZM568.175 158.188H566.799V160.626H565.868V155.021H566.799V157.417H568.175V158.188ZM566.799 164.12H560.864V161.07H566.799V164.12ZM565.868 163.371V161.808H561.795V163.371H565.868ZM565.138 159.961C564.701 160.046 564.084 160.12 563.287 160.183C562.497 160.239 561.77 160.267 561.108 160.267H560.007V157.46H563.234V156.362H559.986V155.612H564.165V158.198H560.949V159.507H561.129C562.843 159.507 564.136 159.412 565.012 159.222L565.138 159.961Z" fill="#1B1D21"/>
<mask id="mask8_73_6587" style="mask-type:luminance" maskUnits="userSpaceOnUse" x="476" y="178" width="285" height="40">
<path d="M476.466 178.587H760.602V217.794H476.466V178.587Z" fill="white"/>
</mask>
<g mask="url(#mask8_73_6587)">
<path d="M760.602 217.794V217.04H476.466V217.794V218.548H760.602V217.794Z" fill="#E7E7E7"/>
</g>
<path d="M503.3 200.698H502.369V198.608C501.798 198.629 500.958 198.647 499.851 198.661L499.703 197.88C500.789 197.88 501.833 197.859 502.835 197.816C503.082 197.816 503.41 197.802 503.819 197.774C503.967 197.134 504.041 196.416 504.041 195.621H500.528V194.861H504.982C504.982 195.965 504.901 196.912 504.739 197.7C505.325 197.644 505.656 197.612 505.733 197.605C505.783 197.971 505.818 198.211 505.839 198.323C505.367 198.393 504.521 198.471 503.3 198.555V200.698ZM504.506 199.885V199.178H506.506V194.228H507.437V201.236H506.506V199.885H504.506ZM507.659 203.221H500.994V200.392H501.935V202.45H507.659V203.221ZM513.187 203.464H512.245V200.149H508.563V199.4H516.911V200.149H513.187V203.464ZM516.593 197.721L516.149 198.481C515.444 198.348 514.756 198.074 514.086 197.658C513.423 197.243 512.972 196.786 512.732 196.286C512.535 196.778 512.101 197.236 511.431 197.658C510.761 198.074 510.059 198.351 509.325 198.492L508.902 197.732C509.77 197.62 510.542 197.306 511.219 196.793C511.904 196.279 512.245 195.712 512.245 195.093V194.513H513.229V195.093C513.229 195.501 513.406 195.906 513.758 196.307C514.111 196.701 514.545 197.025 515.059 197.278C515.575 197.525 516.086 197.672 516.593 197.721ZM524.164 200.666C524.706 200.948 524.978 201.342 524.978 201.849C524.978 202.355 524.706 202.75 524.164 203.031C523.627 203.312 522.863 203.453 521.868 203.453C520.874 203.453 520.112 203.312 519.583 203.031C519.054 202.756 518.789 202.362 518.789 201.849C518.789 201.335 519.054 200.937 519.583 200.656C520.112 200.375 520.874 200.234 521.868 200.234C522.863 200.234 523.627 200.378 524.164 200.666ZM521.868 200.962C521.205 200.962 520.686 201.043 520.313 201.205C519.939 201.359 519.752 201.574 519.752 201.849C519.752 202.123 519.935 202.341 520.302 202.503C520.676 202.658 521.198 202.735 521.868 202.735C522.545 202.735 523.07 202.658 523.444 202.503C523.818 202.349 524.005 202.13 524.005 201.849C524.005 201.574 523.815 201.359 523.434 201.205C523.06 201.043 522.538 200.962 521.868 200.962ZM522.545 197.426V196.676H523.984V194.228H524.926V200.149H523.984V199.136H522.545V198.397H523.984V197.426H522.545ZM521.328 195.114H518.641V194.354H521.328V195.114ZM522.376 196.444H517.351V195.695H522.376V196.444ZM522.09 198.355C522.09 198.805 521.889 199.171 521.487 199.453C521.085 199.734 520.574 199.875 519.953 199.875C519.332 199.875 518.821 199.738 518.419 199.463C518.017 199.182 517.816 198.812 517.816 198.355C517.816 197.89 518.013 197.521 518.409 197.246C518.811 196.965 519.325 196.824 519.953 196.824C520.574 196.824 521.085 196.965 521.487 197.246C521.889 197.521 522.09 197.89 522.09 198.355ZM520.8 198.935C521.039 198.788 521.159 198.594 521.159 198.355C521.159 198.116 521.039 197.922 520.8 197.774C520.567 197.62 520.284 197.542 519.953 197.542C519.621 197.542 519.336 197.62 519.096 197.774C518.856 197.922 518.736 198.116 518.736 198.355C518.736 198.594 518.856 198.788 519.096 198.935C519.336 199.083 519.621 199.157 519.953 199.157C520.284 199.157 520.567 199.083 520.8 198.935Z" fill="#1B1D21"/>
<path d="M549.776 195.885H546.772V196.001C546.772 196.465 546.958 196.926 547.332 197.384C547.713 197.834 548.157 198.2 548.665 198.481C549.18 198.756 549.677 198.939 550.157 199.03L549.691 199.769C548.958 199.572 548.263 199.238 547.607 198.766C546.951 198.295 546.507 197.795 546.274 197.268C546.077 197.802 545.646 198.309 544.984 198.788C544.321 199.259 543.619 199.586 542.878 199.769L542.413 198.999C542.914 198.921 543.418 198.745 543.926 198.471C544.433 198.196 544.871 197.838 545.238 197.394C545.604 196.944 545.788 196.48 545.788 196.001V195.885H542.794V195.135H549.776V195.885ZM550.453 202.281H542.106V201.521H545.788V199.358H546.729V201.521H550.453V202.281ZM558.51 203.453H557.568V198.26H555.505V197.468H557.568V194.228H558.51V203.453ZM556.447 200.561L555.886 201.258C555.435 200.962 554.987 200.554 554.542 200.033C554.098 199.512 553.795 198.999 553.632 198.492C553.477 199.048 553.188 199.6 552.765 200.149C552.349 200.691 551.88 201.135 551.358 201.479L550.765 200.793C551.478 200.35 552.053 199.752 552.49 198.999C552.927 198.245 553.146 197.451 553.146 196.613V195.019H554.108V196.571C554.108 197.401 554.328 198.169 554.764 198.872C555.202 199.575 555.763 200.139 556.447 200.561ZM559.997 195.832V195.072H565.064V195.832H563.022V196.212C563.022 196.831 563.251 197.405 563.71 197.933C564.176 198.454 564.694 198.802 565.265 198.978L564.747 199.727C564.331 199.558 563.907 199.277 563.477 198.883C563.054 198.488 562.747 198.084 562.557 197.669C562.409 198.105 562.109 198.549 561.658 198.999C561.206 199.449 560.74 199.773 560.261 199.97L559.7 199.231C560.328 199.005 560.878 198.604 561.351 198.028C561.83 197.451 562.07 196.852 562.07 196.233V195.832H559.997ZM567.445 203.179H561.213V200.318H562.155V202.429H567.445V203.179ZM567.244 200.93H566.302V194.228H567.244V200.93Z" fill="#1B1D21"/>
<mask id="mask9_73_6587" style="mask-type:luminance" maskUnits="userSpaceOnUse" x="476" y="217" width="285" height="40">
<path d="M476.466 217.794H760.602V257H476.466V217.794Z" fill="white"/>
</mask>
<g mask="url(#mask9_73_6587)">
<path d="M760.602 257V256.246H476.466V257V257.754H760.602V257Z" fill="#E7E7E7"/>
</g>
</g>
</g>
<defs>
<clipPath id="clip0_73_6587">
<rect width="544" height="324" fill="white"/>
</clipPath>
<clipPath id="clip1_73_6587">
<rect width="328" height="269.844" fill="white" transform="translate(0 27.0781)"/>
</clipPath>
<clipPath id="clip2_73_6587">
<rect width="266" height="190" fill="white" transform="translate(348 67)"/>
</clipPath>
</defs>
</svg>
