<svg width="173" height="264" viewBox="0 0 173 264" fill="none" xmlns="http://www.w3.org/2000/svg">
<mask id="mask0_78_8713" style="mask-type:alpha" maskUnits="userSpaceOnUse" x="0" y="16" width="115" height="116">
<circle cx="57.5" cy="74.1614" r="57.5" fill="#D9D9D9"/>
</mask>
<g mask="url(#mask0_78_8713)">
<circle cx="57.5" cy="74.1614" r="57.5" fill="#99A1AE"/>
<path d="M60.4285 74.3678V1.93921L106.714 7.51064L60.4285 74.3678Z" fill="#EF4444"/>
<path d="M59.5715 73.9393L114.429 -2.34644L142.286 28.0821L59.5715 73.9393Z" fill="#FBBF24"/>
<path d="M27.3411 78.632V82.132H29.1051V83.49H27.3411V87.676H25.6891V78.632H27.3411ZM27.6351 90.742H19.2491V86.752H20.8871V89.44H27.6351V90.742ZM18.6891 84.89C18.0918 84.3207 17.7931 83.588 17.7931 82.692C17.7931 81.796 18.0964 81.0633 18.7031 80.494C19.3098 79.9247 20.1031 79.64 21.0831 79.64C22.0724 79.64 22.8658 79.9247 23.4631 80.494C24.0698 81.0633 24.3731 81.796 24.3731 82.692C24.3731 83.588 24.0698 84.3207 23.4631 84.89C22.8658 85.4593 22.0724 85.744 21.0831 85.744C20.0938 85.744 19.2958 85.4593 18.6891 84.89ZM19.4591 82.692C19.4591 83.1867 19.6038 83.5927 19.8931 83.91C20.1918 84.2273 20.5884 84.386 21.0831 84.386C21.5778 84.386 21.9744 84.2273 22.2731 83.91C22.5718 83.5927 22.7211 83.1867 22.7211 82.692C22.7211 82.2067 22.5718 81.81 22.2731 81.502C21.9744 81.1847 21.5778 81.026 21.0831 81.026C20.5978 81.026 20.2058 81.1847 19.9071 81.502C19.6084 81.81 19.4591 82.2067 19.4591 82.692ZM30.1304 80.97V79.626H36.7104V80.97H34.3164C34.3257 81.8753 34.5964 82.6687 35.1284 83.35C35.6697 84.022 36.323 84.4793 37.0884 84.722L36.1924 86.01C35.6977 85.8233 35.1844 85.492 34.6524 85.016C34.1297 84.54 33.7424 84.0267 33.4904 83.476C33.3037 84.0733 32.9257 84.652 32.3564 85.212C31.7964 85.7627 31.2084 86.1453 30.5924 86.36L29.6264 85.072C30.541 84.736 31.269 84.2087 31.8104 83.49C32.361 82.7713 32.6364 81.9453 32.6364 81.012V80.97H30.1304ZM40.0144 87.676H38.3764V83.266H36.5004V81.95H38.3764V78.632H40.0144V87.676ZM40.2804 90.77H31.6704V86.836H33.3224V89.482H40.2804V90.77ZM51.6376 79.192C51.6376 81.264 51.507 82.818 51.2456 83.854H53.0796V85.156H48.2496V88.222H46.6116V85.156H41.8096V83.854H49.6636C49.9063 82.902 50.0183 81.7867 49.9996 80.508H43.2656V79.192H51.6376ZM51.7916 90.77H43.2516V86.808H44.8756V89.482H51.7916V90.77ZM57.9087 89.426V88.418L59.7427 86.486C60.5547 85.6273 61.1567 84.918 61.5487 84.358C61.9407 83.7887 62.1367 83.2333 62.1367 82.692C62.1367 82.1227 61.9827 81.712 61.6747 81.46C61.376 81.208 60.914 81.082 60.2887 81.082C59.6727 81.082 59.01 81.2967 58.3007 81.726L58.0207 80.452C58.8513 79.9667 59.7613 79.724 60.7507 79.724C61.7867 79.724 62.5753 79.962 63.1167 80.438C63.658 80.914 63.9287 81.5907 63.9287 82.468C63.9287 82.8693 63.854 83.2753 63.7047 83.686C63.5647 84.0873 63.3407 84.498 63.0327 84.918C62.7247 85.3287 62.454 85.6647 62.2207 85.926C61.9967 86.178 61.6887 86.5093 61.2967 86.92L60.1627 88.082H64.0127V89.426H57.9087ZM69.1529 89.594C68.0329 89.594 67.1322 89.216 66.4509 88.46C65.7695 87.6947 65.4289 86.5373 65.4289 84.988V84.386C65.4289 83.5553 65.5269 82.832 65.7229 82.216C65.9282 81.6 66.2082 81.1147 66.5629 80.76C66.9175 80.4053 67.3095 80.144 67.7389 79.976C68.1775 79.808 68.6535 79.724 69.1669 79.724C70.2589 79.724 71.1455 80.0973 71.8269 80.844C72.5175 81.5907 72.8629 82.7573 72.8629 84.344V84.946C72.8629 86.5327 72.5175 87.704 71.8269 88.46C71.1362 89.216 70.2449 89.594 69.1529 89.594ZM69.1529 88.278C69.8062 88.278 70.2915 88.026 70.6089 87.522C70.9262 87.0087 71.0849 86.1873 71.0849 85.058V84.344C71.0849 82.1507 70.4455 81.054 69.1669 81.054C68.5042 81.054 68.0142 81.3107 67.6969 81.824C67.3795 82.328 67.2209 83.1353 67.2209 84.246V84.988C67.2209 87.1813 67.8649 88.278 69.1529 88.278ZM82.8236 81.74H81.1156V80.452H82.8236V78.632H84.4476V85.898H82.8236V84.316H81.1016V83.028H82.8236V81.74ZM80.4156 85.156H74.6476V79.528H80.4156V85.156ZM78.8056 83.896V80.788H76.2576V83.896H78.8056ZM84.5456 88.586C84.5456 89.3607 84.1676 89.972 83.4116 90.42C82.6556 90.8773 81.601 91.106 80.2476 91.106C78.9223 91.106 77.8816 90.8773 77.1256 90.42C76.379 89.972 76.0056 89.3607 76.0056 88.586C76.0056 87.802 76.379 87.186 77.1256 86.738C77.8723 86.2807 78.913 86.052 80.2476 86.052C81.601 86.052 82.6556 86.276 83.4116 86.724C84.1676 87.172 84.5456 87.7927 84.5456 88.586ZM80.2476 87.354C79.4543 87.354 78.8243 87.466 78.3576 87.69C77.9003 87.9047 77.6716 88.2033 77.6716 88.586C77.6716 88.9593 77.9003 89.2533 78.3576 89.468C78.8243 89.6827 79.4543 89.79 80.2476 89.79C81.069 89.79 81.7083 89.6827 82.1656 89.468C82.623 89.2533 82.8516 88.9593 82.8516 88.586C82.8516 88.2033 82.623 87.9047 82.1656 87.69C81.7083 87.466 81.069 87.354 80.2476 87.354Z" fill="white"/>
</g>
<path d="M123.73 40.7036H115.008V37.5116H121.77V36.8676H114.966V35.5796H118.396V34.7396H113.608V33.4936H124.878V34.7396H120.034V35.5796H123.394V38.6596H116.632V39.3596H123.73V40.7036ZM123.436 32.7096H115.05V28.4816H116.688V29.4056H121.812V28.4676H123.436V32.7096ZM121.812 31.4496V30.6516H116.688V31.4496H121.812ZM135.48 28.2856V31.8416H137.258V33.1996H135.48V37.3296H133.814V28.2856H135.48ZM135.774 40.3956H127.388V36.4056H129.026V39.0936H135.774V40.3956ZM131.924 35.1176H126.086V29.2376H131.924V35.1176ZM130.3 33.8296V30.5116H127.71V33.8296H130.3ZM147.663 28.8456C147.663 30.9176 147.532 32.4716 147.271 33.5076H149.105V34.8096H144.275V37.8756H142.637V34.8096H137.835V33.5076H145.689C145.932 32.5556 146.044 31.4402 146.025 30.1616H139.291V28.8456H147.663ZM147.817 40.4236H139.277V36.4616H140.901V39.1356H147.817V40.4236ZM153.934 39.0796V38.0716L155.768 36.1396C156.58 35.2809 157.182 34.5716 157.574 34.0116C157.966 33.4422 158.162 32.8869 158.162 32.3456C158.162 31.7762 158.008 31.3656 157.7 31.1136C157.401 30.8616 156.939 30.7356 156.314 30.7356C155.698 30.7356 155.035 30.9502 154.326 31.3796L154.046 30.1056C154.877 29.6202 155.787 29.3776 156.776 29.3776C157.812 29.3776 158.601 29.6156 159.142 30.0916C159.683 30.5676 159.954 31.2442 159.954 32.1216C159.954 32.5229 159.879 32.9289 159.73 33.3396C159.59 33.7409 159.366 34.1516 159.058 34.5716C158.75 34.9822 158.479 35.3182 158.246 35.5796C158.022 35.8316 157.714 36.1629 157.322 36.5736L156.188 37.7356H160.038V39.0796H153.934ZM169.798 31.3936H168.09V30.1056H169.798V28.2856H171.422V35.5516H169.798V33.9696H168.076V32.6816H169.798V31.3936ZM167.39 34.8096H161.622V29.1816H167.39V34.8096ZM165.78 33.5496V30.4416H163.232V33.5496H165.78ZM171.52 38.2396C171.52 39.0142 171.142 39.6256 170.386 40.0736C169.63 40.5309 168.576 40.7596 167.222 40.7596C165.897 40.7596 164.856 40.5309 164.1 40.0736C163.354 39.6256 162.98 39.0142 162.98 38.2396C162.98 37.4556 163.354 36.8396 164.1 36.3916C164.847 35.9342 165.888 35.7056 167.222 35.7056C168.576 35.7056 169.63 35.9296 170.386 36.3776C171.142 36.8256 171.52 37.4462 171.52 38.2396ZM167.222 37.0076C166.429 37.0076 165.799 37.1196 165.332 37.3436C164.875 37.5582 164.646 37.8569 164.646 38.2396C164.646 38.6129 164.875 38.9069 165.332 39.1216C165.799 39.3362 166.429 39.4436 167.222 39.4436C168.044 39.4436 168.683 39.3362 169.14 39.1216C169.598 38.9069 169.826 38.6129 169.826 38.2396C169.826 37.8569 169.598 37.5582 169.14 37.3436C168.683 37.1196 168.044 37.0076 167.222 37.0076Z" fill="#101727"/>
<path d="M90.815 15.6944H79.545V14.3924H83.591V10.1924H85.229V14.3924H90.815V15.6944ZM89.527 6.06238C89.583 9.20771 89.4057 11.5644 88.995 13.1324L87.427 12.9364C87.7817 11.6204 87.931 9.76771 87.875 7.37838H80.749V6.06238H89.527ZM101.78 17.3884H93.0583V14.1964H99.8203V13.5524H93.0163V12.2644H96.4463V11.4244H91.6583V10.1784H102.928V11.4244H98.0843V12.2644H101.444V15.3444H94.6823V16.0444H101.78V17.3884ZM101.486 9.39438H93.1003V5.16638H94.7383V6.09038H99.8623V5.15238H101.486V9.39438ZM99.8623 8.13438V7.33638H94.7383V8.13438H99.8623ZM113.53 4.97038V8.52638H115.308V9.88438H113.53V14.0144H111.864V4.97038H113.53ZM113.824 17.0804H105.438V13.0904H107.076V15.7784H113.824V17.0804ZM109.974 11.8024H104.136V5.92238H109.974V11.8024ZM108.35 10.5144V7.19638H105.76V10.5144H108.35ZM125.713 5.53038C125.713 7.60238 125.582 9.15638 125.321 10.1924H127.155V11.4944H122.325V14.5604H120.687V11.4944H115.885V10.1924H123.739C123.982 9.24038 124.094 8.12505 124.075 6.84638H117.341V5.53038H125.713ZM125.867 17.1084H117.327V13.1464H118.951V15.8204H125.867V17.1084ZM134.56 15.9044C134.009 15.9044 133.473 15.839 132.95 15.7084C132.437 15.5777 132.035 15.419 131.746 15.2324L132.026 13.9864C132.269 14.1357 132.609 14.2664 133.048 14.3784C133.496 14.481 133.902 14.5324 134.266 14.5324C134.919 14.5324 135.423 14.397 135.778 14.1264C136.133 13.8557 136.31 13.4544 136.31 12.9224C136.31 11.9704 135.647 11.485 134.322 11.4664L133.328 11.4384V10.1924L134.21 10.1784C134.77 10.1597 135.218 10.029 135.554 9.78638C135.89 9.53438 136.058 9.18904 136.058 8.75038C136.058 7.87304 135.489 7.43438 134.35 7.43438C133.715 7.43438 133.034 7.60238 132.306 7.93838L132.11 6.66438C132.409 6.49638 132.815 6.35638 133.328 6.24438C133.841 6.12305 134.331 6.06238 134.798 6.06238C135.703 6.06238 136.427 6.27238 136.968 6.69238C137.509 7.10305 137.78 7.68638 137.78 8.44238C137.78 9.53438 137.206 10.281 136.058 10.6824C137.421 10.953 138.102 11.737 138.102 13.0344C138.102 13.921 137.785 14.621 137.15 15.1344C136.515 15.6477 135.652 15.9044 134.56 15.9044ZM147.862 8.07838H146.154V6.79038H147.862V4.97038H149.486V12.2364H147.862V10.6544H146.14V9.36638H147.862V8.07838ZM145.454 11.4944H139.686V5.86638H145.454V11.4944ZM143.844 10.2344V7.12638H141.296V10.2344H143.844ZM149.584 14.9244C149.584 15.699 149.206 16.3104 148.45 16.7584C147.694 17.2157 146.639 17.4444 145.286 17.4444C143.96 17.4444 142.92 17.2157 142.164 16.7584C141.417 16.3104 141.044 15.699 141.044 14.9244C141.044 14.1404 141.417 13.5244 142.164 13.0764C142.91 12.619 143.951 12.3904 145.286 12.3904C146.639 12.3904 147.694 12.6144 148.45 13.0624C149.206 13.5104 149.584 14.131 149.584 14.9244ZM145.286 13.6924C144.492 13.6924 143.862 13.8044 143.396 14.0284C142.938 14.243 142.71 14.5417 142.71 14.9244C142.71 15.2977 142.938 15.5917 143.396 15.8064C143.862 16.021 144.492 16.1284 145.286 16.1284C146.107 16.1284 146.746 16.021 147.204 15.8064C147.661 15.5917 147.89 15.2977 147.89 14.9244C147.89 14.5417 147.661 14.243 147.204 14.0284C146.746 13.8044 146.107 13.6924 145.286 13.6924Z" fill="#101727"/>
<path d="M77.5 9.65356H70V47.1536" stroke="#101727"/>
<circle cx="70" cy="46.6536" r="2" fill="#101727"/>
<path d="M110 35.6536H94V51.6536" stroke="#101727"/>
<circle cx="94" cy="50.6536" r="2" fill="#101727"/>
<rect width="86.5" height="32" transform="translate(0 135.661)" fill="#014A70"/>
<path d="M30.7134 157.017H19.4434V155.715H23.4894V151.515H25.1274V155.715H30.7134V157.017ZM29.4254 147.385C29.4814 150.531 29.3041 152.887 28.8934 154.455L27.3254 154.259C27.6801 152.943 27.8294 151.091 27.7734 148.701H20.6474V147.385H29.4254ZM41.6787 158.711H32.9567V155.519H39.7187V154.875H32.9147V153.587H36.3447V152.747H31.5567V151.501H42.8267V152.747H37.9827V153.587H41.3427V156.667H34.5807V157.367H41.6787V158.711ZM41.3847 150.717H32.9987V146.489H34.6367V147.413H39.7607V146.475H41.3847V150.717ZM39.7607 149.457V148.659H34.6367V149.457H39.7607ZM53.428 146.293V149.849H55.206V151.207H53.428V155.337H51.762V146.293H53.428ZM53.722 158.403H45.336V154.413H46.974V157.101H53.722V158.403ZM49.872 153.125H44.034V147.245H49.872V153.125ZM48.248 151.837V148.519H45.658V151.837H48.248ZM65.6113 146.853C65.6113 148.925 65.4806 150.479 65.2193 151.515H67.0533V152.817H62.2233V155.883H60.5853V152.817H55.7833V151.515H63.6373C63.8799 150.563 63.9919 149.448 63.9733 148.169H57.2393V146.853H65.6113ZM65.7653 158.431H57.2253V154.469H58.8493V157.143H65.7653V158.431Z" fill="white"/>
<rect width="86.5" height="32" transform="translate(86.5 135.661)" fill="#0068A8"/>
<path d="M115.701 146.293V149.849H117.479V151.207H115.701V155.337H114.035V146.293H115.701ZM115.995 158.403H107.609V154.413H109.247V157.101H115.995V158.403ZM112.145 153.125H106.307V147.245H112.145V153.125ZM110.521 151.837V148.519H107.931V151.837H110.521ZM128.893 150.185L128.179 151.473C127.292 151.399 126.41 151.133 125.533 150.675C124.665 150.218 124.053 149.691 123.699 149.093C123.391 149.719 122.817 150.255 121.977 150.703C121.137 151.142 120.217 151.403 119.219 151.487L118.547 150.213C119.564 150.157 120.469 149.924 121.263 149.513C122.056 149.103 122.555 148.58 122.761 147.945H119.107V146.643H128.305V147.945H124.679C124.912 148.571 125.449 149.093 126.289 149.513C127.138 149.933 128.006 150.157 128.893 150.185ZM129.327 153.629H118.057V152.341H122.845V150.759H124.483V152.341H129.327V153.629ZM119.373 154.609H127.871V158.781H126.247V155.911H119.373V154.609ZM136.596 158.781H134.944V154.343H130.17V153.055H141.44V154.343H136.596V158.781ZM140.978 150.689L140.264 152.019C139.321 151.879 138.416 151.539 137.548 150.997C136.689 150.456 136.111 149.849 135.812 149.177C135.541 149.849 134.977 150.456 134.118 150.997C133.269 151.529 132.359 151.875 131.388 152.033L130.688 150.689C131.827 150.568 132.821 150.181 133.67 149.527C134.519 148.874 134.944 148.099 134.944 147.203V146.559H136.68V147.203C136.68 147.801 136.899 148.361 137.338 148.883C137.786 149.406 138.332 149.821 138.976 150.129C139.629 150.437 140.297 150.624 140.978 150.689ZM152.993 150.465L152.293 151.753C151.407 151.66 150.543 151.394 149.703 150.955C148.873 150.507 148.28 149.989 147.925 149.401C147.617 150.027 147.062 150.554 146.259 150.983C145.457 151.413 144.556 151.669 143.557 151.753L142.871 150.493C143.926 150.437 144.841 150.195 145.615 149.765C146.39 149.327 146.857 148.771 147.015 148.099H143.445V146.783H152.433V148.099H148.863C148.985 148.538 149.269 148.939 149.717 149.303C150.165 149.667 150.679 149.947 151.257 150.143C151.836 150.33 152.415 150.437 152.993 150.465ZM148.849 156.023H147.225V153.783H142.283V152.467H153.553V153.783H148.849V156.023ZM152.265 158.431H143.641V154.791H145.265V157.143H152.265V158.431Z" fill="white"/>
<mask id="path-14-inside-1_78_8713" fill="white">
<path d="M0 167.661H86.5V199.661H0V167.661Z"/>
</mask>
<path d="M0 167.661H86.5V199.661H0V167.661Z" fill="#F2F4F6"/>
<path d="M86.5 199.661V198.661H0V199.661V200.661H86.5V199.661Z" fill="#D0D5DB" mask="url(#path-14-inside-1_78_8713)"/>
<path d="M28.4032 182.157V180.869H35.2072V182.157H32.7432C32.8739 182.671 33.2192 183.133 33.7792 183.543C34.3486 183.945 34.9459 184.187 35.5712 184.271L34.8152 185.573C34.2832 185.461 33.7279 185.205 33.1492 184.803C32.5706 184.402 32.1552 183.982 31.9032 183.543C31.6699 184.066 31.2546 184.551 30.6572 184.999C30.0692 185.447 29.4532 185.751 28.8092 185.909L27.9972 184.649C28.7626 184.481 29.4252 184.169 29.9852 183.711C30.5546 183.254 30.8952 182.736 31.0072 182.157H28.4032ZM38.0352 178.293V190.767H36.3832V178.293H38.0352ZM35.7392 186.861L35.8652 188.107C33.7372 188.397 31.0772 188.541 27.8852 188.541L27.6472 187.211C29.1779 187.211 30.3072 187.202 31.0352 187.183V185.139H32.6872V187.113C33.6766 187.076 34.6939 186.992 35.7392 186.861ZM29.9992 180.183V178.895H33.7232V180.183H29.9992ZM44.2685 189.241C42.9432 189.241 41.8932 188.831 41.1185 188.009C40.3438 187.188 39.9565 185.998 39.9565 184.439V184.131C39.9565 182.61 40.3532 181.429 41.1465 180.589C41.9492 179.749 43.0178 179.329 44.3525 179.329C45.6685 179.329 46.7138 179.74 47.4885 180.561C48.2725 181.383 48.6645 182.573 48.6645 184.131V184.439C48.6645 185.961 48.2632 187.141 47.4605 187.981C46.6672 188.821 45.6032 189.241 44.2685 189.241ZM44.3245 187.911C45.1458 187.911 45.7665 187.617 46.1865 187.029C46.6158 186.432 46.8305 185.629 46.8305 184.621V184.145C46.8305 181.84 45.9765 180.683 44.2685 180.673C43.4565 180.673 42.8405 180.967 42.4205 181.555C42.0005 182.134 41.7905 182.927 41.7905 183.935V184.425C41.7905 186.749 42.6352 187.911 44.3245 187.911ZM54.2626 189.241C52.9373 189.241 51.8873 188.831 51.1126 188.009C50.338 187.188 49.9506 185.998 49.9506 184.439V184.131C49.9506 182.61 50.3473 181.429 51.1406 180.589C51.9433 179.749 53.012 179.329 54.3466 179.329C55.6626 179.329 56.708 179.74 57.4826 180.561C58.2666 181.383 58.6586 182.573 58.6586 184.131V184.439C58.6586 185.961 58.2573 187.141 57.4546 187.981C56.6613 188.821 55.5973 189.241 54.2626 189.241ZM54.3186 187.911C55.14 187.911 55.7606 187.617 56.1806 187.029C56.61 186.432 56.8246 185.629 56.8246 184.621V184.145C56.8246 181.84 55.9706 180.683 54.2626 180.673C53.4506 180.673 52.8346 180.967 52.4146 181.555C51.9946 182.134 51.7846 182.927 51.7846 183.935V184.425C51.7846 186.749 52.6293 187.911 54.3186 187.911Z" fill="#354152"/>
<mask id="path-17-inside-2_78_8713" fill="white">
<path d="M86.5 167.661H173V199.661H86.5V167.661Z"/>
</mask>
<path d="M173 199.661V198.661H86.5V199.661V200.661H173V199.661Z" fill="#D0D5DB" mask="url(#path-17-inside-2_78_8713)"/>
<path d="M129.745 188.485C129.101 188.999 128.219 189.255 127.099 189.255C125.979 189.255 125.101 189.022 124.467 188.555C123.841 188.089 123.529 187.459 123.529 186.665C123.529 186.096 123.715 185.597 124.089 185.167C124.462 184.738 124.933 184.411 125.503 184.187C124.373 183.674 123.809 182.909 123.809 181.891C123.809 181.145 124.107 180.543 124.705 180.085C125.302 179.619 126.1 179.385 127.099 179.385C128.107 179.385 128.9 179.595 129.479 180.015C130.057 180.435 130.347 181.019 130.347 181.765C130.347 182.727 129.763 183.487 128.597 184.047C130.015 184.523 130.725 185.331 130.725 186.469C130.725 187.3 130.398 187.972 129.745 188.485ZM125.657 187.603C126.002 187.865 126.469 187.995 127.057 187.995C127.645 187.995 128.111 187.869 128.457 187.617C128.811 187.356 128.989 187.015 128.989 186.595C128.989 186.119 128.811 185.741 128.457 185.461C128.111 185.172 127.565 184.929 126.819 184.733C126.352 184.892 125.955 185.13 125.629 185.447C125.311 185.765 125.153 186.124 125.153 186.525C125.153 186.983 125.321 187.342 125.657 187.603ZM127.337 183.473C128.261 183.091 128.723 182.563 128.723 181.891C128.723 181.518 128.587 181.215 128.317 180.981C128.046 180.748 127.649 180.631 127.127 180.631C126.632 180.631 126.24 180.743 125.951 180.967C125.671 181.182 125.531 181.476 125.531 181.849C125.531 182.633 126.133 183.175 127.337 183.473ZM133.423 189.143V181.247L131.813 181.569V180.561L134.249 179.469H135.159V189.143H133.423Z" fill="#354152"/>
<mask id="path-20-inside-3_78_8713" fill="white">
<path d="M0 199.661H86.5V231.661H0V199.661Z"/>
</mask>
<path d="M0 199.661H86.5V231.661H0V199.661Z" fill="#F2F4F6"/>
<path d="M86.5 231.661V230.661H0V231.661V232.661H86.5V231.661Z" fill="#D0D5DB" mask="url(#path-20-inside-3_78_8713)"/>
<path d="M39.1412 214.661H37.3772V217.573H35.7112V210.293H37.3772V213.331H39.1412V214.661ZM29.1872 218.189H37.3772V222.781H35.7252V219.491H29.1872V218.189ZM33.8352 216.859H27.9272V211.049H29.5512V212.799H32.1832V211.035H33.8352V216.859ZM32.1832 215.571V214.073H29.5512V215.571H32.1832ZM44.2685 221.241C42.9432 221.241 41.8932 220.831 41.1185 220.009C40.3438 219.188 39.9565 217.998 39.9565 216.439V216.131C39.9565 214.61 40.3532 213.429 41.1465 212.589C41.9492 211.749 43.0178 211.329 44.3525 211.329C45.6685 211.329 46.7138 211.74 47.4885 212.561C48.2725 213.383 48.6645 214.573 48.6645 216.131V216.439C48.6645 217.961 48.2632 219.141 47.4605 219.981C46.6672 220.821 45.6032 221.241 44.2685 221.241ZM44.3245 219.911C45.1458 219.911 45.7665 219.617 46.1865 219.029C46.6158 218.432 46.8305 217.629 46.8305 216.621V216.145C46.8305 213.84 45.9765 212.683 44.2685 212.673C43.4565 212.673 42.8405 212.967 42.4205 213.555C42.0005 214.134 41.7905 214.927 41.7905 215.935V216.425C41.7905 218.749 42.6352 219.911 44.3245 219.911ZM54.2626 221.241C52.9373 221.241 51.8873 220.831 51.1126 220.009C50.338 219.188 49.9506 217.998 49.9506 216.439V216.131C49.9506 214.61 50.3473 213.429 51.1406 212.589C51.9433 211.749 53.012 211.329 54.3466 211.329C55.6626 211.329 56.708 211.74 57.4826 212.561C58.2666 213.383 58.6586 214.573 58.6586 216.131V216.439C58.6586 217.961 58.2573 219.141 57.4546 219.981C56.6613 220.821 55.5973 221.241 54.2626 221.241ZM54.3186 219.911C55.14 219.911 55.7606 219.617 56.1806 219.029C56.61 218.432 56.8246 217.629 56.8246 216.621V216.145C56.8246 213.84 55.9706 212.683 54.2626 212.673C53.4506 212.673 52.8346 212.967 52.4146 213.555C51.9946 214.134 51.7846 214.927 51.7846 215.935V216.425C51.7846 218.749 52.6293 219.911 54.3186 219.911Z" fill="#354152"/>
<mask id="path-23-inside-4_78_8713" fill="white">
<path d="M86.5 199.661H173V231.661H86.5V199.661Z"/>
</mask>
<path d="M173 231.661V230.661H86.5V231.661V232.661H173V231.661Z" fill="#D0D5DB" mask="url(#path-23-inside-4_78_8713)"/>
<path d="M123.945 221.087L127.445 212.911H123.091V211.553H129.307V212.575L125.849 221.087H123.945ZM132.928 221.227C131.826 221.227 130.916 221.008 130.198 220.569L130.506 219.253C131.15 219.636 131.812 219.827 132.494 219.827C133.166 219.827 133.688 219.673 134.062 219.365C134.444 219.048 134.636 218.6 134.636 218.021C134.636 216.873 133.945 216.299 132.564 216.299C131.957 216.299 131.308 216.472 130.618 216.817L130.968 211.539H135.98V212.883H132.284L132.102 215.221C132.531 215.109 132.932 215.053 133.306 215.053C134.286 215.053 135.046 215.305 135.588 215.809C136.138 216.313 136.414 217.065 136.414 218.063C136.414 218.978 136.096 219.734 135.462 220.331C134.836 220.929 133.992 221.227 132.928 221.227Z" fill="#354152"/>
<mask id="path-26-inside-5_78_8713" fill="white">
<path d="M0 231.661H86.5V263.661H0V231.661Z"/>
</mask>
<path d="M0 231.661H86.5V263.661H0V231.661Z" fill="#F2F4F6"/>
<path d="M86.5 263.661V262.661H0V263.661V264.661H86.5V263.661Z" fill="#D0D5DB" mask="url(#path-26-inside-5_78_8713)"/>
<path d="M38.8892 253.213H27.6192V251.911H32.4212V249.923C31.2826 249.793 30.3726 249.419 29.6912 248.803C29.0192 248.178 28.6832 247.413 28.6832 246.507C28.6832 245.49 29.1032 244.664 29.9432 244.029C30.7832 243.395 31.8892 243.077 33.2612 243.077C34.6332 243.077 35.7392 243.395 36.5792 244.029C37.4192 244.664 37.8392 245.49 37.8392 246.507C37.8392 247.422 37.4986 248.192 36.8172 248.817C36.1359 249.433 35.2166 249.802 34.0592 249.923V251.911H38.8892V253.213ZM36.1872 246.521C36.1872 245.896 35.9212 245.392 35.3892 245.009C34.8572 244.617 34.1479 244.421 33.2612 244.421C32.3839 244.421 31.6792 244.617 31.1472 245.009C30.6152 245.392 30.3492 245.896 30.3492 246.521C30.3492 247.156 30.6152 247.665 31.1472 248.047C31.6792 248.43 32.3839 248.621 33.2612 248.621C34.1386 248.621 34.8432 248.43 35.3752 248.047C35.9166 247.665 36.1872 247.156 36.1872 246.521ZM44.2685 253.241C42.9432 253.241 41.8932 252.831 41.1185 252.009C40.3438 251.188 39.9565 249.998 39.9565 248.439V248.131C39.9565 246.61 40.3532 245.429 41.1465 244.589C41.9492 243.749 43.0178 243.329 44.3525 243.329C45.6685 243.329 46.7138 243.74 47.4885 244.561C48.2725 245.383 48.6645 246.573 48.6645 248.131V248.439C48.6645 249.961 48.2632 251.141 47.4605 251.981C46.6672 252.821 45.6032 253.241 44.2685 253.241ZM44.3245 251.911C45.1458 251.911 45.7665 251.617 46.1865 251.029C46.6158 250.432 46.8305 249.629 46.8305 248.621V248.145C46.8305 245.84 45.9765 244.683 44.2685 244.673C43.4565 244.673 42.8405 244.967 42.4205 245.555C42.0005 246.134 41.7905 246.927 41.7905 247.935V248.425C41.7905 250.749 42.6352 251.911 44.3245 251.911ZM54.2626 253.241C52.9373 253.241 51.8873 252.831 51.1126 252.009C50.338 251.188 49.9506 249.998 49.9506 248.439V248.131C49.9506 246.61 50.3473 245.429 51.1406 244.589C51.9433 243.749 53.012 243.329 54.3466 243.329C55.6626 243.329 56.708 243.74 57.4826 244.561C58.2666 245.383 58.6586 246.573 58.6586 248.131V248.439C58.6586 249.961 58.2573 251.141 57.4546 251.981C56.6613 252.821 55.5973 253.241 54.2626 253.241ZM54.3186 251.911C55.14 251.911 55.7606 251.617 56.1806 251.029C56.61 250.432 56.8246 249.629 56.8246 248.621V248.145C56.8246 245.84 55.9706 244.683 54.2626 244.673C53.4506 244.673 52.8346 244.967 52.4146 245.555C51.9946 246.134 51.7846 246.927 51.7846 247.935V248.425C51.7846 250.749 52.6293 251.911 54.3186 251.911Z" fill="#354152"/>
<mask id="path-29-inside-6_78_8713" fill="white">
<path d="M86.5 231.661H173V263.661H86.5V231.661Z"/>
</mask>
<path d="M173 263.661V262.661H86.5V263.661V264.661H173V263.661Z" fill="#D0D5DB" mask="url(#path-29-inside-6_78_8713)"/>
<path d="M123.008 253.087L126.508 244.911H122.154V243.553H128.37V244.575L124.912 253.087H123.008ZM133.307 253.255C132.187 253.255 131.286 252.877 130.605 252.121C129.924 251.356 129.583 250.199 129.583 248.649V248.047C129.583 247.217 129.681 246.493 129.877 245.877C130.082 245.261 130.362 244.776 130.717 244.421C131.072 244.067 131.464 243.805 131.893 243.637C132.332 243.469 132.808 243.385 133.321 243.385C134.413 243.385 135.3 243.759 135.981 244.505C136.672 245.252 137.017 246.419 137.017 248.005V248.607C137.017 250.194 136.672 251.365 135.981 252.121C135.29 252.877 134.399 253.255 133.307 253.255ZM133.307 251.939C133.96 251.939 134.446 251.687 134.763 251.183C135.08 250.67 135.239 249.849 135.239 248.719V248.005C135.239 245.812 134.6 244.715 133.321 244.715C132.658 244.715 132.168 244.972 131.851 245.485C131.534 245.989 131.375 246.797 131.375 247.907V248.649C131.375 250.843 132.019 251.939 133.307 251.939Z" fill="#354152"/>
</svg>
