<svg width="212" height="190" viewBox="0 0 212 190" fill="none" xmlns="http://www.w3.org/2000/svg">
<g clip-path="url(#clip0_73_6681)">
<mask id="mask0_73_6681" style="mask-type:luminance" maskUnits="userSpaceOnUse" x="0" y="0" width="129" height="34">
<path d="M0 0H128.466V33.1746H0V0Z" fill="white"/>
</mask>
<g mask="url(#mask0_73_6681)">
<path d="M128.466 33.1746V32.4207H0V33.1746V33.9286H128.466V33.1746Z" fill="#E7E7E7"/>
</g>
<path d="M64.1865 15.5167H62.8112V17.554H61.8696V12.6245H62.8112V14.7356H64.1865V15.5167ZM62.8112 21.7234H56.9395V18.0501H57.8705V19.1478H61.8802V18.0395H62.8112V21.7234ZM61.8802 20.974V19.8762H57.8705V20.974H61.8802ZM56.9395 16.414C58.6394 16.414 59.9653 16.3119 60.9175 16.1078C60.9386 16.1923 60.9598 16.3154 60.9809 16.4773C61.0092 16.6392 61.0338 16.7623 61.055 16.8467C60.0535 17.0508 58.6852 17.1599 56.9501 17.174H56.0085V13.2262H60.1557V13.9862H56.9395V16.414ZM68.9846 17.934H64.8162V13.2367H65.7578V14.8201H68.0536V13.2262H68.9846V17.934ZM72.0315 12.6245V19.3484H71.0899V16.9417H69.4924V16.1712H71.0899V14.9151H69.4924V14.1445H71.0899V12.6245H72.0315ZM72.2431 21.5651H66.0329V18.7467H66.9639V20.8051H72.2431V21.5651ZM68.0536 17.1845V15.559H65.7578V17.1845H68.0536Z" fill="#808191"/>
<mask id="mask1_73_6681" style="mask-type:luminance" maskUnits="userSpaceOnUse" x="0" y="33" width="129" height="40">
<path d="M0 33.1746H128.466V72.3809H0V33.1746Z" fill="white"/>
</mask>
<g mask="url(#mask1_73_6681)">
<path d="M128.466 72.3809V71.627H0V72.3809V73.1349H128.466V72.3809Z" fill="#E7E7E7"/>
</g>
<path d="M15.7695 50.3772V49.6066H20.7524V50.3772H18.7635V50.8099C18.7635 51.4292 18.9821 51.9992 19.4194 52.5199C19.8567 53.0336 20.3574 53.3749 20.9217 53.5438L20.4033 54.2933C19.9871 54.1244 19.5781 53.8535 19.1761 53.4805C18.7811 53.1005 18.4884 52.7029 18.298 52.2877C18.1499 52.731 17.8572 53.1708 17.4199 53.6072C16.9897 54.0435 16.5312 54.3601 16.0445 54.5572L15.4944 53.8183C16.115 53.5931 16.6546 53.1955 17.1131 52.6255C17.5786 52.0555 17.8113 51.4574 17.8113 50.831V50.3772H15.7695ZM23.1011 55.5494H22.1595V52.0872H20.3821V51.3272H22.1595V48.8149H23.1011V55.5494ZM23.3021 57.7555H17.0178V54.8949H17.9488V56.9955H23.3021V57.7555ZM31.8665 58.0405H30.9355V54.9899H29.4226V54.2299H30.9355V52.8366H29.4226V52.0766H30.9355V48.8149H31.8665V58.0405ZM29.5707 51.7599H24.2386V51.0105H29.5707V51.7599ZM25.5399 50.1766V49.4166H28.2906V50.1766H25.5399ZM29.1052 54.2299C29.1052 54.7788 28.9006 55.2397 28.4916 55.6127C28.0896 55.9786 27.5641 56.1616 26.9152 56.1616C26.2663 56.1616 25.7374 55.9822 25.3283 55.6233C24.9263 55.2574 24.7253 54.7929 24.7253 54.2299C24.7253 53.674 24.9298 53.2096 25.3389 52.8366C25.7479 52.4636 26.2734 52.2772 26.9152 52.2772C27.5641 52.2772 28.0896 52.4636 28.4916 52.8366C28.9006 53.2025 29.1052 53.667 29.1052 54.2299ZM27.8145 55.0638C28.0472 54.8457 28.1636 54.5677 28.1636 54.2299C28.1636 53.8922 28.0437 53.6142 27.8039 53.396C27.5712 53.1708 27.2749 53.0583 26.9152 53.0583C26.5555 53.0583 26.2557 53.1708 26.016 53.396C25.7761 53.6142 25.6563 53.8922 25.6563 54.2299C25.6563 54.5677 25.7761 54.8457 26.016 55.0638C26.2557 55.2749 26.5555 55.3805 26.9152 55.3805C27.289 55.3805 27.5888 55.2749 27.8145 55.0638ZM43.0543 53.8183H42.1127V51.7283H40.6316V50.9577H42.1127V48.8149H43.0543V53.8183ZM40.2507 51.3588C40.2507 51.971 40.025 52.4742 39.5737 52.8683C39.1293 53.2624 38.5756 53.4594 37.9127 53.4594C37.2567 53.4594 36.6996 53.2658 36.2411 52.8788C35.7897 52.4918 35.564 51.9886 35.564 51.3694C35.564 50.7502 35.7862 50.2399 36.2305 49.8388C36.6819 49.4307 37.2391 49.2266 37.9021 49.2266C38.5651 49.2266 39.1223 49.4272 39.5737 49.8283C40.025 50.2294 40.2507 50.7396 40.2507 51.3588ZM39.3197 51.3588C39.3197 50.9788 39.1892 50.6622 38.9283 50.4088C38.6674 50.1555 38.3253 50.0288 37.9021 50.0288C37.5071 50.0288 37.1721 50.1555 36.897 50.4088C36.622 50.6622 36.4844 50.9788 36.4844 51.3588C36.4844 51.7318 36.6184 52.0414 36.8865 52.2877C37.1615 52.534 37.5036 52.6572 37.9127 52.6572C38.3288 52.6572 38.6674 52.534 38.9283 52.2877C39.1892 52.0344 39.3197 51.7247 39.3197 51.3588ZM43.8901 57.4072L43.3188 58.0616C43.0226 57.9068 42.7299 57.6675 42.4407 57.3438C42.1515 57.0272 41.9541 56.7351 41.8483 56.4677C41.7707 56.7492 41.5908 57.0447 41.3087 57.3544C41.0336 57.664 40.7304 57.9068 40.3989 58.0827C40.3354 58.0053 40.2402 57.8997 40.1132 57.766C39.9863 57.6324 39.891 57.5268 39.8276 57.4494C40.3284 57.2383 40.7163 56.904 40.9913 56.4466C41.2734 55.9892 41.4145 55.5036 41.4145 54.9899V54.2722H42.3138V54.9899C42.3138 55.4825 42.4548 55.9575 42.7369 56.4149C43.0261 56.8724 43.4105 57.2031 43.8901 57.4072ZM39.6795 57.9138H36.4739V54.3355H37.3625V55.4227H38.7908V54.3249H39.6795V57.9138ZM38.7908 57.2066V56.1194H37.3625V57.2066H38.7908ZM45.5672 55.011H45.9481C47.5985 55.011 48.8821 54.9125 49.799 54.7155L49.9048 55.4755C48.9455 55.6725 47.535 55.7781 45.673 55.7922H44.6362V49.786H49.0056V50.5566H45.5672V55.011ZM51.386 48.8149V52.4144H52.8248V53.1955H51.386V58.0405H50.455V48.8149H51.386Z" fill="#808191"/>
<mask id="mask2_73_6681" style="mask-type:luminance" maskUnits="userSpaceOnUse" x="0" y="72" width="129" height="40">
<path d="M0 72.3809H128.466V111.587H0V72.3809Z" fill="white"/>
</mask>
<g mask="url(#mask2_73_6681)">
<path d="M128.466 111.587V110.833H0V111.587V112.341H128.466V111.587Z" fill="#E7E7E7"/>
</g>
<path d="M24.0427 91.9057H22.6567V94.819H21.7257V88.0212H22.6567V91.114H24.0427V91.9057ZM22.9741 96.9723H16.8062V94.5551H17.7372V96.2229H22.9741V96.9723ZM19.4723 89.0662H16.7851V88.3062H19.4723V89.0662ZM20.89 90.449H15.4626V89.6996H20.89V90.449ZM20.3716 92.539C20.3716 93.0389 20.167 93.44 19.7579 93.7423C19.3489 94.0379 18.8234 94.1857 18.1816 94.1857C17.5468 94.1857 17.0249 94.0379 16.6158 93.7423C16.2068 93.44 16.0022 93.0389 16.0022 92.539C16.0022 92.0256 16.2032 91.6207 16.6052 91.3251C17.0143 91.0296 17.5398 90.8818 18.1816 90.8818C18.8234 90.8818 19.3489 91.0296 19.7579 91.3251C20.167 91.6207 20.3716 92.0256 20.3716 92.539ZM19.4406 92.539C19.4406 92.2578 19.3172 92.0361 19.0703 91.874C18.8305 91.7119 18.5343 91.6312 18.1816 91.6312C17.8289 91.6312 17.5327 91.7119 17.2929 91.874C17.0531 92.0361 16.9332 92.2578 16.9332 92.539C16.9332 92.8067 17.0531 93.0246 17.2929 93.1935C17.5398 93.3556 17.836 93.4362 18.1816 93.4362C18.5343 93.4362 18.8305 93.3556 19.0703 93.1935C19.3172 93.0314 19.4406 92.8135 19.4406 92.539ZM34.0985 92.2435H27.6979V88.5912H34.0033V89.3512H28.6395V91.4729H34.0985V92.2435ZM31.3161 97.194H30.3745V94.1012H26.6928V93.3518H35.0401V94.1012H31.3161V97.194ZM40.145 93.3307H35.8391V88.6335H36.7807V90.2907H39.214V88.6229H40.145V93.3307ZM39.214 92.5707V91.0507H36.7807V92.5707H39.214ZM42.1127 91.3673H40.6739V90.5968H42.1127V88.0212H43.0543V94.7451H42.1127V91.3673ZM43.2659 96.9618H37.0557V94.1223H37.9867V96.2123H43.2659V96.9618ZM47.8839 92.1062H48.2965C49.8481 92.1062 51.0507 92.0112 51.9041 91.8212L52.0311 92.5707C51.0084 92.7818 49.6295 92.8873 47.8945 92.8873H46.9635V88.739H51.153V89.4885H47.8839V92.1062ZM55.1626 91.1562H53.7873V93.4996H52.8457V88.0212H53.7873V90.3857H55.1626V91.1562ZM53.9037 95.4312C53.9037 95.9733 53.6321 96.4061 53.089 96.7296C52.5459 97.0606 51.7842 97.2257 50.8038 97.2257C49.8235 97.2257 49.0618 97.0636 48.5187 96.7401C47.9827 96.4167 47.7146 95.9801 47.7146 95.4312C47.7146 94.8756 47.9827 94.4352 48.5187 94.1118C49.0618 93.7883 49.8235 93.6262 50.8038 93.6262C51.7842 93.6262 52.5459 93.7914 53.089 94.1223C53.6321 94.4458 53.9037 94.8823 53.9037 95.4312ZM52.3696 96.1807C52.7505 95.9975 52.9409 95.7479 52.9409 95.4312C52.9409 95.1146 52.7505 94.865 52.3696 94.6818C51.9888 94.4918 51.4668 94.3968 50.8038 94.3968C50.1409 94.3968 49.6189 94.4918 49.2381 94.6818C48.8642 94.865 48.6774 95.1146 48.6774 95.4312C48.6774 95.7479 48.8642 95.9975 49.2381 96.1807C49.6189 96.3639 50.1409 96.4551 50.8038 96.4551C51.4668 96.4551 51.9888 96.3639 52.3696 96.1807ZM63.9492 91.9057H62.5632V94.819H61.6322V88.0212H62.5632V91.114H63.9492V91.9057ZM62.8806 96.9723H56.7127V94.5551H57.6437V96.2229H62.8806V96.9723ZM59.3788 89.0662H56.6916V88.3062H59.3788V89.0662ZM60.7965 90.449H55.3691V89.6996H60.7965V90.449ZM60.2781 92.539C60.2781 93.0389 60.0735 93.44 59.6644 93.7423C59.2554 94.0379 58.7299 94.1857 58.0881 94.1857C57.4533 94.1857 56.9314 94.0379 56.5223 93.7423C56.1133 93.44 55.9087 93.0389 55.9087 92.539C55.9087 92.0256 56.1097 91.6207 56.5117 91.3251C56.9208 91.0296 57.4463 90.8818 58.0881 90.8818C58.7299 90.8818 59.2554 91.0296 59.6644 91.3251C60.0735 91.6207 60.2781 92.0256 60.2781 92.539ZM59.3471 92.539C59.3471 92.2578 59.2237 92.0361 58.9768 91.874C58.737 91.7119 58.4408 91.6312 58.0881 91.6312C57.7354 91.6312 57.4392 91.7119 57.1994 91.874C56.9596 92.0361 56.8397 92.2578 56.8397 92.539C56.8397 92.8067 56.9596 93.0246 57.1994 93.1935C57.4463 93.3556 57.7425 93.4362 58.0881 93.4362C58.4408 93.4362 58.737 93.3556 58.9768 93.1935C59.2237 93.0314 59.3471 92.8135 59.3471 92.539ZM64.4096 89.4674V88.7073H69.4666V89.4674H67.4459V89.8368C67.4459 90.449 67.6716 91.0047 68.123 91.5046C68.5744 91.9969 69.0858 92.3317 69.6571 92.5073L69.1386 93.2568C68.7155 93.0879 68.2958 92.8202 67.8797 92.4546C67.4635 92.0814 67.1638 91.6908 66.9804 91.2829C66.8393 91.7119 66.5396 92.1417 66.0812 92.5707C65.6227 92.9997 65.1466 93.3164 64.6529 93.5207L64.124 92.7818C64.7587 92.5564 65.3123 92.1696 65.7849 91.6207C66.2575 91.065 66.4938 90.4769 66.4938 89.8579V89.4674H64.4096ZM65.5945 93.9746H71.7941V97.2468H70.842V94.7346H65.5945V93.9746ZM71.7835 93.489H70.842V91.1562H69.1281V90.3962H70.842V88.0212H71.7835V93.489ZM82.9609 93.299H82.0193V88.0212H82.9609V93.299ZM76.2958 89.1612C76.7613 88.739 77.3326 88.5279 78.0097 88.5279C78.6868 88.5279 79.2543 88.739 79.713 89.1612C80.1785 89.5767 80.4112 90.1112 80.4112 90.7657C80.4112 91.4133 80.1823 91.9373 79.7236 92.3385C79.2649 92.7396 78.6936 92.9401 78.0097 92.9401C77.3326 92.9401 76.7613 92.7396 76.2958 92.3385C75.8371 91.9373 75.6081 91.4133 75.6081 90.7657C75.6081 90.118 75.8371 89.5835 76.2958 89.1612ZM78.0097 89.3301C77.5865 89.3301 77.2374 89.4673 76.9623 89.7418C76.6872 90.0095 76.5497 90.3435 76.5497 90.7446C76.5497 91.16 76.6872 91.5008 76.9623 91.7685C77.2374 92.0361 77.5865 92.1696 78.0097 92.1696C78.4397 92.1696 78.7888 92.0391 79.057 91.779C79.3321 91.5114 79.4697 91.1736 79.4697 90.7657C79.4697 90.3435 79.3359 89.9989 79.0676 89.7312C78.8069 89.4636 78.454 89.3301 78.0097 89.3301ZM83.2466 97.289C82.9292 97.1344 82.6012 96.8841 82.2627 96.5396C81.9309 96.195 81.7087 95.864 81.5961 95.5473C81.4903 95.8919 81.2788 96.244 80.9614 96.6029C80.644 96.9686 80.2986 97.2362 79.9246 97.4051L79.3215 96.7823C79.8573 96.529 80.2911 96.1664 80.6228 95.6951C80.9614 95.2239 81.1306 94.7135 81.1306 94.1646V93.7001H82.0511V94.1329C82.0511 94.6818 82.2271 95.1922 82.58 95.6635C82.9397 96.1347 83.3561 96.4551 83.8284 96.624L83.2466 97.289ZM79.9352 95.8429L79.3004 96.4657C79.0956 96.3601 78.8916 96.2056 78.6868 96.0012C78.482 95.7969 78.3308 95.5858 78.2318 95.3679C78.1261 95.72 77.8971 96.0857 77.5442 96.4657C77.1913 96.8457 76.821 97.1239 76.4333 97.2996L75.8832 96.6451C76.3978 96.4129 76.8316 96.0646 77.1845 95.6001C77.5374 95.1357 77.7134 94.6328 77.7134 94.0907V93.7001H78.6339V94.0379C78.6339 94.4669 78.757 94.8401 79.0042 95.1568C79.2513 95.4735 79.5611 95.7019 79.9352 95.8429ZM85.4735 94.2173H85.8544C87.5048 94.2173 88.7887 94.1186 89.7054 93.9218L89.8112 94.6818C88.8522 94.8786 87.4413 94.9841 85.5793 94.9985H84.5425V88.9923H88.9119V89.7629H85.4735V94.2173ZM91.2923 88.0212V91.6207H92.7311V92.4018H91.2923V97.2468H90.3613V88.0212H91.2923Z" fill="#808191"/>
<mask id="mask3_73_6681" style="mask-type:luminance" maskUnits="userSpaceOnUse" x="0" y="111" width="129" height="40">
<path d="M0 111.587H128.466V150.794H0V111.587Z" fill="white"/>
</mask>
<g mask="url(#mask3_73_6681)">
<path d="M128.466 150.794V150.04H0V150.794V151.548H128.466V150.794Z" fill="#E7E7E7"/>
</g>
<path d="M20.9642 133.614L20.414 134.3C19.9485 134.032 19.4936 133.642 19.0493 133.128C18.6049 132.615 18.3123 132.111 18.1712 131.619C18.0301 132.146 17.7444 132.681 17.3142 133.223C16.8911 133.758 16.4044 134.194 15.8543 134.532L15.2512 133.846C15.9777 133.43 16.5631 132.854 17.0074 132.115C17.4588 131.376 17.6845 130.577 17.6845 129.719V128.959H15.6003V128.188H20.6891V128.959H18.6473V129.708C18.6473 130.567 18.8588 131.337 19.282 132.02C19.7122 132.702 20.273 133.234 20.9642 133.614ZM24.1063 131.693H22.6569V136.453H21.7259V127.228H22.6569V130.911H24.1063V131.693ZM32.2686 130.848L31.8455 131.598C31.1472 131.485 30.463 131.239 29.793 130.859C29.13 130.479 28.6857 130.078 28.46 129.655C28.2554 130.092 27.8287 130.504 27.1799 130.89C26.538 131.27 25.8503 131.517 25.1169 131.629L24.6725 130.89C25.4554 130.806 26.1854 130.553 26.8625 130.13C27.5396 129.701 27.9099 129.208 27.9734 128.653H25.064V127.882H31.8878V128.653H28.9678C29.0383 129.201 29.4156 129.687 30.0998 130.109C30.791 130.525 31.5139 130.77 32.2686 130.848ZM28.9149 136.453H27.9734V133.223H24.2917V132.463H32.6389V133.223H28.9149V136.453ZM43.0545 132.505H42.1129V127.228H43.0545V132.505ZM36.3894 128.368C36.8549 127.945 37.4262 127.734 38.1033 127.734C38.7804 127.734 39.3481 127.945 39.8066 128.368C40.2721 128.783 40.5048 129.318 40.5048 129.972C40.5048 130.62 40.2756 131.144 39.8172 131.545C39.3587 131.946 38.7874 132.146 38.1033 132.146C37.4262 132.146 36.8549 131.946 36.3894 131.545C35.9309 131.144 35.7017 130.62 35.7017 129.972C35.7017 129.324 35.9309 128.79 36.3894 128.368ZM38.1033 128.536C37.6801 128.536 37.331 128.674 37.0559 128.948C36.7808 129.216 36.6433 129.55 36.6433 129.951C36.6433 130.366 36.7808 130.707 37.0559 130.975C37.331 131.242 37.6801 131.376 38.1033 131.376C38.5335 131.376 38.8826 131.245 39.1506 130.985C39.4257 130.718 39.5632 130.38 39.5632 129.972C39.5632 129.55 39.4293 129.205 39.1612 128.938C38.9003 128.67 38.5476 128.536 38.1033 128.536ZM43.3401 136.495C43.0228 136.341 42.6948 136.09 42.3562 135.746C42.0247 135.401 41.8026 135.07 41.6897 134.754C41.5839 135.098 41.3723 135.45 41.055 135.809C40.7376 136.175 40.392 136.443 40.0182 136.611L39.4151 135.989C39.9511 135.735 40.3849 135.373 40.7164 134.901C41.055 134.43 41.2242 133.92 41.2242 133.371V132.906H42.1447V133.339C42.1447 133.888 42.321 134.399 42.6736 134.87C43.0333 135.341 43.4495 135.661 43.922 135.83L43.3401 136.495ZM40.0287 135.049L39.394 135.672C39.1894 135.566 38.9849 135.412 38.7804 135.208C38.5758 135.003 38.4242 134.792 38.3254 134.574C38.2196 134.926 37.9904 135.292 37.6378 135.672C37.2851 136.052 36.9148 136.33 36.5269 136.506L35.9768 135.851C36.4916 135.619 36.9254 135.271 37.2781 134.806C37.6307 134.342 37.807 133.839 37.807 133.297V132.906H38.7275V133.244C38.7275 133.673 38.8509 134.046 39.0977 134.363C39.3446 134.68 39.6549 134.908 40.0287 135.049ZM45.5674 133.424H45.9482C47.5986 133.424 48.8822 133.325 49.7992 133.128L49.905 133.888C48.9457 134.085 47.5352 134.19 45.6732 134.205H44.6364V128.199H49.0057V128.969H45.5674V133.424ZM51.3861 127.228V130.827H52.8249V131.608H51.3861V136.453H50.4551V127.228H51.3861Z" fill="#808191"/>
<mask id="mask4_73_6681" style="mask-type:luminance" maskUnits="userSpaceOnUse" x="0" y="150" width="129" height="40">
<path d="M0 150.794H128.466V190H0V150.794Z" fill="white"/>
</mask>
<g mask="url(#mask4_73_6681)">
<path d="M128.466 190V189.246H0V190V190.754H128.466V190Z" fill="#E7E7E7"/>
</g>
<path d="M22.8261 170.688H16.5313V166.951H22.8261V170.688ZM21.8951 169.939V167.711H17.4728V169.939H21.8951ZM20.1389 175.67H19.1973V172.567H15.5156V171.807H23.8629V172.567H20.1389V175.67ZM32.6388 171.48H24.2916V170.72H32.6388V171.48ZM31.6444 168.324C31.6444 168.851 31.3622 169.274 30.798 169.59C30.2408 169.9 29.4614 170.055 28.4599 170.055C27.4655 170.055 26.686 169.9 26.1218 169.59C25.5646 169.274 25.2861 168.851 25.2861 168.324C25.2861 167.789 25.5646 167.367 26.1218 167.057C26.686 166.74 27.4655 166.582 28.4599 166.582C29.4614 166.582 30.2408 166.74 30.798 167.057C31.3622 167.367 31.6444 167.789 31.6444 168.324ZM30.6711 168.324C30.6711 168.021 30.4735 167.781 30.0786 167.606C29.6836 167.43 29.144 167.342 28.4599 167.342C27.7828 167.342 27.2468 167.43 26.8518 167.606C26.4639 167.781 26.27 168.021 26.27 168.324C26.27 168.619 26.4674 168.858 26.8624 169.041C27.2573 169.217 27.7899 169.305 28.4599 169.305C29.1299 169.305 29.666 169.217 30.068 169.041C30.47 168.858 30.6711 168.619 30.6711 168.324ZM31.7396 173.865C31.7396 174.407 31.4504 174.826 30.8721 175.121C30.3008 175.417 29.5002 175.565 28.4705 175.565C27.4478 175.565 26.6473 175.417 26.0689 175.121C25.4977 174.826 25.212 174.407 25.212 173.865C25.212 173.331 25.5011 172.915 26.0795 172.62C26.6579 172.324 27.4549 172.176 28.4705 172.176C29.4932 172.176 30.2937 172.324 30.8721 172.62C31.4504 172.915 31.7396 173.331 31.7396 173.865ZM28.4705 172.957C27.7723 172.957 27.2186 173.038 26.8095 173.2C26.4004 173.355 26.1959 173.58 26.1959 173.876C26.1959 174.171 26.4004 174.4 26.8095 174.562C27.2186 174.716 27.7723 174.794 28.4705 174.794C29.1828 174.794 29.7435 174.716 30.1527 174.562C30.5617 174.407 30.7663 174.178 30.7663 173.876C30.7663 173.58 30.5582 173.355 30.1421 173.2C29.7329 173.038 29.1758 172.957 28.4705 172.957ZM41.5841 169.326H40.2087V171.364H39.2672V166.434H40.2087V168.545H41.5841V169.326ZM40.2087 175.533H34.3371V171.86H35.2681V172.957H39.2777V171.849H40.2087V175.533ZM39.2777 174.784V173.686H35.2681V174.784H39.2777ZM34.3371 170.224C36.0368 170.224 37.3628 170.122 38.315 169.917C38.3362 170.002 38.3573 170.125 38.3785 170.287C38.4067 170.449 38.4314 170.572 38.4525 170.656C37.451 170.861 36.0827 170.969 34.3477 170.984H33.4061V167.036H37.5533V167.796H34.3371V170.224ZM41.4943 175.554L43.9488 166.772H44.7634L42.3089 175.554H41.4943ZM52.5737 175.66H51.6427V166.434H52.5737V175.66ZM49.9289 173.306H45.496V167.363H49.9289V173.306ZM48.9979 172.535V168.123H46.427V172.535H48.9979ZM60.9265 175.533H55.0126V172.409H60.9265V175.533ZM59.0539 171.068L58.5673 171.807C58.1511 171.673 57.735 171.444 57.3189 171.121C56.9098 170.79 56.6065 170.424 56.409 170.023C56.2538 170.438 55.9612 170.84 55.5309 171.226C55.1078 171.606 54.6423 171.885 54.1344 172.06L53.6266 171.353C54.2331 171.163 54.7481 170.853 55.1712 170.424C55.6015 169.988 55.8483 169.491 55.9118 168.936H53.8911V168.176H58.8741V168.936H56.9063C56.9698 169.464 57.206 169.917 57.6151 170.297C58.0312 170.677 58.5108 170.935 59.0539 171.068ZM59.9955 174.794V173.158H55.9541V174.794H59.9955ZM62.3019 169.622H60.9265V171.923H59.9955V166.434H60.9265V168.851H62.3019V169.622ZM57.6892 167.437H55.1183V166.677H57.6892V167.437ZM69.2052 169.179H67.5125L67.5019 168.387H69.2052V166.434H70.1362V175.66H69.2052V172.219H67.5019L67.5125 171.437H69.2052V169.179ZM63.2066 172.704C62.8187 172.099 62.6248 171.315 62.6248 170.35C62.6248 169.386 62.8187 168.602 63.2066 167.996C63.5945 167.391 64.1694 167.089 64.9311 167.089C65.6928 167.089 66.2641 167.391 66.645 167.996C67.0329 168.602 67.2269 169.39 67.2269 170.361C67.2269 171.325 67.0329 172.109 66.645 172.715C66.2641 173.313 65.6928 173.612 64.9311 173.612C64.1694 173.612 63.5945 173.31 63.2066 172.704ZM66.3276 170.361C66.3276 169.622 66.2041 169.027 65.9573 168.577C65.7175 168.119 65.3754 167.891 64.9311 167.891C64.4868 167.891 64.1447 168.116 63.9049 168.566C63.6721 169.016 63.5558 169.615 63.5558 170.361C63.5558 171.093 63.6721 171.684 63.9049 172.134C64.1447 172.584 64.4868 172.81 64.9311 172.81C65.3754 172.81 65.7175 172.584 65.9573 172.134C66.2041 171.684 66.3276 171.093 66.3276 170.361Z" fill="#808191"/>
<mask id="mask5_73_6681" style="mask-type:luminance" maskUnits="userSpaceOnUse" x="128" y="0" width="285" height="34">
<path d="M128.466 0H412.602V33.1746H128.466V0Z" fill="white"/>
</mask>
<g mask="url(#mask5_73_6681)">
<path d="M412.602 33.1746V32.4207H128.466V33.1746V33.9286H412.602V33.1746Z" fill="#E7E7E7"/>
</g>
<mask id="mask6_73_6681" style="mask-type:luminance" maskUnits="userSpaceOnUse" x="128" y="33" width="285" height="40">
<path d="M128.466 33.1746H412.602V72.3809H128.466V33.1746Z" fill="white"/>
</mask>
<g mask="url(#mask6_73_6681)">
<path d="M412.602 72.3809V71.627H128.466V72.3809V73.1349H412.602V72.3809Z" fill="#E7E7E7"/>
</g>
<path d="M159.416 53.3644H152.751V50.8838H158.231V49.9233H152.74V49.1949H159.162V51.6016H153.682V52.6255H159.416V53.3644ZM154.856 58.0511H153.925V55.0744H151.788V54.3249H160.135V55.0744H157.977V58.0511H157.046V55.0744H154.856V58.0511ZM168.371 58.0405H167.472V48.8149H168.371V58.0405ZM166.541 57.5866H165.652V52.8577H164.192V52.0872H165.652V49.0261H166.541V57.5866ZM165.166 55.0849L164.594 55.7394C164.235 55.4931 163.883 55.1342 163.536 54.6627C163.191 54.1913 162.952 53.7163 162.817 53.2377C162.704 53.7444 162.472 54.251 162.119 54.7577C161.773 55.2644 161.371 55.6725 160.913 55.9822L160.331 55.3277C160.91 54.9547 161.393 54.4058 161.78 53.681C162.169 52.9563 162.362 52.1505 162.362 51.2638V49.691H163.261V51.2533C163.261 52.1047 163.438 52.8718 163.79 53.5544C164.15 54.2299 164.609 54.7401 165.166 55.0849ZM177.962 53.2483H176.481V58.0405H175.54V48.8149H176.481V52.4777H177.962V53.2483ZM170.07 55.0955C169.675 54.4903 169.478 53.7022 169.478 52.7311C169.478 51.7599 169.675 50.9753 170.07 50.3772C170.465 49.772 171.05 49.4694 171.826 49.4694C172.602 49.4694 173.183 49.772 173.572 50.3772C173.966 50.9753 174.164 51.7635 174.164 52.7416C174.164 53.7057 173.966 54.4903 173.572 55.0955C173.183 55.6936 172.602 55.9927 171.826 55.9927C171.05 55.9927 170.465 55.6936 170.07 55.0955ZM173.244 52.7416C173.244 52.0027 173.12 51.4081 172.874 50.9577C172.627 50.5003 172.277 50.2716 171.826 50.2716C171.374 50.2716 171.025 50.4968 170.779 50.9472C170.539 51.3975 170.419 51.9957 170.419 52.7416C170.419 53.4735 170.539 54.0646 170.779 54.5149C171.025 54.9653 171.374 55.1905 171.826 55.1905C172.277 55.1905 172.627 54.9653 172.874 54.5149C173.12 54.0646 173.244 53.4735 173.244 52.7416Z" fill="#1B1D21"/>
<path d="M201.734 53.3644H195.069V50.8838H200.549V49.9233H195.058V49.1949H201.48V51.6016H196V52.6255H201.734V53.3644ZM197.174 58.0511H196.243V55.0744H194.106V54.3249H202.453V55.0744H200.295V58.0511H199.364V55.0744H197.174V58.0511ZM211.229 56.8688H202.882V56.1088H206.563V53.9449H203.876V49.5644H210.245V50.3244H204.807V53.1849H210.298V53.9449H207.505V56.1088H211.229V56.8688ZM212.388 50.0711C212.846 49.6207 213.421 49.3955 214.113 49.3955C214.803 49.3955 215.375 49.6207 215.827 50.0711C216.278 50.5144 216.504 51.0738 216.504 51.7494C216.504 52.4249 216.278 52.9808 215.827 53.4172C215.382 53.8464 214.811 54.0611 214.113 54.0611C213.414 54.0611 212.839 53.8464 212.388 53.4172C211.936 52.9879 211.711 52.4355 211.711 51.7599C211.711 51.0774 211.936 50.5144 212.388 50.0711ZM214.113 50.2083C213.689 50.2083 213.34 50.3561 213.065 50.6516C212.797 50.9401 212.663 51.3061 212.663 51.7494C212.663 52.1857 212.797 52.5446 213.065 52.8261C213.34 53.1075 213.689 53.2483 214.113 53.2483C214.549 53.2483 214.899 53.1111 215.16 52.8366C215.421 52.5552 215.551 52.1927 215.551 51.7494C215.551 51.299 215.421 50.9296 215.16 50.6411C214.899 50.3525 214.549 50.2083 214.113 50.2083ZM218.302 50.8627H216.758L216.736 50.0816H218.302V48.8149H219.244V55.5177H218.302V53.1638H216.736L216.758 52.3933H218.302V50.8627ZM219.434 57.7555H213.245V54.916H214.176V57.0061H219.434V57.7555Z" fill="#1B1D21"/>
<mask id="mask7_73_6681" style="mask-type:luminance" maskUnits="userSpaceOnUse" x="128" y="72" width="285" height="40">
<path d="M128.466 72.3809H412.602V111.587H128.466V72.3809Z" fill="white"/>
</mask>
<g mask="url(#mask7_73_6681)">
<path d="M412.602 111.587V110.833H128.466V111.587V112.341H412.602V111.587Z" fill="#E7E7E7"/>
</g>
<path d="M160.304 91.114H158.929V93.5524H157.987V88.0212H158.929V90.3435H160.304V91.114ZM159.056 95.4312C159.056 95.9869 158.777 96.4272 158.22 96.7507C157.67 97.0741 156.908 97.2362 155.935 97.2362C154.962 97.2362 154.196 97.0741 153.639 96.7507C153.089 96.4272 152.814 95.9869 152.814 95.4312C152.814 94.868 153.089 94.4285 153.639 94.1118C154.196 93.7883 154.962 93.6262 155.935 93.6262C156.908 93.6262 157.67 93.7883 158.22 94.1118C158.777 94.4285 159.056 94.868 159.056 95.4312ZM157.511 94.6607C157.13 94.4775 156.605 94.3862 155.935 94.3862C155.265 94.3862 154.739 94.4775 154.359 94.6607C153.978 94.8439 153.787 95.1002 153.787 95.4312C153.787 95.7547 153.978 96.0118 154.359 96.2018C154.739 96.385 155.265 96.4762 155.935 96.4762C156.605 96.4762 157.13 96.385 157.511 96.2018C157.899 96.0118 158.093 95.7547 158.093 95.4312C158.093 95.1002 157.899 94.8439 157.511 94.6607ZM152.179 88.7179H156.358C156.316 89.9001 155.921 90.8991 155.173 91.7157C154.433 92.5247 153.438 93.1158 152.19 93.489L151.703 92.729C152.606 92.539 153.403 92.1485 154.094 91.5573C154.792 90.9595 155.201 90.2696 155.321 89.4885H152.179V88.7179ZM160.902 89.6257V88.8657H165.97V89.6257H163.928V90.0057C163.928 90.6247 164.158 91.1985 164.615 91.7262C165.081 92.2472 165.599 92.5956 166.171 92.7712L165.652 93.5207C165.237 93.3518 164.813 93.0706 164.383 92.6762C163.96 92.2819 163.653 91.8778 163.462 91.4623C163.314 91.8989 163.015 92.3422 162.563 92.7923C162.112 93.2425 161.646 93.5667 161.167 93.7635L160.606 93.0246C161.234 92.7991 161.784 92.398 162.256 91.8212C162.736 91.2444 162.976 90.6458 162.976 90.0268V89.6257H160.902ZM168.35 96.9723H162.119V94.1118H163.06V96.2229H168.35V96.9723ZM168.149 94.724H167.207V88.0212H168.149V94.724ZM176.693 90.1323C176.693 90.7023 176.41 91.1495 175.846 91.4729C175.282 91.7896 174.503 91.9479 173.508 91.9479C172.506 91.9479 171.727 91.7896 171.17 91.4729C170.62 91.1495 170.345 90.7023 170.345 90.1323C170.345 89.5691 170.623 89.1296 171.181 88.8129C171.738 88.4895 172.514 88.3273 173.508 88.3273C174.503 88.3273 175.282 88.4895 175.846 88.8129C176.41 89.1296 176.693 89.5691 176.693 90.1323ZM174.027 95.2518H173.096V93.4574H169.34V92.6973H177.687V93.4574H174.027V95.2518ZM173.508 89.0979C172.824 89.0979 172.284 89.1891 171.89 89.3724C171.494 89.5556 171.297 89.8119 171.297 90.1429C171.297 90.4739 171.494 90.7302 171.89 90.9135C172.284 91.0967 172.821 91.1879 173.498 91.1879C174.188 91.1879 174.736 91.0967 175.138 90.9135C175.54 90.7302 175.741 90.4739 175.741 90.1429C175.741 89.8119 175.54 89.5556 175.138 89.3724C174.742 89.1891 174.199 89.0979 173.508 89.0979ZM176.693 96.9723H170.43V94.2912H171.361V96.2123H176.693V96.9723Z" fill="#1B1D21"/>
<path d="M200.919 94.154C201.469 94.4707 201.744 94.9072 201.744 95.4629C201.744 96.0186 201.473 96.4551 200.93 96.7718C200.387 97.0885 199.618 97.2468 198.623 97.2468C197.643 97.2468 196.878 97.0885 196.328 96.7718C195.784 96.4551 195.513 96.0186 195.513 95.4629C195.513 94.9072 195.784 94.4707 196.328 94.154C196.878 93.8306 197.643 93.6685 198.623 93.6685C199.611 93.6685 200.376 93.8306 200.919 94.154ZM194.318 89.5307V88.7707H199.375V89.5307H197.354V89.8368C197.354 90.449 197.58 91.0047 198.031 91.5046C198.482 91.9969 198.994 92.3317 199.565 92.5073L199.047 93.2568C198.623 93.0879 198.204 92.8202 197.788 92.4546C197.371 92.0814 197.072 91.6908 196.888 91.2829C196.747 91.7119 196.448 92.1417 195.989 92.5707C195.53 92.9997 195.054 93.3164 194.561 93.5207L194.032 92.7818C194.667 92.5564 195.221 92.1696 195.693 91.6207C196.165 91.065 196.402 90.4769 196.402 89.8579V89.5307H194.318ZM198.623 94.439C197.946 94.439 197.417 94.5302 197.037 94.7135C196.656 94.8891 196.465 95.1395 196.465 95.4629C196.465 95.7864 196.656 96.0397 197.037 96.2229C197.417 96.3986 197.946 96.4868 198.623 96.4868C199.307 96.4868 199.84 96.3986 200.221 96.2229C200.602 96.0397 200.792 95.7864 200.792 95.4629C200.792 95.1395 200.602 94.8891 200.221 94.7135C199.84 94.5302 199.307 94.439 198.623 94.439ZM200.75 91.114H199.026V90.3435H200.75V88.0212H201.692V93.7423H200.75V91.114ZM211.494 92.6446H210.023V97.2468H209.081V88.0212H210.023V91.8635H211.494V92.6446ZM206.965 89.3829H204.204V88.6229H206.965V89.3829ZM208.309 90.9662H202.829V90.2168H208.309V90.9662ZM207.791 93.4362C207.791 93.9919 207.59 94.4533 207.188 94.819C206.786 95.1847 206.26 95.3679 205.611 95.3679C204.963 95.3679 204.434 95.1885 204.024 94.8296C203.622 94.4639 203.421 93.9995 203.421 93.4362C203.421 92.8806 203.626 92.4161 204.035 92.0429C204.445 91.6697 204.97 91.4835 205.611 91.4835C206.26 91.4835 206.786 91.6697 207.188 92.0429C207.59 92.4086 207.791 92.873 207.791 93.4362ZM206.521 94.2701C206.754 94.0522 206.87 93.774 206.87 93.4362C206.87 93.0985 206.751 92.8202 206.511 92.6023C206.271 92.3769 205.971 92.2646 205.611 92.2646C205.252 92.2646 204.952 92.3739 204.712 92.5918C204.479 92.8097 204.363 93.0917 204.363 93.4362C204.363 93.774 204.479 94.0522 204.712 94.2701C204.945 94.4812 205.245 94.5868 205.611 94.5868C205.992 94.5868 206.296 94.4812 206.521 94.2701ZM220.175 91.1879H218.799V93.6262H217.868V88.0212H218.799V90.4173H220.175V91.1879ZM218.799 97.1201H212.864V94.0696H218.799V97.1201ZM217.868 96.3707V94.8085H213.795V96.3707H217.868ZM217.138 92.9612C216.701 93.0457 216.084 93.1196 215.287 93.1829C214.497 93.2394 213.77 93.2674 213.108 93.2674H212.007V90.4596H215.234V89.3618H211.986V88.6123H216.165V91.1985H212.949V92.5073H213.129C214.843 92.5073 216.136 92.4124 217.012 92.2224L217.138 92.9612Z" fill="#1B1D21"/>
<mask id="mask8_73_6681" style="mask-type:luminance" maskUnits="userSpaceOnUse" x="128" y="111" width="285" height="40">
<path d="M128.466 111.587H412.602V150.794H128.466V111.587Z" fill="white"/>
</mask>
<g mask="url(#mask8_73_6681)">
<path d="M412.602 150.794V150.04H128.466V150.794V151.548H412.602V150.794Z" fill="#E7E7E7"/>
</g>
<path d="M155.3 133.698H154.369V131.608C153.798 131.629 152.958 131.647 151.851 131.661L151.703 130.88C152.789 130.88 153.833 130.859 154.835 130.816C155.082 130.816 155.41 130.802 155.819 130.774C155.967 130.134 156.041 129.416 156.041 128.621H152.528V127.861H156.982C156.982 128.965 156.901 129.912 156.739 130.7C157.325 130.644 157.656 130.612 157.733 130.605C157.783 130.971 157.818 131.211 157.839 131.323C157.367 131.393 156.521 131.471 155.3 131.555V133.698ZM156.506 132.885V132.178H158.506V127.228H159.437V134.236H158.506V132.885H156.506ZM159.659 136.221H152.994V133.392H153.935V135.45H159.659V136.221ZM165.187 136.464H164.245V133.149H160.563V132.4H168.911V133.149H165.187V136.464ZM168.593 130.721L168.149 131.481C167.444 131.348 166.756 131.074 166.086 130.658C165.423 130.243 164.972 129.786 164.732 129.286C164.535 129.778 164.101 130.236 163.431 130.658C162.761 131.074 162.059 131.351 161.325 131.492L160.902 130.732C161.77 130.62 162.542 130.306 163.219 129.793C163.904 129.279 164.245 128.712 164.245 128.093V127.513H165.229V128.093C165.229 128.501 165.406 128.906 165.758 129.307C166.111 129.701 166.545 130.025 167.059 130.278C167.575 130.525 168.086 130.672 168.593 130.721ZM176.164 133.666C176.706 133.948 176.978 134.342 176.978 134.849C176.978 135.355 176.706 135.75 176.164 136.031C175.627 136.312 174.863 136.453 173.868 136.453C172.874 136.453 172.112 136.312 171.583 136.031C171.054 135.756 170.789 135.362 170.789 134.849C170.789 134.335 171.054 133.937 171.583 133.656C172.112 133.375 172.874 133.234 173.868 133.234C174.863 133.234 175.627 133.378 176.164 133.666ZM173.868 133.962C173.205 133.962 172.686 134.043 172.313 134.205C171.939 134.359 171.752 134.574 171.752 134.849C171.752 135.123 171.935 135.341 172.302 135.503C172.676 135.658 173.198 135.735 173.868 135.735C174.545 135.735 175.07 135.658 175.444 135.503C175.818 135.349 176.005 135.13 176.005 134.849C176.005 134.574 175.815 134.359 175.434 134.205C175.06 134.043 174.538 133.962 173.868 133.962ZM174.545 130.426V129.676H175.984V127.228H176.926V133.149H175.984V132.136H174.545V131.397H175.984V130.426H174.545ZM173.328 128.114H170.641V127.354H173.328V128.114ZM174.376 129.444H169.351V128.695H174.376V129.444ZM174.09 131.355C174.09 131.805 173.889 132.171 173.487 132.453C173.085 132.734 172.574 132.875 171.953 132.875C171.332 132.875 170.821 132.738 170.419 132.463C170.017 132.182 169.816 131.812 169.816 131.355C169.816 130.89 170.013 130.521 170.409 130.246C170.811 129.965 171.325 129.824 171.953 129.824C172.574 129.824 173.085 129.965 173.487 130.246C173.889 130.521 174.09 130.89 174.09 131.355ZM172.8 131.935C173.039 131.788 173.159 131.594 173.159 131.355C173.159 131.116 173.039 130.922 172.8 130.774C172.567 130.62 172.284 130.542 171.953 130.542C171.621 130.542 171.336 130.62 171.096 130.774C170.856 130.922 170.736 131.116 170.736 131.355C170.736 131.594 170.856 131.788 171.096 131.935C171.336 132.083 171.621 132.157 171.953 132.157C172.284 132.157 172.567 132.083 172.8 131.935Z" fill="#1B1D21"/>
<path d="M201.776 128.885H198.772V129.001C198.772 129.465 198.958 129.926 199.332 130.384C199.713 130.834 200.157 131.2 200.665 131.481C201.18 131.756 201.677 131.939 202.157 132.03L201.691 132.769C200.958 132.572 200.263 132.238 199.607 131.766C198.951 131.295 198.507 130.795 198.274 130.268C198.077 130.802 197.646 131.309 196.984 131.788C196.321 132.259 195.619 132.586 194.878 132.769L194.413 131.999C194.914 131.921 195.418 131.745 195.926 131.471C196.433 131.196 196.871 130.838 197.238 130.394C197.604 129.944 197.788 129.48 197.788 129.001V128.885H194.794V128.135H201.776V128.885ZM202.453 135.281H194.106V134.521H197.788V132.358H198.729V134.521H202.453V135.281ZM210.51 136.453H209.568V131.26H207.505V130.468H209.568V127.228H210.51V136.453ZM208.447 133.561L207.886 134.258C207.435 133.962 206.987 133.554 206.542 133.033C206.098 132.512 205.795 131.999 205.632 131.492C205.477 132.048 205.188 132.6 204.765 133.149C204.349 133.691 203.88 134.135 203.358 134.479L202.765 133.793C203.478 133.35 204.053 132.752 204.49 131.999C204.927 131.245 205.146 130.451 205.146 129.613V128.019H206.108V129.571C206.108 130.401 206.328 131.169 206.764 131.872C207.202 132.575 207.763 133.139 208.447 133.561ZM211.997 128.832V128.072H217.064V128.832H215.022V129.212C215.022 129.831 215.251 130.405 215.71 130.933C216.176 131.454 216.694 131.802 217.265 131.978L216.747 132.727C216.331 132.558 215.907 132.277 215.477 131.883C215.054 131.488 214.747 131.084 214.557 130.669C214.409 131.105 214.109 131.549 213.658 131.999C213.206 132.449 212.74 132.773 212.261 132.97L211.7 132.231C212.328 132.005 212.878 131.604 213.351 131.028C213.83 130.451 214.07 129.852 214.07 129.233V128.832H211.997ZM219.445 136.179H213.213V133.318H214.155V135.429H219.445V136.179ZM219.244 133.93H218.302V127.228H219.244V133.93Z" fill="#1B1D21"/>
<mask id="mask9_73_6681" style="mask-type:luminance" maskUnits="userSpaceOnUse" x="128" y="150" width="285" height="40">
<path d="M128.466 150.794H412.602V190H128.466V150.794Z" fill="white"/>
</mask>
<g mask="url(#mask9_73_6681)">
<path d="M412.602 190V189.246H128.466V190V190.754H412.602V190Z" fill="#E7E7E7"/>
</g>
</g>
<defs>
<clipPath id="clip0_73_6681">
<rect width="266" height="190" fill="white"/>
</clipPath>
</defs>
</svg>
