<svg width="73" height="68" viewBox="0 0 73 68" fill="none" xmlns="http://www.w3.org/2000/svg">
<g clip-path="url(#clip0_132_4241)">
<path d="M6.34728 40.608C3.66701 39.4598 1.68723 36.8293 1.33354 33.9473C0.977543 31.063 2.26141 28.0346 4.67297 26.1888C3.1089 20.0588 6.32661 13.0527 12.0064 10.2233C14.5879 7.1423 17.5668 4.23742 21.2875 2.69805C25.0082 1.15869 29.6108 1.2296 32.7619 3.72963C32.964 3.93092 33.1638 4.1322 33.3659 4.33348C33.1294 4.10018 32.6494 4.43412 32.7872 4.73605C35.4261 2.49906 38.9722 1.35997 42.4265 1.63903C45.8808 1.91808 49.1973 3.61069 51.4412 6.2411C51.1426 6.01008 50.844 5.77907 50.5454 5.55033C56.0576 5.1592 61.4296 9.7933 61.827 15.2806C61.6409 14.5349 61.4572 13.787 61.2711 13.0413C64.459 13.8304 67.2954 15.9439 68.9537 18.771C70.6119 21.5958 71.069 25.0954 70.1939 28.2496C72.8673 31.9299 72.0933 37.6436 68.538 40.4891C67.3161 41.4657 65.4581 42.081 64.2408 41.0975C62.3575 44.2311 57.934 45.5394 54.42 44.0939C53.5748 43.5724 52.6837 42.9982 52.2841 42.0925C50.3089 43.2773 47.9318 43.7828 45.6419 43.5037C45.8693 43.7553 46.2322 43.8811 46.5331 43.8354C46.5606 46.1616 45.0563 48.4329 42.7527 49.3478C41.9511 49.6635 41.1518 49.9814 40.3503 50.2971C40.3503 50.2971 40.2079 50.3291 39.9851 50.4068C39.3053 50.5967 38.6277 50.7865 37.9479 50.9764C37.9479 50.9764 37.8055 51.0084 37.5253 51.1022C36.7398 51.2669 35.9566 51.4293 35.0058 51.658C34.4477 51.6374 33.8873 51.6145 33.3292 51.594C30.8717 54.6269 28.3844 57.7125 26.8501 61.2967C26.253 62.6943 25.7868 64.1902 24.7992 65.3522C23.8116 66.5141 22.1005 67.2461 20.734 66.569C19.2939 65.8554 18.8989 63.9866 18.9816 62.3878C19.0642 60.789 19.4386 59.1261 18.8782 57.6256C18.8782 57.6256 18.8736 57.4724 18.9012 57.2917C17.8286 55.5464 16.1175 54.1992 14.0367 53.035C13.9311 52.5592 13.8254 52.0834 13.7198 51.61C13.4556 51.1822 13.0721 50.8254 12.6242 50.5944C13.1686 50.679 13.7106 50.7614 14.2549 50.846C12.4543 50.7431 10.6904 50.0752 9.11484 48.8789C8.18926 48.808 7.39459 48.1264 6.95592 47.3121C6.51724 46.4978 6.37255 45.56 6.27379 44.6405C6.1291 43.3139 6.06019 41.9804 6.35188 40.6149L6.34728 40.608Z" fill="#FEA741"/>
<path d="M22.0779 17.2249C21.715 23.6042 21.3521 29.9926 21.4532 36.3811C21.4876 38.5884 21.7104 41.077 23.4146 42.486C24.8891 43.7051 26.9952 43.7097 28.9107 43.6502C35.3024 43.4581 41.6942 43.2636 48.0837 43.0715C49.3285 43.0349 50.6859 42.9526 51.6069 42.12C52.7208 41.1136 52.769 39.4164 52.7392 37.9182C52.6083 31.7516 52.4774 25.585 52.3464 19.4184C52.3212 18.2358 52.2408 16.9184 51.3795 16.1018C50.5871 15.3515 49.3883 15.2715 48.2973 15.2349C41.6736 15.0084 35.0475 14.782 28.4238 14.5556C27.2892 14.5167 26.127 14.4824 25.0476 14.8392C23.9681 15.196 22.9782 16.0332 22.0756 17.2226L22.0779 17.2249Z" fill="#557EF7"/>
<path d="M36.5174 32.4424H31.6277L30.6975 35.2192H27.7324L32.7714 21.7423H35.3552L40.4218 35.2192H37.4568L36.5174 32.4424ZM32.381 30.1939H35.7641L34.0622 25.1481L32.3787 30.1939H32.381Z" fill="white"/>
<path d="M44.65 35.2192H41.8618V21.7423H44.65V35.2192Z" fill="white"/>
<path d="M48.4624 44.3822H26.0992C23.1295 44.3822 20.7134 41.9759 20.7134 39.0184V19.4093C20.7134 16.4518 23.1295 14.0455 26.0992 14.0455H48.4624C51.4321 14.0455 53.8482 16.4518 53.8482 19.4093V39.0184C53.8482 41.9759 51.4321 44.3822 48.4624 44.3822ZM26.0992 15.6467C24.0161 15.6467 22.3211 17.3347 22.3211 19.4093V39.0184C22.3211 41.093 24.0161 42.7811 26.0992 42.7811H48.4624C50.5455 42.7811 52.2405 41.093 52.2405 39.0184V19.4093C52.2405 17.3347 50.5455 15.6467 48.4624 15.6467H26.0992Z" fill="#0D1D44"/>
<path d="M55.5962 30.8115C54.7487 30.8115 53.9035 30.656 53.1203 30.3381C52.7092 30.1711 52.5117 29.7045 52.6793 29.295C52.847 28.8856 53.3155 28.6889 53.7266 28.8559C55.3183 29.5009 57.2383 29.263 58.6233 28.252C60.0082 27.2388 60.8097 25.4844 60.6673 23.778C60.6306 23.3366 60.959 22.95 61.4023 22.9134C61.8456 22.8768 62.2337 23.2039 62.2705 23.6454C62.4588 25.8915 61.4023 28.2063 59.5764 29.5421C58.4349 30.3769 57.0156 30.8138 55.5985 30.8138L55.5962 30.8115Z" fill="#0D1D44"/>
<path d="M19.5056 24.128C18.2607 24.128 17.0205 23.8398 15.8974 23.2748C14.2254 22.4354 12.8956 21.0333 12.1514 19.3224C11.9746 18.9175 12.1629 18.4463 12.5695 18.2702C12.976 18.0941 13.4491 18.2816 13.6259 18.6865C14.2116 20.0337 15.3026 21.1865 16.6209 21.8453C17.9369 22.5063 19.5147 22.6939 20.9525 22.3622C21.3866 22.2616 21.8161 22.5292 21.9171 22.9615C22.0182 23.3938 21.7495 23.8215 21.3154 23.9221C20.7182 24.0594 20.1119 24.128 19.5056 24.128Z" fill="#0D1D44"/>
<path d="M21.4555 35.1437C21.1891 35.1437 20.9295 35.0133 20.7757 34.7731C19.455 32.7054 17.2823 31.2301 14.965 30.8298C12.597 30.4227 10.0959 31.1089 8.2723 32.6665C7.93468 32.9547 7.42711 32.9158 7.13772 32.5796C6.84833 32.2434 6.88738 31.7379 7.22499 31.4497C9.40688 29.5832 12.4041 28.7598 15.2383 29.2493C17.9943 29.725 20.5713 31.468 22.133 33.9108C22.3719 34.2836 22.2616 34.7777 21.885 35.0156C21.7518 35.1002 21.6025 35.1414 21.4555 35.1414V35.1437Z" fill="#0D1D44"/>
<path d="M10.1783 42.5363C8.83243 42.5363 7.48885 42.2664 6.25321 41.7174C3.17101 40.3473 0.936294 37.3029 0.557335 33.9634C0.199046 30.7978 1.52655 27.52 3.96338 25.4683C3.21924 21.9299 3.59131 18.6956 5.07729 15.8456C6.52422 13.0665 9.00009 10.7906 11.8963 9.56692C14.193 6.10621 16.8503 3.69767 19.7993 2.40305C23.0423 0.980344 26.8296 0.808795 30.1897 1.93415C33.5498 3.05722 36.4643 5.47263 38.1869 8.55593C38.4028 8.94248 38.2627 9.42968 37.8745 9.64469C37.4864 9.8597 36.9972 9.72017 36.7813 9.33361C35.2516 6.59341 32.6609 4.4502 29.6775 3.45064C26.6941 2.45109 23.3294 2.60434 20.4493 3.86693C17.7345 5.05862 15.2633 7.33908 13.1089 10.6465C13.0194 10.7838 12.8884 10.8913 12.7346 10.953C10.0887 12.0098 7.81958 14.0615 6.50815 16.5798C5.137 19.2125 4.84532 22.2455 5.64458 25.5941C5.71807 25.9029 5.60094 26.2277 5.346 26.4198C3.09521 28.1056 1.8458 30.9968 2.16045 33.7827C2.4751 36.5687 4.34234 39.1099 6.91237 40.2535C9.4847 41.3972 12.6289 41.0861 14.9233 39.4598C15.2839 39.2036 15.7869 39.2883 16.0441 39.6474C16.3014 40.0088 16.2164 40.5074 15.8558 40.7636C14.2091 41.9301 12.1948 42.5317 10.1829 42.534L10.1783 42.5363Z" fill="#0D1D44"/>
<path d="M15.964 52.223C14.8822 52.223 13.8257 52.0926 12.8175 51.8319C10.3898 51.2028 8.2952 49.8167 6.91946 47.932C5.44037 45.9077 4.8616 43.3139 5.37607 40.9969C5.47253 40.5645 5.89972 40.2924 6.3338 40.3884C6.76788 40.4845 7.04119 40.9099 6.94473 41.3422C6.52902 43.2178 7.00444 45.329 8.21711 46.9896C9.37696 48.5747 11.1523 49.7458 13.2217 50.2811C15.1371 50.7797 17.2731 50.7294 19.393 50.1415C19.8202 50.0226 20.2634 50.2719 20.3829 50.6974C20.5023 51.1228 20.2519 51.5642 19.8248 51.6832C18.5317 52.0423 17.2295 52.223 15.9594 52.223H15.964Z" fill="#0D1D44"/>
<path d="M22.8884 67.5001C22.8517 67.5001 22.8126 67.5001 22.7759 67.5001C22.3923 67.4886 21.9927 67.4772 21.6 67.4635C20.5848 67.4291 19.6478 67.0014 18.9587 66.258C18.2697 65.5147 17.916 64.5471 17.9643 63.5361L18.1664 59.2131C18.2284 57.875 17.5233 56.6353 16.368 56.0566C14.3331 55.0319 12.7277 53.3553 11.8458 51.331C11.6689 50.9262 11.8573 50.455 12.2638 50.2789C12.6726 50.1027 13.1434 50.2903 13.3203 50.6952C14.0415 52.3512 15.4149 53.7853 17.0915 54.627C18.8095 55.4917 19.8614 57.3215 19.7695 59.2886L19.5674 63.6116C19.5398 64.1926 19.7442 64.7461 20.1393 65.1716C20.5343 65.597 21.0717 65.844 21.6528 65.8623C22.0432 65.8761 22.4406 65.8875 22.8195 65.8989C23.8806 65.9332 24.82 65.2356 25.1048 64.2109C25.8122 61.6674 26.4966 59.7712 27.3257 58.0649C28.8209 54.9816 30.7754 52.6302 33.1364 51.0794C33.5062 50.8347 34.0046 50.9376 34.2503 51.3059C34.4961 51.6741 34.3927 52.1705 34.023 52.4152C31.9077 53.8059 30.1438 55.94 28.7749 58.7602C27.9895 60.3774 27.3372 62.1912 26.6551 64.6386C26.1819 66.3381 24.6431 67.5023 22.8884 67.5023V67.5001Z" fill="#0D1D44"/>
<path d="M60.6969 19.2697C60.5959 19.2697 60.4902 19.2514 60.3915 19.208C59.9803 19.0387 59.7851 18.5721 59.9551 18.1627C61.1103 15.3676 60.6579 12.0189 58.8021 9.62868C56.9464 7.23844 53.8045 5.95983 50.798 6.36926C50.5408 6.40586 50.279 6.31208 50.1021 6.12223C47.934 3.80747 45.1803 2.3962 42.353 2.14231C39.5096 1.88841 36.5193 2.84451 34.3558 4.69952C34.0205 4.98772 33.5129 4.95113 33.2212 4.61489C32.9318 4.28094 32.9686 3.77545 33.3062 3.48496C35.828 1.32345 39.1766 0.252984 42.4931 0.548048C45.5937 0.824813 48.5955 2.30699 50.991 4.73612C54.4292 4.41361 57.9546 5.92324 60.0722 8.64971C62.2748 11.486 62.8099 15.459 61.4388 18.7734C61.3102 19.0822 61.0116 19.2697 60.6946 19.2697H60.6969Z" fill="#0D1D44"/>
<path d="M65.3021 42.3876C64.9943 42.3876 64.6889 42.3624 64.3903 42.3121C63.9516 42.2389 63.6576 41.8249 63.7311 41.388C63.8046 40.9511 64.2203 40.6583 64.659 40.7315C65.8923 40.9397 67.275 40.5348 68.3544 39.6496C69.6222 38.6112 70.24 37.1839 70.5363 36.1706C71.2713 33.6546 70.851 30.8458 69.4109 28.6522C69.2846 28.4624 69.2478 28.2268 69.3076 28.0049C70.1183 25.0085 69.7485 21.8246 68.2924 19.2697C66.8455 16.7285 64.2892 14.7682 61.4528 14.0249C61.0233 13.9128 60.766 13.4736 60.8809 13.0459C60.9934 12.6182 61.4321 12.362 61.8639 12.4764C65.1597 13.3387 68.0122 15.5276 69.6934 18.4783C71.2988 21.3008 71.7513 24.7798 70.9497 28.0781C72.4885 30.6079 72.9134 33.7735 72.082 36.6167C71.5675 38.3802 70.6328 39.8555 69.3788 40.8825C68.1982 41.85 66.7283 42.383 65.3044 42.383L65.3021 42.3876Z" fill="#0D1D44"/>
<path d="M58.1502 45.9878C55.8305 45.9878 53.4511 44.9357 51.6827 43.1058C51.3749 42.7879 51.3841 42.2801 51.7056 41.9736C52.0249 41.6671 52.5347 41.6762 52.8425 41.9965C54.4227 43.6319 56.5701 44.5194 58.5889 44.3707C60.7386 44.2106 62.6702 42.797 63.288 40.9283C63.6233 39.9104 63.6073 38.6913 63.2398 37.4973C62.9182 36.4497 62.3395 35.3953 61.4713 34.2745C61.2003 33.9245 61.2646 33.4213 61.616 33.1514C61.9674 32.8815 62.4727 32.9456 62.7437 33.2955C63.7313 34.5718 64.3973 35.791 64.7763 37.0261C65.2471 38.5586 65.2609 40.0797 64.8153 41.4292C64 43.8949 61.4897 45.7614 58.7083 45.9672C58.5223 45.981 58.3386 45.9878 58.1525 45.9878H58.1502Z" fill="#0D1D44"/>
<path d="M35.6491 52.4769C33.8163 52.4769 31.3496 52.1132 29.3239 50.5235C27.2293 48.879 26.2302 46.2234 26.8411 43.9132C26.9537 43.4855 27.3946 43.2293 27.8218 43.3437C28.2513 43.4557 28.5085 43.8949 28.3937 44.3203C27.9504 45.9969 28.7428 48.0304 30.3184 49.2655C31.7148 50.3611 33.729 50.9284 35.9844 50.8689C38.265 50.8072 40.3505 50.1644 42.0179 49.0139C43.8116 47.7742 45.0587 45.9443 45.4377 43.991C45.5227 43.5564 45.9453 43.2728 46.3794 43.3574C46.8157 43.442 47.1005 43.8606 47.0155 44.2952C46.5562 46.6557 45.0679 48.8561 42.9343 50.3291C41.0096 51.658 38.621 52.3991 36.028 52.47C35.904 52.4723 35.7777 52.4746 35.6491 52.4746V52.4769Z" fill="#0D1D44"/>
</g>
<defs>
<clipPath id="clip0_132_4241">
<rect width="72" height="67" fill="white" transform="translate(0.5 0.5)"/>
</clipPath>
</defs>
</svg>
