<svg width="328" height="308" viewBox="0 0 328 308" fill="none" xmlns="http://www.w3.org/2000/svg">
<g clip-path="url(#clip0_73_6516)">
<path d="M17.1941 23.7654H275.105" stroke="#E7E7E7" stroke-dasharray="2 2"/>
<path d="M17.1941 94.1111H275.105" stroke="#E7E7E7" stroke-dasharray="2 2"/>
<path d="M17.1941 164.457H275.105" stroke="#E7E7E7" stroke-dasharray="2 2"/>
<path d="M17.1941 234.802H275.105" stroke="#E7E7E7" stroke-dasharray="2 2"/>
<path d="M108.895 58.4629H82.1492V305.623H108.895V58.4629Z" fill="#FFD840"/>
<path d="M108.895 58.4629H82.1492V305.623H108.895V58.4629Z" fill="#094185"/>
<path d="M145.194 238.13H118.448V305.623H145.194V238.13Z" fill="#1E71D6"/>
<path d="M16.7163 0.475342V304.673" stroke="#B2B3BD"/>
<path d="M16.2388 305.148H246.448" stroke="#B2B3BD"/>
<path d="M0.0148926 28.5146V27.9785L1.84892 26.0849C2.49084 25.4156 2.95316 24.8643 3.23591 24.4308C3.5263 23.9973 3.67149 23.5296 3.67149 23.0277C3.67149 22.0162 3.14421 21.5105 2.08964 21.5105C1.54707 21.5105 0.973939 21.7196 0.370237 22.1379L0.106595 21.4192C0.832565 20.9553 1.54325 20.7234 2.23865 20.7234C3.00283 20.7234 3.59125 20.9211 4.00391 21.3166C4.41657 21.712 4.62289 22.2558 4.62289 22.9478C4.62289 23.5562 4.4586 24.1114 4.13 24.6133C3.8014 25.1152 3.25501 25.7541 2.49083 26.5298L1.28725 27.7389H4.79484V28.5146H0.0148926ZM8.56071 28.6515C7.72011 28.6515 7.03999 28.3511 6.52035 27.7504C6.00071 27.142 5.74089 26.2218 5.74089 24.9898V24.3509C5.74089 23.0885 6.00071 22.1721 6.52035 21.6018C7.04764 21.0238 7.73158 20.7348 8.57217 20.7348C9.39749 20.7348 10.0585 21.02 10.5552 21.5904C11.0596 22.1531 11.3118 23.0581 11.3118 24.3053V25.0012C11.3118 26.2332 11.0596 27.1496 10.5552 27.7504C10.0585 28.3511 9.39366 28.6515 8.56071 28.6515ZM8.56071 27.8986C9.16441 27.8986 9.6191 27.6781 9.92477 27.237C10.2304 26.7959 10.3833 26.0963 10.3833 25.1381V24.2939C10.3833 22.4231 9.77958 21.4877 8.57217 21.4877C7.3342 21.4877 6.71522 22.4041 6.71522 24.2369V25.081C6.71522 26.9594 7.33038 27.8986 8.56071 27.8986Z" fill="#808191"/>
<path d="M3.11327 97.9554V91.168L1.69189 91.4988V90.974L3.503 90.1299H3.98443V97.9554H3.11327ZM7.17975 98.0466C6.27802 98.0466 5.55969 97.8527 5.02476 97.4648L5.1967 96.7348C5.41832 96.8869 5.69724 97.0162 6.03348 97.1226C6.37736 97.2291 6.70214 97.2823 7.00781 97.2823C7.61151 97.2823 8.08148 97.1264 8.41772 96.8146C8.7616 96.4952 8.93354 96.0617 8.93354 95.5142C8.93354 94.4267 8.30309 93.8829 7.0422 93.8829C6.5302 93.8829 5.99527 94.0084 5.43742 94.2594L5.71253 90.244H9.60984V91.0197H6.44614L6.28566 93.3468C6.69832 93.2403 7.06512 93.1871 7.38608 93.1871C8.18082 93.1871 8.79599 93.381 9.23157 93.7688C9.66715 94.1567 9.88494 94.7423 9.88494 95.5256C9.88494 96.2329 9.64041 96.8298 9.15133 97.3165C8.66226 97.8033 8.00506 98.0466 7.17975 98.0466Z" fill="#808191"/>
<path d="M2.36351 167.35V160.563L0.942139 160.894V160.369L2.75324 159.525H3.23468V167.35H2.36351ZM7.55324 167.442C6.71265 167.442 6.03253 167.141 5.51288 166.54C4.99324 165.932 4.73342 165.012 4.73342 163.78V163.141C4.73342 161.879 4.99324 160.962 5.51288 160.392C6.04017 159.814 6.72411 159.525 7.56471 159.525C8.39002 159.525 9.05104 159.81 9.54775 160.38C10.0521 160.943 10.3043 161.848 10.3043 163.095V163.791C10.3043 165.023 10.0521 165.94 9.54775 166.54C9.05104 167.141 8.3862 167.442 7.55324 167.442ZM7.55324 166.689C8.15695 166.689 8.61163 166.468 8.9173 166.027C9.22298 165.586 9.37581 164.886 9.37581 163.928V163.084C9.37581 161.213 8.77211 160.278 7.56471 160.278C6.32674 160.278 5.70775 161.194 5.70775 163.027V163.871C5.70775 165.75 6.32292 166.689 7.55324 166.689Z" fill="#808191"/>
<path d="M5.37007 236.837C4.46834 236.837 3.75001 236.643 3.21509 236.255L3.38703 235.525C3.60864 235.677 3.88757 235.806 4.22381 235.913C4.56769 236.019 4.89246 236.073 5.19813 236.073C5.80183 236.073 6.27181 235.917 6.60805 235.605C6.95193 235.285 7.12387 234.852 7.12387 234.304C7.12387 233.217 6.49342 232.673 5.23252 232.673C4.72052 232.673 4.1856 232.799 3.62775 233.05L3.90285 229.034H7.80017V229.81H4.63646L4.47599 232.137C4.88864 232.031 5.25545 231.977 5.5764 231.977C6.37115 231.977 6.98632 232.171 7.4219 232.559C7.85748 232.947 8.07527 233.533 8.07527 234.316C8.07527 235.023 7.83073 235.62 7.34166 236.107C6.85258 236.593 6.19539 236.837 5.37007 236.837Z" fill="#808191"/>
<path d="M5.7434 306.232C4.90281 306.232 4.22269 305.932 3.70305 305.331C3.18341 304.722 2.92358 303.802 2.92358 302.57V301.931C2.92358 300.669 3.18341 299.753 3.70305 299.182C4.23033 298.604 4.91427 298.315 5.75487 298.315C6.58018 298.315 7.2412 298.6 7.73791 299.171C8.24227 299.734 8.49445 300.638 8.49445 301.886V302.582C8.49445 303.814 8.24227 304.73 7.73791 305.331C7.2412 305.932 6.57636 306.232 5.7434 306.232ZM5.7434 305.479C6.34711 305.479 6.80179 305.258 7.10747 304.817C7.41314 304.376 7.56597 303.677 7.56597 302.718V301.874C7.56597 300.003 6.96227 299.068 5.75487 299.068C4.5169 299.068 3.89791 299.984 3.89791 301.817V302.661C3.89791 304.54 4.51308 305.479 5.7434 305.479Z" fill="#808191"/>
<path d="M280.836 258.092C284.001 258.092 286.567 255.539 286.567 252.389C286.567 249.239 284.001 246.685 280.836 246.685C277.671 246.685 275.104 249.239 275.104 252.389C275.104 255.539 277.671 258.092 280.836 258.092Z" fill="#094185"/>
<path d="M286.567 246.685H275.104V258.092H286.567V246.685Z" fill="#094185"/>
<path d="M293.411 248.78C294.328 248.78 294.966 249.301 295.326 250.343H296.758V248.164H297.607V257.439H296.758V254.188H295.326C294.959 255.214 294.321 255.727 293.411 255.727C292.693 255.727 292.143 255.412 291.761 254.781C291.386 254.149 291.199 253.305 291.199 252.248C291.199 251.199 291.39 250.358 291.772 249.727C292.154 249.096 292.701 248.78 293.411 248.78ZM294.775 252.248C294.775 251.419 294.653 250.761 294.409 250.275C294.164 249.78 293.832 249.533 293.411 249.533C292.991 249.533 292.659 249.78 292.414 250.275C292.169 250.761 292.047 251.419 292.047 252.248C292.047 253.092 292.169 253.758 292.414 254.245C292.659 254.731 292.991 254.975 293.411 254.975C293.832 254.975 294.164 254.731 294.409 254.245C294.653 253.758 294.775 253.092 294.775 252.248ZM299.567 257.941H298.707V247.97H299.567V257.941ZM296.758 251.073H295.52C295.589 251.438 295.624 251.83 295.624 252.248C295.624 252.659 295.585 253.062 295.509 253.457H296.758V251.073Z" fill="#808191"/>
<path d="M280.836 282.809C284.001 282.809 286.567 280.255 286.567 277.105C286.567 273.955 284.001 271.401 280.836 271.401C277.671 271.401 275.104 273.955 275.104 277.105C275.104 280.255 277.671 282.809 280.836 282.809Z" fill="#1E71D6"/>
<path d="M286.567 271.401H275.104V282.809H286.567V271.401Z" fill="#1E71D6"/>
<path d="M300.573 277.432H298.934V282.657H298.062V272.687H298.934V276.702H300.573V277.432ZM291.368 276.953C291.368 275.888 291.594 275.036 292.044 274.398C292.503 273.759 293.133 273.439 293.936 273.439C294.738 273.439 295.365 273.759 295.816 274.398C296.267 275.036 296.492 275.892 296.492 276.964C296.492 278.037 296.267 278.892 295.816 279.531C295.365 280.17 294.738 280.489 293.936 280.489C293.133 280.489 292.503 280.17 292.044 279.531C291.594 278.885 291.368 278.025 291.368 276.953ZM295.644 276.964C295.644 276.135 295.487 275.466 295.174 274.957C294.868 274.447 294.455 274.192 293.936 274.192C293.416 274.192 293 274.447 292.686 274.957C292.373 275.466 292.216 276.135 292.216 276.964C292.216 277.786 292.373 278.455 292.686 278.972C293 279.482 293.416 279.736 293.936 279.736C294.455 279.736 294.868 279.482 295.174 278.972C295.487 278.455 295.644 277.786 295.644 276.964ZM308.787 272.687V282.657H307.927V272.687H308.787ZM306.907 278.995L306.987 279.748C306.429 279.877 305.608 279.987 304.523 280.079C303.437 280.162 302.49 280.204 301.68 280.204H301.233V273.725H302.115V279.44C302.796 279.44 303.621 279.398 304.591 279.314C305.569 279.223 306.341 279.117 306.907 278.995ZM318.238 276.029C318.238 276.789 317.947 277.413 317.367 277.9C316.793 278.386 316.022 278.66 315.051 278.721V280.615H319.155V281.345H310.111V280.615H314.18V278.721C313.217 278.653 312.449 278.379 311.876 277.9C311.303 277.413 311.016 276.789 311.016 276.029C311.016 275.208 311.345 274.55 312.002 274.055C312.667 273.561 313.538 273.314 314.615 273.314C315.708 273.314 316.583 273.561 317.24 274.055C317.905 274.55 318.238 275.208 318.238 276.029ZM316.633 277.489C317.145 277.124 317.401 276.641 317.401 276.04C317.401 275.44 317.149 274.957 316.644 274.592C316.14 274.227 315.464 274.044 314.615 274.044C313.782 274.044 313.114 274.227 312.609 274.592C312.113 274.957 311.864 275.44 311.864 276.04C311.864 276.641 312.113 277.124 312.609 277.489C313.114 277.846 313.782 278.025 314.615 278.025C315.456 278.025 316.129 277.846 316.633 277.489Z" fill="#808191"/>
<path d="M280.836 307.525C284.001 307.525 286.567 304.971 286.567 301.821C286.567 298.671 284.001 296.117 280.836 296.117C277.671 296.117 275.104 298.671 275.104 301.821C275.104 304.971 277.671 307.525 280.836 307.525Z" fill="#BABACC"/>
<path d="M286.567 296.117H275.104V307.525H286.567V296.117Z" fill="#BABACC"/>
<path d="M299.14 301.988H292.342V297.962H299.14V301.988ZM298.269 301.27V298.68H293.225V301.27H298.269ZM296.171 307.384H295.3V303.985H291.23V303.255H300.275V303.985H296.171V307.384ZM309.715 302.775H300.671V302.057H309.715V302.775ZM308.764 305.456C308.764 306.042 308.45 306.49 307.824 306.802C307.197 307.122 306.326 307.281 305.21 307.281C304.094 307.281 303.223 307.122 302.597 306.802C301.978 306.49 301.668 306.042 301.668 305.456C301.668 304.878 301.982 304.43 302.608 304.11C303.235 303.791 304.098 303.631 305.199 303.631C306.314 303.631 307.186 303.791 307.812 304.11C308.446 304.43 308.764 304.878 308.764 305.456ZM305.199 304.361C304.373 304.361 303.724 304.456 303.25 304.646C302.776 304.829 302.539 305.099 302.539 305.456C302.539 305.814 302.776 306.087 303.25 306.278C303.724 306.46 304.373 306.551 305.199 306.551C306.039 306.551 306.697 306.46 307.17 306.278C307.644 306.095 307.881 305.821 307.881 305.456C307.881 305.099 307.64 304.829 307.159 304.646C306.685 304.456 306.032 304.361 305.199 304.361ZM308.695 299.467C308.695 300.03 308.382 300.483 307.755 300.825C307.136 301.159 306.28 301.327 305.187 301.327C304.102 301.327 303.25 301.159 302.631 300.825C302.012 300.483 301.703 300.03 301.703 299.467C301.703 298.889 302.012 298.433 302.631 298.098C303.25 297.756 304.102 297.585 305.187 297.585C306.28 297.585 307.136 297.756 307.755 298.098C308.382 298.433 308.695 298.889 308.695 299.467ZM307.124 300.323C307.606 300.118 307.847 299.832 307.847 299.467C307.847 299.102 307.606 298.813 307.124 298.6C306.643 298.387 305.997 298.281 305.187 298.281C304.377 298.281 303.735 298.387 303.262 298.6C302.788 298.813 302.551 299.102 302.551 299.467C302.551 299.832 302.788 300.118 303.262 300.323C303.735 300.528 304.377 300.631 305.187 300.631C305.997 300.631 306.643 300.528 307.124 300.323ZM319.326 300.483H317.802V302.753H316.931V297.403H317.802V299.753H319.326V300.483ZM317.802 307.236H311.509V303.3H312.38V304.555H316.942V303.266H317.802V307.236ZM316.942 306.517V305.251H312.38V306.517H316.942ZM311.371 301.578H311.864C313.347 301.578 314.661 301.464 315.807 301.235L315.876 301.954C314.585 302.182 313.064 302.296 311.314 302.296H310.489V298.064H314.971V298.794H311.371V301.578Z" fill="#808191"/>
</g>
<defs>
<clipPath id="clip0_73_6516">
<rect width="320" height="308" fill="white"/>
</clipPath>
</defs>
</svg>
