<svg width="206" height="198" viewBox="0 0 206 198" fill="none" xmlns="http://www.w3.org/2000/svg">
<path d="M55.182 39.412L58.612 30.004H59.802L63.204 39.412H61.916L60.964 36.766H57.296L56.358 39.412H55.182ZM59.088 31.656L57.66 35.716H60.586L59.13 31.656H59.088ZM64.5709 39.412V30.004H65.8029V39.412H64.5709ZM81.238 35.744H79.992V28.744H81.238V35.744ZM81.238 40.812H73.188V36.472H81.238V40.812ZM79.992 39.832V37.452H74.42V39.832H79.992ZM78.606 34.372L77.878 35.324C77.2993 35.0627 76.7253 34.666 76.156 34.134C75.5866 33.602 75.1806 33.0467 74.938 32.468C74.7606 33.084 74.3826 33.6907 73.804 34.288C73.2346 34.876 72.5906 35.3473 71.872 35.702L71.116 34.75C72.0306 34.358 72.7866 33.7793 73.384 33.014C73.9906 32.2487 74.294 31.39 74.294 30.438V29.248H75.568V30.382C75.568 31.3247 75.876 32.1553 76.492 32.874C77.108 33.5927 77.8126 34.092 78.606 34.372ZM91.0973 36.668L91.2233 37.69C89.7393 37.9327 87.8213 38.068 85.4693 38.096H83.9433V33.28H88.5213V30.858H83.8873V29.85H89.7533V34.274H85.1753V37.046H85.5393C87.9099 37.046 89.7626 36.92 91.0973 36.668ZM92.1613 28.744H93.4073V40.98H92.1613V28.744ZM99.5523 30.872V29.864H106.258V30.872H103.556V31.376C103.556 32.1973 103.86 32.958 104.466 33.658C105.082 34.3487 105.768 34.8107 106.524 35.044L105.838 36.038C105.288 35.814 104.728 35.4407 104.158 34.918C103.598 34.3953 103.192 33.8587 102.94 33.308C102.744 33.8867 102.348 34.4747 101.75 35.072C101.153 35.6693 100.537 36.0987 99.9023 36.36L99.1603 35.38C99.9909 35.0813 100.719 34.5493 101.344 33.784C101.979 33.0187 102.296 32.2253 102.296 31.404V30.872H99.5523ZM109.408 40.616H101.162V36.822H102.408V39.622H109.408V40.616ZM109.142 37.634H107.896V28.744H109.142V37.634ZM122.488 33.252H120.668V37.606H119.422V28.744H120.668V32.216H122.488V33.252ZM121.088 40.574H113.01V36.794H114.256V39.58H121.088V40.574ZM112.842 34.554H113.136C115.245 34.554 116.93 34.4187 118.19 34.148L118.344 35.128C117.308 35.3707 115.478 35.5153 112.856 35.562H111.624V29.822H117.21V30.844H112.842V34.554ZM123.807 35.058C123.807 34.7127 123.891 34.47 124.059 34.33C124.227 34.19 124.427 34.12 124.661 34.12C124.903 34.12 125.109 34.19 125.277 34.33C125.454 34.47 125.543 34.7127 125.543 35.058C125.543 35.394 125.454 35.6367 125.277 35.786C125.109 35.9353 124.903 36.01 124.661 36.01C124.427 36.01 124.227 35.9353 124.059 35.786C123.891 35.6367 123.807 35.394 123.807 35.058ZM136.737 33.868H128.449V29.136H129.695V30.578H135.505V29.122H136.737V33.868ZM133.265 38.39H132.033V36.136H127.077V35.128H138.123V36.136H133.265V38.39ZM136.835 40.616H128.449V37.256H129.695V39.608H136.835V40.616ZM135.505 32.86V31.558H129.695V32.86H135.505ZM147.982 32.468H145.616V31.46H147.982V28.744H149.228V35.912H147.982V32.468ZM149.228 40.994H147.982V37.536H141.038V36.542H149.228V40.994ZM146.26 34.274L145.546 35.24C144.968 34.9787 144.422 34.61 143.908 34.134C143.395 33.6487 143.012 33.1167 142.76 32.538C142.583 33.1447 142.233 33.7187 141.71 34.26C141.188 34.792 140.562 35.24 139.834 35.604L139.064 34.638C139.97 34.2553 140.702 33.7 141.262 32.972C141.822 32.244 142.102 31.418 142.102 30.494V29.304H143.376V30.438C143.376 31.3433 143.666 32.1413 144.244 32.832C144.823 33.5227 145.495 34.0033 146.26 34.274Z" fill="#6366F1"/>
<path d="M43.304 70.6686H37.466V65.2646H43.304V70.6686ZM42.086 69.6746V66.2586H38.684V69.6746H42.086ZM48.302 68.5126H46.482V71.5646H45.236V64.4106H46.482V67.4906H48.302V68.5126ZM47.336 75.7366L46.706 76.7166C45.8847 76.6046 45.0633 76.2966 44.242 75.7926C43.43 75.298 42.9073 74.8033 42.674 74.3086C42.4407 74.822 41.932 75.3213 41.148 75.8066C40.364 76.292 39.524 76.5906 38.628 76.7026L37.998 75.7226C38.978 75.6666 39.8693 75.3726 40.672 74.8406C41.4747 74.3086 41.932 73.7253 42.044 73.0906H38.656V72.0826H46.692V73.0906H43.346C43.4673 73.7066 43.9293 74.2853 44.732 74.8266C45.544 75.368 46.412 75.6713 47.336 75.7366ZM58.8473 76.4786H50.4613V72.7266H54.0313V71.5926H49.1453V70.5846H60.1913V71.5926H55.2773V72.7266H58.8473V76.4786ZM59.6453 69.0026L59.1273 70.0386C58.1846 69.9266 57.2839 69.6793 56.4253 69.2966C55.5759 68.914 54.9879 68.466 54.6613 67.9526C54.3439 68.494 53.7699 68.9513 52.9393 69.3246C52.1086 69.698 51.2033 69.936 50.2233 70.0386L49.6773 69.0026C50.6479 68.956 51.5346 68.774 52.3373 68.4566C53.1399 68.1393 53.6673 67.738 53.9193 67.2526H50.2793V66.2726H59.0433V67.2526H55.4453C55.7066 67.738 56.2479 68.1393 57.0693 68.4566C57.8906 68.774 58.7493 68.956 59.6453 69.0026ZM57.6013 75.5126V73.7066H51.6933V75.5126H57.6013ZM56.6353 65.4466H52.6733V64.4386H56.6353V65.4466ZM70.2886 72.9506C71.0072 73.324 71.3666 73.8466 71.3666 74.5186C71.3666 75.1906 71.0072 75.7133 70.2886 76.0866C69.5792 76.46 68.5666 76.6466 67.2506 76.6466C65.9346 76.6466 64.9266 76.46 64.2266 76.0866C63.5266 75.7226 63.1766 75.2 63.1766 74.5186C63.1766 73.8373 63.5266 73.31 64.2266 72.9366C64.9266 72.5633 65.9346 72.3766 67.2506 72.3766C68.5666 72.3766 69.5792 72.568 70.2886 72.9506ZM67.2506 73.3426C66.3732 73.3426 65.6872 73.45 65.1926 73.6646C64.6979 73.87 64.4506 74.1546 64.4506 74.5186C64.4506 74.8826 64.6932 75.172 65.1786 75.3866C65.6732 75.592 66.3639 75.6946 67.2506 75.6946C68.1466 75.6946 68.8419 75.592 69.3366 75.3866C69.8312 75.1813 70.0786 74.892 70.0786 74.5186C70.0786 74.1546 69.8266 73.87 69.3226 73.6646C68.8279 73.45 68.1372 73.3426 67.2506 73.3426ZM68.1466 68.6526V67.6586H70.0506V64.4106H71.2966V72.2646H70.0506V70.9206H68.1466V69.9406H70.0506V68.6526H68.1466ZM66.5366 65.5866H62.9806V64.5786H66.5366V65.5866ZM67.9226 67.3506H61.2726V66.3566H67.9226V67.3506ZM67.5446 69.8846C67.5446 70.482 67.2786 70.9673 66.7466 71.3406C66.2146 71.714 65.5379 71.9006 64.7166 71.9006C63.8952 71.9006 63.2186 71.7186 62.6866 71.3546C62.1546 70.9813 61.8886 70.4913 61.8886 69.8846C61.8886 69.2686 62.1499 68.7786 62.6726 68.4146C63.2046 68.0413 63.8859 67.8546 64.7166 67.8546C65.5379 67.8546 66.2146 68.0413 66.7466 68.4146C67.2786 68.7786 67.5446 69.2686 67.5446 69.8846ZM65.8366 70.6546C66.1539 70.4586 66.3126 70.202 66.3126 69.8846C66.3126 69.5673 66.1539 69.3106 65.8366 69.1146C65.5286 68.9093 65.1552 68.8066 64.7166 68.8066C64.2779 68.8066 63.8999 68.9093 63.5826 69.1146C63.2652 69.3106 63.1066 69.5673 63.1066 69.8846C63.1066 70.202 63.2652 70.4586 63.5826 70.6546C63.8999 70.8506 64.2779 70.9486 64.7166 70.9486C65.1552 70.9486 65.5286 70.8506 65.8366 70.6546ZM87.3816 76.6466H86.1916V70.1226H84.7356V76.0446H83.5456V64.6766H84.7356V69.1146H86.1916V64.4106H87.3816V76.6466ZM78.6596 72.5306H78.8836C80.5169 72.5306 81.8189 72.4233 82.7896 72.2086L82.9576 73.2306C81.8936 73.4546 80.4422 73.5666 78.6036 73.5666H77.4276V65.9226H82.2016V66.9306H78.6596V72.5306ZM96.7929 74.2386C95.8969 74.36 94.4922 74.4766 92.5789 74.5886C91.3469 74.654 90.1895 74.6866 89.1069 74.6866L88.9249 73.6506C90.3062 73.6506 91.3889 73.632 92.1729 73.5946V72.4886C91.4822 72.3953 90.9222 72.1666 90.4929 71.8026C90.0729 71.4293 89.8629 70.9766 89.8629 70.4446C89.8629 69.8193 90.1335 69.3153 90.6749 68.9326C91.2255 68.5406 91.9302 68.3446 92.7889 68.3446C93.6662 68.3446 94.3709 68.536 94.9029 68.9186C95.4442 69.3013 95.7149 69.81 95.7149 70.4446C95.7149 70.986 95.5049 71.4433 95.0849 71.8166C94.6649 72.1806 94.1049 72.4046 93.4049 72.4886V73.5246C94.6835 73.4593 95.7709 73.3706 96.6669 73.2586L96.7929 74.2386ZM100.559 70.8926H98.6689V76.6466H97.4509V64.4106H98.6689V69.8566H100.559V70.8926ZM96.4849 67.8406H89.2189V66.8186H96.4849V67.8406ZM94.4409 70.4446C94.4409 70.1273 94.2869 69.866 93.9789 69.6606C93.6709 69.4553 93.2742 69.3526 92.7889 69.3526C92.3129 69.3526 91.9209 69.46 91.6129 69.6746C91.3049 69.88 91.1509 70.1366 91.1509 70.4446C91.1509 70.7433 91.3049 71 91.6129 71.2146C91.9209 71.4293 92.3129 71.5366 92.7889 71.5366C93.2742 71.5366 93.6709 71.4293 93.9789 71.2146C94.2869 71 94.4409 70.7433 94.4409 70.4446ZM94.5109 66.0206H91.0249V65.0126H94.5109V66.0206ZM114.404 64.4106V69.4226H116.364V70.4586H114.404V76.6466H113.172V64.4106H114.404ZM111.184 65.7126C111.147 67.6166 110.657 69.2873 109.714 70.7246C108.771 72.162 107.441 73.3473 105.724 74.2806L104.968 73.3426C106.387 72.6613 107.525 71.728 108.384 70.5426C109.252 69.3573 109.742 68.0973 109.854 66.7626H105.5V65.7126H111.184ZM127.161 76.6466H125.915V64.4106H127.161V76.6466ZM117.501 69.6466C117.501 68.368 117.767 67.332 118.299 66.5386C118.831 65.736 119.615 65.3346 120.651 65.3346C121.687 65.3346 122.466 65.736 122.989 66.5386C123.521 67.332 123.787 68.3726 123.787 69.6606C123.787 70.9486 123.521 71.994 122.989 72.7966C122.466 73.59 121.687 73.9866 120.651 73.9866C119.615 73.9866 118.831 73.5853 118.299 72.7826C117.767 71.98 117.501 70.9346 117.501 69.6466ZM122.065 72.0266C122.392 71.4293 122.555 70.6406 122.555 69.6606C122.555 68.6806 122.392 67.892 122.065 67.2946C121.738 66.6973 121.267 66.3986 120.651 66.3986C120.044 66.3986 119.578 66.6973 119.251 67.2946C118.924 67.892 118.761 68.6806 118.761 69.6606C118.761 70.6406 118.924 71.4293 119.251 72.0266C119.578 72.6146 120.044 72.9086 120.651 72.9086C121.267 72.9086 121.738 72.6146 122.065 72.0266ZM138.91 71.4106H130.608V65.6146H138.798V66.6226H131.84V70.4166H138.91V71.4106ZM140.226 74.9946H129.18V73.9866H140.226V74.9946ZM151.215 72.9506L150.473 73.8326C149.997 73.5246 149.503 73.0626 148.989 72.4466C148.485 71.8213 148.154 71.224 147.995 70.6546C147.865 71.28 147.566 71.91 147.099 72.5446C146.633 73.1793 146.11 73.6926 145.531 74.0846L144.747 73.2306C145.541 72.7173 146.18 72.008 146.665 71.1026C147.151 70.1973 147.393 69.166 147.393 68.0086V66.8606H145.013V65.8666H150.865V66.8606H148.611V67.9666C148.611 69.1333 148.859 70.1413 149.353 70.9906C149.848 71.84 150.469 72.4933 151.215 72.9506ZM152.881 76.0446H151.705V69.8286H149.885V68.8066H151.705V64.6906H152.881V76.0446ZM155.303 76.6466H154.113V64.4106H155.303V76.6466ZM166.787 74.3366C166.787 75.046 166.418 75.6013 165.681 76.0026C164.943 76.4133 163.903 76.6186 162.559 76.6186C161.205 76.6186 160.155 76.4133 159.409 76.0026C158.662 75.6013 158.289 75.046 158.289 74.3366C158.289 73.618 158.657 73.058 159.395 72.6566C160.141 72.246 161.196 72.0406 162.559 72.0406C163.912 72.0406 164.953 72.246 165.681 72.6566C166.418 73.058 166.787 73.618 166.787 74.3366ZM168.131 71.1306H157.085V70.1226H161.593V67.5746H162.825V70.1226H168.131V71.1306ZM164.729 75.2886C165.261 75.0646 165.527 74.7473 165.527 74.3366C165.527 73.926 165.261 73.6086 164.729 73.3846C164.197 73.1606 163.473 73.0486 162.559 73.0486C161.635 73.0486 160.902 73.1606 160.361 73.3846C159.829 73.6086 159.563 73.926 159.563 74.3366C159.563 74.7473 159.829 75.0646 160.361 75.2886C160.893 75.5126 161.625 75.6246 162.559 75.6246C163.473 75.6246 164.197 75.5126 164.729 75.2886ZM166.815 65.0546C166.815 65.2133 166.81 65.4233 166.801 65.6846C166.801 65.946 166.801 66.142 166.801 66.2726C166.773 67.5046 166.656 68.5453 166.451 69.3946C166.189 69.3666 165.788 69.3153 165.247 69.2406C165.461 68.4193 165.569 67.36 165.569 66.0626H158.415V65.0546H166.815Z" fill="#6366F1"/>
<path d="M67.686 106.027L67.014 107.007C66.0527 106.737 65.138 106.265 64.27 105.593C63.4113 104.921 62.8373 104.24 62.548 103.549C62.3053 104.249 61.75 104.935 60.882 105.607C60.014 106.27 59.0807 106.732 58.082 106.993L57.452 105.985C58.5347 105.799 59.5473 105.304 60.49 104.501C61.442 103.689 61.918 102.798 61.918 101.827V100.987H63.192V101.827C63.192 102.471 63.4393 103.106 63.934 103.731C64.4287 104.347 65.0167 104.851 65.698 105.243C66.3793 105.635 67.042 105.897 67.686 106.027ZM68.078 110.759H57.032V109.751H61.904V106.713H63.15V109.751H68.078V110.759ZM80.1913 110.535H69.1453V109.527H80.1913V110.535ZM78.7213 101.463C78.7213 104.59 78.5299 106.984 78.1473 108.645L76.9433 108.491C77.0926 107.931 77.2139 107.035 77.3073 105.803C77.4099 104.562 77.4613 103.447 77.4613 102.457H70.2933V101.463H78.7213ZM90.9466 112.159H82.5606V107.931H83.7926V109.163H89.7146V107.917H90.9466V112.159ZM91.1846 105.201H82.5886V102.331H89.6726V101.449H82.5466V100.483H90.9186V103.241H83.8206V104.235H91.1846V105.201ZM87.3766 108.561H86.1306V107.063H81.2586V106.069H92.3046V107.063H87.3766V108.561ZM89.7146 111.165V110.143H83.7926V111.165H89.7146ZM107.018 112.299H98.5476V109.723H105.324V108.995H98.4916V108.085H106.556V110.563H99.7796V111.403H107.018V112.299ZM103.616 104.403C103.616 104.833 103.42 105.178 103.028 105.439C102.636 105.691 102.108 105.85 101.446 105.915V106.461C102.911 106.377 103.952 106.284 104.568 106.181L104.694 107.105C103.546 107.255 102.244 107.371 100.788 107.455C98.9396 107.53 97.6702 107.567 96.9796 107.567L96.7976 106.587C97.7682 106.587 98.9069 106.564 100.214 106.517V105.929C99.5322 105.864 98.9909 105.705 98.5896 105.453C98.1976 105.192 98.0016 104.842 98.0016 104.403C98.0016 103.909 98.2582 103.531 98.7716 103.269C99.2849 102.999 99.9569 102.863 100.788 102.863C101.646 102.863 102.332 102.999 102.846 103.269C103.359 103.531 103.616 103.909 103.616 104.403ZM108.376 104.655H106.556V107.427H105.338V100.077H106.556V103.619H108.376V104.655ZM104.4 102.541H97.2316V101.603H104.4V102.541ZM101.964 104.893C102.262 104.781 102.412 104.618 102.412 104.403C102.412 104.189 102.262 104.025 101.964 103.913C101.665 103.801 101.273 103.745 100.788 103.745C100.312 103.745 99.9289 103.801 99.6396 103.913C99.3502 104.025 99.2056 104.189 99.2056 104.403C99.2056 104.618 99.3502 104.781 99.6396 104.893C99.9289 105.005 100.312 105.061 100.788 105.061C101.273 105.061 101.665 105.005 101.964 104.893ZM102.454 101.071H99.0376V100.147H102.454V101.071ZM118.865 104.697H115.295V106.153H120.209V107.161H109.163V106.153H114.049V104.697H110.493V100.567H118.781V101.575H111.725V103.689H118.865V104.697ZM117.801 108.533C118.538 108.907 118.907 109.439 118.907 110.129C118.907 110.82 118.538 111.357 117.801 111.739C117.064 112.122 116.023 112.313 114.679 112.313C113.344 112.313 112.308 112.122 111.571 111.739C110.834 111.357 110.465 110.82 110.465 110.129C110.465 109.457 110.834 108.93 111.571 108.547C112.318 108.155 113.354 107.959 114.679 107.959C116.023 107.959 117.064 108.151 117.801 108.533ZM114.679 108.967C113.774 108.967 113.055 109.075 112.523 109.289C112 109.495 111.739 109.779 111.739 110.143C111.739 110.517 112 110.806 112.523 111.011C113.046 111.217 113.764 111.319 114.679 111.319C115.603 111.319 116.326 111.217 116.849 111.011C117.381 110.806 117.647 110.517 117.647 110.143C117.647 109.77 117.381 109.481 116.849 109.275C116.326 109.07 115.603 108.967 114.679 108.967ZM132.486 108.477L131.758 109.401C131.133 109.037 130.521 108.515 129.924 107.833C129.327 107.143 128.935 106.471 128.748 105.817C128.571 106.536 128.197 107.255 127.628 107.973C127.059 108.683 126.41 109.252 125.682 109.681L124.898 108.785C125.859 108.216 126.634 107.451 127.222 106.489C127.81 105.519 128.104 104.455 128.104 103.297V102.317H125.332V101.309H132.122V102.317H129.378V103.297C129.378 104.436 129.667 105.463 130.246 106.377C130.825 107.283 131.571 107.983 132.486 108.477ZM133.802 100.077H135.048V112.313H133.802V100.077ZM144.207 102.933C144.207 103.615 143.904 104.161 143.297 104.571C142.7 104.982 141.92 105.187 140.959 105.187C140.007 105.187 139.228 104.982 138.621 104.571C138.014 104.161 137.711 103.61 137.711 102.919C137.711 102.238 138.014 101.692 138.621 101.281C139.228 100.861 140.007 100.651 140.959 100.651C141.911 100.651 142.69 100.861 143.297 101.281C143.904 101.692 144.207 102.243 144.207 102.933ZM147.189 109.485H145.971V108.183H143.563V107.259H145.971V100.077H147.189V109.485ZM147.427 112.005H138.551V108.435H139.783V110.997H147.427V112.005ZM141.687 108.953H140.441V106.783C139.974 106.802 139.326 106.821 138.495 106.839C137.674 106.858 137.212 106.867 137.109 106.867L136.913 105.845C138.509 105.845 139.867 105.822 140.987 105.775C142.527 105.71 143.834 105.617 144.907 105.495L144.991 106.419C144.282 106.531 143.18 106.629 141.687 106.713V108.953ZM142.877 102.933C142.877 102.56 142.7 102.252 142.345 102.009C141.99 101.767 141.528 101.645 140.959 101.645C140.39 101.645 139.928 101.767 139.573 102.009C139.218 102.252 139.041 102.56 139.041 102.933C139.041 103.297 139.214 103.601 139.559 103.843C139.914 104.077 140.38 104.193 140.959 104.193C141.538 104.193 142 104.077 142.345 103.843C142.7 103.601 142.877 103.297 142.877 102.933Z" fill="#6366F1"/>
<g clip-path="url(#clip0_58_1391)">
<path d="M72.8473 171.108C70.167 169.96 68.1872 167.329 67.8335 164.447C67.4775 161.563 68.7614 158.535 71.173 156.689C69.6089 150.559 72.8266 143.553 78.5064 140.723C81.0879 137.642 84.0668 134.737 87.7875 133.198C91.5082 131.659 96.1108 131.73 99.2619 134.23C99.464 134.431 99.6638 134.632 99.8659 134.833C99.6294 134.6 99.1494 134.934 99.2872 135.236C101.926 132.999 105.472 131.86 108.927 132.139C112.381 132.418 115.697 134.111 117.941 136.741C117.643 136.51 117.344 136.279 117.045 136.05C122.558 135.659 127.93 140.293 128.327 145.781C128.141 145.035 127.957 144.287 127.771 143.541C130.959 144.33 133.795 146.444 135.454 149.271C137.112 152.096 137.569 155.595 136.694 158.75C139.367 162.43 138.593 168.144 135.038 170.989C133.816 171.966 131.958 172.581 130.741 171.597C128.857 174.731 124.434 176.039 120.92 174.594C120.075 174.072 119.184 173.498 118.784 172.592C116.809 173.777 114.432 174.283 112.142 174.004C112.369 174.255 112.732 174.381 113.033 174.335C113.061 176.662 111.556 178.933 109.253 179.848C108.451 180.163 107.652 180.481 106.85 180.797C106.85 180.797 106.708 180.829 106.485 180.907C105.805 181.097 105.128 181.287 104.448 181.476C104.448 181.476 104.306 181.508 104.025 181.602C103.24 181.767 102.457 181.929 101.506 182.158C100.948 182.137 100.387 182.115 99.8292 182.094C97.3717 185.127 94.8844 188.213 93.3501 191.797C92.753 193.194 92.2868 194.69 91.2992 195.852C90.3116 197.014 88.6005 197.746 87.234 197.069C85.7939 196.355 85.3989 194.487 85.4816 192.888C85.5642 191.289 85.9386 189.626 85.3782 188.126C85.3782 188.126 85.3736 187.972 85.4012 187.792C84.3286 186.046 82.6175 184.699 80.5367 183.535C80.4311 183.059 80.3254 182.583 80.2198 182.11C79.9556 181.682 79.5721 181.325 79.1242 181.094C79.6686 181.179 80.2106 181.261 80.7549 181.346C78.9543 181.243 77.1904 180.575 75.6148 179.379C74.6893 179.308 73.8946 178.626 73.4559 177.812C73.0172 176.998 72.8725 176.06 72.7738 175.141C72.6291 173.814 72.5602 172.48 72.8519 171.115L72.8473 171.108Z" fill="#FEA741"/>
<path d="M88.5779 147.725C88.215 154.104 87.8521 160.493 87.9532 166.881C87.9876 169.088 88.2104 171.577 89.9146 172.986C91.3891 174.205 93.4952 174.21 95.4107 174.15C101.802 173.958 108.194 173.764 114.584 173.572C115.829 173.535 117.186 173.453 118.107 172.62C119.221 171.614 119.269 169.916 119.239 168.418C119.108 162.252 118.977 156.085 118.846 149.918C118.821 148.736 118.741 147.418 117.88 146.602C117.087 145.852 115.888 145.771 114.797 145.735C108.174 145.508 101.548 145.282 94.9238 145.056C93.7892 145.017 92.627 144.982 91.5476 145.339C90.4681 145.696 89.4782 146.533 88.5756 147.723L88.5779 147.725Z" fill="#557EF7"/>
<path d="M103.017 162.942H98.1277L97.1975 165.719H94.2324L99.2714 152.242H101.855L106.922 165.719H103.957L103.017 162.942ZM98.881 160.694H102.264L100.562 155.648L98.8787 160.694H98.881Z" fill="white"/>
<path d="M111.15 165.719H108.362V152.242H111.15V165.719Z" fill="white"/>
<path d="M114.962 174.882H92.5992C89.6295 174.882 87.2134 172.476 87.2134 169.518V149.909C87.2134 146.952 89.6295 144.545 92.5992 144.545H114.962C117.932 144.545 120.348 146.952 120.348 149.909V169.518C120.348 172.476 117.932 174.882 114.962 174.882ZM92.5992 146.147C90.5161 146.147 88.8211 147.835 88.8211 149.909V169.518C88.8211 171.593 90.5161 173.281 92.5992 173.281H114.962C117.046 173.281 118.741 171.593 118.741 169.518V149.909C118.741 147.835 117.046 146.147 114.962 146.147H92.5992Z" fill="#0D1D44"/>
<path d="M122.096 161.311C121.249 161.311 120.403 161.156 119.62 160.838C119.209 160.671 119.012 160.204 119.179 159.795C119.347 159.386 119.816 159.189 120.227 159.356C121.818 160.001 123.738 159.763 125.123 158.752C126.508 157.739 127.31 155.984 127.167 154.278C127.131 153.837 127.459 153.45 127.902 153.413C128.346 153.377 128.734 153.704 128.77 154.145C128.959 156.391 127.902 158.706 126.076 160.042C124.935 160.877 123.516 161.314 122.098 161.314L122.096 161.311Z" fill="#0D1D44"/>
<path d="M86.0056 154.628C84.7607 154.628 83.5205 154.34 82.3974 153.775C80.7254 152.935 79.3956 151.533 78.6514 149.822C78.4746 149.417 78.6629 148.946 79.0695 148.77C79.476 148.594 79.9491 148.782 80.1259 149.186C80.7116 150.534 81.8026 151.686 83.1209 152.345C84.4369 153.006 86.0147 153.194 87.4525 152.862C87.8866 152.761 88.3161 153.029 88.4171 153.461C88.5182 153.894 88.2495 154.321 87.8154 154.422C87.2182 154.559 86.6119 154.628 86.0056 154.628Z" fill="#0D1D44"/>
<path d="M87.9555 165.644C87.6891 165.644 87.4295 165.513 87.2757 165.273C85.955 163.205 83.7823 161.73 81.465 161.33C79.097 160.923 76.5959 161.609 74.7723 163.167C74.4347 163.455 73.9271 163.416 73.6377 163.08C73.3483 162.743 73.3874 162.238 73.725 161.95C75.9069 160.083 78.9041 159.26 81.7383 159.749C84.4943 160.225 87.0713 161.968 88.633 164.411C88.8719 164.784 88.7616 165.278 88.385 165.516C88.2518 165.6 88.1025 165.641 87.9555 165.641V165.644Z" fill="#0D1D44"/>
<path d="M76.6783 173.036C75.3324 173.036 73.9888 172.766 72.7532 172.217C69.671 170.847 67.4363 167.803 67.0573 164.463C66.699 161.298 68.0266 158.02 70.4634 155.968C69.7192 152.43 70.0913 149.196 71.5773 146.346C73.0242 143.567 75.5001 141.291 78.3963 140.067C80.693 136.606 83.3503 134.198 86.2993 132.903C89.5423 131.48 93.3296 131.309 96.6897 132.434C100.05 133.557 102.964 135.973 104.687 139.056C104.903 139.442 104.763 139.93 104.375 140.145C103.986 140.36 103.497 140.22 103.281 139.834C101.752 137.093 99.1609 134.95 96.1775 133.951C93.1941 132.951 89.8294 133.104 86.9493 134.367C84.2345 135.559 81.7633 137.839 79.6089 141.147C79.5194 141.284 79.3884 141.391 79.2346 141.453C76.5887 142.51 74.3196 144.561 73.0081 147.08C71.637 149.713 71.3453 152.746 72.1446 156.094C72.2181 156.403 72.1009 156.728 71.846 156.92C69.5952 158.606 68.3458 161.497 68.6604 164.283C68.9751 167.069 70.8423 169.61 73.4124 170.754C75.9847 171.897 79.1289 171.586 81.4233 169.96C81.7839 169.704 82.2869 169.788 82.5441 170.147C82.8014 170.509 82.7164 171.007 82.3558 171.264C80.7091 172.43 78.6948 173.032 76.6829 173.034L76.6783 173.036Z" fill="#0D1D44"/>
<path d="M82.464 182.723C81.3822 182.723 80.3257 182.593 79.3175 182.332C76.8898 181.703 74.7952 180.317 73.4195 178.432C71.9404 176.408 71.3616 173.814 71.8761 171.497C71.9725 171.065 72.3997 170.792 72.8338 170.888C73.2679 170.985 73.5412 171.41 73.4447 171.842C73.029 173.718 73.5044 175.829 74.7171 177.49C75.877 179.075 77.6523 180.246 79.7217 180.781C81.6371 181.28 83.7731 181.229 85.893 180.642C86.3202 180.523 86.7634 180.772 86.8829 181.197C87.0023 181.623 86.7519 182.064 86.3248 182.183C85.0317 182.542 83.7295 182.723 82.4594 182.723H82.464Z" fill="#0D1D44"/>
<path d="M89.3884 198C89.3517 198 89.3126 198 89.2759 198C88.8923 197.989 88.4927 197.977 88.1 197.963C87.0848 197.929 86.1478 197.501 85.4587 196.758C84.7697 196.015 84.416 195.047 84.4643 194.036L84.6664 189.713C84.7284 188.375 84.0233 187.135 82.868 186.557C80.8331 185.532 79.2277 183.855 78.3458 181.831C78.1689 181.426 78.3573 180.955 78.7638 180.779C79.1726 180.603 79.6434 180.79 79.8203 181.195C80.5415 182.851 81.9149 184.285 83.5915 185.127C85.3095 185.992 86.3614 187.821 86.2695 189.789L86.0674 194.112C86.0398 194.693 86.2442 195.246 86.6393 195.672C87.0343 196.097 87.5717 196.344 88.1528 196.362C88.5432 196.376 88.9406 196.387 89.3195 196.399C90.3806 196.433 91.32 195.736 91.6048 194.711C92.3122 192.167 92.9966 190.271 93.8257 188.565C95.3209 185.482 97.2754 183.13 99.6364 181.579C100.006 181.335 100.505 181.438 100.75 181.806C100.996 182.174 100.893 182.67 100.523 182.915C98.4077 184.306 96.6438 186.44 95.2749 189.26C94.4895 190.877 93.8372 192.691 93.1551 195.139C92.6819 196.838 91.1431 198.002 89.3884 198.002V198Z" fill="#0D1D44"/>
<path d="M127.197 149.77C127.096 149.77 126.99 149.751 126.891 149.708C126.48 149.539 126.285 149.072 126.455 148.663C127.61 145.868 127.158 142.519 125.302 140.129C123.446 137.738 120.304 136.46 117.298 136.869C117.041 136.906 116.779 136.812 116.602 136.622C114.434 134.307 111.68 132.896 108.853 132.642C106.01 132.388 103.019 133.345 100.856 135.2C100.52 135.488 100.013 135.451 99.7212 135.115C99.4318 134.781 99.4686 134.275 99.8062 133.985C102.328 131.823 105.677 130.753 108.993 131.048C112.094 131.325 115.095 132.807 117.491 135.236C120.929 134.914 124.455 136.423 126.572 139.15C128.775 141.986 129.31 145.959 127.939 149.273C127.81 149.582 127.512 149.77 127.195 149.77H127.197Z" fill="#0D1D44"/>
<path d="M131.802 172.888C131.494 172.888 131.189 172.862 130.89 172.812C130.452 172.739 130.158 172.325 130.231 171.888C130.305 171.451 130.72 171.158 131.159 171.232C132.392 171.44 133.775 171.035 134.854 170.15C136.122 169.111 136.74 167.684 137.036 166.671C137.771 164.155 137.351 161.346 135.911 159.152C135.785 158.962 135.748 158.727 135.808 158.505C136.618 155.509 136.249 152.325 134.792 149.77C133.345 147.228 130.789 145.268 127.953 144.525C127.523 144.413 127.266 143.974 127.381 143.546C127.493 143.118 127.932 142.862 128.364 142.976C131.66 143.839 134.512 146.028 136.193 148.978C137.799 151.801 138.251 155.28 137.45 158.578C138.989 161.108 139.413 164.274 138.582 167.117C138.068 168.88 137.133 170.356 135.879 171.383C134.698 172.35 133.228 172.883 131.804 172.883L131.802 172.888Z" fill="#0D1D44"/>
<path d="M124.65 176.488C122.331 176.488 119.951 175.436 118.183 173.606C117.875 173.288 117.884 172.78 118.206 172.474C118.525 172.167 119.035 172.176 119.343 172.496C120.923 174.132 123.07 175.019 125.089 174.871C127.239 174.711 129.17 173.297 129.788 171.428C130.123 170.41 130.107 169.191 129.74 167.997C129.418 166.95 128.839 165.895 127.971 164.774C127.7 164.425 127.765 163.921 128.116 163.651C128.467 163.382 128.973 163.446 129.244 163.796C130.231 165.072 130.897 166.291 131.276 167.526C131.747 169.059 131.761 170.58 131.315 171.929C130.5 174.395 127.99 176.261 125.208 176.467C125.022 176.481 124.839 176.488 124.653 176.488H124.65Z" fill="#0D1D44"/>
<path d="M102.149 182.977C100.316 182.977 97.8496 182.613 95.8239 181.024C93.7293 179.379 92.7302 176.723 93.3411 174.413C93.4537 173.985 93.8946 173.729 94.3218 173.844C94.7513 173.956 95.0085 174.395 94.8937 174.82C94.4504 176.497 95.2428 178.53 96.8184 179.766C98.2148 180.861 100.229 181.428 102.484 181.369C104.765 181.307 106.85 180.664 108.518 179.514C110.312 178.274 111.559 176.444 111.938 174.491C112.023 174.056 112.445 173.773 112.879 173.857C113.316 173.942 113.601 174.361 113.516 174.795C113.056 177.156 111.568 179.356 109.434 180.829C107.51 182.158 105.121 182.899 102.528 182.97C102.404 182.972 102.278 182.975 102.149 182.975V182.977Z" fill="#0D1D44"/>
</g>
<defs>
<clipPath id="clip0_58_1391">
<rect width="72" height="67" fill="white" transform="translate(67 131)"/>
</clipPath>
</defs>
</svg>
