<svg width="201" height="170" viewBox="0 0 201 170" fill="none" xmlns="http://www.w3.org/2000/svg">
<path d="M34.574 12.594C33.51 12.594 32.67 12.3607 32.054 11.894C31.4473 11.4273 31.144 10.802 31.144 10.018C31.144 9.44867 31.3353 8.94933 31.718 8.52C32.11 8.08133 32.5953 7.75 33.174 7.526C31.998 7.03133 31.41 6.266 31.41 5.23C31.41 4.502 31.6947 3.914 32.264 3.466C32.8427 3.00867 33.608 2.78 34.56 2.78C35.5213 2.78 36.282 2.99 36.842 3.41C37.402 3.83 37.682 4.404 37.682 5.132C37.682 6.06533 37.08 6.82133 35.876 7.4C37.332 7.932 38.06 8.75333 38.06 9.864C38.06 10.6573 37.7473 11.3107 37.122 11.824C36.4967 12.3373 35.6473 12.594 34.574 12.594ZM34.56 11.488C35.148 11.488 35.624 11.348 35.988 11.068C36.3613 10.788 36.548 10.424 36.548 9.976C36.548 9.472 36.3707 9.08 36.016 8.8C35.6707 8.51067 35.1013 8.254 34.308 8.03C33.8133 8.18867 33.398 8.436 33.062 8.772C32.726 9.09867 32.558 9.47667 32.558 9.906C32.558 10.3913 32.74 10.7787 33.104 11.068C33.468 11.348 33.9533 11.488 34.56 11.488ZM34.784 6.924C35.7733 6.49467 36.268 5.92533 36.268 5.216C36.268 4.824 36.1187 4.50667 35.82 4.264C35.5307 4.012 35.1153 3.886 34.574 3.886C34.0607 3.886 33.6547 4.00267 33.356 4.236C33.0573 4.46 32.908 4.77733 32.908 5.188C32.908 6.028 33.5333 6.60667 34.784 6.924ZM39.6591 12.44L43.2431 4.138H38.7071V2.976H44.8391V3.858L41.2831 12.44H39.6591ZM45.7515 12.566V11.054H47.2915V12.566H45.7515ZM51.8455 12.594C50.7815 12.594 49.9415 12.3607 49.3255 11.894C48.7188 11.4273 48.4155 10.802 48.4155 10.018C48.4155 9.44867 48.6068 8.94933 48.9895 8.52C49.3815 8.08133 49.8668 7.75 50.4455 7.526C49.2695 7.03133 48.6815 6.266 48.6815 5.23C48.6815 4.502 48.9662 3.914 49.5355 3.466C50.1142 3.00867 50.8795 2.78 51.8315 2.78C52.7928 2.78 53.5535 2.99 54.1135 3.41C54.6735 3.83 54.9535 4.404 54.9535 5.132C54.9535 6.06533 54.3515 6.82133 53.1475 7.4C54.6035 7.932 55.3315 8.75333 55.3315 9.864C55.3315 10.6573 55.0188 11.3107 54.3935 11.824C53.7682 12.3373 52.9188 12.594 51.8455 12.594ZM51.8315 11.488C52.4195 11.488 52.8955 11.348 53.2595 11.068C53.6328 10.788 53.8195 10.424 53.8195 9.976C53.8195 9.472 53.6422 9.08 53.2875 8.8C52.9422 8.51067 52.3728 8.254 51.5795 8.03C51.0848 8.18867 50.6695 8.436 50.3335 8.772C49.9975 9.09867 49.8295 9.47667 49.8295 9.906C49.8295 10.3913 50.0115 10.7787 50.3755 11.068C50.7395 11.348 51.2248 11.488 51.8315 11.488ZM52.0555 6.924C53.0448 6.49467 53.5395 5.92533 53.5395 5.216C53.5395 4.824 53.3902 4.50667 53.0915 4.264C52.8022 4.012 52.3868 3.886 51.8455 3.886C51.3322 3.886 50.9262 4.00267 50.6275 4.236C50.3288 4.46 50.1795 4.77733 50.1795 5.188C50.1795 6.028 50.8048 6.60667 52.0555 6.924Z" fill="#215AB8"/>
<path d="M38 27.5C38 24.4624 40.4624 22 43.5 22C46.5376 22 49 24.4624 49 27.5V147H38V27.5Z" fill="#3F80EA"/>
<rect x="17" y="151" width="53" height="19" rx="9.5" fill="#626280"/>
<path d="M25.671 157.707V156.783H30.83V157.707H28.872V158.004C28.872 158.686 29.092 159.302 29.532 159.852C29.972 160.395 30.4927 160.758 31.094 160.941L30.467 161.843C30.049 161.682 29.631 161.41 29.213 161.029C28.8023 160.64 28.4943 160.222 28.289 159.775C28.1497 160.244 27.849 160.706 27.387 161.161C26.9323 161.616 26.4557 161.935 25.957 162.118L25.286 161.238C25.99 160.981 26.5693 160.56 27.024 159.973C27.4787 159.386 27.706 158.741 27.706 158.037V157.707H25.671ZM33.393 163.185H32.271V159.643H30.687V158.697H32.271V156.068H33.393V163.185ZM33.613 165.583H27.002V162.514H28.124V164.681H33.613V165.583ZM39.1986 162.998L38.5496 163.79C38.1756 163.563 37.8089 163.236 37.4496 162.811C37.0976 162.378 36.8629 161.949 36.7456 161.524C36.6356 161.993 36.3972 162.466 36.0306 162.943C35.6639 163.42 35.2716 163.783 34.8536 164.032L34.1496 163.273C35.4989 162.4 36.1846 161.11 36.2066 159.401H34.5016V158.499H38.9456V159.401H37.3066C37.3212 160.274 37.4972 161.011 37.8346 161.612C38.1792 162.213 38.6339 162.675 39.1986 162.998ZM40.6836 165.407H39.6166V161.282H38.3736V160.347H39.6166V156.266H40.6836V165.407ZM42.6086 165.869H41.5306V156.068H42.6086V165.869ZM38.0436 157.773H35.4806V156.86H38.0436V157.773ZM51.5052 163.944C51.5052 164.523 51.2082 164.985 50.6142 165.33C50.0275 165.675 49.2062 165.847 48.1502 165.847C47.1088 165.847 46.2948 165.675 45.7082 165.33C45.1215 164.985 44.8282 164.523 44.8282 163.944C44.8282 163.357 45.1215 162.892 45.7082 162.547C46.2948 162.195 47.1088 162.019 48.1502 162.019C49.2062 162.019 50.0275 162.195 50.6142 162.547C51.2082 162.892 51.5052 163.357 51.5052 163.944ZM48.1502 162.943C47.4682 162.943 46.9365 163.031 46.5552 163.207C46.1738 163.383 45.9832 163.629 45.9832 163.944C45.9832 164.259 46.1738 164.505 46.5552 164.681C46.9365 164.85 47.4682 164.934 48.1502 164.934C48.8468 164.934 49.3895 164.85 49.7782 164.681C50.1668 164.505 50.3612 164.259 50.3612 163.944C50.3612 163.629 50.1668 163.383 49.7782 163.207C49.3895 163.031 48.8468 162.943 48.1502 162.943ZM49.1402 160.457L49.2282 161.326C48.5902 161.443 47.6625 161.531 46.4452 161.59C45.2792 161.641 44.2598 161.667 43.3872 161.667L43.2772 160.721H44.5862L44.3332 158.18L45.4332 158.081L45.5762 160.699C45.7815 160.684 46.1445 160.67 46.6652 160.655L46.8082 158.07L47.8972 158.158L47.6442 160.6C48.3335 160.563 48.8322 160.516 49.1402 160.457ZM48.9752 158.4V157.476H50.3172V156.068H51.4392V161.92H50.3172V160.204H48.9752V159.269H50.3172V158.4H48.9752ZM48.7442 157.586H43.5852V156.684H48.7442V157.586ZM60.0717 156.563C60.0717 158.154 59.9654 159.379 59.7527 160.237H61.2377V161.139H58.9607V163.526H57.8277V161.139H56.3097V163.504H55.1877V161.139H52.3827V160.237H58.6637C58.8251 159.592 58.9204 158.668 58.9497 157.465H53.5267V156.563H60.0717ZM60.2037 165.583H53.5157V162.569H54.6487V164.681H60.2037V165.583Z" fill="white"/>
<path d="M88.956 31.44L92.54 23.138H88.004V21.976H94.136V22.858L90.58 31.44H88.956ZM98.1424 31.594C97.0784 31.594 96.2384 31.3607 95.6224 30.894C95.0157 30.4273 94.7124 29.802 94.7124 29.018C94.7124 28.4487 94.9037 27.9493 95.2864 27.52C95.6784 27.0813 96.1637 26.75 96.7424 26.526C95.5664 26.0313 94.9784 25.266 94.9784 24.23C94.9784 23.502 95.263 22.914 95.8324 22.466C96.411 22.0087 97.1764 21.78 98.1284 21.78C99.0897 21.78 99.8504 21.99 100.41 22.41C100.97 22.83 101.25 23.404 101.25 24.132C101.25 25.0653 100.648 25.8213 99.4444 26.4C100.9 26.932 101.628 27.7533 101.628 28.864C101.628 29.6573 101.316 30.3107 100.69 30.824C100.065 31.3373 99.2157 31.594 98.1424 31.594ZM98.1284 30.488C98.7164 30.488 99.1924 30.348 99.5564 30.068C99.9297 29.788 100.116 29.424 100.116 28.976C100.116 28.472 99.939 28.08 99.5844 27.8C99.239 27.5107 98.6697 27.254 97.8764 27.03C97.3817 27.1887 96.9664 27.436 96.6304 27.772C96.2944 28.0987 96.1264 28.4767 96.1264 28.906C96.1264 29.3913 96.3084 29.7787 96.6724 30.068C97.0364 30.348 97.5217 30.488 98.1284 30.488ZM98.3524 25.924C99.3417 25.4947 99.8364 24.9253 99.8364 24.216C99.8364 23.824 99.687 23.5067 99.3884 23.264C99.099 23.012 98.6837 22.886 98.1424 22.886C97.629 22.886 97.223 23.0027 96.9244 23.236C96.6257 23.46 96.4764 23.7773 96.4764 24.188C96.4764 25.028 97.1017 25.6067 98.3524 25.924ZM102.751 31.566V30.054H104.291V31.566H102.751ZM108.845 31.594C107.781 31.594 106.941 31.3607 106.325 30.894C105.719 30.4273 105.415 29.802 105.415 29.018C105.415 28.4487 105.607 27.9493 105.989 27.52C106.381 27.0813 106.867 26.75 107.445 26.526C106.269 26.0313 105.681 25.266 105.681 24.23C105.681 23.502 105.966 22.914 106.535 22.466C107.114 22.0087 107.879 21.78 108.831 21.78C109.793 21.78 110.553 21.99 111.113 22.41C111.673 22.83 111.953 23.404 111.953 24.132C111.953 25.0653 111.351 25.8213 110.147 26.4C111.603 26.932 112.331 27.7533 112.331 28.864C112.331 29.6573 112.019 30.3107 111.393 30.824C110.768 31.3373 109.919 31.594 108.845 31.594ZM108.831 30.488C109.419 30.488 109.895 30.348 110.259 30.068C110.633 29.788 110.819 29.424 110.819 28.976C110.819 28.472 110.642 28.08 110.287 27.8C109.942 27.5107 109.373 27.254 108.579 27.03C108.085 27.1887 107.669 27.436 107.333 27.772C106.997 28.0987 106.829 28.4767 106.829 28.906C106.829 29.3913 107.011 29.7787 107.375 30.068C107.739 30.348 108.225 30.488 108.831 30.488ZM109.055 25.924C110.045 25.4947 110.539 24.9253 110.539 24.216C110.539 23.824 110.39 23.5067 110.091 23.264C109.802 23.012 109.387 22.886 108.845 22.886C108.332 22.886 107.926 23.0027 107.627 23.236C107.329 23.46 107.179 23.7773 107.179 24.188C107.179 25.028 107.805 25.6067 109.055 25.924Z" fill="#818181"/>
<path d="M95 46.5C95 43.4624 97.4624 41 100.5 41C103.538 41 106 43.4624 106 46.5V147H95V46.5Z" fill="white"/>
<rect x="74" y="151" width="53" height="19" rx="9.5" fill="#626280"/>
<path d="M90.69 163.933C90.69 164.52 90.3893 164.985 89.788 165.33C89.1867 165.682 88.358 165.858 87.302 165.858C86.2533 165.858 85.4283 165.682 84.827 165.33C84.2257 164.985 83.925 164.52 83.925 163.933C83.925 163.339 84.2257 162.866 84.827 162.514C85.4283 162.162 86.2533 161.986 87.302 161.986C88.358 161.986 89.1867 162.162 89.788 162.514C90.3893 162.866 90.69 163.339 90.69 163.933ZM90.591 162.041H89.513V159.467H88.567V161.623H87.5V156.244H88.567V158.521H89.513V156.068H90.591V162.041ZM87.258 160.523L86.686 161.359C86.334 161.198 85.9673 160.937 85.586 160.578C85.212 160.219 84.9627 159.878 84.838 159.555C84.706 159.951 84.4603 160.351 84.101 160.754C83.7417 161.15 83.3493 161.454 82.924 161.667L82.275 160.875C82.8763 160.545 83.3567 160.109 83.716 159.566C84.0827 159.023 84.266 158.415 84.266 157.74V156.673H85.355V157.707C85.355 158.36 85.5383 158.928 85.905 159.412C86.279 159.889 86.73 160.259 87.258 160.523ZM89.524 163.933C89.524 163.61 89.326 163.361 88.93 163.185C88.534 163.002 87.9913 162.91 87.302 162.91C86.6127 162.91 86.07 163.002 85.674 163.185C85.2853 163.361 85.091 163.61 85.091 163.933C85.091 164.248 85.2853 164.498 85.674 164.681C86.07 164.864 86.6127 164.956 87.302 164.956C87.9913 164.956 88.534 164.864 88.93 164.681C89.326 164.498 89.524 164.248 89.524 163.933ZM99.3886 165.88H92.6896V163.823H97.9146V163.284H92.6566V162.503H99.0366V164.549H93.8226V165.099H99.3886V165.88ZM97.3316 161.007L97.4306 161.821C95.8466 162.034 93.7896 162.155 91.2596 162.184L91.0946 161.282C92.2312 161.282 93.0929 161.278 93.6796 161.271V160.809C93.1442 160.75 92.7226 160.618 92.4146 160.413C92.1066 160.2 91.9526 159.929 91.9526 159.599C91.9526 159.218 92.1579 158.913 92.5686 158.686C92.9792 158.459 93.5292 158.345 94.2186 158.345C94.9079 158.345 95.4616 158.459 95.8796 158.686C96.2976 158.913 96.5066 159.218 96.5066 159.599C96.5066 159.922 96.3526 160.189 96.0446 160.402C95.7439 160.607 95.3296 160.739 94.8016 160.798V161.227C96.0189 161.154 96.8622 161.08 97.3316 161.007ZM100.445 159.731H99.0366V161.975H97.9146V156.068H99.0366V158.796H100.445V159.731ZM96.9906 158.125H91.4686V157.3H96.9906V158.125ZM92.8766 156.915V156.112H95.6156V156.915H92.8766ZM95.4066 159.599C95.4066 159.445 95.2966 159.324 95.0766 159.236C94.8639 159.148 94.5779 159.104 94.2186 159.104C93.8666 159.104 93.5806 159.148 93.3606 159.236C93.1479 159.324 93.0416 159.445 93.0416 159.599C93.0416 159.746 93.1479 159.863 93.3606 159.951C93.5806 160.039 93.8666 160.083 94.2186 160.083C94.5779 160.083 94.8639 160.039 95.0766 159.951C95.2966 159.863 95.4066 159.746 95.4066 159.599ZM107.977 156.068V158.906H109.418V159.852H107.977V163.174H106.844V156.068H107.977ZM108.263 165.572H101.707V162.459H102.84V164.659H108.263V165.572ZM105.227 161.425H100.673V156.849H105.227V161.425ZM104.094 160.534V157.74H101.806V160.534H104.094ZM117.864 159.203L117.369 160.083C116.628 159.995 115.917 159.768 115.235 159.401C114.553 159.034 114.08 158.62 113.816 158.158C113.588 158.635 113.141 159.056 112.474 159.423C111.814 159.782 111.08 160.006 110.274 160.094L109.79 159.214C110.626 159.155 111.366 158.95 112.012 158.598C112.664 158.246 113.057 157.802 113.189 157.267H110.208V156.354H117.424V157.267H114.465C114.567 157.619 114.806 157.945 115.18 158.246C115.561 158.539 115.986 158.767 116.456 158.928C116.932 159.082 117.402 159.174 117.864 159.203ZM118.238 161.766H109.383V160.853H113.222V159.544H114.344V160.853H118.238V161.766ZM110.417 162.58H117.094V165.902H115.972V163.493H110.417V162.58Z" fill="white"/>
<path d="M147.074 26.594C146.01 26.594 145.17 26.3607 144.554 25.894C143.947 25.4273 143.644 24.802 143.644 24.018C143.644 23.4487 143.835 22.9493 144.218 22.52C144.61 22.0813 145.095 21.75 145.674 21.526C144.498 21.0313 143.91 20.266 143.91 19.23C143.91 18.502 144.195 17.914 144.764 17.466C145.343 17.0087 146.108 16.78 147.06 16.78C148.021 16.78 148.782 16.99 149.342 17.41C149.902 17.83 150.182 18.404 150.182 19.132C150.182 20.0653 149.58 20.8213 148.376 21.4C149.832 21.932 150.56 22.7533 150.56 23.864C150.56 24.6573 150.247 25.3107 149.622 25.824C148.997 26.3373 148.147 26.594 147.074 26.594ZM147.06 25.488C147.648 25.488 148.124 25.348 148.488 25.068C148.861 24.788 149.048 24.424 149.048 23.976C149.048 23.472 148.871 23.08 148.516 22.8C148.171 22.5107 147.601 22.254 146.808 22.03C146.313 22.1887 145.898 22.436 145.562 22.772C145.226 23.0987 145.058 23.4767 145.058 23.906C145.058 24.3913 145.24 24.7787 145.604 25.068C145.968 25.348 146.453 25.488 147.06 25.488ZM147.284 20.924C148.273 20.4947 148.768 19.9253 148.768 19.216C148.768 18.824 148.619 18.5067 148.32 18.264C148.031 18.012 147.615 17.886 147.074 17.886C146.561 17.886 146.155 18.0027 145.856 18.236C145.557 18.46 145.408 18.7773 145.408 19.188C145.408 20.028 146.033 20.6067 147.284 20.924ZM155.155 26.58C154.082 26.58 153.214 26.2067 152.551 25.46C151.888 24.7133 151.557 23.57 151.557 22.03V21.358C151.557 19.7713 151.893 18.614 152.565 17.886C153.246 17.1487 154.119 16.78 155.183 16.78C156.228 16.78 157.078 17.144 157.731 17.872C158.384 18.6 158.711 19.7433 158.711 21.302V22.016C158.711 23.5747 158.384 24.7273 157.731 25.474C157.078 26.2113 156.219 26.58 155.155 26.58ZM155.155 25.432C155.846 25.432 156.359 25.1753 156.695 24.662C157.04 24.1393 157.213 23.304 157.213 22.156V21.288C157.213 19.048 156.532 17.928 155.169 17.928C153.788 17.928 153.097 19.02 153.097 21.204V22.072C153.097 24.312 153.783 25.432 155.155 25.432ZM160.125 26.566V25.054H161.665V26.566H160.125ZM166.597 26.58C165.523 26.58 164.655 26.2067 163.993 25.46C163.33 24.7133 162.999 23.57 162.999 22.03V21.358C162.999 19.7713 163.335 18.614 164.007 17.886C164.688 17.1487 165.561 16.78 166.625 16.78C167.67 16.78 168.519 17.144 169.173 17.872C169.826 18.6 170.153 19.7433 170.153 21.302V22.016C170.153 23.5747 169.826 24.7273 169.173 25.474C168.519 26.2113 167.661 26.58 166.597 26.58ZM166.597 25.432C167.287 25.432 167.801 25.1753 168.137 24.662C168.482 24.1393 168.655 23.304 168.655 22.156V21.288C168.655 19.048 167.973 17.928 166.611 17.928C165.229 17.928 164.539 19.02 164.539 21.204V22.072C164.539 24.312 165.225 25.432 166.597 25.432Z" fill="#818181"/>
<path d="M152 41.5C152 38.4624 154.462 36 157.5 36C160.538 36 163 38.4624 163 41.5V147H152V41.5Z" fill="white"/>
<rect x="131" y="151" width="53" height="19" rx="9.5" fill="#626280"/>
<path d="M148.427 159.984H147.019V163.372H145.897V156.068H147.019V159.049H148.427V159.984ZM147.327 165.616H140.672V162.745H141.805V164.714H147.327V165.616ZM145.314 160.831L145.413 161.678C143.829 161.891 141.772 162.012 139.242 162.041L139.077 161.106H141.101V159.049H142.212V161.062H142.234C143.503 161.018 144.529 160.941 145.314 160.831ZM144.676 156.783C144.661 158.418 144.566 159.573 144.39 160.248L143.312 160.083C143.481 159.394 143.558 158.598 143.543 157.696H139.759V156.783H144.676ZM154.706 165.407H153.639V162.03H152.297V161.139H153.639V159.566H152.539V158.686H153.639V156.266H154.706V165.407ZM156.609 165.869H155.531V156.068H156.609V165.869ZM152.451 157.245C152.429 160.12 151.244 162.334 148.898 163.889L148.15 163.108C149.11 162.536 149.866 161.821 150.416 160.963C150.966 160.098 151.274 159.166 151.34 158.169H148.733V157.245H152.451ZM164.977 156.068V158.906H166.418V159.852H164.977V163.174H163.844V156.068H164.977ZM165.263 165.572H158.707V162.459H159.84V164.659H165.263V165.572ZM162.227 161.425H157.673V156.849H162.227V161.425ZM161.094 160.534V157.74H158.806V160.534H161.094ZM174.864 159.203L174.369 160.083C173.628 159.995 172.917 159.768 172.235 159.401C171.553 159.034 171.08 158.62 170.816 158.158C170.588 158.635 170.141 159.056 169.474 159.423C168.814 159.782 168.08 160.006 167.274 160.094L166.79 159.214C167.626 159.155 168.366 158.95 169.012 158.598C169.664 158.246 170.057 157.802 170.189 157.267H167.208V156.354H174.424V157.267H171.465C171.567 157.619 171.806 157.945 172.18 158.246C172.561 158.539 172.986 158.767 173.456 158.928C173.932 159.082 174.402 159.174 174.864 159.203ZM175.238 161.766H166.383V160.853H170.222V159.544H171.344V160.853H175.238V161.766ZM167.417 162.58H174.094V165.902H172.972V163.493H167.417V162.58Z" fill="white"/>
</svg>
