<svg width="254" height="350" viewBox="0 0 254 350" fill="none" xmlns="http://www.w3.org/2000/svg">
<rect x="0.5" width="253" height="350" rx="12" fill="#F2F4F6"/>
<rect x="24.5" y="32" width="205" height="40" rx="12" fill="#354152"/>
<path d="M62.192 58.328L66.16 47.368H67.824L71.76 58.328H70.032L68.976 55.352H64.784L63.744 58.328H62.192ZM66.832 49.448L65.232 54.04H68.496L66.88 49.448H66.832ZM73.2175 58.328V47.368H74.8655V56.952H79.6175V58.328H73.2175ZM85.5613 58.328V47.368H87.2093V56.952H91.9613V58.328H85.5613ZM93.7019 58.328V47.368H95.3499V56.952H100.102V58.328H93.7019ZM101.843 58.328V47.368H104.227L107.091 56.104H107.139L110.003 47.368H112.355V58.328H110.707V49.48H110.675L107.731 58.328H106.275L103.379 49.48H103.315V58.328H101.843ZM127.011 55.72L126.067 56.904C125.374 56.52 124.67 55.928 123.955 55.128C123.241 54.328 122.777 53.576 122.563 52.872C122.371 53.6507 121.945 54.456 121.283 55.288C120.633 56.12 119.886 56.7653 119.043 57.224L118.019 56.008C119.171 55.368 120.073 54.488 120.723 53.368C121.385 52.248 121.715 50.984 121.715 49.576V48.824H118.739V47.496H126.307V48.824H123.411V49.576C123.411 50.9627 123.737 52.184 124.387 53.24C125.038 54.2853 125.913 55.112 127.011 55.72ZM129.411 46.008V51.592H131.571V52.968H129.411V60.264H127.763V46.008H129.411ZM143.527 51.272H139.415V52.76H145.063V54.088H132.183V52.76H137.783V51.272H133.879V46.392H143.415V47.736H135.527V49.944H143.527V51.272ZM143.575 57.672C143.575 58.4827 143.138 59.1173 142.263 59.576C141.399 60.0453 140.188 60.28 138.631 60.28C137.074 60.28 135.858 60.0453 134.983 59.576C134.119 59.1173 133.687 58.4827 133.687 57.672C133.687 56.8827 134.119 56.2533 134.983 55.784C135.858 55.3147 137.068 55.08 138.615 55.08C140.172 55.08 141.388 55.3147 142.263 55.784C143.138 56.2533 143.575 56.8827 143.575 57.672ZM141.015 58.632C141.591 58.408 141.879 58.0933 141.879 57.688C141.879 57.2827 141.586 56.968 140.999 56.744C140.423 56.5093 139.628 56.392 138.615 56.392C137.612 56.392 136.818 56.5093 136.231 56.744C135.655 56.968 135.367 57.2827 135.367 57.688C135.367 58.0933 135.655 58.408 136.231 58.632C136.807 58.8453 137.602 58.952 138.615 58.952C139.639 58.952 140.439 58.8453 141.015 58.632ZM163.414 52.936H161.302V60.264H159.654V46.008H161.302V51.576H163.414V52.936ZM157.558 47.512C157.441 51.96 155.313 55.32 151.174 57.592L150.15 56.344C151.761 55.608 153.067 54.5573 154.07 53.192C155.083 51.8267 155.659 50.3813 155.798 48.856H150.982V47.512H157.558ZM175.802 60.264H174.17V46.008H175.802V60.264ZM165.466 55.736C164.815 54.8293 164.49 53.6187 164.49 52.104C164.49 50.5893 164.815 49.3787 165.466 48.472C166.116 47.5653 167.007 47.112 168.138 47.112C169.268 47.112 170.154 47.5653 170.794 48.472C171.434 49.3787 171.754 50.5947 171.754 52.12C171.754 53.6347 171.434 54.8453 170.794 55.752C170.154 56.648 169.268 57.096 168.138 57.096C167.007 57.096 166.116 56.6427 165.466 55.736ZM169.626 54.792C170.01 54.1307 170.202 53.2347 170.202 52.104C170.202 50.9733 170.01 50.0827 169.626 49.432C169.252 48.7813 168.756 48.456 168.138 48.456C167.53 48.456 167.039 48.7813 166.666 49.432C166.292 50.0827 166.106 50.9733 166.106 52.104C166.106 53.2347 166.292 54.1307 166.666 54.792C167.039 55.4427 167.53 55.768 168.138 55.768C168.756 55.768 169.252 55.4427 169.626 54.792ZM190.798 57.064V58.36H177.918V57.064H190.798ZM189.294 53.832H179.566V47.288H189.15V48.584H181.214V52.52H189.294V53.832Z" fill="white"/>
<path d="M40.6901 95.96C41.0208 96.28 41.1861 96.6693 41.1861 97.128C41.1861 97.5867 41.0208 97.9813 40.6901 98.312C40.3701 98.632 39.9755 98.792 39.5061 98.792C39.0475 98.792 38.6528 98.632 38.3221 98.312C38.0021 97.9813 37.8421 97.5867 37.8421 97.128C37.8421 96.6693 38.0021 96.28 38.3221 95.96C38.6528 95.6293 39.0475 95.464 39.5061 95.464C39.9648 95.464 40.3595 95.6293 40.6901 95.96ZM63.996 104.264H62.428V97.048H61.004V103.592H59.452V90.296H61.004V95.672H62.428V90.008H63.996V104.264ZM58.044 91.72C58.012 95.88 56.268 99.1013 52.812 101.384L51.756 100.248C53.1533 99.416 54.252 98.376 55.052 97.128C55.8627 95.8693 56.316 94.5147 56.412 93.064H52.54V91.72H58.044ZM77.5518 100.344H75.9198V90.008H77.5518V100.344ZM77.8878 103.848H68.1278V99.368H69.7598V102.536H77.8878V103.848ZM72.5278 92.04C73.2104 92.6907 73.5518 93.528 73.5518 94.552C73.5518 95.576 73.2104 96.4133 72.5278 97.064C71.8558 97.7147 70.9811 98.04 69.9038 98.04C68.8158 98.04 67.9304 97.7147 67.2478 97.064C66.5651 96.4133 66.2238 95.5813 66.2238 94.568C66.2238 93.544 66.5651 92.7067 67.2478 92.056C67.9304 91.3947 68.8158 91.064 69.9038 91.064C70.9811 91.064 71.8558 91.3893 72.5278 92.04ZM71.9198 94.552C71.9198 93.9227 71.7384 93.4107 71.3758 93.016C71.0131 92.6213 70.5224 92.424 69.9038 92.424C69.3064 92.424 68.8158 92.6267 68.4318 93.032C68.0584 93.4267 67.8718 93.9333 67.8718 94.552C67.8718 95.1493 68.0584 95.6507 68.4318 96.056C68.8158 96.4507 69.3064 96.648 69.9038 96.648C70.5118 96.648 70.9971 96.4507 71.3598 96.056C71.7331 95.6507 71.9198 95.1493 71.9198 94.552ZM88.3875 100.28L88.5155 101.544C86.0835 101.864 83.0968 102.035 79.5555 102.056L79.3315 100.696C81.0062 100.696 82.2862 100.68 83.1715 100.648V99.368C82.3395 99.2613 81.6675 98.9947 81.1555 98.568C80.6542 98.1307 80.4035 97.6027 80.4035 96.984C80.4035 96.28 80.7235 95.704 81.3635 95.256C82.0142 94.808 82.8462 94.584 83.8595 94.584C84.8728 94.584 85.6995 94.808 86.3395 95.256C86.9902 95.704 87.3155 96.28 87.3155 96.984C87.3155 97.56 87.0862 98.0613 86.6275 98.488C86.1795 98.9147 85.5768 99.1973 84.8195 99.336V100.584C86.3768 100.477 87.5662 100.376 88.3875 100.28ZM90.8515 90.008V96.072H92.8835V97.432H90.8515V104.264H89.2195V90.008H90.8515ZM87.9395 94.072H79.6995V92.792H87.9395V94.072ZM85.1235 97.8C85.4542 97.5867 85.6195 97.3147 85.6195 96.984C85.6195 96.6533 85.4542 96.3813 85.1235 96.168C84.7928 95.9547 84.3715 95.848 83.8595 95.848C83.3582 95.848 82.9368 95.9547 82.5955 96.168C82.2648 96.3813 82.0995 96.6533 82.0995 96.984C82.0995 97.3147 82.2648 97.5867 82.5955 97.8C82.9262 98.0027 83.3475 98.104 83.8595 98.104C84.3715 98.104 84.7928 98.0027 85.1235 97.8ZM81.7635 91.992V90.712H85.9235V91.992H81.7635ZM102.903 97.208L102.983 98.472C100.583 98.7707 97.4739 98.9413 93.6553 98.984L93.4313 97.624C94.2633 97.624 95.5859 97.6133 97.3993 97.592V95.832H94.8073V91.032H101.479V92.344H96.4393V94.52H101.623V95.832H99.0313V97.528C100.653 97.4533 101.943 97.3467 102.903 97.208ZM105.319 90.008V100.52H103.671V90.008H105.319ZM105.479 103.848H95.9113V99.848H97.5753V102.552H105.479V103.848ZM124.726 95.128H122.63V98.84H120.982V90.008H122.63V93.784H124.726V95.128ZM113.334 99.592H122.646V104.28H120.998V100.904H113.334V99.592ZM119.702 93.576H111.446V92.296H119.702V93.576ZM118.934 96.504C118.934 97.1973 118.614 97.768 117.974 98.216C117.345 98.6533 116.55 98.872 115.59 98.872C114.63 98.872 113.825 98.6533 113.174 98.216C112.534 97.768 112.214 97.1973 112.214 96.504C112.214 95.7893 112.534 95.2133 113.174 94.776C113.814 94.328 114.619 94.104 115.59 94.104C116.55 94.104 117.345 94.328 117.974 94.776C118.614 95.2133 118.934 95.7893 118.934 96.504ZM117.302 96.504C117.302 96.1733 117.131 95.9013 116.79 95.688C116.459 95.4747 116.059 95.368 115.59 95.368C115.11 95.368 114.699 95.4747 114.358 95.688C114.017 95.9013 113.846 96.1733 113.846 96.504C113.846 96.824 114.017 97.0907 114.358 97.304C114.71 97.5173 115.121 97.624 115.59 97.624C116.059 97.624 116.459 97.5173 116.79 97.304C117.131 97.0907 117.302 96.824 117.302 96.504ZM113.51 91.48V90.168H117.686V91.48H113.51ZM137.562 101.448C137.562 102.301 137.125 102.979 136.25 103.48C135.375 103.992 134.17 104.248 132.634 104.248C131.109 104.248 129.909 103.992 129.034 103.48C128.159 102.979 127.722 102.301 127.722 101.448C127.722 100.584 128.159 99.896 129.034 99.384C129.909 98.872 131.109 98.616 132.634 98.616C134.17 98.616 135.375 98.872 136.25 99.384C137.125 99.896 137.562 100.584 137.562 101.448ZM137.418 98.696H135.85V94.952H134.474V98.088H132.922V90.264H134.474V93.576H135.85V90.008H137.418V98.696ZM132.57 96.488L131.738 97.704C131.226 97.4693 130.693 97.0907 130.138 96.568C129.594 96.0453 129.231 95.5493 129.05 95.08C128.858 95.656 128.501 96.2373 127.978 96.824C127.455 97.4 126.885 97.8427 126.266 98.152L125.322 97C126.197 96.52 126.895 95.8853 127.418 95.096C127.951 94.3067 128.218 93.4213 128.218 92.44V90.888H129.802V92.392C129.802 93.3413 130.069 94.168 130.602 94.872C131.146 95.5653 131.802 96.104 132.57 96.488ZM135.866 101.448C135.866 100.979 135.578 100.616 135.002 100.36C134.426 100.093 133.637 99.96 132.634 99.96C131.631 99.96 130.842 100.093 130.266 100.36C129.701 100.616 129.418 100.979 129.418 101.448C129.418 101.907 129.701 102.269 130.266 102.536C130.842 102.803 131.631 102.936 132.634 102.936C133.637 102.936 134.426 102.803 135.002 102.536C135.578 102.269 135.866 101.907 135.866 101.448ZM152.478 95.704H150.43V100.632H148.798V90.008H150.43V94.344H152.478V95.704ZM150.878 103.896H141.198V99.72H142.846V102.584H150.878V103.896ZM147.95 96.936L148.094 98.168C145.79 98.4773 142.798 98.6533 139.118 98.696L138.878 97.336H141.822V94.344H143.438V97.272H143.47C145.315 97.208 146.808 97.096 147.95 96.936ZM147.022 91.048C147 93.4267 146.862 95.1067 146.606 96.088L145.038 95.848C145.283 94.8453 145.395 93.688 145.374 92.376H139.87V91.048H147.022ZM161.873 99.144L162.049 100.488C160.513 100.765 158.385 100.915 155.665 100.936L153.905 100.952V95.192H158.737V92.568H153.841V91.256H160.369V96.504H155.537V99.592C158.204 99.592 160.316 99.4427 161.873 99.144ZM164.817 104.264H163.185V90.008H164.817V104.264ZM179.808 99.72L178.864 100.904C178.171 100.52 177.467 99.928 176.752 99.128C176.038 98.328 175.574 97.576 175.36 96.872C175.168 97.6507 174.742 98.456 174.08 99.288C173.43 100.12 172.683 100.765 171.84 101.224L170.816 100.008C171.968 99.368 172.87 98.488 173.52 97.368C174.182 96.248 174.512 94.984 174.512 93.576V92.824H171.536V91.496H179.104V92.824H176.208V93.576C176.208 94.9627 176.534 96.184 177.184 97.24C177.835 98.2853 178.71 99.112 179.808 99.72ZM182.208 90.008V95.592H184.368V96.968H182.208V104.264H180.56V90.008H182.208ZM196.324 95.272H192.212V96.76H197.86V98.088H184.98V96.76H190.58V95.272H186.676V90.392H196.212V91.736H188.324V93.944H196.324V95.272ZM196.372 101.672C196.372 102.483 195.935 103.117 195.06 103.576C194.196 104.045 192.985 104.28 191.428 104.28C189.871 104.28 188.655 104.045 187.78 103.576C186.916 103.117 186.484 102.483 186.484 101.672C186.484 100.883 186.916 100.253 187.78 99.784C188.655 99.3147 189.865 99.08 191.412 99.08C192.969 99.08 194.185 99.3147 195.06 99.784C195.935 100.253 196.372 100.883 196.372 101.672ZM193.812 102.632C194.388 102.408 194.676 102.093 194.676 101.688C194.676 101.283 194.383 100.968 193.796 100.744C193.22 100.509 192.425 100.392 191.412 100.392C190.409 100.392 189.615 100.509 189.028 100.744C188.452 100.968 188.164 101.283 188.164 101.688C188.164 102.093 188.452 102.408 189.028 102.632C189.604 102.845 190.399 102.952 191.412 102.952C192.436 102.952 193.236 102.845 193.812 102.632ZM210.984 101.448C210.984 102.301 210.546 102.979 209.672 103.48C208.797 103.992 207.592 104.248 206.056 104.248C204.53 104.248 203.33 103.992 202.456 103.48C201.581 102.979 201.144 102.301 201.144 101.448C201.144 100.584 201.581 99.896 202.456 99.384C203.33 98.872 204.53 98.616 206.056 98.616C207.592 98.616 208.797 98.872 209.672 99.384C210.546 99.896 210.984 100.584 210.984 101.448ZM210.84 98.696H209.272V94.952H207.896V98.088H206.344V90.264H207.896V93.576H209.272V90.008H210.84V98.696ZM205.992 96.488L205.16 97.704C204.648 97.4693 204.114 97.0907 203.56 96.568C203.016 96.0453 202.653 95.5493 202.472 95.08C202.28 95.656 201.922 96.2373 201.4 96.824C200.877 97.4 200.306 97.8427 199.688 98.152L198.744 97C199.618 96.52 200.317 95.8853 200.84 95.096C201.373 94.3067 201.64 93.4213 201.64 92.44V90.888H203.224V92.392C203.224 93.3413 203.49 94.168 204.024 94.872C204.568 95.5653 205.224 96.104 205.992 96.488ZM209.288 101.448C209.288 100.979 209 100.616 208.424 100.36C207.848 100.093 207.058 99.96 206.056 99.96C205.053 99.96 204.264 100.093 203.688 100.36C203.122 100.616 202.84 100.979 202.84 101.448C202.84 101.907 203.122 102.269 203.688 102.536C204.264 102.803 205.053 102.936 206.056 102.936C207.058 102.936 207.848 102.803 208.424 102.536C209 102.269 209.288 101.907 209.288 101.448ZM224.412 98.392H222.78V94.36H220.172V93.016H222.78V90.008H224.412V98.392ZM224.54 101.448C224.54 102.301 224.108 102.984 223.244 103.496C222.39 104.008 221.201 104.264 219.676 104.264C218.161 104.264 216.977 104.008 216.124 103.496C215.27 102.984 214.844 102.301 214.844 101.448C214.844 100.584 215.27 99.896 216.124 99.384C216.977 98.8613 218.161 98.6 219.676 98.6C221.201 98.6 222.39 98.8613 223.244 99.384C224.108 99.896 224.54 100.584 224.54 101.448ZM222.844 101.448C222.844 100.968 222.566 100.595 222.012 100.328C221.457 100.061 220.678 99.928 219.676 99.928C218.694 99.928 217.926 100.067 217.372 100.344C216.817 100.611 216.54 100.979 216.54 101.448C216.54 101.917 216.817 102.285 217.372 102.552C217.926 102.819 218.694 102.952 219.676 102.952C220.678 102.952 221.457 102.819 222.012 102.552C222.566 102.285 222.844 101.917 222.844 101.448ZM221.084 96.472L220.14 97.752C219.51 97.4853 218.886 97.0747 218.268 96.52C217.649 95.9653 217.19 95.3627 216.891 94.712C216.678 95.4267 216.252 96.0987 215.612 96.728C214.972 97.3573 214.278 97.816 213.532 98.104L212.54 96.84C213.596 96.424 214.444 95.8 215.084 94.968C215.724 94.136 216.044 93.1813 216.044 92.104V90.68H217.724V92.04C217.724 93.0853 218.06 94.008 218.732 94.808C219.404 95.608 220.188 96.1627 221.084 96.472Z" fill="#020712"/>
<path d="M79.182 159.412L82.612 150.004H83.802L87.204 159.412H85.916L84.964 156.766H81.296L80.358 159.412H79.182ZM83.088 151.656L81.66 155.716H84.586L83.13 151.656H83.088ZM88.5709 159.412V150.004H89.8029V159.412H88.5709ZM105.238 155.744H103.992V148.744H105.238V155.744ZM105.238 160.812H97.188V156.472H105.238V160.812ZM103.992 159.832V157.452H98.42V159.832H103.992ZM102.606 154.372L101.878 155.324C101.299 155.063 100.725 154.666 100.156 154.134C99.5866 153.602 99.1806 153.047 98.938 152.468C98.7606 153.084 98.3826 153.691 97.804 154.288C97.2346 154.876 96.5906 155.347 95.872 155.702L95.116 154.75C96.0306 154.358 96.7866 153.779 97.384 153.014C97.9906 152.249 98.294 151.39 98.294 150.438V149.248H99.568V150.382C99.568 151.325 99.876 152.155 100.492 152.874C101.108 153.593 101.813 154.092 102.606 154.372ZM115.097 156.668L115.223 157.69C113.739 157.933 111.821 158.068 109.469 158.096H107.943V153.28H112.521V150.858H107.887V149.85H113.753V154.274H109.175V157.046H109.539C111.91 157.046 113.763 156.92 115.097 156.668ZM116.161 148.744H117.407V160.98H116.161V148.744ZM123.552 150.872V149.864H130.258V150.872H127.556V151.376C127.556 152.197 127.86 152.958 128.466 153.658C129.082 154.349 129.768 154.811 130.524 155.044L129.838 156.038C129.288 155.814 128.728 155.441 128.158 154.918C127.598 154.395 127.192 153.859 126.94 153.308C126.744 153.887 126.348 154.475 125.75 155.072C125.153 155.669 124.537 156.099 123.902 156.36L123.16 155.38C123.991 155.081 124.719 154.549 125.344 153.784C125.979 153.019 126.296 152.225 126.296 151.404V150.872H123.552ZM133.408 160.616H125.162V156.822H126.408V159.622H133.408V160.616ZM133.142 157.634H131.896V148.744H133.142V157.634ZM146.488 153.252H144.668V157.606H143.422V148.744H144.668V152.216H146.488V153.252ZM145.088 160.574H137.01V156.794H138.256V159.58H145.088V160.574ZM136.842 154.554H137.136C139.245 154.554 140.93 154.419 142.19 154.148L142.344 155.128C141.308 155.371 139.478 155.515 136.856 155.562H135.624V149.822H141.21V150.844H136.842V154.554ZM147.807 155.058C147.807 154.713 147.891 154.47 148.059 154.33C148.227 154.19 148.427 154.12 148.661 154.12C148.903 154.12 149.109 154.19 149.277 154.33C149.454 154.47 149.543 154.713 149.543 155.058C149.543 155.394 149.454 155.637 149.277 155.786C149.109 155.935 148.903 156.01 148.661 156.01C148.427 156.01 148.227 155.935 148.059 155.786C147.891 155.637 147.807 155.394 147.807 155.058ZM160.737 153.868H152.449V149.136H153.695V150.578H159.505V149.122H160.737V153.868ZM157.265 158.39H156.033V156.136H151.077V155.128H162.123V156.136H157.265V158.39ZM160.835 160.616H152.449V157.256H153.695V159.608H160.835V160.616ZM159.505 152.86V151.558H153.695V152.86H159.505ZM171.982 152.468H169.616V151.46H171.982V148.744H173.228V155.912H171.982V152.468ZM173.228 160.994H171.982V157.536H165.038V156.542H173.228V160.994ZM170.26 154.274L169.546 155.24C168.968 154.979 168.422 154.61 167.908 154.134C167.395 153.649 167.012 153.117 166.76 152.538C166.583 153.145 166.233 153.719 165.71 154.26C165.188 154.792 164.562 155.24 163.834 155.604L163.064 154.638C163.97 154.255 164.702 153.7 165.262 152.972C165.822 152.244 166.102 151.418 166.102 150.494V149.304H167.376V150.438C167.376 151.343 167.666 152.141 168.244 152.832C168.823 153.523 169.495 154.003 170.26 154.274Z" fill="#6366F1"/>
<path d="M67.304 190.669H61.466V185.265H67.304V190.669ZM66.086 189.675V186.259H62.684V189.675H66.086ZM72.302 188.513H70.482V191.565H69.236V184.411H70.482V187.491H72.302V188.513ZM71.336 195.737L70.706 196.717C69.8847 196.605 69.0633 196.297 68.242 195.793C67.43 195.298 66.9073 194.803 66.674 194.309C66.4407 194.822 65.932 195.321 65.148 195.807C64.364 196.292 63.524 196.591 62.628 196.703L61.998 195.723C62.978 195.667 63.8693 195.373 64.672 194.841C65.4747 194.309 65.932 193.725 66.044 193.091H62.656V192.083H70.692V193.091H67.346C67.4673 193.707 67.9293 194.285 68.732 194.827C69.544 195.368 70.412 195.671 71.336 195.737ZM82.8473 196.479H74.4613V192.727H78.0313V191.593H73.1453V190.585H84.1913V191.593H79.2773V192.727H82.8473V196.479ZM83.6453 189.003L83.1273 190.039C82.1846 189.927 81.2839 189.679 80.4253 189.297C79.5759 188.914 78.9879 188.466 78.6613 187.953C78.3439 188.494 77.7699 188.951 76.9393 189.325C76.1086 189.698 75.2033 189.936 74.2233 190.039L73.6773 189.003C74.6479 188.956 75.5346 188.774 76.3373 188.457C77.1399 188.139 77.6673 187.738 77.9193 187.253H74.2793V186.273H83.0433V187.253H79.4453C79.7066 187.738 80.2479 188.139 81.0693 188.457C81.8906 188.774 82.7493 188.956 83.6453 189.003ZM81.6013 195.513V193.707H75.6933V195.513H81.6013ZM80.6353 185.447H76.6733V184.439H80.6353V185.447ZM94.2886 192.951C95.0072 193.324 95.3666 193.847 95.3666 194.519C95.3666 195.191 95.0072 195.713 94.2886 196.087C93.5792 196.46 92.5666 196.647 91.2506 196.647C89.9346 196.647 88.9266 196.46 88.2266 196.087C87.5266 195.723 87.1766 195.2 87.1766 194.519C87.1766 193.837 87.5266 193.31 88.2266 192.937C88.9266 192.563 89.9346 192.377 91.2506 192.377C92.5666 192.377 93.5792 192.568 94.2886 192.951ZM91.2506 193.343C90.3732 193.343 89.6872 193.45 89.1926 193.665C88.6979 193.87 88.4506 194.155 88.4506 194.519C88.4506 194.883 88.6932 195.172 89.1786 195.387C89.6732 195.592 90.3639 195.695 91.2506 195.695C92.1466 195.695 92.8419 195.592 93.3366 195.387C93.8312 195.181 94.0786 194.892 94.0786 194.519C94.0786 194.155 93.8266 193.87 93.3226 193.665C92.8279 193.45 92.1372 193.343 91.2506 193.343ZM92.1466 188.653V187.659H94.0506V184.411H95.2966V192.265H94.0506V190.921H92.1466V189.941H94.0506V188.653H92.1466ZM90.5366 185.587H86.9806V184.579H90.5366V185.587ZM91.9226 187.351H85.2726V186.357H91.9226V187.351ZM91.5446 189.885C91.5446 190.482 91.2786 190.967 90.7466 191.341C90.2146 191.714 89.5379 191.901 88.7166 191.901C87.8952 191.901 87.2186 191.719 86.6866 191.355C86.1546 190.981 85.8886 190.491 85.8886 189.885C85.8886 189.269 86.1499 188.779 86.6726 188.415C87.2046 188.041 87.8859 187.855 88.7166 187.855C89.5379 187.855 90.2146 188.041 90.7466 188.415C91.2786 188.779 91.5446 189.269 91.5446 189.885ZM89.8366 190.655C90.1539 190.459 90.3126 190.202 90.3126 189.885C90.3126 189.567 90.1539 189.311 89.8366 189.115C89.5286 188.909 89.1552 188.807 88.7166 188.807C88.2779 188.807 87.8999 188.909 87.5826 189.115C87.2652 189.311 87.1066 189.567 87.1066 189.885C87.1066 190.202 87.2652 190.459 87.5826 190.655C87.8999 190.851 88.2779 190.949 88.7166 190.949C89.1552 190.949 89.5286 190.851 89.8366 190.655ZM111.382 196.647H110.192V190.123H108.736V196.045H107.546V184.677H108.736V189.115H110.192V184.411H111.382V196.647ZM102.66 192.531H102.884C104.517 192.531 105.819 192.423 106.79 192.209L106.958 193.231C105.894 193.455 104.442 193.567 102.604 193.567H101.428V185.923H106.202V186.931H102.66V192.531ZM120.793 194.239C119.897 194.36 118.492 194.477 116.579 194.589C115.347 194.654 114.19 194.687 113.107 194.687L112.925 193.651C114.306 193.651 115.389 193.632 116.173 193.595V192.489C115.482 192.395 114.922 192.167 114.493 191.803C114.073 191.429 113.863 190.977 113.863 190.445C113.863 189.819 114.134 189.315 114.675 188.933C115.226 188.541 115.93 188.345 116.789 188.345C117.666 188.345 118.371 188.536 118.903 188.919C119.444 189.301 119.715 189.81 119.715 190.445C119.715 190.986 119.505 191.443 119.085 191.817C118.665 192.181 118.105 192.405 117.405 192.489V193.525C118.684 193.459 119.771 193.371 120.667 193.259L120.793 194.239ZM124.559 190.893H122.669V196.647H121.451V184.411H122.669V189.857H124.559V190.893ZM120.485 187.841H113.219V186.819H120.485V187.841ZM118.441 190.445C118.441 190.127 118.287 189.866 117.979 189.661C117.671 189.455 117.274 189.353 116.789 189.353C116.313 189.353 115.921 189.46 115.613 189.675C115.305 189.88 115.151 190.137 115.151 190.445C115.151 190.743 115.305 191 115.613 191.215C115.921 191.429 116.313 191.537 116.789 191.537C117.274 191.537 117.671 191.429 117.979 191.215C118.287 191 118.441 190.743 118.441 190.445ZM118.511 186.021H115.025V185.013H118.511V186.021ZM138.404 184.411V189.423H140.364V190.459H138.404V196.647H137.172V184.411H138.404ZM135.184 185.713C135.147 187.617 134.657 189.287 133.714 190.725C132.771 192.162 131.441 193.347 129.724 194.281L128.968 193.343C130.387 192.661 131.525 191.728 132.384 190.543C133.252 189.357 133.742 188.097 133.854 186.763H129.5V185.713H135.184ZM151.161 196.647H149.915V184.411H151.161V196.647ZM141.501 189.647C141.501 188.368 141.767 187.332 142.299 186.539C142.831 185.736 143.615 185.335 144.651 185.335C145.687 185.335 146.466 185.736 146.989 186.539C147.521 187.332 147.787 188.373 147.787 189.661C147.787 190.949 147.521 191.994 146.989 192.797C146.466 193.59 145.687 193.987 144.651 193.987C143.615 193.987 142.831 193.585 142.299 192.783C141.767 191.98 141.501 190.935 141.501 189.647ZM146.065 192.027C146.392 191.429 146.555 190.641 146.555 189.661C146.555 188.681 146.392 187.892 146.065 187.295C145.738 186.697 145.267 186.399 144.651 186.399C144.044 186.399 143.578 186.697 143.251 187.295C142.924 187.892 142.761 188.681 142.761 189.661C142.761 190.641 142.924 191.429 143.251 192.027C143.578 192.615 144.044 192.909 144.651 192.909C145.267 192.909 145.738 192.615 146.065 192.027ZM162.91 191.411H154.608V185.615H162.798V186.623H155.84V190.417H162.91V191.411ZM164.226 194.995H153.18V193.987H164.226V194.995ZM175.215 192.951L174.473 193.833C173.997 193.525 173.503 193.063 172.989 192.447C172.485 191.821 172.154 191.224 171.995 190.655C171.865 191.28 171.566 191.91 171.099 192.545C170.633 193.179 170.11 193.693 169.531 194.085L168.747 193.231C169.541 192.717 170.18 192.008 170.665 191.103C171.151 190.197 171.393 189.166 171.393 188.009V186.861H169.013V185.867H174.865V186.861H172.611V187.967C172.611 189.133 172.859 190.141 173.353 190.991C173.848 191.84 174.469 192.493 175.215 192.951ZM176.881 196.045H175.705V189.829H173.885V188.807H175.705V184.691H176.881V196.045ZM179.303 196.647H178.113V184.411H179.303V196.647ZM190.787 194.337C190.787 195.046 190.418 195.601 189.681 196.003C188.943 196.413 187.903 196.619 186.559 196.619C185.205 196.619 184.155 196.413 183.409 196.003C182.662 195.601 182.289 195.046 182.289 194.337C182.289 193.618 182.657 193.058 183.395 192.657C184.141 192.246 185.196 192.041 186.559 192.041C187.912 192.041 188.953 192.246 189.681 192.657C190.418 193.058 190.787 193.618 190.787 194.337ZM192.131 191.131H181.085V190.123H185.593V187.575H186.825V190.123H192.131V191.131ZM188.729 195.289C189.261 195.065 189.527 194.747 189.527 194.337C189.527 193.926 189.261 193.609 188.729 193.385C188.197 193.161 187.473 193.049 186.559 193.049C185.635 193.049 184.902 193.161 184.361 193.385C183.829 193.609 183.563 193.926 183.563 194.337C183.563 194.747 183.829 195.065 184.361 195.289C184.893 195.513 185.625 195.625 186.559 195.625C187.473 195.625 188.197 195.513 188.729 195.289ZM190.815 185.055C190.815 185.213 190.81 185.423 190.801 185.685C190.801 185.946 190.801 186.142 190.801 186.273C190.773 187.505 190.656 188.545 190.451 189.395C190.189 189.367 189.788 189.315 189.247 189.241C189.461 188.419 189.569 187.36 189.569 186.063H182.415V185.055H190.815Z" fill="#6366F1"/>
<path d="M91.686 226.027L91.014 227.007C90.0527 226.737 89.138 226.265 88.27 225.593C87.4113 224.921 86.8373 224.24 86.548 223.549C86.3053 224.249 85.75 224.935 84.882 225.607C84.014 226.27 83.0807 226.732 82.082 226.993L81.452 225.985C82.5347 225.799 83.5473 225.304 84.49 224.501C85.442 223.689 85.918 222.798 85.918 221.827V220.987H87.192V221.827C87.192 222.471 87.4393 223.106 87.934 223.731C88.4287 224.347 89.0167 224.851 89.698 225.243C90.3793 225.635 91.042 225.897 91.686 226.027ZM92.078 230.759H81.032V229.751H85.904V226.713H87.15V229.751H92.078V230.759ZM104.191 230.535H93.1453V229.527H104.191V230.535ZM102.721 221.463C102.721 224.59 102.53 226.984 102.147 228.645L100.943 228.491C101.093 227.931 101.214 227.035 101.307 225.803C101.41 224.562 101.461 223.447 101.461 222.457H94.2933V221.463H102.721ZM114.947 232.159H106.561V227.931H107.793V229.163H113.715V227.917H114.947V232.159ZM115.185 225.201H106.589V222.331H113.673V221.449H106.547V220.483H114.919V223.241H107.821V224.235H115.185V225.201ZM111.377 228.561H110.131V227.063H105.259V226.069H116.305V227.063H111.377V228.561ZM113.715 231.165V230.143H107.793V231.165H113.715ZM131.018 232.299H122.548V229.723H129.324V228.995H122.492V228.085H130.556V230.563H123.78V231.403H131.018V232.299ZM127.616 224.403C127.616 224.833 127.42 225.178 127.028 225.439C126.636 225.691 126.108 225.85 125.446 225.915V226.461C126.911 226.377 127.952 226.284 128.568 226.181L128.694 227.105C127.546 227.255 126.244 227.371 124.788 227.455C122.94 227.53 121.67 227.567 120.98 227.567L120.798 226.587C121.768 226.587 122.907 226.564 124.214 226.517V225.929C123.532 225.864 122.991 225.705 122.59 225.453C122.198 225.192 122.002 224.842 122.002 224.403C122.002 223.909 122.258 223.531 122.772 223.269C123.285 222.999 123.957 222.863 124.788 222.863C125.646 222.863 126.332 222.999 126.846 223.269C127.359 223.531 127.616 223.909 127.616 224.403ZM132.376 224.655H130.556V227.427H129.338V220.077H130.556V223.619H132.376V224.655ZM128.4 222.541H121.232V221.603H128.4V222.541ZM125.964 224.893C126.262 224.781 126.412 224.618 126.412 224.403C126.412 224.189 126.262 224.025 125.964 223.913C125.665 223.801 125.273 223.745 124.788 223.745C124.312 223.745 123.929 223.801 123.64 223.913C123.35 224.025 123.206 224.189 123.206 224.403C123.206 224.618 123.35 224.781 123.64 224.893C123.929 225.005 124.312 225.061 124.788 225.061C125.273 225.061 125.665 225.005 125.964 224.893ZM126.454 221.071H123.038V220.147H126.454V221.071ZM142.865 224.697H139.295V226.153H144.209V227.161H133.163V226.153H138.049V224.697H134.493V220.567H142.781V221.575H135.725V223.689H142.865V224.697ZM141.801 228.533C142.538 228.907 142.907 229.439 142.907 230.129C142.907 230.82 142.538 231.357 141.801 231.739C141.064 232.122 140.023 232.313 138.679 232.313C137.344 232.313 136.308 232.122 135.571 231.739C134.834 231.357 134.465 230.82 134.465 230.129C134.465 229.457 134.834 228.93 135.571 228.547C136.318 228.155 137.354 227.959 138.679 227.959C140.023 227.959 141.064 228.151 141.801 228.533ZM138.679 228.967C137.774 228.967 137.055 229.075 136.523 229.289C136 229.495 135.739 229.779 135.739 230.143C135.739 230.517 136 230.806 136.523 231.011C137.046 231.217 137.764 231.319 138.679 231.319C139.603 231.319 140.326 231.217 140.849 231.011C141.381 230.806 141.647 230.517 141.647 230.143C141.647 229.77 141.381 229.481 140.849 229.275C140.326 229.07 139.603 228.967 138.679 228.967ZM156.486 228.477L155.758 229.401C155.133 229.037 154.521 228.515 153.924 227.833C153.327 227.143 152.935 226.471 152.748 225.817C152.571 226.536 152.197 227.255 151.628 227.973C151.059 228.683 150.41 229.252 149.682 229.681L148.898 228.785C149.859 228.216 150.634 227.451 151.222 226.489C151.81 225.519 152.104 224.455 152.104 223.297V222.317H149.332V221.309H156.122V222.317H153.378V223.297C153.378 224.436 153.667 225.463 154.246 226.377C154.825 227.283 155.571 227.983 156.486 228.477ZM157.802 220.077H159.048V232.313H157.802V220.077ZM168.207 222.933C168.207 223.615 167.904 224.161 167.297 224.571C166.7 224.982 165.92 225.187 164.959 225.187C164.007 225.187 163.228 224.982 162.621 224.571C162.014 224.161 161.711 223.61 161.711 222.919C161.711 222.238 162.014 221.692 162.621 221.281C163.228 220.861 164.007 220.651 164.959 220.651C165.911 220.651 166.69 220.861 167.297 221.281C167.904 221.692 168.207 222.243 168.207 222.933ZM171.189 229.485H169.971V228.183H167.563V227.259H169.971V220.077H171.189V229.485ZM171.427 232.005H162.551V228.435H163.783V230.997H171.427V232.005ZM165.687 228.953H164.441V226.783C163.974 226.802 163.326 226.821 162.495 226.839C161.674 226.858 161.212 226.867 161.109 226.867L160.913 225.845C162.509 225.845 163.867 225.822 164.987 225.775C166.527 225.71 167.834 225.617 168.907 225.495L168.991 226.419C168.282 226.531 167.18 226.629 165.687 226.713V228.953ZM166.877 222.933C166.877 222.56 166.7 222.252 166.345 222.009C165.99 221.767 165.528 221.645 164.959 221.645C164.39 221.645 163.928 221.767 163.573 222.009C163.218 222.252 163.041 222.56 163.041 222.933C163.041 223.297 163.214 223.601 163.559 223.843C163.914 224.077 164.38 224.193 164.959 224.193C165.538 224.193 166 224.077 166.345 223.843C166.7 223.601 166.877 223.297 166.877 222.933Z" fill="#6366F1"/>
<g clip-path="url(#clip0_58_1383)">
<path d="M96.8473 291.108C94.167 289.96 92.1872 287.329 91.8335 284.447C91.4775 281.563 92.7614 278.535 95.173 276.689C93.6089 270.559 96.8266 263.553 102.506 260.723C105.088 257.642 108.067 254.737 111.787 253.198C115.508 251.659 120.111 251.73 123.262 254.23C123.464 254.431 123.664 254.632 123.866 254.833C123.629 254.6 123.149 254.934 123.287 255.236C125.926 252.999 129.472 251.86 132.927 252.139C136.381 252.418 139.697 254.111 141.941 256.741C141.643 256.51 141.344 256.279 141.045 256.05C146.558 255.659 151.93 260.293 152.327 265.781C152.141 265.035 151.957 264.287 151.771 263.541C154.959 264.33 157.795 266.444 159.454 269.271C161.112 272.096 161.569 275.595 160.694 278.75C163.367 282.43 162.593 288.144 159.038 290.989C157.816 291.966 155.958 292.581 154.741 291.597C152.857 294.731 148.434 296.039 144.92 294.594C144.075 294.072 143.184 293.498 142.784 292.592C140.809 293.777 138.432 294.283 136.142 294.004C136.369 294.255 136.732 294.381 137.033 294.335C137.061 296.662 135.556 298.933 133.253 299.848C132.451 300.163 131.652 300.481 130.85 300.797C130.85 300.797 130.708 300.829 130.485 300.907C129.805 301.097 129.128 301.287 128.448 301.476C128.448 301.476 128.306 301.508 128.025 301.602C127.24 301.767 126.457 301.929 125.506 302.158C124.948 302.137 124.387 302.115 123.829 302.094C121.372 305.127 118.884 308.213 117.35 311.797C116.753 313.194 116.287 314.69 115.299 315.852C114.312 317.014 112.601 317.746 111.234 317.069C109.794 316.355 109.399 314.487 109.482 312.888C109.564 311.289 109.939 309.626 109.378 308.126C109.378 308.126 109.374 307.972 109.401 307.792C108.329 306.046 106.618 304.699 104.537 303.535C104.431 303.059 104.325 302.583 104.22 302.11C103.956 301.682 103.572 301.325 103.124 301.094C103.669 301.179 104.211 301.261 104.755 301.346C102.954 301.243 101.19 300.575 99.6148 299.379C98.6893 299.308 97.8946 298.626 97.4559 297.812C97.0172 296.998 96.8725 296.06 96.7738 295.141C96.6291 293.814 96.5602 292.48 96.8519 291.115L96.8473 291.108Z" fill="#FEA741"/>
<path d="M112.578 267.725C112.215 274.104 111.852 280.493 111.953 286.881C111.988 289.088 112.21 291.577 113.915 292.986C115.389 294.205 117.495 294.21 119.411 294.15C125.802 293.958 132.194 293.764 138.584 293.572C139.829 293.535 141.186 293.453 142.107 292.62C143.221 291.614 143.269 289.916 143.239 288.418C143.108 282.252 142.977 276.085 142.846 269.918C142.821 268.736 142.741 267.418 141.88 266.602C141.087 265.852 139.888 265.771 138.797 265.735C132.174 265.508 125.548 265.282 118.924 265.056C117.789 265.017 116.627 264.982 115.548 265.339C114.468 265.696 113.478 266.533 112.576 267.723L112.578 267.725Z" fill="#557EF7"/>
<path d="M127.017 282.942H122.128L121.197 285.719H118.232L123.271 272.242H125.855L130.922 285.719H127.957L127.017 282.942ZM122.881 280.694H126.264L124.562 275.648L122.879 280.694H122.881Z" fill="white"/>
<path d="M135.15 285.719H132.362V272.242H135.15V285.719Z" fill="white"/>
<path d="M138.962 294.882H116.599C113.63 294.882 111.213 292.476 111.213 289.518V269.909C111.213 266.952 113.63 264.546 116.599 264.546H138.962C141.932 264.546 144.348 266.952 144.348 269.909V289.518C144.348 292.476 141.932 294.882 138.962 294.882ZM116.599 266.147C114.516 266.147 112.821 267.835 112.821 269.909V289.518C112.821 291.593 114.516 293.281 116.599 293.281H138.962C141.046 293.281 142.741 291.593 142.741 289.518V269.909C142.741 267.835 141.046 266.147 138.962 266.147H116.599Z" fill="#0D1D44"/>
<path d="M146.096 281.311C145.249 281.311 144.403 281.156 143.62 280.838C143.209 280.671 143.012 280.204 143.179 279.795C143.347 279.386 143.816 279.189 144.227 279.356C145.818 280.001 147.738 279.763 149.123 278.752C150.508 277.739 151.31 275.984 151.167 274.278C151.131 273.837 151.459 273.45 151.902 273.413C152.346 273.377 152.734 273.704 152.77 274.145C152.959 276.391 151.902 278.706 150.076 280.042C148.935 280.877 147.516 281.314 146.098 281.314L146.096 281.311Z" fill="#0D1D44"/>
<path d="M110.006 274.628C108.761 274.628 107.521 274.34 106.397 273.775C104.725 272.935 103.396 271.533 102.651 269.822C102.475 269.417 102.663 268.946 103.069 268.77C103.476 268.594 103.949 268.782 104.126 269.186C104.712 270.534 105.803 271.686 107.121 272.345C108.437 273.006 110.015 273.194 111.452 272.862C111.887 272.761 112.316 273.029 112.417 273.461C112.518 273.894 112.249 274.321 111.815 274.422C111.218 274.559 110.612 274.628 110.006 274.628Z" fill="#0D1D44"/>
<path d="M111.955 285.644C111.689 285.644 111.43 285.513 111.276 285.273C109.955 283.205 107.782 281.73 105.465 281.33C103.097 280.923 100.596 281.609 98.7723 283.167C98.4347 283.455 97.9271 283.416 97.6377 283.08C97.3483 282.743 97.3874 282.238 97.725 281.95C99.9069 280.083 102.904 279.26 105.738 279.749C108.494 280.225 111.071 281.968 112.633 284.411C112.872 284.784 112.762 285.278 112.385 285.516C112.252 285.6 112.102 285.641 111.955 285.641V285.644Z" fill="#0D1D44"/>
<path d="M100.678 293.036C99.3324 293.036 97.9888 292.766 96.7532 292.217C93.671 290.847 91.4363 287.803 91.0573 284.463C90.699 281.298 92.0266 278.02 94.4634 275.968C93.7192 272.43 94.0913 269.196 95.5773 266.346C97.0242 263.567 99.5001 261.291 102.396 260.067C104.693 256.606 107.35 254.198 110.299 252.903C113.542 251.48 117.33 251.309 120.69 252.434C124.05 253.557 126.964 255.973 128.687 259.056C128.903 259.442 128.763 259.93 128.375 260.145C127.986 260.36 127.497 260.22 127.281 259.834C125.752 257.093 123.161 254.95 120.177 253.951C117.194 252.951 113.829 253.104 110.949 254.367C108.235 255.559 105.763 257.839 103.609 261.147C103.519 261.284 103.388 261.391 103.235 261.453C100.589 262.51 98.3196 264.561 97.0081 267.08C95.637 269.713 95.3453 272.746 96.1446 276.094C96.2181 276.403 96.1009 276.728 95.846 276.92C93.5952 278.606 92.3458 281.497 92.6604 284.283C92.9751 287.069 94.8423 289.61 97.4124 290.754C99.9847 291.897 103.129 291.586 105.423 289.96C105.784 289.704 106.287 289.788 106.544 290.147C106.801 290.509 106.716 291.007 106.356 291.264C104.709 292.43 102.695 293.032 100.683 293.034L100.678 293.036Z" fill="#0D1D44"/>
<path d="M106.464 302.723C105.382 302.723 104.326 302.593 103.317 302.332C100.89 301.703 98.7952 300.317 97.4195 298.432C95.9404 296.408 95.3616 293.814 95.8761 291.497C95.9725 291.065 96.3997 290.792 96.8338 290.888C97.2679 290.985 97.5412 291.41 97.4447 291.842C97.029 293.718 97.5044 295.829 98.7171 297.49C99.877 299.075 101.652 300.246 103.722 300.781C105.637 301.28 107.773 301.229 109.893 300.642C110.32 300.523 110.763 300.772 110.883 301.197C111.002 301.623 110.752 302.064 110.325 302.183C109.032 302.542 107.729 302.723 106.459 302.723H106.464Z" fill="#0D1D44"/>
<path d="M113.388 318C113.352 318 113.313 318 113.276 318C112.892 317.989 112.493 317.977 112.1 317.963C111.085 317.929 110.148 317.501 109.459 316.758C108.77 316.015 108.416 315.047 108.464 314.036L108.666 309.713C108.728 308.375 108.023 307.135 106.868 306.557C104.833 305.532 103.228 303.855 102.346 301.831C102.169 301.426 102.357 300.955 102.764 300.779C103.173 300.603 103.643 300.79 103.82 301.195C104.541 302.851 105.915 304.285 107.592 305.127C109.309 305.992 110.361 307.821 110.269 309.789L110.067 314.112C110.04 314.693 110.244 315.246 110.639 315.672C111.034 316.097 111.572 316.344 112.153 316.362C112.543 316.376 112.941 316.387 113.32 316.399C114.381 316.433 115.32 315.736 115.605 314.711C116.312 312.167 116.997 310.271 117.826 308.565C119.321 305.482 121.275 303.13 123.636 301.579C124.006 301.335 124.505 301.438 124.75 301.806C124.996 302.174 124.893 302.67 124.523 302.915C122.408 304.306 120.644 306.44 119.275 309.26C118.489 310.877 117.837 312.691 117.155 315.139C116.682 316.838 115.143 318.002 113.388 318.002V318Z" fill="#0D1D44"/>
<path d="M151.197 269.77C151.096 269.77 150.99 269.751 150.891 269.708C150.48 269.539 150.285 269.072 150.455 268.663C151.61 265.868 151.158 262.519 149.302 260.129C147.446 257.738 144.304 256.46 141.298 256.869C141.041 256.906 140.779 256.812 140.602 256.622C138.434 254.307 135.68 252.896 132.853 252.642C130.01 252.388 127.019 253.345 124.856 255.2C124.52 255.488 124.013 255.451 123.721 255.115C123.432 254.781 123.469 254.275 123.806 253.985C126.328 251.823 129.677 250.753 132.993 251.048C136.094 251.325 139.095 252.807 141.491 255.236C144.929 254.914 148.455 256.423 150.572 259.15C152.775 261.986 153.31 265.959 151.939 269.273C151.81 269.582 151.512 269.77 151.195 269.77H151.197Z" fill="#0D1D44"/>
<path d="M155.802 292.888C155.494 292.888 155.189 292.862 154.89 292.812C154.452 292.739 154.158 292.325 154.231 291.888C154.305 291.451 154.72 291.158 155.159 291.232C156.392 291.44 157.775 291.035 158.854 290.15C160.122 289.111 160.74 287.684 161.036 286.671C161.771 284.155 161.351 281.346 159.911 279.152C159.785 278.962 159.748 278.727 159.808 278.505C160.618 275.509 160.249 272.325 158.792 269.77C157.345 267.228 154.789 265.268 151.953 264.525C151.523 264.413 151.266 263.974 151.381 263.546C151.493 263.118 151.932 262.862 152.364 262.976C155.66 263.839 158.512 266.028 160.193 268.978C161.799 271.801 162.251 275.28 161.45 278.578C162.989 281.108 163.413 284.274 162.582 287.117C162.068 288.88 161.133 290.356 159.879 291.383C158.698 292.35 157.228 292.883 155.804 292.883L155.802 292.888Z" fill="#0D1D44"/>
<path d="M148.65 296.488C146.331 296.488 143.951 295.436 142.183 293.606C141.875 293.288 141.884 292.78 142.206 292.474C142.525 292.167 143.035 292.176 143.343 292.496C144.923 294.132 147.07 295.019 149.089 294.871C151.239 294.711 153.17 293.297 153.788 291.428C154.123 290.41 154.107 289.191 153.74 287.997C153.418 286.95 152.839 285.895 151.971 284.774C151.7 284.425 151.765 283.921 152.116 283.651C152.467 283.382 152.973 283.446 153.244 283.796C154.231 285.072 154.897 286.291 155.276 287.526C155.747 289.059 155.761 290.58 155.315 291.929C154.5 294.395 151.99 296.261 149.208 296.467C149.022 296.481 148.839 296.488 148.653 296.488H148.65Z" fill="#0D1D44"/>
<path d="M126.149 302.977C124.316 302.977 121.85 302.613 119.824 301.024C117.729 299.379 116.73 296.723 117.341 294.413C117.454 293.985 117.895 293.729 118.322 293.844C118.751 293.956 119.009 294.395 118.894 294.82C118.45 296.497 119.243 298.53 120.818 299.766C122.215 300.861 124.229 301.428 126.484 301.369C128.765 301.307 130.85 300.664 132.518 299.514C134.312 298.274 135.559 296.444 135.938 294.491C136.023 294.056 136.445 293.773 136.879 293.857C137.316 293.942 137.601 294.361 137.516 294.795C137.056 297.156 135.568 299.356 133.434 300.829C131.51 302.158 129.121 302.899 126.528 302.97C126.404 302.972 126.278 302.975 126.149 302.975V302.977Z" fill="#0D1D44"/>
</g>
<defs>
<clipPath id="clip0_58_1383">
<rect width="72" height="67" fill="white" transform="translate(91 251)"/>
</clipPath>
</defs>
</svg>
