<svg width="229" height="350" viewBox="0 0 229 350" fill="none" xmlns="http://www.w3.org/2000/svg">
<rect x="0.5" width="228" height="350" rx="12" fill="#F2F4F6"/>
<rect x="24.5" y="32" width="180" height="40" rx="12" fill="#697282"/>
<path d="M82.148 51.128H80.052V54.84H78.404V46.008H80.052V49.784H82.148V51.128ZM70.756 55.592H80.068V60.28H78.42V56.904H70.756V55.592ZM77.124 49.576H68.868V48.296H77.124V49.576ZM76.356 52.504C76.356 53.1973 76.036 53.768 75.396 54.216C74.7667 54.6533 73.972 54.872 73.012 54.872C72.052 54.872 71.2467 54.6533 70.596 54.216C69.956 53.768 69.636 53.1973 69.636 52.504C69.636 51.7893 69.956 51.2133 70.596 50.776C71.236 50.328 72.0413 50.104 73.012 50.104C73.972 50.104 74.7667 50.328 75.396 50.776C76.036 51.2133 76.356 51.7893 76.356 52.504ZM74.724 52.504C74.724 52.1733 74.5533 51.9013 74.212 51.688C73.8813 51.4747 73.4813 51.368 73.012 51.368C72.532 51.368 72.1213 51.4747 71.78 51.688C71.4387 51.9013 71.268 52.1733 71.268 52.504C71.268 52.824 71.4387 53.0907 71.78 53.304C72.132 53.5173 72.5427 53.624 73.012 53.624C73.4813 53.624 73.8813 53.5173 74.212 53.304C74.5533 53.0907 74.724 52.824 74.724 52.504ZM70.932 47.48V46.168H75.108V47.48H70.932ZM94.9838 57.448C94.9838 58.3013 94.5464 58.9787 93.6718 59.48C92.7971 59.992 91.5918 60.248 90.0558 60.248C88.5304 60.248 87.3304 59.992 86.4557 59.48C85.5811 58.9787 85.1438 58.3013 85.1438 57.448C85.1438 56.584 85.5811 55.896 86.4557 55.384C87.3304 54.872 88.5304 54.616 90.0558 54.616C91.5918 54.616 92.7971 54.872 93.6718 55.384C94.5464 55.896 94.9838 56.584 94.9838 57.448ZM94.8398 54.696H93.2718V50.952H91.8958V54.088H90.3438V46.264H91.8958V49.576H93.2718V46.008H94.8398V54.696ZM89.9918 52.488L89.1598 53.704C88.6478 53.4693 88.1144 53.0907 87.5598 52.568C87.0158 52.0453 86.6531 51.5493 86.4718 51.08C86.2798 51.656 85.9224 52.2373 85.3998 52.824C84.8771 53.4 84.3064 53.8427 83.6878 54.152L82.7438 53C83.6184 52.52 84.3171 51.8853 84.8398 51.096C85.3731 50.3067 85.6398 49.4213 85.6398 48.44V46.888H87.2238V48.392C87.2238 49.3413 87.4904 50.168 88.0238 50.872C88.5678 51.5653 89.2238 52.104 89.9918 52.488ZM93.2878 57.448C93.2878 56.9787 92.9998 56.616 92.4238 56.36C91.8478 56.0933 91.0584 55.96 90.0558 55.96C89.0531 55.96 88.2638 56.0933 87.6878 56.36C87.1224 56.616 86.8398 56.9787 86.8398 57.448C86.8398 57.9067 87.1224 58.2693 87.6878 58.536C88.2638 58.8027 89.0531 58.936 90.0558 58.936C91.0584 58.936 91.8478 58.8027 92.4238 58.536C92.9998 58.2693 93.2878 57.9067 93.2878 57.448ZM114.103 51.704H112.055V56.632H110.423V46.008H112.055V50.344H114.103V51.704ZM112.503 59.896H102.823V55.72H104.471V58.584H112.503V59.896ZM109.575 52.936L109.719 54.168C107.415 54.4773 104.423 54.6533 100.743 54.696L100.503 53.336H103.447V50.344H105.063V53.272H105.095C106.94 53.208 108.433 53.096 109.575 52.936ZM108.647 47.048C108.625 49.4267 108.487 51.1067 108.231 52.088L106.663 51.848C106.908 50.8453 107.02 49.688 106.999 48.376H101.495V47.048H108.647ZM123.962 59.592H122.41V54.68H120.458V53.384H122.41V51.096H120.81V49.816H122.41V46.296H123.962V59.592ZM126.73 60.264H125.162V46.008H126.73V60.264ZM120.682 47.72C120.65 51.9013 118.928 55.1227 115.514 57.384L114.426 56.248C115.824 55.416 116.922 54.376 117.722 53.128C118.522 51.8693 118.97 50.5147 119.066 49.064H115.274V47.72H120.682ZM143.977 52.056H134.409V46.456H136.057V48.04H142.345V46.44H143.977V52.056ZM140.121 57.192H138.473V54.68H132.761V53.352H145.641V54.68H140.121V57.192ZM144.153 59.848H134.425V55.896H136.073V58.552H144.153V59.848ZM142.345 50.728V49.32H136.057V50.728H142.345ZM148.765 55.048H158.365V60.28H156.733V56.36H148.765V55.048ZM158.349 54.328H156.717V50.392H154.109V49.048H156.717V46.008H158.349V54.328ZM155.021 52.36L154.077 53.64C153.448 53.3733 152.824 52.9627 152.205 52.408C151.586 51.8427 151.128 51.24 150.829 50.6C150.626 51.3147 150.21 51.976 149.581 52.584C148.962 53.192 148.264 53.672 147.485 54.024L146.477 52.712C147.522 52.296 148.365 51.6773 149.005 50.856C149.656 50.024 149.981 49.0747 149.981 48.008V46.6H151.661V47.928C151.661 48.9733 151.997 49.9013 152.669 50.712C153.352 51.512 154.136 52.0613 155.021 52.36Z" fill="white"/>
<path d="M37.6901 95.96C38.0208 96.28 38.1861 96.6693 38.1861 97.128C38.1861 97.5867 38.0208 97.9813 37.6901 98.312C37.3701 98.632 36.9755 98.792 36.5061 98.792C36.0475 98.792 35.6528 98.632 35.3221 98.312C35.0021 97.9813 34.8421 97.5867 34.8421 97.128C34.8421 96.6693 35.0021 96.28 35.3221 95.96C35.6528 95.6293 36.0475 95.464 36.5061 95.464C36.9648 95.464 37.3595 95.6293 37.6901 95.96ZM61.444 96.472L60.596 97.736C59.4973 97.4587 58.4467 96.952 57.444 96.216C56.452 95.4693 55.7747 94.6693 55.412 93.816C55.092 94.68 54.4253 95.4853 53.412 96.232C52.4093 96.968 51.348 97.4693 50.228 97.736L49.428 96.408C50.6973 96.2053 51.8707 95.656 52.948 94.76C54.036 93.8533 54.58 92.824 54.58 91.672V90.824H56.292V91.672C56.292 92.4293 56.5747 93.1653 57.14 93.88C57.716 94.5947 58.388 95.1707 59.156 95.608C59.9347 96.0453 60.6973 96.3333 61.444 96.472ZM61.86 102.472H48.98V101.144H54.58V97.64H56.212V101.144H61.86V102.472ZM72.2958 99.544L72.4238 100.824C70.0558 101.112 66.9358 101.277 63.0638 101.32L62.8078 99.944C64.4824 99.944 65.7571 99.9333 66.6318 99.912V97.656C65.7571 97.5067 65.0478 97.1387 64.5038 96.552C63.9704 95.9653 63.7038 95.256 63.7038 94.424C63.7038 93.464 64.0611 92.6587 64.7758 92.008C65.4904 91.3573 66.3758 91.032 67.4318 91.032C68.4984 91.032 69.3944 91.352 70.1198 91.992C70.8451 92.632 71.2078 93.4427 71.2078 94.424C71.2078 95.2667 70.9304 95.976 70.3758 96.552C69.8318 97.128 69.1224 97.496 68.2478 97.656V99.848C69.8584 99.7947 71.2078 99.6933 72.2958 99.544ZM74.7438 90.008V104.264H73.0958V90.008H74.7438ZM69.5278 94.424C69.5278 93.8053 69.3304 93.32 68.9358 92.968C68.5411 92.6053 68.0398 92.424 67.4318 92.424C66.8238 92.424 66.3224 92.6053 65.9278 92.968C65.5331 93.32 65.3358 93.8053 65.3358 94.424C65.3358 95 65.5331 95.464 65.9278 95.816C66.3331 96.1573 66.8344 96.328 67.4318 96.328C68.0184 96.328 68.5144 96.1573 68.9198 95.816C69.3251 95.464 69.5278 95 69.5278 94.424ZM86.0595 97.208L86.1395 98.472C83.7395 98.7707 80.6302 98.9413 76.8115 98.984L76.5875 97.624C77.4195 97.624 78.7422 97.6133 80.5555 97.592V95.832H77.9635V91.032H84.6355V92.344H79.5955V94.52H84.7795V95.832H82.1875V97.528C83.8088 97.4533 85.0995 97.3467 86.0595 97.208ZM88.4755 90.008V100.52H86.8275V90.008H88.4755ZM88.6355 103.848H79.0675V99.848H80.7315V102.552H88.6355V103.848ZM107.882 95.128H105.786V98.84H104.138V90.008H105.786V93.784H107.882V95.128ZM96.4904 99.592H105.802V104.28H104.154V100.904H96.4904V99.592ZM102.858 93.576H94.6024V92.296H102.858V93.576ZM102.09 96.504C102.09 97.1973 101.77 97.768 101.13 98.216C100.501 98.6533 99.7064 98.872 98.7464 98.872C97.7864 98.872 96.981 98.6533 96.3304 98.216C95.6904 97.768 95.3704 97.1973 95.3704 96.504C95.3704 95.7893 95.6904 95.2133 96.3304 94.776C96.9704 94.328 97.7757 94.104 98.7464 94.104C99.7064 94.104 100.501 94.328 101.13 94.776C101.77 95.2133 102.09 95.7893 102.09 96.504ZM100.458 96.504C100.458 96.1733 100.288 95.9013 99.9464 95.688C99.6157 95.4747 99.2157 95.368 98.7464 95.368C98.2664 95.368 97.8557 95.4747 97.5144 95.688C97.173 95.9013 97.0024 96.1733 97.0024 96.504C97.0024 96.824 97.173 97.0907 97.5144 97.304C97.8664 97.5173 98.277 97.624 98.7464 97.624C99.2157 97.624 99.6157 97.5173 99.9464 97.304C100.288 97.0907 100.458 96.824 100.458 96.504ZM96.6664 91.48V90.168H100.842V91.48H96.6664ZM120.718 101.448C120.718 102.301 120.281 102.979 119.406 103.48C118.531 103.992 117.326 104.248 115.79 104.248C114.265 104.248 113.065 103.992 112.19 103.48C111.315 102.979 110.878 102.301 110.878 101.448C110.878 100.584 111.315 99.896 112.19 99.384C113.065 98.872 114.265 98.616 115.79 98.616C117.326 98.616 118.531 98.872 119.406 99.384C120.281 99.896 120.718 100.584 120.718 101.448ZM120.574 98.696H119.006V94.952H117.63V98.088H116.078V90.264H117.63V93.576H119.006V90.008H120.574V98.696ZM115.726 96.488L114.894 97.704C114.382 97.4693 113.849 97.0907 113.294 96.568C112.75 96.0453 112.387 95.5493 112.206 95.08C112.014 95.656 111.657 96.2373 111.134 96.824C110.611 97.4 110.041 97.8427 109.422 98.152L108.478 97C109.353 96.52 110.051 95.8853 110.574 95.096C111.107 94.3067 111.374 93.4213 111.374 92.44V90.888H112.958V92.392C112.958 93.3413 113.225 94.168 113.758 94.872C114.302 95.5653 114.958 96.104 115.726 96.488ZM119.022 101.448C119.022 100.979 118.734 100.616 118.158 100.36C117.582 100.093 116.793 99.96 115.79 99.96C114.787 99.96 113.998 100.093 113.422 100.36C112.857 100.616 112.574 100.979 112.574 101.448C112.574 101.907 112.857 102.269 113.422 102.536C113.998 102.803 114.787 102.936 115.79 102.936C116.793 102.936 117.582 102.803 118.158 102.536C118.734 102.269 119.022 101.907 119.022 101.448ZM133.645 96.712H127.005V90.52H128.653V92.408H132.013V90.488H133.645V96.712ZM132.013 95.4V93.704H128.653V95.4H132.013ZM139.757 94.36H137.677V97.272H136.029V90.008H137.677V93.016H139.757V94.36ZM138.141 104.152H128.509V100.472H136.029V99.352H128.429V98.056H137.677V101.688H130.141V102.856H138.141V104.152ZM152.177 100.344H150.545V97.336H147.745V96.008H150.545V94.168H147.921V92.84H150.545V90.008H152.177V100.344ZM147.745 91.128C147.67 93.016 147.078 94.5947 145.969 95.864C144.87 97.1227 143.334 98.0667 141.361 98.696L140.481 97.4C141.867 97.1013 143.073 96.52 144.097 95.656C145.131 94.7813 145.75 93.7253 145.953 92.488H141.185V91.128H147.745ZM152.529 103.896H142.897V99.448H144.545V102.584H152.529V103.896Z" fill="#020712"/>
<g clip-path="url(#clip0_58_1311)">
<path d="M93.5029 170.332L144.389 224.367" stroke="#99A1AE" stroke-width="3"/>
<path d="M93.8078 171.228L86.2129 248.095" stroke="#99A1AE" stroke-width="3"/>
<path d="M178.811 298.561L149.363 226.054" stroke="#99A1AE" stroke-width="3"/>
<path d="M100.16 256.702L149.801 224.663" stroke="#99A1AE" stroke-width="3"/>
<path d="M43.2686 295.659L84.2812 255.323" stroke="#99A1AE" stroke-width="3"/>
<path d="M143.767 240.897C155.931 240.897 165.792 231.016 165.792 218.827C165.792 206.637 155.931 196.756 143.767 196.756C131.602 196.756 121.741 206.637 121.741 218.827C121.741 231.016 131.602 240.897 143.767 240.897Z" fill="#F8FAFB" stroke="#99A1AE" stroke-width="2"/>
<mask id="mask0_58_1311" style="mask-type:luminance" maskUnits="userSpaceOnUse" x="129" y="209" width="30" height="33">
<path d="M158.391 209.313H129.526V241.64H158.391V209.313Z" fill="white"/>
</mask>
<g mask="url(#mask0_58_1311)">
<path d="M143.956 241.64C149.667 241.64 154.765 239.194 158.391 235.332C157.314 229.448 153.004 224.706 147.203 223.412C149.667 222.195 151.399 219.711 151.399 216.772C151.399 212.653 148.067 209.313 143.956 209.313C139.846 209.313 136.513 212.653 136.513 216.772C136.513 219.711 138.246 222.195 140.709 223.412C134.914 224.706 130.599 229.448 129.526 235.332C133.148 239.194 138.251 241.64 143.956 241.64Z" fill="#99A1AE"/>
</g>
<path d="M85.2855 274.422C95.3524 274.422 103.513 266.245 103.513 256.157C103.513 246.069 95.3524 237.891 85.2855 237.891C75.2185 237.891 67.0576 246.069 67.0576 256.157C67.0576 266.245 75.2185 274.422 85.2855 274.422Z" fill="#F8FAFB" stroke="#99A1AE" stroke-width="2"/>
<mask id="mask1_58_1311" style="mask-type:luminance" maskUnits="userSpaceOnUse" x="73" y="248" width="25" height="28">
<path d="M97.4731 248.229H73.4185V275.167H97.4731V248.229Z" fill="white"/>
</mask>
<g mask="url(#mask1_58_1311)">
<path d="M85.4437 275.167C90.2024 275.167 94.4509 273.13 97.4731 269.911C96.5751 265.008 92.9833 261.056 88.1494 259.977C90.2024 258.963 91.6463 256.894 91.6463 254.444C91.6463 251.011 88.8694 248.229 85.4437 248.229C82.0181 248.229 79.2412 251.011 79.2412 254.444C79.2412 256.894 80.6851 258.963 82.7381 259.977C77.9081 261.056 74.3125 265.008 73.4185 269.911C76.4366 273.13 80.689 275.167 85.4437 275.167Z" fill="#99A1AE"/>
</g>
<path d="M39.9216 306.368C47.8913 306.368 54.352 299.894 54.352 291.908C54.352 283.922 47.8913 277.448 39.9216 277.448C31.9519 277.448 25.4912 283.922 25.4912 291.908C25.4912 299.894 31.9519 306.368 39.9216 306.368Z" fill="#F8FAFB" stroke="#99A1AE" stroke-width="2"/>
<mask id="mask2_58_1311" style="mask-type:luminance" maskUnits="userSpaceOnUse" x="30" y="285" width="20" height="23">
<path d="M49.6719 285.565H30.4282V307.116H49.6719V285.565Z" fill="white"/>
</mask>
<g mask="url(#mask2_58_1311)">
<path d="M40.0484 307.116C43.8554 307.116 47.2541 305.486 49.6719 302.911C48.9535 298.989 46.0801 295.827 42.213 294.964C43.8554 294.153 45.0105 292.498 45.0105 290.538C45.0105 287.791 42.789 285.565 40.0484 285.565C37.308 285.565 35.0864 287.791 35.0864 290.538C35.0864 292.498 36.2415 294.153 37.8839 294.964C34.02 295.827 31.1434 298.989 30.4282 302.911C32.8427 305.486 36.2447 307.116 40.0484 307.116Z" fill="#99A1AE"/>
</g>
<path d="M92.6741 183.49C102.741 183.49 110.902 175.312 110.902 165.224C110.902 155.136 102.741 146.959 92.6741 146.959C82.6072 146.959 74.4463 155.136 74.4463 165.224C74.4463 175.312 82.6072 183.49 92.6741 183.49Z" fill="#F8FAFB" stroke="#99A1AE" stroke-width="2"/>
<mask id="mask3_58_1311" style="mask-type:luminance" maskUnits="userSpaceOnUse" x="80" y="157" width="25" height="28">
<path d="M104.862 157.296H80.8071V184.235H104.862V157.296Z" fill="white"/>
</mask>
<g mask="url(#mask3_58_1311)">
<path d="M92.8324 184.235C97.5912 184.235 101.839 182.197 104.862 178.979C103.964 174.075 100.372 170.123 95.5381 169.045C97.5912 168.03 99.035 165.961 99.035 163.512C99.035 160.079 96.258 157.296 92.8324 157.296C89.4068 157.296 86.6299 160.079 86.6299 163.512C86.6299 165.961 88.0737 168.03 90.1267 169.045C85.2969 170.123 81.7011 174.075 80.8071 178.979C83.8254 182.197 88.0777 184.235 92.8324 184.235Z" fill="#99A1AE"/>
</g>
<path d="M169.589 317.042C179.656 317.042 187.817 308.864 187.817 298.776C187.817 288.689 179.656 280.511 169.589 280.511C159.522 280.511 151.361 288.689 151.361 298.776C151.361 308.864 159.522 317.042 169.589 317.042Z" fill="#F8FAFB" stroke="#99A1AE" stroke-width="2"/>
<mask id="mask4_58_1311" style="mask-type:luminance" maskUnits="userSpaceOnUse" x="157" y="290" width="25" height="28">
<path d="M181.777 290.848H157.722V317.787H181.777V290.848Z" fill="white"/>
</mask>
<g mask="url(#mask4_58_1311)">
<path d="M169.748 317.787C174.506 317.787 178.755 315.75 181.777 312.53C180.879 307.628 177.287 303.675 172.453 302.597C174.506 301.582 175.95 299.513 175.95 297.064C175.95 293.631 173.173 290.848 169.748 290.848C166.322 290.848 163.545 293.631 163.545 297.064C163.545 299.513 164.989 301.582 167.042 302.597C162.212 303.675 158.616 307.628 157.722 312.53C160.74 315.75 164.993 317.787 169.748 317.787Z" fill="#99A1AE"/>
</g>
<path d="M189.078 187.097C197.048 187.097 203.509 180.623 203.509 172.637C203.509 164.651 197.048 158.177 189.078 158.177C181.109 158.177 174.648 164.651 174.648 172.637C174.648 180.623 181.109 187.097 189.078 187.097Z" fill="#F8FAFB" stroke="#99A1AE" stroke-width="2"/>
<mask id="mask5_58_1311" style="mask-type:luminance" maskUnits="userSpaceOnUse" x="179" y="166" width="20" height="22">
<path d="M198.829 166.295H179.585V187.846H198.829V166.295Z" fill="white"/>
</mask>
<g mask="url(#mask5_58_1311)">
<path d="M189.205 187.846C193.012 187.846 196.411 186.216 198.828 183.641C198.11 179.718 195.237 176.557 191.369 175.694C193.012 174.882 194.167 173.227 194.167 171.267C194.167 168.521 191.946 166.295 189.205 166.295C186.464 166.295 184.243 168.521 184.243 171.267C184.243 173.227 185.398 174.882 187.04 175.694C183.177 176.557 180.3 179.718 179.585 183.641C181.999 186.216 185.401 187.846 189.205 187.846Z" fill="#0084D1"/>
</g>
</g>
<defs>
<clipPath id="clip0_58_1311">
<rect width="180" height="172" fill="white" transform="translate(24.5 146)"/>
</clipPath>
</defs>
</svg>
