<svg width="217" height="350" viewBox="0 0 217 350" fill="none" xmlns="http://www.w3.org/2000/svg">
<rect x="0.5" width="216" height="350" rx="12" fill="#F2F4F6"/>
<rect x="24.5" y="32" width="168" height="40" rx="12" fill="#697282"/>
<path d="M60.148 46.76V51.848H50.676V46.76H60.148ZM56.276 57.192H54.644V54.568H48.98V53.24H61.86V54.568H56.276V57.192ZM60.356 59.848H50.644V55.816H52.292V58.552H60.356V59.848ZM58.5 50.536V48.072H52.324V50.536H58.5ZM69.8798 55.768L68.9198 56.952C68.4078 56.632 67.8904 56.136 67.3678 55.464C66.8558 54.7813 66.5091 54.1147 66.3278 53.464C66.1678 54.1573 65.8211 54.872 65.2878 55.608C64.7544 56.3333 64.1731 56.888 63.5438 57.272L62.5198 56.168C64.5358 54.8347 65.5438 52.7867 65.5438 50.024V48.968H63.0318V47.64H69.4798V48.968H67.1438V49.976C67.1438 51.352 67.3891 52.5413 67.8798 53.544C68.3811 54.5467 69.0478 55.288 69.8798 55.768ZM72.0078 59.592H70.4718V52.44H68.5198V51.08H70.4718V46.296H72.0078V59.592ZM74.8398 60.264H73.2718V46.008H74.8398V60.264ZM91.9426 46.008V51.576H94.0866V52.952H91.9426V60.264H90.2946V46.008H91.9426ZM89.3986 55.544L88.4226 56.776C87.772 56.3493 87.1053 55.736 86.4226 54.936C85.74 54.1253 85.276 53.3467 85.0306 52.6C84.7853 53.4427 84.3373 54.2747 83.6866 55.096C83.0466 55.9173 82.332 56.5627 81.5426 57.032L80.5346 55.832C81.6653 55.096 82.5506 54.1627 83.1906 53.032C83.8413 51.9013 84.1666 50.664 84.1666 49.32V47.24H85.8466V49.224C85.8466 50.5573 86.1666 51.7733 86.8066 52.872C87.4573 53.9707 88.3213 54.8613 89.3986 55.544ZM106.442 56.344H104.81V51.672H102.01V50.328H104.81V46.008H106.442V56.344ZM101.994 47.112C101.93 49.032 101.338 50.632 100.218 51.912C99.0984 53.1813 97.5624 54.1147 95.6104 54.712L94.7624 53.4C96.149 53.1013 97.3544 52.52 98.3784 51.656C99.4024 50.7813 100.016 49.7253 100.218 48.488H95.4344V47.112H101.994ZM106.778 59.896H97.1144V55.4H98.7624V58.584H106.778V59.896ZM125.641 58.456H112.761V57.144H118.361V53.864H114.361V47.128H124.057V53.864H119.993V57.144H125.641V58.456ZM122.425 52.568V48.44H115.993V52.568H122.425ZM138.285 60.264H136.653V46.008H138.285V60.264ZM135.341 54.792L135.533 56.136C134.712 56.3387 133.65 56.504 132.349 56.632C131.048 56.76 129.906 56.8293 128.925 56.84H127.437V47.48H129.053V55.4C129.96 55.432 131.026 55.384 132.253 55.256C133.48 55.128 134.509 54.9733 135.341 54.792ZM146.865 51.192V52.52H142.657V55.656C145.089 55.656 147.025 55.512 148.465 55.224L148.705 56.52C147.297 56.8187 145.238 56.9787 142.529 57H141.041V47.288H147.569V48.584H142.657V51.192H146.865ZM152.177 60.264H150.545V52.584H147.969V51.224H150.545V46.008H152.177V60.264ZM166.021 54.664H164.389V46.008H166.021V54.664ZM164.853 55.576C165.717 56.0667 166.149 56.728 166.149 57.56C166.149 58.392 165.722 59.048 164.869 59.528C164.015 60.0187 162.821 60.264 161.285 60.264C159.759 60.264 158.57 60.0187 157.717 59.528C156.863 59.048 156.437 58.392 156.437 57.56C156.437 56.728 156.863 56.0667 157.717 55.576C158.57 55.0853 159.759 54.84 161.285 54.84C162.81 54.84 163.999 55.0853 164.853 55.576ZM161.285 56.12C160.293 56.12 159.514 56.2533 158.949 56.52C158.394 56.776 158.117 57.1227 158.117 57.56C158.117 57.9867 158.394 58.328 158.949 58.584C159.514 58.84 160.293 58.968 161.285 58.968C162.287 58.968 163.066 58.84 163.621 58.584C164.186 58.328 164.469 57.9867 164.469 57.56C164.469 57.1227 164.186 56.776 163.621 56.52C163.066 56.2533 162.287 56.12 161.285 56.12ZM162.645 52.168L162.852 53.464C161.541 53.784 159.53 53.944 156.821 53.944H155.013V49.64H159.749V48.12H154.949V46.824H161.397V50.904H156.661V52.616C159.541 52.616 161.535 52.4667 162.645 52.168Z" fill="white"/>
<path d="M49.6901 95.96C50.0208 96.28 50.1861 96.6693 50.1861 97.128C50.1861 97.5867 50.0208 97.9813 49.6901 98.312C49.3701 98.632 48.9755 98.792 48.5061 98.792C48.0475 98.792 47.6528 98.632 47.3221 98.312C47.0021 97.9813 46.8421 97.5867 46.8421 97.128C46.8421 96.6693 47.0021 96.28 47.3221 95.96C47.6528 95.6293 48.0475 95.464 48.5061 95.464C48.9648 95.464 49.3595 95.6293 49.6901 95.96ZM61.78 94.264V92.952H69.508V94.264H66.564C66.692 94.8933 67.0867 95.4587 67.748 95.96C68.42 96.4507 69.14 96.7493 69.908 96.856L69.108 98.168C68.4573 98.0187 67.8067 97.7147 67.156 97.256C66.516 96.7973 66.0413 96.3013 65.732 95.768C65.4973 96.376 65.0493 96.952 64.388 97.496C63.7267 98.04 63.0067 98.4187 62.228 98.632L61.364 97.32C62.2707 97.1067 63.0493 96.7227 63.7 96.168C64.3613 95.6027 64.7507 94.968 64.868 94.264H61.78ZM72.9 90.008V104.264H71.252V90.008H72.9ZM70.452 99.928L70.58 101.192C68.3187 101.48 65.1987 101.645 61.22 101.688L60.964 100.328C62.9907 100.328 64.2973 100.317 64.884 100.296V97.784H66.532V100.232C68.2173 100.157 69.524 100.056 70.452 99.928ZM63.668 92.056V90.744H67.668V92.056H63.668ZM87.7038 97.784H74.8238V96.456H83.9918C84.2371 95.3787 84.3598 93.928 84.3598 92.104H76.5518V90.824H85.9918C85.9918 93.2667 85.8691 95.144 85.6238 96.456H87.7038V97.784ZM86.3918 103.784H76.5518V99.24H78.1838V102.488H86.3918V103.784ZM103.943 90.008V95.576H106.087V96.952H103.943V104.264H102.295V90.008H103.943ZM101.399 99.544L100.423 100.776C99.772 100.349 99.1053 99.736 98.4226 98.936C97.74 98.1253 97.276 97.3467 97.0306 96.6C96.7853 97.4427 96.3373 98.2747 95.6866 99.096C95.0466 99.9173 94.332 100.563 93.5426 101.032L92.5346 99.832C93.6653 99.096 94.5506 98.1627 95.1906 97.032C95.8413 95.9013 96.1666 94.664 96.1666 93.32V91.24H97.8466V93.224C97.8466 94.5573 98.1666 95.7733 98.8066 96.872C99.4573 97.9707 100.321 98.8613 101.399 99.544ZM118.442 100.344H116.81V95.672H114.01V94.328H116.81V90.008H118.442V100.344ZM113.994 91.112C113.93 93.032 113.338 94.632 112.218 95.912C111.098 97.1813 109.562 98.1147 107.61 98.712L106.762 97.4C108.149 97.1013 109.354 96.52 110.378 95.656C111.402 94.7813 112.016 93.7253 112.218 92.488H107.434V91.112H113.994ZM118.778 103.896H109.114V99.4H110.762V102.584H118.778V103.896ZM137.641 102.456H124.761V101.144H130.361V97.864H126.361V91.128H136.057V97.864H131.993V101.144H137.641V102.456ZM134.425 96.568V92.44H127.993V96.568H134.425ZM150.285 104.264H148.653V90.008H150.285V104.264ZM147.341 98.792L147.533 100.136C146.712 100.339 145.65 100.504 144.349 100.632C143.048 100.76 141.906 100.829 140.925 100.84H139.437V91.48H141.053V99.4C141.96 99.432 143.026 99.384 144.253 99.256C145.48 99.128 146.509 98.9733 147.341 98.792ZM158.865 95.192V96.52H154.657V99.656C157.089 99.656 159.025 99.512 160.465 99.224L160.705 100.52C159.297 100.819 157.238 100.979 154.529 101H153.041V91.288H159.569V92.584H154.657V95.192H158.865ZM164.177 104.264H162.545V96.584H159.969V95.224H162.545V90.008H164.177V104.264ZM178.021 98.664H176.389V90.008H178.021V98.664ZM176.853 99.576C177.717 100.067 178.149 100.728 178.149 101.56C178.149 102.392 177.722 103.048 176.869 103.528C176.015 104.019 174.821 104.264 173.285 104.264C171.759 104.264 170.57 104.019 169.717 103.528C168.863 103.048 168.437 102.392 168.437 101.56C168.437 100.728 168.863 100.067 169.717 99.576C170.57 99.0853 171.759 98.84 173.285 98.84C174.81 98.84 175.999 99.0853 176.853 99.576ZM173.285 100.12C172.293 100.12 171.514 100.253 170.949 100.52C170.394 100.776 170.117 101.123 170.117 101.56C170.117 101.987 170.394 102.328 170.949 102.584C171.514 102.84 172.293 102.968 173.285 102.968C174.287 102.968 175.066 102.84 175.621 102.584C176.186 102.328 176.469 101.987 176.469 101.56C176.469 101.123 176.186 100.776 175.621 100.52C175.066 100.253 174.287 100.12 173.285 100.12ZM174.645 96.168L174.852 97.464C173.541 97.784 171.53 97.944 168.821 97.944H167.013V93.64H171.749V92.12H166.949V90.824H173.397V94.904H168.661V96.616C171.541 96.616 173.535 96.4667 174.645 96.168Z" fill="#020712"/>
<path d="M95.578 156.234H84.532V155.226H89.404V153.966H85.554V152.972H87.486L87.136 150.956L88.368 150.774L88.648 152.972H91.406L91.714 150.76L92.96 150.942L92.554 152.972H94.514V153.966H90.65V155.226H95.578V156.234ZM85.806 157.116H94.164V161.036H92.918V158.11H85.806V157.116ZM94.528 150.34H85.54V149.346H94.528V150.34ZM103.099 154.526L103.239 155.492C102.213 155.697 100.799 155.8 98.9973 155.8H97.1073V152.048H101.349V150.438H97.0933V149.444H102.581V153.028H98.3533V154.806H98.9693C100.855 154.806 102.231 154.713 103.099 154.526ZM106.683 156.36H105.437V154.148H103.435V153.126H105.437V151.53H103.435V150.522H105.437V148.744H106.683V156.36ZM98.3953 156.892H106.683V161.036H105.437V157.9H98.3953V156.892ZM118.559 155.576H114.877V158.376H119.805V159.384H108.759V158.376H113.631V155.576H110.061V149.766H111.293V154.582H118.559V155.576ZM130.98 160.742H122.23V158.026H129.342V157.242H122.188V156.276H125.744V155.38H120.872V154.414H131.918V155.38H126.99V156.276H130.574V158.922H123.476V159.776H130.98V160.742ZM131.372 152.972L130.854 153.98C129.846 153.868 128.927 153.635 128.096 153.28C127.275 152.916 126.705 152.501 126.388 152.034C126.099 152.519 125.539 152.939 124.708 153.294C123.887 153.649 122.967 153.877 121.95 153.98L121.404 152.972C122.309 152.953 123.168 152.795 123.98 152.496C124.801 152.197 125.347 151.833 125.618 151.404H122.02V150.438H130.756V151.404H127.186C127.475 151.824 128.026 152.183 128.838 152.482C129.659 152.781 130.504 152.944 131.372 152.972ZM128.362 149.724H124.4V148.744H128.362V149.724Z" fill="#0084D1"/>
<path d="M101.928 190.582H100.206V196.98H98.988V184.744H100.206V189.532H101.928V190.582ZM94.312 193.424C93.416 193.639 92.2633 193.746 90.854 193.746V186.018H93.934V187.026H92.086V192.724C92.786 192.724 93.4767 192.635 94.158 192.458L94.312 193.424ZM98.442 193.452C97.5367 193.648 96.272 193.746 94.648 193.746V186.018H97.882V187.026H95.866V192.724C96.734 192.724 97.5367 192.645 98.274 192.486L98.442 193.452ZM112.305 189.042H108.777V190.12H113.691V191.128H102.645V190.12H107.531V189.042H103.989V185.206H112.263V186.214H105.235V188.02H112.305V189.042ZM112.697 196.896H103.891V193.928H111.045V192.962H103.877V191.954H112.291V194.866H105.123V195.874H112.697V196.896ZM124.797 196.812H116.663V192.682H124.797V196.812ZM123.551 195.818V193.676H117.895V195.818H123.551ZM124.797 192.038H123.551V184.744H124.797V192.038ZM122.179 190.162L122.333 191.156C121.194 191.371 119.5 191.497 117.251 191.534C117.055 191.534 116.747 191.539 116.327 191.548C115.907 191.548 115.589 191.548 115.375 191.548V187.922H119.813V186.438H115.319V185.416H121.059V188.874H116.607V190.526C119.351 190.526 121.208 190.405 122.179 190.162Z" fill="#0084D1"/>
<path d="M91.548 228.878C92.276 229.298 92.64 229.877 92.64 230.614C92.64 231.351 92.2807 231.93 91.562 232.35C90.8433 232.77 89.826 232.98 88.51 232.98C87.2127 232.98 86.2 232.77 85.472 232.35C84.7533 231.93 84.394 231.351 84.394 230.614C84.394 229.877 84.7533 229.298 85.472 228.878C86.2 228.449 87.2127 228.234 88.51 228.234C89.8167 228.234 90.8293 228.449 91.548 228.878ZM82.812 222.746V221.738H89.504V222.746H86.83V223.152C86.83 223.964 87.1287 224.701 87.726 225.364C88.3233 226.017 89 226.461 89.756 226.694L89.07 227.688C88.51 227.464 87.9547 227.109 87.404 226.624C86.8533 226.129 86.4567 225.611 86.214 225.07C86.0273 225.639 85.6307 226.209 85.024 226.778C84.4173 227.347 83.7873 227.767 83.134 228.038L82.434 227.058C83.274 226.759 84.0067 226.246 84.632 225.518C85.2573 224.781 85.57 224.001 85.57 223.18V222.746H82.812ZM88.51 229.256C87.614 229.256 86.914 229.377 86.41 229.62C85.906 229.853 85.654 230.185 85.654 230.614C85.654 231.043 85.906 231.379 86.41 231.622C86.914 231.855 87.614 231.972 88.51 231.972C89.4153 231.972 90.12 231.855 90.624 231.622C91.128 231.379 91.38 231.043 91.38 230.614C91.38 230.185 91.128 229.853 90.624 229.62C90.12 229.377 89.4153 229.256 88.51 229.256ZM91.324 224.846H89.042V223.824H91.324V220.744H92.57V228.332H91.324V224.846ZM104.739 232.98H103.493V226.092H100.763V225.042H103.493V220.744H104.739V232.98ZM102.009 229.144L101.267 230.068C100.67 229.676 100.077 229.135 99.4893 228.444C98.9013 227.753 98.4999 227.072 98.2853 226.4C98.0799 227.137 97.6973 227.87 97.1373 228.598C96.5866 229.317 95.9659 229.905 95.2753 230.362L94.4913 229.452C95.4339 228.864 96.1946 228.071 96.7733 227.072C97.3519 226.073 97.6413 225.019 97.6413 223.908V221.794H98.9153V223.852C98.9153 224.953 99.2046 225.971 99.7833 226.904C100.362 227.837 101.104 228.584 102.009 229.144ZM120.558 232.756H111.752V229.942H118.864V229.158H111.738V228.136H115.308V227.128H110.436V226.162H121.482V227.128H116.554V228.136H120.096V230.894H112.984V231.734H120.558V232.756ZM120.11 225.294H111.836V221.066H113.082V222.27H118.878V221.052H120.11V225.294ZM118.878 224.3V223.264H113.082V224.3H118.878ZM133.834 225.35H132V229.634H130.768V220.744H132V224.314H133.834V225.35ZM132.406 232.588H124.258V228.752H125.49V231.58H132.406V232.588ZM123.642 222.508C124.267 221.92 125.051 221.626 125.994 221.626C126.936 221.626 127.716 221.92 128.332 222.508C128.957 223.087 129.27 223.824 129.27 224.72C129.27 225.616 128.962 226.344 128.346 226.904C127.73 227.464 126.95 227.744 126.008 227.744C125.046 227.744 124.258 227.464 123.642 226.904C123.026 226.344 122.718 225.621 122.718 224.734C122.718 223.829 123.026 223.087 123.642 222.508ZM125.994 222.676C125.406 222.676 124.925 222.867 124.552 223.25C124.178 223.633 123.992 224.118 123.992 224.706C123.992 225.294 124.178 225.775 124.552 226.148C124.925 226.512 125.41 226.694 126.008 226.694C126.605 226.694 127.086 226.512 127.45 226.148C127.814 225.784 127.996 225.308 127.996 224.72C127.996 224.123 127.814 223.633 127.45 223.25C127.086 222.867 126.6 222.676 125.994 222.676Z" fill="#0084D1"/>
<path d="M167.282 300.978C166.497 297.041 165.316 293.16 163.783 289.464C162.279 285.825 160.423 282.316 158.254 279.039C156.103 275.791 153.648 272.738 150.925 269.964C148.211 267.19 145.229 264.668 142.054 262.471C138.842 260.256 135.417 258.357 131.854 256.821C128.235 255.248 124.442 254.048 120.592 253.247C116.642 252.419 112.571 252 108.5 252C104.438 252 100.368 252.419 96.417 253.247C92.5585 254.048 88.7739 255.258 85.1462 256.821C81.5923 258.357 78.1584 260.256 74.9554 262.471C71.78 264.668 68.7892 267.19 66.0753 269.964C63.3615 272.738 60.8969 275.791 58.7553 279.039C56.5861 282.316 54.7214 285.825 53.2168 289.464C51.6845 293.16 50.5122 297.041 49.7184 300.978C48.9153 305.018 48.5 309.178 48.5 313.339H51.417C51.4078 281.106 76.9677 254.969 108.5 254.969C140.032 254.969 165.592 281.106 165.592 313.339H168.5C168.5 309.178 168.094 305.018 167.282 300.978Z" fill="#F0F2F5"/>
<path d="M165.593 313.339H143.762C143.762 303.398 139.802 294.388 133.424 287.863L148.867 272.068C154.11 277.42 158.227 283.666 161.098 290.619C164.079 297.814 165.593 305.465 165.593 313.339Z" fill="#1F4168"/>
<path d="M148.866 272.068L133.423 287.864C127.035 281.329 118.22 277.29 108.5 277.29V254.969C116.198 254.969 123.685 256.515 130.728 259.558C137.521 262.5 143.632 266.707 148.866 272.068Z" fill="#57718E"/>
<path d="M108.501 254.969V277.29C98.7808 277.29 89.9653 281.329 83.5776 287.864L68.1348 272.068C73.3686 266.707 79.4793 262.5 86.2732 259.558C93.3163 256.515 100.802 254.969 108.501 254.969Z" fill="#B4C0CD"/>
<path d="M83.5763 287.863C77.1979 294.388 73.2379 303.398 73.2379 313.339H51.4072C51.4072 305.465 52.9211 297.814 55.9026 290.619C58.7734 283.666 62.8904 277.42 68.1335 272.068L83.5763 287.863Z" fill="#E1E6EB"/>
<path d="M124.811 270.876C124.903 270.616 124.885 270.392 124.756 270.188C124.626 269.992 124.368 269.731 123.962 269.415C123.556 269.089 123.251 268.81 123.039 268.568C122.457 267.898 122.282 267.228 122.522 266.548C122.642 266.194 122.854 265.915 123.14 265.71C123.436 265.506 123.796 265.394 124.211 265.375C124.626 265.347 125.07 265.422 125.522 265.589C125.974 265.757 126.353 265.99 126.648 266.297C126.943 266.595 127.137 266.93 127.229 267.311C127.313 267.693 127.294 268.084 127.156 268.475L125.836 267.991C125.946 267.693 125.928 267.423 125.808 267.19C125.679 266.958 125.448 266.772 125.116 266.651C124.793 266.539 124.525 266.511 124.294 266.585C124.073 266.66 123.916 266.809 123.833 267.032C123.759 267.246 123.805 267.46 123.962 267.684C124.119 267.907 124.377 268.149 124.737 268.428C125.411 268.931 125.854 269.424 126.076 269.89C126.297 270.355 126.316 270.839 126.14 271.351C125.937 271.909 125.577 272.282 125.042 272.449C124.516 272.617 123.888 272.57 123.187 272.31C122.697 272.124 122.282 271.872 121.94 271.537C121.599 271.202 121.387 270.839 121.285 270.439C121.183 270.039 121.211 269.629 121.359 269.21L122.679 269.694C122.42 270.42 122.716 270.932 123.556 271.249C123.87 271.36 124.137 271.388 124.359 271.323C124.58 271.258 124.737 271.109 124.811 270.876Z" fill="white"/>
<path d="M135.103 271.789L133.303 270.727L130.487 275.744L129.278 275.028L132.094 270.02L130.312 268.977L130.875 267.972L135.666 270.783L135.103 271.789Z" fill="white"/>
<path d="M137.781 277.95L136.931 277.225L135.335 279.17L134.264 278.248L138.621 272.934L140.559 274.59C141.168 275.121 141.528 275.661 141.63 276.229C141.741 276.796 141.575 277.336 141.159 277.848C140.864 278.211 140.541 278.444 140.181 278.556C139.83 278.667 139.442 278.658 139.008 278.537L138.353 281.674L138.307 281.72L137.162 280.734L137.781 277.95ZM137.661 276.331L138.519 277.076C138.796 277.308 139.054 277.411 139.322 277.401C139.581 277.383 139.812 277.262 140.015 277.01C140.218 276.759 140.319 276.508 140.292 276.238C140.273 275.977 140.116 275.726 139.83 275.475L138.971 274.739L137.661 276.331Z" fill="white"/>
<path d="M144.878 284.773L143.143 282.679L141.758 283.879L143.798 286.337L142.94 287.081L139.995 283.535L145.174 279.049L148.109 282.586L147.241 283.34L145.22 280.882L143.983 281.953L145.718 284.047L144.878 284.773Z" fill="white"/>
<path d="M147.676 291.307C147.907 291.168 148.037 290.981 148.064 290.749C148.092 290.507 148.046 290.134 147.935 289.622C147.824 289.12 147.76 288.701 147.75 288.375C147.713 287.482 148 286.849 148.609 286.476C148.923 286.29 149.255 286.206 149.606 286.244C149.956 286.272 150.307 286.42 150.64 286.672C150.981 286.932 151.267 287.268 151.516 287.696C151.756 288.115 151.904 288.543 151.95 288.971C151.987 289.39 151.923 289.781 151.756 290.134C151.59 290.488 151.332 290.767 150.981 290.981L150.261 289.753C150.529 289.585 150.695 289.371 150.741 289.11C150.787 288.85 150.722 288.561 150.538 288.254C150.372 287.947 150.169 287.752 149.947 287.668C149.726 287.575 149.513 287.584 149.31 287.714C149.126 287.826 149.024 288.021 149.006 288.291C148.987 288.571 149.034 288.924 149.144 289.371C149.347 290.199 149.384 290.86 149.264 291.363C149.144 291.875 148.858 292.266 148.406 292.536C147.898 292.843 147.39 292.889 146.873 292.666C146.357 292.452 145.913 292.015 145.526 291.354C145.267 290.888 145.101 290.423 145.046 289.948C145 289.473 145.055 289.045 145.23 288.673C145.396 288.301 145.673 288.003 146.052 287.779L146.762 289.008C146.116 289.399 146.024 289.985 146.486 290.777C146.652 291.065 146.836 291.261 147.049 291.354C147.261 291.447 147.473 291.437 147.686 291.307H147.676Z" fill="white"/>
<path d="M150.86 298.586C151.11 298.493 151.267 298.325 151.331 298.102C151.396 297.869 151.424 297.497 151.396 296.976C151.377 296.455 151.387 296.026 151.423 295.701C151.543 294.816 151.931 294.249 152.596 293.997C152.937 293.867 153.279 293.839 153.62 293.941C153.962 294.035 154.276 294.239 154.562 294.546C154.857 294.863 155.079 295.245 155.254 295.71C155.42 296.166 155.494 296.613 155.457 297.041C155.43 297.469 155.3 297.841 155.079 298.158C154.848 298.474 154.543 298.698 154.165 298.847L153.676 297.506C153.962 297.395 154.156 297.218 154.248 296.967C154.34 296.715 154.322 296.427 154.202 296.082C154.082 295.757 153.916 295.533 153.713 295.403C153.519 295.272 153.306 295.245 153.085 295.338C152.873 295.412 152.744 295.589 152.679 295.85C152.614 296.12 152.605 296.483 152.633 296.939C152.688 297.786 152.614 298.447 152.411 298.921C152.208 299.405 151.857 299.731 151.359 299.926C150.814 300.131 150.307 300.085 149.836 299.787C149.365 299.48 148.996 298.968 148.737 298.242C148.553 297.748 148.47 297.255 148.497 296.78C148.525 296.296 148.654 295.896 148.894 295.552C149.125 295.217 149.448 294.975 149.854 294.816L150.343 296.157C149.642 296.427 149.457 296.994 149.771 297.851C149.882 298.167 150.039 298.391 150.233 298.521C150.427 298.651 150.63 298.67 150.86 298.586Z" fill="white"/>
<path d="M105.786 311.785L133.432 283.74L111.214 316.439C110.088 318.086 107.882 318.496 106.266 317.351C104.651 316.206 104.254 313.944 105.371 312.297C105.491 312.11 105.648 311.934 105.786 311.785Z" fill="#1F4168"/>
<path d="M109.718 316.066C110.548 315.219 110.548 313.841 109.718 312.994C108.887 312.138 107.549 312.138 106.718 312.994C105.887 313.841 105.887 315.219 106.718 316.066C107.549 316.913 108.887 316.913 109.718 316.066Z" fill="white"/>
</svg>
