<svg width="222" height="300" viewBox="0 0 222 300" fill="none" xmlns="http://www.w3.org/2000/svg">
<rect x="0.5" width="221" height="48" rx="24" fill="#00A5F4"/>
<path d="M40.836 29.464C40.836 30.3173 40.404 30.9947 39.54 31.496C38.6867 32.008 37.4973 32.264 35.972 32.264C34.4573 32.264 33.2733 32.008 32.42 31.496C31.5667 30.9947 31.14 30.3173 31.14 29.464C31.14 28.6 31.5667 27.912 32.42 27.4C33.2733 26.888 34.4573 26.632 35.972 26.632C37.4973 26.632 38.6867 26.888 39.54 27.4C40.404 27.912 40.836 28.6 40.836 29.464ZM29.476 20.28V18.92H36.98V20.28H34.132V20.328C34.132 21.3413 34.4467 22.2267 35.076 22.984C35.716 23.7413 36.484 24.2587 37.38 24.536L36.468 25.832C35.8387 25.5867 35.22 25.1973 34.612 24.664C34.0147 24.1307 33.572 23.5493 33.284 22.92C33.0813 23.592 32.6493 24.248 31.988 24.888C31.3373 25.5173 30.644 25.9707 29.908 26.248L28.916 24.968C29.9507 24.584 30.7933 23.9867 31.444 23.176C32.1053 22.3547 32.436 21.432 32.436 20.408V20.28H29.476ZM36.756 22.824V21.464H39.076V18.008H40.724V26.584H39.076V22.824H36.756ZM35.972 27.976C34.9907 27.976 34.2227 28.1093 33.668 28.376C33.1133 28.632 32.836 28.9947 32.836 29.464C32.836 29.9227 33.1133 30.2853 33.668 30.552C34.2227 30.808 34.9907 30.936 35.972 30.936C36.9747 30.936 37.7533 30.808 38.308 30.552C38.8733 30.296 39.156 29.9333 39.156 29.464C39.156 28.9947 38.8787 28.632 38.324 28.376C37.7693 28.1093 36.9853 27.976 35.972 27.976ZM54.5678 32.264H52.9358V18.008H54.5678V32.264ZM50.1998 19.512C50.1038 23.9387 47.9651 27.2987 43.7838 29.592L42.7598 28.344C44.3704 27.608 45.6824 26.5573 46.6958 25.192C47.7198 23.8267 48.3011 22.3813 48.4398 20.856H43.5918V19.512H50.1998ZM57.1635 20.28V18.92H64.6515V20.28H61.8195V20.456C61.8195 21.4693 62.1342 22.3493 62.7635 23.096C63.3928 23.8427 64.1555 24.36 65.0515 24.648L64.1395 25.944C63.5208 25.6987 62.9075 25.3093 62.2995 24.776C61.7022 24.2427 61.2595 23.6613 60.9715 23.032C60.7688 23.704 60.3368 24.36 59.6755 25C59.0248 25.6293 58.3315 26.0827 57.5955 26.36L56.6035 25.08C57.6382 24.696 58.4808 24.0933 59.1315 23.272C59.7928 22.4507 60.1235 21.5333 60.1235 20.52V20.28H57.1635ZM58.8115 27.144H68.4275V32.28H66.7955V28.456H58.8115V27.144ZM68.4115 26.408H66.7795V22.92H64.4595V21.56H66.7795V18.008H68.4115V26.408ZM82.2393 28.344H80.6073V18.008H82.2393V28.344ZM82.5753 31.848H72.8153V27.368H74.4473V30.536H82.5753V31.848ZM77.2153 20.04C77.8979 20.6907 78.2393 21.528 78.2393 22.552C78.2393 23.576 77.8979 24.4133 77.2153 25.064C76.5433 25.7147 75.6686 26.04 74.5913 26.04C73.5033 26.04 72.6179 25.7147 71.9353 25.064C71.2526 24.4133 70.9113 23.5813 70.9113 22.568C70.9113 21.544 71.2526 20.7067 71.9353 20.056C72.6179 19.3947 73.5033 19.064 74.5913 19.064C75.6686 19.064 76.5433 19.3893 77.2153 20.04ZM76.6073 22.552C76.6073 21.9227 76.4259 21.4107 76.0633 21.016C75.7006 20.6213 75.2099 20.424 74.5913 20.424C73.9939 20.424 73.5033 20.6267 73.1193 21.032C72.7459 21.4267 72.5593 21.9333 72.5593 22.552C72.5593 23.1493 72.7459 23.6507 73.1193 24.056C73.5033 24.4507 73.9939 24.648 74.5913 24.648C75.1993 24.648 75.6846 24.4507 76.0473 24.056C76.4206 23.6507 76.6073 23.1493 76.6073 22.552ZM100.574 32.264H99.0061V25.048H97.5821V31.592H96.0301V18.296H97.5821V23.672H99.0061V18.008H100.574V32.264ZM94.6221 19.72C94.5901 23.88 92.8461 27.1013 89.3901 29.384L88.3341 28.248C89.7315 27.416 90.8301 26.376 91.6301 25.128C92.4408 23.8693 92.8941 22.5147 92.9901 21.064H89.1181V19.72H94.6221ZM114.13 28.344H112.498V18.008H114.13V28.344ZM114.466 31.848H104.706V27.368H106.338V30.536H114.466V31.848ZM109.106 20.04C109.789 20.6907 110.13 21.528 110.13 22.552C110.13 23.576 109.789 24.4133 109.106 25.064C108.434 25.7147 107.559 26.04 106.482 26.04C105.394 26.04 104.509 25.7147 103.826 25.064C103.143 24.4133 102.802 23.5813 102.802 22.568C102.802 21.544 103.143 20.7067 103.826 20.056C104.509 19.3947 105.394 19.064 106.482 19.064C107.559 19.064 108.434 19.3893 109.106 20.04ZM108.498 22.552C108.498 21.9227 108.317 21.4107 107.954 21.016C107.591 20.6213 107.101 20.424 106.482 20.424C105.885 20.424 105.394 20.6267 105.01 21.032C104.637 21.4267 104.45 21.9333 104.45 22.552C104.45 23.1493 104.637 23.6507 105.01 24.056C105.394 24.4507 105.885 24.648 106.482 24.648C107.09 24.648 107.575 24.4507 107.938 24.056C108.311 23.6507 108.498 23.1493 108.498 22.552ZM124.966 28.28L125.094 29.544C122.662 29.864 119.675 30.0347 116.134 30.056L115.91 28.696C117.584 28.696 118.864 28.68 119.75 28.648V27.368C118.918 27.2613 118.246 26.9947 117.734 26.568C117.232 26.1307 116.982 25.6027 116.982 24.984C116.982 24.28 117.302 23.704 117.942 23.256C118.592 22.808 119.424 22.584 120.438 22.584C121.451 22.584 122.278 22.808 122.918 23.256C123.568 23.704 123.894 24.28 123.894 24.984C123.894 25.56 123.664 26.0613 123.206 26.488C122.758 26.9147 122.155 27.1973 121.398 27.336V28.584C122.955 28.4773 124.144 28.376 124.966 28.28ZM127.43 18.008V24.072H129.462V25.432H127.43V32.264H125.798V18.008H127.43ZM124.518 22.072H116.278V20.792H124.518V22.072ZM121.702 25.8C122.032 25.5867 122.198 25.3147 122.198 24.984C122.198 24.6533 122.032 24.3813 121.702 24.168C121.371 23.9547 120.95 23.848 120.438 23.848C119.936 23.848 119.515 23.9547 119.174 24.168C118.843 24.3813 118.678 24.6533 118.678 24.984C118.678 25.3147 118.843 25.5867 119.174 25.8C119.504 26.0027 119.926 26.104 120.438 26.104C120.95 26.104 121.371 26.0027 121.702 25.8ZM118.342 19.992V18.712H122.502V19.992H118.342ZM147.461 23.128H145.365V26.84H143.717V18.008H145.365V21.784H147.461V23.128ZM136.069 27.592H145.381V32.28H143.733V28.904H136.069V27.592ZM142.437 21.576H134.181V20.296H142.437V21.576ZM141.669 24.504C141.669 25.1973 141.349 25.768 140.709 26.216C140.079 26.6533 139.285 26.872 138.325 26.872C137.365 26.872 136.559 26.6533 135.909 26.216C135.269 25.768 134.949 25.1973 134.949 24.504C134.949 23.7893 135.269 23.2133 135.909 22.776C136.549 22.328 137.354 22.104 138.325 22.104C139.285 22.104 140.079 22.328 140.709 22.776C141.349 23.2133 141.669 23.7893 141.669 24.504ZM140.037 24.504C140.037 24.1733 139.866 23.9013 139.525 23.688C139.194 23.4747 138.794 23.368 138.325 23.368C137.845 23.368 137.434 23.4747 137.093 23.688C136.751 23.9013 136.581 24.1733 136.581 24.504C136.581 24.824 136.751 25.0907 137.093 25.304C137.445 25.5173 137.855 25.624 138.325 25.624C138.794 25.624 139.194 25.5173 139.525 25.304C139.866 25.0907 140.037 24.824 140.037 24.504ZM136.245 19.48V18.168H140.421V19.48H136.245ZM160.296 29.448C160.296 30.3013 159.859 30.9787 158.984 31.48C158.11 31.992 156.904 32.248 155.368 32.248C153.843 32.248 152.643 31.992 151.768 31.48C150.894 30.9787 150.456 30.3013 150.456 29.448C150.456 28.584 150.894 27.896 151.768 27.384C152.643 26.872 153.843 26.616 155.368 26.616C156.904 26.616 158.11 26.872 158.984 27.384C159.859 27.896 160.296 28.584 160.296 29.448ZM160.152 26.696H158.584V22.952H157.208V26.088H155.656V18.264H157.208V21.576H158.584V18.008H160.152V26.696ZM155.304 24.488L154.472 25.704C153.96 25.4693 153.427 25.0907 152.872 24.568C152.328 24.0453 151.966 23.5493 151.784 23.08C151.592 23.656 151.235 24.2373 150.712 24.824C150.19 25.4 149.619 25.8427 149 26.152L148.056 25C148.931 24.52 149.63 23.8853 150.152 23.096C150.686 22.3067 150.952 21.4213 150.952 20.44V18.888H152.536V20.392C152.536 21.3413 152.803 22.168 153.336 22.872C153.88 23.5653 154.536 24.104 155.304 24.488ZM158.6 29.448C158.6 28.9787 158.312 28.616 157.736 28.36C157.16 28.0933 156.371 27.96 155.368 27.96C154.366 27.96 153.576 28.0933 153 28.36C152.435 28.616 152.152 28.9787 152.152 29.448C152.152 29.9067 152.435 30.2693 153 30.536C153.576 30.8027 154.366 30.936 155.368 30.936C156.371 30.936 157.16 30.8027 157.736 30.536C158.312 30.2693 158.6 29.9067 158.6 29.448ZM179.415 23.704H177.367V28.632H175.735V18.008H177.367V22.344H179.415V23.704ZM177.815 31.896H168.135V27.72H169.783V30.584H177.815V31.896ZM174.887 24.936L175.031 26.168C172.727 26.4773 169.735 26.6533 166.055 26.696L165.815 25.336H168.759V22.344H170.375V25.272H170.407C172.252 25.208 173.746 25.096 174.887 24.936ZM173.959 19.048C173.938 21.4267 173.799 23.1067 173.543 24.088L171.975 23.848C172.22 22.8453 172.332 21.688 172.311 20.376H166.807V19.048H173.959ZM188.811 27.144L188.987 28.488C187.451 28.7653 185.323 28.9147 182.603 28.936L180.843 28.952V23.192H185.675V20.568H180.779V19.256H187.307V24.504H182.475V27.592C185.142 27.592 187.254 27.4427 188.811 27.144ZM191.755 32.264H190.123V18.008H191.755V32.264Z" fill="white"/>
<rect x="0.5" y="52" width="221" height="248" rx="12" fill="#F2F4F6"/>
<path d="M83.28 115.36H71.66V108.66H83.28V115.36ZM81.22 113.72V110.28H73.74V113.72H81.22ZM83.28 107.68H81.22V97.76H83.28V107.68ZM77.9 98.9C77.8467 101.247 77.1 103.173 75.66 104.68C74.2333 106.187 72.3067 107.247 69.88 107.86L68.82 106.22C70.5 105.9 71.9933 105.247 73.3 104.26C74.62 103.273 75.4067 102.053 75.66 100.6H69.7V98.9H77.9ZM96.7047 111.56C95.6114 112.773 94.118 113.38 92.2247 113.38C90.3314 113.38 88.8447 112.787 87.7647 111.6C86.6847 110.413 86.1447 108.713 86.1447 106.5V106.1C86.1447 103.953 86.698 102.273 87.8047 101.06C88.9114 99.8333 90.4114 99.22 92.3047 99.22C94.198 99.22 95.678 99.8133 96.7447 101C97.8247 102.187 98.3647 103.893 98.3647 106.12V106.52C98.3647 108.667 97.8114 110.347 96.7047 111.56ZM92.2847 111.74C93.5514 111.74 94.5114 111.293 95.1647 110.4C95.818 109.493 96.1447 108.293 96.1447 106.8V106.14C96.1447 102.647 94.8314 100.893 92.2047 100.88C90.938 100.88 89.978 101.327 89.3247 102.22C88.6847 103.113 88.3647 104.3 88.3647 105.78V106.48C88.3647 109.987 89.6714 111.74 92.2847 111.74ZM110.63 111.56C109.537 112.773 108.044 113.38 106.15 113.38C104.257 113.38 102.77 112.787 101.69 111.6C100.61 110.413 100.07 108.713 100.07 106.5V106.1C100.07 103.953 100.624 102.273 101.73 101.06C102.837 99.8333 104.337 99.22 106.23 99.22C108.124 99.22 109.604 99.8133 110.67 101C111.75 102.187 112.29 103.893 112.29 106.12V106.52C112.29 108.667 111.737 110.347 110.63 111.56ZM106.21 111.74C107.477 111.74 108.437 111.293 109.09 110.4C109.744 109.493 110.07 108.293 110.07 106.8V106.14C110.07 102.647 108.757 100.893 106.13 100.88C104.864 100.88 103.904 101.327 103.25 102.22C102.61 103.113 102.29 104.3 102.29 105.78V106.48C102.29 109.987 103.597 111.74 106.21 111.74ZM135.47 104.16H132.85V108.8H130.79V97.76H132.85V102.48H135.47V104.16ZM121.23 109.74H132.87V115.6H130.81V111.38H121.23V109.74ZM129.19 102.22H118.87V100.62H129.19V102.22ZM128.23 105.88C128.23 106.747 127.83 107.46 127.03 108.02C126.243 108.567 125.25 108.84 124.05 108.84C122.85 108.84 121.843 108.567 121.03 108.02C120.23 107.46 119.83 106.747 119.83 105.88C119.83 104.987 120.23 104.267 121.03 103.72C121.83 103.16 122.837 102.88 124.05 102.88C125.25 102.88 126.243 103.16 127.03 103.72C127.83 104.267 128.23 104.987 128.23 105.88ZM126.19 105.88C126.19 105.467 125.977 105.127 125.55 104.86C125.137 104.593 124.637 104.46 124.05 104.46C123.45 104.46 122.937 104.593 122.51 104.86C122.083 105.127 121.87 105.467 121.87 105.88C121.87 106.28 122.083 106.613 122.51 106.88C122.95 107.147 123.463 107.28 124.05 107.28C124.637 107.28 125.137 107.147 125.55 106.88C125.977 106.613 126.19 106.28 126.19 105.88ZM121.45 99.6V97.96H126.67V99.6H121.45ZM151.515 112.06C151.515 113.127 150.968 113.973 149.875 114.6C148.782 115.24 147.275 115.56 145.355 115.56C143.448 115.56 141.948 115.24 140.855 114.6C139.762 113.973 139.215 113.127 139.215 112.06C139.215 110.98 139.762 110.12 140.855 109.48C141.948 108.84 143.448 108.52 145.355 108.52C147.275 108.52 148.782 108.84 149.875 109.48C150.968 110.12 151.515 110.98 151.515 112.06ZM151.335 108.62H149.375V103.94H147.655V107.86H145.715V98.08H147.655V102.22H149.375V97.76H151.335V108.62ZM145.275 105.86L144.235 107.38C143.595 107.087 142.928 106.613 142.235 105.96C141.555 105.307 141.102 104.687 140.875 104.1C140.635 104.82 140.188 105.547 139.535 106.28C138.882 107 138.168 107.553 137.395 107.94L136.215 106.5C137.308 105.9 138.182 105.107 138.835 104.12C139.502 103.133 139.835 102.027 139.835 100.8V98.86H141.815V100.74C141.815 101.927 142.148 102.96 142.815 103.84C143.495 104.707 144.315 105.38 145.275 105.86ZM149.395 112.06C149.395 111.473 149.035 111.02 148.315 110.7C147.595 110.367 146.608 110.2 145.355 110.2C144.102 110.2 143.115 110.367 142.395 110.7C141.688 111.02 141.335 111.473 141.335 112.06C141.335 112.633 141.688 113.087 142.395 113.42C143.115 113.753 144.102 113.92 145.355 113.92C146.608 113.92 147.595 113.753 148.315 113.42C149.035 113.087 149.395 112.633 149.395 112.06Z" fill="#020712"/>
<circle cx="111" cy="152" r="24" fill="#D9D9D9"/>
<path d="M111 153.333C114.682 153.333 117.667 150.349 117.667 146.667C117.667 142.985 114.682 140 111 140C107.318 140 104.333 142.985 104.333 146.667C104.333 150.349 107.318 153.333 111 153.333ZM111 153.333C113.829 153.333 116.542 154.457 118.543 156.458C120.543 158.458 121.667 161.171 121.667 164M111 153.333C108.171 153.333 105.458 154.457 103.458 156.458C101.457 158.458 100.333 161.171 100.333 164" stroke="#F8FAFB" stroke-width="2" stroke-linecap="round" stroke-linejoin="round"/>
<path d="M37.6901 191.96C38.0208 192.28 38.1861 192.669 38.1861 193.128C38.1861 193.587 38.0208 193.981 37.6901 194.312C37.3701 194.632 36.9755 194.792 36.5061 194.792C36.0475 194.792 35.6528 194.632 35.3221 194.312C35.0021 193.981 34.8421 193.587 34.8421 193.128C34.8421 192.669 35.0021 192.28 35.3221 191.96C35.6528 191.629 36.0475 191.464 36.5061 191.464C36.9648 191.464 37.3595 191.629 37.6901 191.96ZM49.764 190.2V189.032H57.652V190.2H54.42C54.4627 190.925 54.852 191.587 55.588 192.184C56.324 192.781 57.1453 193.165 58.052 193.336L57.348 194.472C56.5587 194.227 55.8333 193.88 55.172 193.432C54.5213 192.973 54.0467 192.456 53.748 191.88C53.524 192.477 53.0493 193.053 52.324 193.608C51.6093 194.163 50.836 194.563 50.004 194.808L49.284 193.656C50.2867 193.411 51.1507 192.963 51.876 192.312C52.6013 191.661 52.98 190.957 53.012 190.2H49.764ZM60.692 200.12H59.284V186.136H60.692V200.12ZM58.596 197.096C57.3053 197.256 55.6947 197.379 53.764 197.464C52.1213 197.571 50.6547 197.613 49.364 197.592L49.124 196.408C50.4893 196.408 51.7907 196.387 53.028 196.344V193.72H54.436V196.28C56.3987 196.173 57.7427 196.072 58.468 195.976L58.596 197.096ZM51.812 187.784V186.6H55.668V187.784H51.812ZM75.5758 193.704H62.9518V192.568H72.0718C72.3278 191.512 72.4558 190.077 72.4558 188.264H64.5518V187.112H73.8798C73.8798 189.288 73.7464 191.107 73.4798 192.568H75.5758V193.704ZM74.2638 199.624H64.6318V195.192H66.0398V198.472H74.2638V199.624ZM93.6226 194.696H80.9986V193.544H86.5666V192.104H82.1666V190.968H84.3746L83.9746 188.664L85.3826 188.456L85.7026 190.968H88.8546L89.2066 188.44L90.6306 188.648L90.1666 190.968H92.4066V192.104H87.9906V193.544H93.6226V194.696ZM82.4546 195.704H92.0066V200.184H90.5826V196.84H82.4546V195.704ZM92.4226 187.96H82.1506V186.824H92.4226V187.96ZM102.218 192.744L102.378 193.848C101.205 194.083 99.589 194.2 97.5304 194.2H95.3704V189.912H100.218V188.072H95.3544V186.936H101.626V191.032H96.7944V193.064H97.4984C99.653 193.064 101.226 192.957 102.218 192.744ZM106.314 194.84H104.89V192.312H102.602V191.144H104.89V189.32H102.602V188.168H104.89V186.136H106.314V194.84ZM96.8424 195.448H106.314V200.184H104.89V196.6H96.8424V195.448ZM125.865 192.872H123.689V200.12H122.281V186.136H123.689V191.704H125.865V192.872ZM121.129 195.656L120.281 196.712C119.599 196.264 118.921 195.645 118.249 194.856C117.577 194.067 117.119 193.293 116.873 192.536C116.639 193.379 116.201 194.211 115.561 195.032C114.932 195.853 114.217 196.531 113.417 197.064L112.537 196.008C113.615 195.336 114.484 194.429 115.145 193.288C115.807 192.147 116.137 190.941 116.137 189.672V187.336H117.593V189.608C117.593 190.867 117.924 192.029 118.585 193.096C119.247 194.163 120.095 195.016 121.129 195.656ZM138.525 199.768H129.069V195.352H130.493V198.616H138.525V199.768ZM136.781 191.608H133.869V190.44H136.781V186.136H138.205V196.296H136.781V191.608ZM127.485 187.24H133.757C133.693 189.107 133.106 190.685 131.997 191.976C130.898 193.267 129.41 194.184 127.533 194.728L126.813 193.576C128.264 193.213 129.474 192.568 130.445 191.64C131.416 190.712 132.002 189.635 132.205 188.408H127.485V187.24ZM155.084 195.432C155.916 195.912 156.332 196.573 156.332 197.416C156.332 198.259 155.916 198.92 155.084 199.4C154.252 199.88 153.079 200.12 151.564 200.12C150.071 200.12 148.903 199.88 148.06 199.4C147.228 198.92 146.812 198.259 146.812 197.416C146.812 196.573 147.228 195.912 148.06 195.432C148.903 194.941 150.071 194.696 151.564 194.696C153.079 194.696 154.252 194.941 155.084 195.432ZM151.564 195.848C150.54 195.848 149.735 195.987 149.148 196.264C148.572 196.541 148.284 196.925 148.284 197.416C148.284 197.907 148.572 198.291 149.148 198.568C149.735 198.835 150.54 198.968 151.564 198.968C152.62 198.968 153.436 198.835 154.012 198.568C154.599 198.291 154.892 197.907 154.892 197.416C154.892 196.925 154.599 196.541 154.012 196.264C153.436 195.987 152.62 195.848 151.564 195.848ZM151.916 192.712V191.576H154.828V189.88H152.076V188.744H154.828V186.136H156.252V194.792H154.828V192.712H151.916ZM151.9 187.208C151.804 188.989 151.207 190.515 150.108 191.784C149.02 193.043 147.537 193.997 145.66 194.648L144.844 193.496C146.231 193.133 147.436 192.488 148.46 191.56C149.484 190.621 150.108 189.56 150.332 188.376H145.532V187.208H151.9ZM170.096 199.928H161.008V195.448H170.096V199.928ZM168.672 198.792V196.584H162.416V198.792H168.672ZM170.096 194.712H168.672V191.816H166.384V190.648H168.672V186.136H170.096V194.712ZM166.624 189.528H158.576V188.376H166.624V189.528ZM165.024 190.728C165.632 191.155 165.936 191.715 165.936 192.408C165.936 193.101 165.632 193.661 165.024 194.088C164.416 194.515 163.642 194.728 162.704 194.728C161.765 194.728 160.992 194.515 160.384 194.088C159.776 193.661 159.472 193.101 159.472 192.408C159.472 191.715 159.776 191.155 160.384 190.728C160.992 190.301 161.765 190.088 162.704 190.088C163.642 190.088 164.416 190.301 165.024 190.728ZM164 193.288C164.362 193.064 164.544 192.771 164.544 192.408C164.544 192.045 164.362 191.752 164 191.528C163.648 191.304 163.216 191.192 162.704 191.192C162.202 191.192 161.77 191.304 161.408 191.528C161.056 191.752 160.88 192.045 160.88 192.408C160.88 192.771 161.056 193.064 161.408 193.288C161.77 193.512 162.202 193.624 162.704 193.624C163.205 193.624 163.637 193.512 164 193.288ZM160.592 187.544V186.376H164.656V187.544H160.592Z" fill="#EF4444"/>
<path d="M37.6901 219.96C38.0208 220.28 38.1861 220.669 38.1861 221.128C38.1861 221.587 38.0208 221.981 37.6901 222.312C37.3701 222.632 36.9755 222.792 36.5061 222.792C36.0475 222.792 35.6528 222.632 35.3221 222.312C35.0021 221.981 34.8421 221.587 34.8421 221.128C34.8421 220.669 35.0021 220.28 35.3221 219.96C35.6528 219.629 36.0475 219.464 36.5061 219.464C36.9648 219.464 37.3595 219.629 37.6901 219.96ZM60.1 227.928H50.692V222.2H52.116V223.912H58.676V222.168H60.1V227.928ZM60.052 214.776C60.052 216.728 59.9027 218.424 59.604 219.864H61.716V221.032H49.092V219.864H58.228C58.484 218.68 58.612 217.363 58.612 215.912H50.74V214.776H60.052ZM58.676 226.792V225.032H52.116V226.792H58.676ZM70.0878 220.696V219.528H72.9998V217.816H70.2638V216.632H72.9998V214.136H74.4238V222.392H72.9998V220.696H70.0878ZM70.0558 215.064C69.9384 216.877 69.3304 218.392 68.2318 219.608C67.1438 220.813 65.6718 221.709 63.8158 222.296L62.9838 221.144C64.3598 220.845 65.5704 220.248 66.6158 219.352C67.6611 218.445 68.2851 217.411 68.4878 216.248H63.7358V215.064H70.0558ZM74.4398 228.136H72.9998V224.28H65.0638V223.112H74.4398V228.136ZM89.6915 220.024H87.5955V224.44H86.1875V214.136H87.5955V218.824H89.6915V220.024ZM88.0755 227.704H78.7475V224.04H80.1555V226.568H88.0755V227.704ZM82.7795 215.72H78.7155V214.568H82.7795V215.72ZM84.9235 217.816H76.7155V216.68H84.9235V217.816ZM84.1395 220.984C84.1395 221.741 83.8302 222.349 83.2115 222.808C82.5928 223.256 81.7982 223.48 80.8275 223.48C79.8675 223.48 79.0782 223.256 78.4595 222.808C77.8408 222.349 77.5315 221.741 77.5315 220.984C77.5315 220.205 77.8355 219.592 78.4435 219.144C79.0622 218.696 79.8568 218.472 80.8275 218.472C81.7982 218.472 82.5928 218.696 83.2115 219.144C83.8302 219.592 84.1395 220.205 84.1395 220.984ZM82.7315 220.984C82.7315 220.557 82.5448 220.221 82.1715 219.976C81.8088 219.731 81.3608 219.608 80.8275 219.608C80.2942 219.608 79.8462 219.731 79.4835 219.976C79.1208 220.221 78.9395 220.557 78.9395 220.984C78.9395 221.389 79.1208 221.72 79.4835 221.976C79.8568 222.221 80.3048 222.344 80.8275 222.344C81.3608 222.344 81.8088 222.221 82.1715 221.976C82.5448 221.731 82.7315 221.4 82.7315 220.984ZM105.146 223.432C105.978 223.912 106.394 224.573 106.394 225.416C106.394 226.259 105.984 226.92 105.162 227.4C104.341 227.88 103.178 228.12 101.674 228.12C100.192 228.12 99.0344 227.88 98.2024 227.4C97.381 226.92 96.9704 226.259 96.9704 225.416C96.9704 224.573 97.381 223.912 98.2024 223.432C99.0344 222.941 100.192 222.696 101.674 222.696C103.168 222.696 104.325 222.941 105.146 223.432ZM95.1624 216.424V215.272H102.81V216.424H99.7544V216.888C99.7544 217.816 100.096 218.659 100.778 219.416C101.461 220.163 102.234 220.669 103.098 220.936L102.314 222.072C101.674 221.816 101.04 221.411 100.41 220.856C99.781 220.291 99.3277 219.699 99.0504 219.08C98.837 219.731 98.3837 220.381 97.6904 221.032C96.997 221.683 96.277 222.163 95.5304 222.472L94.7304 221.352C95.6904 221.011 96.5277 220.424 97.2424 219.592C97.957 218.749 98.3144 217.859 98.3144 216.92V216.424H95.1624ZM101.674 223.864C100.65 223.864 99.8504 224.003 99.2744 224.28C98.6984 224.547 98.4104 224.925 98.4104 225.416C98.4104 225.907 98.6984 226.291 99.2744 226.568C99.8504 226.835 100.65 226.968 101.674 226.968C102.709 226.968 103.514 226.835 104.09 226.568C104.666 226.291 104.954 225.907 104.954 225.416C104.954 224.925 104.666 224.547 104.09 224.28C103.514 224.003 102.709 223.864 101.674 223.864ZM104.89 218.824H102.282V217.656H104.89V214.136H106.314V222.808H104.89V218.824ZM120.222 228.12H118.798V220.248H115.678V219.048H118.798V214.136H120.222V228.12ZM117.102 223.736L116.254 224.792C115.571 224.344 114.894 223.725 114.222 222.936C113.55 222.147 113.091 221.368 112.846 220.6C112.611 221.443 112.174 222.28 111.534 223.112C110.905 223.933 110.195 224.605 109.406 225.128L108.51 224.088C109.587 223.416 110.457 222.509 111.118 221.368C111.779 220.227 112.11 219.021 112.11 217.752V215.336H113.566V217.688C113.566 218.947 113.897 220.109 114.558 221.176C115.219 222.243 116.067 223.096 117.102 223.736ZM129.522 228.136H128.098V223.112H122.53V221.976H135.154V223.112H129.522V228.136ZM134.674 219.432L134.002 220.584C132.935 220.381 131.895 219.965 130.882 219.336C129.879 218.707 129.197 218.013 128.834 217.256C128.535 218.003 127.879 218.696 126.866 219.336C125.853 219.965 124.791 220.387 123.682 220.6L123.042 219.448C124.354 219.277 125.522 218.803 126.546 218.024C127.581 217.245 128.098 216.387 128.098 215.448V214.568H129.586V215.448C129.586 216.067 129.853 216.68 130.386 217.288C130.919 217.885 131.575 218.376 132.354 218.76C133.133 219.133 133.906 219.357 134.674 219.432ZM148.406 219.208L147.766 220.344C146.667 220.195 145.638 219.853 144.678 219.32C143.718 218.787 143.051 218.195 142.678 217.544C142.379 218.205 141.755 218.803 140.806 219.336C139.867 219.859 138.806 220.195 137.622 220.344L136.998 219.24C137.787 219.176 138.539 219.011 139.254 218.744C139.979 218.477 140.592 218.109 141.094 217.64C141.595 217.16 141.878 216.637 141.942 216.072H137.558V214.92H147.814V216.072H143.446C143.52 216.637 143.83 217.16 144.374 217.64C144.918 218.109 145.547 218.477 146.262 218.744C146.987 219 147.702 219.155 148.406 219.208ZM143.446 225.08H142.038V222.408H136.374V221.256H148.998V222.408H143.446V225.08ZM147.558 227.704H137.878V223.656H139.286V226.552H147.558V227.704ZM162.949 224.056L162.117 225.112C161.402 224.696 160.698 224.093 160.005 223.304C159.311 222.515 158.853 221.747 158.629 221C158.415 221.789 157.978 222.589 157.317 223.4C156.666 224.211 155.925 224.877 155.093 225.4L154.181 224.36C155.279 223.731 156.17 222.856 156.853 221.736C157.546 220.616 157.893 219.411 157.893 218.12V216.76H154.693V215.592H162.437V216.76H159.349V218.104C159.349 219.405 159.685 220.579 160.357 221.624C161.029 222.659 161.893 223.469 162.949 224.056ZM164.485 220.312H161.669V219.112H164.485V214.136H165.909V228.12H164.485V220.312ZM181.288 221.144H179.064V228.12H177.64V214.136H179.064V219.96H181.288V221.144ZM174.44 216.2H170.264V215.048H174.44V216.2ZM176.472 218.6H168.184V217.464H176.472V218.6ZM175.688 222.344C175.688 223.187 175.384 223.885 174.776 224.44C174.168 224.995 173.374 225.272 172.392 225.272C171.411 225.272 170.611 225 169.992 224.456C169.384 223.901 169.08 223.197 169.08 222.344C169.08 221.501 169.39 220.797 170.008 220.232C170.627 219.667 171.422 219.384 172.392 219.384C173.374 219.384 174.168 219.667 174.776 220.232C175.384 220.787 175.688 221.491 175.688 222.344ZM173.768 223.608C174.12 223.277 174.296 222.856 174.296 222.344C174.296 221.832 174.115 221.411 173.752 221.08C173.39 220.739 172.936 220.568 172.392 220.568C171.848 220.568 171.395 220.733 171.032 221.064C170.68 221.395 170.504 221.821 170.504 222.344C170.504 222.856 170.68 223.277 171.032 223.608C171.384 223.928 171.838 224.088 172.392 224.088C172.968 224.088 173.427 223.928 173.768 223.608Z" fill="#EF4444"/>
<path d="M37.6901 247.96C38.0208 248.28 38.1861 248.669 38.1861 249.128C38.1861 249.587 38.0208 249.981 37.6901 250.312C37.3701 250.632 36.9755 250.792 36.5061 250.792C36.0475 250.792 35.6528 250.632 35.3221 250.312C35.0021 249.981 34.8421 249.587 34.8421 249.128C34.8421 248.669 35.0021 248.28 35.3221 247.96C35.6528 247.629 36.0475 247.464 36.5061 247.464C36.9648 247.464 37.3595 247.629 37.6901 247.96ZM59.412 251.432C60.244 251.912 60.66 252.573 60.66 253.416C60.66 254.259 60.2493 254.92 59.428 255.4C58.6067 255.88 57.444 256.12 55.94 256.12C54.4573 256.12 53.3 255.88 52.468 255.4C51.6467 254.92 51.236 254.259 51.236 253.416C51.236 252.573 51.6467 251.912 52.468 251.432C53.3 250.941 54.4573 250.696 55.94 250.696C57.4333 250.696 58.5907 250.941 59.412 251.432ZM49.428 244.424V243.272H57.076V244.424H54.02V244.888C54.02 245.816 54.3613 246.659 55.044 247.416C55.7267 248.163 56.5 248.669 57.364 248.936L56.58 250.072C55.94 249.816 55.3053 249.411 54.676 248.856C54.0467 248.291 53.5933 247.699 53.316 247.08C53.1027 247.731 52.6493 248.381 51.956 249.032C51.2627 249.683 50.5427 250.163 49.796 250.472L48.996 249.352C49.956 249.011 50.7933 248.424 51.508 247.592C52.2227 246.749 52.58 245.859 52.58 244.92V244.424H49.428ZM55.94 251.864C54.916 251.864 54.116 252.003 53.54 252.28C52.964 252.547 52.676 252.925 52.676 253.416C52.676 253.907 52.964 254.291 53.54 254.568C54.116 254.835 54.916 254.968 55.94 254.968C56.9747 254.968 57.78 254.835 58.356 254.568C58.932 254.291 59.22 253.907 59.22 253.416C59.22 252.925 58.932 252.547 58.356 252.28C57.78 252.003 56.9747 251.864 55.94 251.864ZM59.156 246.824H56.548V245.656H59.156V242.136H60.58V250.808H59.156V246.824ZM70.8878 248.44L70.0558 249.56C69.3944 249.261 68.7704 248.835 68.1838 248.28C67.6078 247.725 67.1758 247.123 66.8878 246.472C66.6851 247.176 66.2744 247.843 65.6558 248.472C65.0371 249.101 64.3278 249.603 63.5278 249.976L62.6638 248.856C63.7091 248.419 64.5464 247.789 65.1758 246.968C65.8158 246.136 66.1358 245.187 66.1358 244.12V242.792H67.5758V244.072C67.5758 245.107 67.9064 246.019 68.5678 246.808C69.2291 247.597 70.0024 248.141 70.8878 248.44ZM73.9438 253.384C73.9438 254.237 73.5224 254.904 72.6798 255.384C71.8478 255.875 70.6958 256.12 69.2238 256.12C67.7518 256.12 66.5944 255.875 65.7518 255.384C64.9198 254.904 64.5038 254.237 64.5038 253.384C64.5038 252.541 64.9198 251.875 65.7518 251.384C66.5944 250.893 67.7518 250.648 69.2238 250.648C70.6958 250.648 71.8478 250.893 72.6798 251.384C73.5224 251.875 73.9438 252.541 73.9438 253.384ZM71.6078 252.232C71.0318 251.955 70.2371 251.816 69.2238 251.816C68.2104 251.816 67.4158 251.955 66.8398 252.232C66.2638 252.509 65.9758 252.893 65.9758 253.384C65.9758 253.875 66.2638 254.264 66.8398 254.552C67.4158 254.829 68.2104 254.968 69.2238 254.968C70.2371 254.968 71.0318 254.829 71.6078 254.552C72.1944 254.264 72.4878 253.875 72.4878 253.384C72.4878 252.893 72.1944 252.509 71.6078 252.232ZM75.8318 246.968H73.7518V250.664H72.3278V242.136H73.7518V245.8H75.8318V246.968ZM87.1155 251.896C87.9368 252.323 88.3475 252.92 88.3475 253.688C88.3475 254.456 87.9368 255.053 87.1155 255.48C86.3048 255.907 85.1475 256.12 83.6435 256.12C82.1395 256.12 80.9875 255.907 80.1875 255.48C79.3875 255.064 78.9875 254.467 78.9875 253.688C78.9875 252.909 79.3875 252.307 80.1875 251.88C80.9875 251.453 82.1395 251.24 83.6435 251.24C85.1475 251.24 86.3048 251.459 87.1155 251.896ZM83.6435 252.344C82.6408 252.344 81.8568 252.467 81.2915 252.712C80.7262 252.947 80.4435 253.272 80.4435 253.688C80.4435 254.104 80.7208 254.435 81.2755 254.68C81.8408 254.915 82.6302 255.032 83.6435 255.032C84.6675 255.032 85.4622 254.915 86.0275 254.68C86.5928 254.445 86.8755 254.115 86.8755 253.688C86.8755 253.272 86.5875 252.947 86.0115 252.712C85.4462 252.467 84.6568 252.344 83.6435 252.344ZM84.6675 246.984V245.848H86.8435V242.136H88.2675V251.112H86.8435V249.576H84.6675V248.456H86.8435V246.984H84.6675ZM82.8275 243.48H78.7635V242.328H82.8275V243.48ZM84.4115 245.496H76.8115V244.36H84.4115V245.496ZM83.9795 248.392C83.9795 249.075 83.6755 249.629 83.0675 250.056C82.4595 250.483 81.6862 250.696 80.7475 250.696C79.8088 250.696 79.0355 250.488 78.4275 250.072C77.8195 249.645 77.5155 249.085 77.5155 248.392C77.5155 247.688 77.8142 247.128 78.4115 246.712C79.0195 246.285 79.7982 246.072 80.7475 246.072C81.6862 246.072 82.4595 246.285 83.0675 246.712C83.6755 247.128 83.9795 247.688 83.9795 248.392ZM82.0275 249.272C82.3902 249.048 82.5715 248.755 82.5715 248.392C82.5715 248.029 82.3902 247.736 82.0275 247.512C81.6755 247.277 81.2488 247.16 80.7475 247.16C80.2462 247.16 79.8142 247.277 79.4515 247.512C79.0888 247.736 78.9075 248.029 78.9075 248.392C78.9075 248.755 79.0888 249.048 79.4515 249.272C79.8142 249.496 80.2462 249.608 80.7475 249.608C81.2488 249.608 81.6755 249.496 82.0275 249.272ZM94.2344 249V248.104H102.554L101.418 246.2L101.642 245.944L104.778 248.552L101.642 251.144L101.418 250.888L102.554 249H94.2344ZM119.751 252.808C118.407 252.968 116.86 253.091 115.111 253.176C113.468 253.261 111.948 253.304 110.551 253.304L110.343 252.088C111.985 252.088 113.26 252.077 114.167 252.056V249.816C113.249 249.699 112.497 249.341 111.911 248.744C111.335 248.147 111.047 247.416 111.047 246.552C111.047 245.56 111.409 244.739 112.135 244.088C112.86 243.437 113.767 243.112 114.855 243.112C115.953 243.112 116.865 243.432 117.591 244.072C118.327 244.701 118.695 245.528 118.695 246.552C118.695 247.416 118.407 248.141 117.831 248.728C117.255 249.315 116.508 249.677 115.591 249.816V251.992C117.457 251.917 118.801 251.816 119.623 251.688L119.751 252.808ZM121.895 256.12H120.487V242.136H121.895V256.12ZM117.223 246.536C117.223 245.875 116.993 245.347 116.535 244.952C116.087 244.557 115.527 244.36 114.855 244.36C114.193 244.36 113.633 244.568 113.175 244.984C112.716 245.389 112.487 245.907 112.487 246.536C112.487 247.155 112.711 247.661 113.159 248.056C113.617 248.44 114.183 248.632 114.855 248.632C115.505 248.632 116.06 248.44 116.519 248.056C116.988 247.661 117.223 247.155 117.223 246.536ZM135.211 247.736H131.179V248.776H136.795V249.928H124.171V248.776H129.755V247.736H125.723V242.648H135.163V243.752H127.147V244.648H134.939V245.704H127.147V246.632H135.211V247.736ZM135.659 256.008H125.691V252.824H133.851V251.8H125.659V250.712H135.259V253.832H127.115V254.92H135.659V256.008ZM149.55 256.12H148.126V242.136H149.55V256.12ZM138.51 248.12C138.51 246.659 138.814 245.475 139.422 244.568C140.03 243.651 140.926 243.192 142.11 243.192C143.294 243.192 144.185 243.651 144.782 244.568C145.39 245.475 145.694 246.664 145.694 248.136C145.694 249.608 145.39 250.803 144.782 251.72C144.185 252.627 143.294 253.08 142.11 253.08C140.926 253.08 140.03 252.621 139.422 251.704C138.814 250.787 138.51 249.592 138.51 248.12ZM143.726 250.84C144.1 250.157 144.286 249.256 144.286 248.136C144.286 247.016 144.1 246.115 143.726 245.432C143.353 244.749 142.814 244.408 142.11 244.408C141.417 244.408 140.884 244.749 140.51 245.432C140.137 246.115 139.95 247.016 139.95 248.136C139.95 249.256 140.137 250.157 140.51 250.84C140.884 251.512 141.417 251.848 142.11 251.848C142.814 251.848 143.353 251.512 143.726 250.84ZM162.178 251.896C162.999 252.323 163.41 252.92 163.41 253.688C163.41 254.456 162.999 255.053 162.178 255.48C161.367 255.907 160.21 256.12 158.706 256.12C157.202 256.12 156.05 255.907 155.25 255.48C154.45 255.064 154.05 254.467 154.05 253.688C154.05 252.909 154.45 252.307 155.25 251.88C156.05 251.453 157.202 251.24 158.706 251.24C160.21 251.24 161.367 251.459 162.178 251.896ZM158.706 252.344C157.703 252.344 156.919 252.467 156.354 252.712C155.789 252.947 155.506 253.272 155.506 253.688C155.506 254.104 155.783 254.435 156.338 254.68C156.903 254.915 157.693 255.032 158.706 255.032C159.73 255.032 160.525 254.915 161.09 254.68C161.655 254.445 161.938 254.115 161.938 253.688C161.938 253.272 161.65 252.947 161.074 252.712C160.509 252.467 159.719 252.344 158.706 252.344ZM159.73 246.984V245.848H161.906V242.136H163.33V251.112H161.906V249.576H159.73V248.456H161.906V246.984H159.73ZM157.89 243.48H153.826V242.328H157.89V243.48ZM159.474 245.496H151.874V244.36H159.474V245.496ZM159.042 248.392C159.042 249.075 158.738 249.629 158.13 250.056C157.522 250.483 156.749 250.696 155.81 250.696C154.871 250.696 154.098 250.488 153.49 250.072C152.882 249.645 152.578 249.085 152.578 248.392C152.578 247.688 152.877 247.128 153.474 246.712C154.082 246.285 154.861 246.072 155.81 246.072C156.749 246.072 157.522 246.285 158.13 246.712C158.738 247.128 159.042 247.688 159.042 248.392ZM157.09 249.272C157.453 249.048 157.634 248.755 157.634 248.392C157.634 248.029 157.453 247.736 157.09 247.512C156.738 247.277 156.311 247.16 155.81 247.16C155.309 247.16 154.877 247.277 154.514 247.512C154.151 247.736 153.97 248.029 153.97 248.392C153.97 248.755 154.151 249.048 154.514 249.272C154.877 249.496 155.309 249.608 155.81 249.608C156.311 249.608 156.738 249.496 157.09 249.272ZM176.769 250.184H170.465V243.064H171.889V245.464H175.361V243.048H176.769V250.184ZM181.377 242.136V252.328H179.953V248.68H177.537V247.512H179.953V245.608H177.537V244.44H179.953V242.136H181.377ZM181.697 255.688H172.305V251.416H173.713V254.536H181.697V255.688ZM175.361 249.048V246.584H171.889V249.048H175.361ZM192.469 253.368C191.445 253.507 189.839 253.64 187.653 253.768C186.245 253.843 184.922 253.88 183.685 253.88L183.477 252.696C185.055 252.696 186.293 252.675 187.189 252.632V251.368C186.399 251.261 185.759 251 185.269 250.584C184.789 250.157 184.549 249.64 184.549 249.032C184.549 248.317 184.858 247.741 185.477 247.304C186.106 246.856 186.911 246.632 187.893 246.632C188.895 246.632 189.701 246.851 190.309 247.288C190.927 247.725 191.237 248.307 191.237 249.032C191.237 249.651 190.997 250.173 190.517 250.6C190.037 251.016 189.397 251.272 188.597 251.368V252.552C190.058 252.477 191.301 252.376 192.325 252.248L192.469 253.368ZM196.773 249.544H194.613V256.12H193.221V242.136H194.613V248.36H196.773V249.544ZM192.117 246.056H183.813V244.888H192.117V246.056ZM189.781 249.032C189.781 248.669 189.605 248.371 189.253 248.136C188.901 247.901 188.447 247.784 187.893 247.784C187.349 247.784 186.901 247.907 186.549 248.152C186.197 248.387 186.021 248.68 186.021 249.032C186.021 249.373 186.197 249.667 186.549 249.912C186.901 250.157 187.349 250.28 187.893 250.28C188.447 250.28 188.901 250.157 189.253 249.912C189.605 249.667 189.781 249.373 189.781 249.032ZM189.861 243.976H185.877V242.824H189.861V243.976Z" fill="#EF4444"/>
</svg>
