<svg width="249" height="350" viewBox="0 0 249 350" fill="none" xmlns="http://www.w3.org/2000/svg">
<rect x="0.5" width="248" height="350" rx="12" fill="#F2F4F6"/>
<rect x="24.5" y="32" width="200" height="40" rx="12" fill="#354152"/>
<path d="M62.148 51.128H60.052V54.84H58.404V46.008H60.052V49.784H62.148V51.128ZM50.756 55.592H60.068V60.28H58.42V56.904H50.756V55.592ZM57.124 49.576H48.868V48.296H57.124V49.576ZM56.356 52.504C56.356 53.1973 56.036 53.768 55.396 54.216C54.7667 54.6533 53.972 54.872 53.012 54.872C52.052 54.872 51.2467 54.6533 50.596 54.216C49.956 53.768 49.636 53.1973 49.636 52.504C49.636 51.7893 49.956 51.2133 50.596 50.776C51.236 50.328 52.0413 50.104 53.012 50.104C53.972 50.104 54.7667 50.328 55.396 50.776C56.036 51.2133 56.356 51.7893 56.356 52.504ZM54.724 52.504C54.724 52.1733 54.5533 51.9013 54.212 51.688C53.8813 51.4747 53.4813 51.368 53.012 51.368C52.532 51.368 52.1213 51.4747 51.78 51.688C51.4387 51.9013 51.268 52.1733 51.268 52.504C51.268 52.824 51.4387 53.0907 51.78 53.304C52.132 53.5173 52.5427 53.624 53.012 53.624C53.4813 53.624 53.8813 53.5173 54.212 53.304C54.5533 53.0907 54.724 52.824 54.724 52.504ZM50.932 47.48V46.168H55.108V47.48H50.932ZM75.7038 58.216H62.8238V56.888H65.8318V52.44H67.4798V56.888H69.2558V52.44H70.9038V56.888H75.7038V58.216ZM74.1678 47.576C74.1678 50.84 73.9598 53.3947 73.5438 55.24L71.9758 55C72.3278 53.688 72.5038 51.656 72.5038 48.904H64.3118V47.576H74.1678ZM93.0306 57.448C93.0306 58.3013 92.5933 58.9787 91.7186 59.48C90.844 59.992 89.6386 60.248 88.1026 60.248C86.5773 60.248 85.3773 59.992 84.5026 59.48C83.628 58.9787 83.1906 58.3013 83.1906 57.448C83.1906 56.584 83.628 55.896 84.5026 55.384C85.3773 54.872 86.5773 54.616 88.1026 54.616C89.6386 54.616 90.844 54.872 91.7186 55.384C92.5933 55.896 93.0306 56.584 93.0306 57.448ZM92.8866 54.696H91.3186V50.952H89.9426V54.088H88.3906V46.264H89.9426V49.576H91.3186V46.008H92.8866V54.696ZM88.0386 52.488L87.2066 53.704C86.6946 53.4693 86.1613 53.0907 85.6066 52.568C85.0626 52.0453 84.7 51.5493 84.5186 51.08C84.3266 51.656 83.9693 52.2373 83.4466 52.824C82.924 53.4 82.3533 53.8427 81.7346 54.152L80.7906 53C81.6653 52.52 82.364 51.8853 82.8866 51.096C83.42 50.3067 83.6866 49.4213 83.6866 48.44V46.888H85.2706V48.392C85.2706 49.3413 85.5373 50.168 86.0706 50.872C86.6146 51.5653 87.2706 52.104 88.0386 52.488ZM91.3346 57.448C91.3346 56.9787 91.0466 56.616 90.4706 56.36C89.8946 56.0933 89.1053 55.96 88.1026 55.96C87.1 55.96 86.3106 56.0933 85.7346 56.36C85.1693 56.616 84.8866 56.9787 84.8866 57.448C84.8866 57.9067 85.1693 58.2693 85.7346 58.536C86.3106 58.8027 87.1 58.936 88.1026 58.936C89.1053 58.936 89.8946 58.8027 90.4706 58.536C91.0466 58.2693 91.3346 57.9067 91.3346 57.448ZM106.41 60.28H96.6664V57.288H104.266V56.504H96.6184V55.368H105.898V58.344H98.3144V59.144H106.41V60.28ZM103.418 53.192L103.562 54.376C101.258 54.6853 98.2664 54.8613 94.5864 54.904L94.3464 53.592C95.9997 53.592 97.253 53.5867 98.1064 53.576V52.904C97.3277 52.8187 96.7144 52.6267 96.2664 52.328C95.8184 52.0187 95.5944 51.624 95.5944 51.144C95.5944 50.5893 95.893 50.1467 96.4904 49.816C97.0877 49.4853 97.8877 49.32 98.8904 49.32C99.893 49.32 100.698 49.4853 101.306 49.816C101.914 50.1467 102.218 50.5893 102.218 51.144C102.218 51.6133 101.994 52.0027 101.546 52.312C101.109 52.6107 100.506 52.8027 99.7384 52.888V53.512C101.509 53.4053 102.736 53.2987 103.418 53.192ZM107.946 51.336H105.898V54.6H104.266V46.008H105.898V49.976H107.946V51.336ZM102.922 49H94.8904V47.8H102.922V49ZM96.9384 47.24V46.072H100.922V47.24H96.9384ZM100.618 51.144C100.618 50.92 100.458 50.744 100.138 50.616C99.829 50.488 99.413 50.424 98.8904 50.424C98.3784 50.424 97.9624 50.488 97.6424 50.616C97.333 50.744 97.1784 50.92 97.1784 51.144C97.1784 51.3573 97.333 51.528 97.6424 51.656C97.9624 51.784 98.3784 51.848 98.8904 51.848C99.413 51.848 99.829 51.784 100.138 51.656C100.458 51.528 100.618 51.3573 100.618 51.144ZM109.23 53.352C109.23 52.9573 109.326 52.68 109.518 52.52C109.71 52.36 109.939 52.28 110.206 52.28C110.483 52.28 110.718 52.36 110.91 52.52C111.113 52.68 111.214 52.9573 111.214 53.352C111.214 53.736 111.113 54.0133 110.91 54.184C110.718 54.3547 110.483 54.44 110.206 54.44C109.939 54.44 109.71 54.3547 109.518 54.184C109.326 54.0133 109.23 53.736 109.23 53.352ZM124.695 57.464C124.695 58.3173 124.263 58.9947 123.399 59.496C122.546 60.008 121.357 60.264 119.831 60.264C118.317 60.264 117.133 60.008 116.279 59.496C115.426 58.9947 114.999 58.3173 114.999 57.464C114.999 56.6 115.426 55.912 116.279 55.4C117.133 54.888 118.317 54.632 119.831 54.632C121.357 54.632 122.546 54.888 123.399 55.4C124.263 55.912 124.695 56.6 124.695 57.464ZM113.335 48.28V46.92H120.839V48.28H117.991V48.328C117.991 49.3413 118.306 50.2267 118.935 50.984C119.575 51.7413 120.343 52.2587 121.239 52.536L120.327 53.832C119.698 53.5867 119.079 53.1973 118.471 52.664C117.874 52.1307 117.431 51.5493 117.143 50.92C116.941 51.592 116.509 52.248 115.847 52.888C115.197 53.5173 114.503 53.9707 113.767 54.248L112.775 52.968C113.81 52.584 114.653 51.9867 115.303 51.176C115.965 50.3547 116.295 49.432 116.295 48.408V48.28H113.335ZM120.615 50.824V49.464H122.935V46.008H124.583V54.584H122.935V50.824H120.615ZM119.831 55.976C118.85 55.976 118.082 56.1093 117.527 56.376C116.973 56.632 116.695 56.9947 116.695 57.464C116.695 57.9227 116.973 58.2853 117.527 58.552C118.082 58.808 118.85 58.936 119.831 58.936C120.834 58.936 121.613 58.808 122.167 58.552C122.733 58.296 123.015 57.9333 123.015 57.464C123.015 56.9947 122.738 56.632 122.183 56.376C121.629 56.1093 120.845 55.976 119.831 55.976ZM138.427 60.264H136.795V52.296H134.011V50.92H136.795V46.008H138.427V60.264ZM135.355 55.8L134.363 57.016C133.723 56.6107 133.067 56.0027 132.395 55.192C131.734 54.3813 131.28 53.6027 131.035 52.856C130.79 53.6987 130.342 54.5307 129.691 55.352C129.051 56.1627 128.347 56.8027 127.579 57.272L126.555 56.088C127.675 55.352 128.555 54.4187 129.195 53.288C129.835 52.1573 130.155 50.92 130.155 49.576V47.224H131.835V49.48C131.835 50.8133 132.15 52.0347 132.779 53.144C133.419 54.2427 134.278 55.128 135.355 55.8ZM150.623 46.008H152.271V53.992H150.623V46.008ZM152.287 60.088H142.943V54.792H152.287V60.088ZM150.639 58.776V56.072H144.607V58.776H150.639ZM149.151 52.248L148.191 53.528C147.562 53.2613 146.932 52.8507 146.303 52.296C145.674 51.7307 145.215 51.128 144.927 50.488C144.714 51.2027 144.292 51.8693 143.663 52.488C143.044 53.1067 142.346 53.576 141.567 53.896L140.559 52.6C141.615 52.184 142.463 51.5653 143.103 50.744C143.743 49.912 144.063 48.9573 144.063 47.88V46.616H145.743V47.816C145.743 48.8613 146.084 49.7893 146.767 50.6C147.45 51.4 148.244 51.9493 149.151 52.248ZM163.155 55.144L163.331 56.488C161.795 56.7653 159.667 56.9147 156.947 56.936L155.187 56.952V51.192H160.019V48.568H155.123V47.256H161.651V52.504H156.819V55.592C159.485 55.592 161.597 55.4427 163.155 55.144ZM166.099 60.264H164.467V46.008H166.099V60.264ZM183.49 46.008V50.136H185.586V51.512H183.49V56.344H181.842V46.008H183.49ZM183.906 59.832H174.37V55.304H176.018V58.504H183.906V59.832ZM179.49 53.8H172.866V47.144H179.49V53.8ZM177.842 52.504V48.44H174.514V52.504H177.842ZM198.597 50.568L197.877 51.848C196.8 51.72 195.765 51.3893 194.773 50.856C193.781 50.3227 193.093 49.72 192.709 49.048C192.379 49.7413 191.728 50.3547 190.757 50.888C189.797 51.4107 188.731 51.736 187.557 51.864L186.853 50.584C188.069 50.4987 189.147 50.2 190.085 49.688C191.035 49.176 191.605 48.5307 191.797 47.752H187.461V46.424H197.957V47.752H193.653C193.803 48.264 194.149 48.7387 194.693 49.176C195.248 49.6027 195.867 49.9333 196.549 50.168C197.243 50.392 197.925 50.5253 198.597 50.568ZM199.141 54.296H186.261V52.968H191.845V51.064H193.477V52.968H199.141V54.296ZM187.765 55.48H197.477V60.312H195.845V56.808H187.765V55.48Z" fill="white"/>
<path d="M37.6901 95.96C38.0208 96.28 38.1861 96.6693 38.1861 97.128C38.1861 97.5867 38.0208 97.9813 37.6901 98.312C37.3701 98.632 36.9755 98.792 36.5061 98.792C36.0475 98.792 35.6528 98.632 35.3221 98.312C35.0021 97.9813 34.8421 97.5867 34.8421 97.128C34.8421 96.6693 35.0021 96.28 35.3221 95.96C35.6528 95.6293 36.0475 95.464 36.5061 95.464C36.9648 95.464 37.3595 95.6293 37.6901 95.96ZM62.148 95.128H60.052V98.84H58.404V90.008H60.052V93.784H62.148V95.128ZM50.756 99.592H60.068V104.28H58.42V100.904H50.756V99.592ZM57.124 93.576H48.868V92.296H57.124V93.576ZM56.356 96.504C56.356 97.1973 56.036 97.768 55.396 98.216C54.7667 98.6533 53.972 98.872 53.012 98.872C52.052 98.872 51.2467 98.6533 50.596 98.216C49.956 97.768 49.636 97.1973 49.636 96.504C49.636 95.7893 49.956 95.2133 50.596 94.776C51.236 94.328 52.0413 94.104 53.012 94.104C53.972 94.104 54.7667 94.328 55.396 94.776C56.036 95.2133 56.356 95.7893 56.356 96.504ZM54.724 96.504C54.724 96.1733 54.5533 95.9013 54.212 95.688C53.8813 95.4747 53.4813 95.368 53.012 95.368C52.532 95.368 52.1213 95.4747 51.78 95.688C51.4387 95.9013 51.268 96.1733 51.268 96.504C51.268 96.824 51.4387 97.0907 51.78 97.304C52.132 97.5173 52.5427 97.624 53.012 97.624C53.4813 97.624 53.8813 97.5173 54.212 97.304C54.5533 97.0907 54.724 96.824 54.724 96.504ZM50.932 91.48V90.168H55.108V91.48H50.932ZM75.7038 102.216H62.8238V100.888H65.8318V96.44H67.4798V100.888H69.2558V96.44H70.9038V100.888H75.7038V102.216ZM74.1678 91.576C74.1678 94.84 73.9598 97.3947 73.5438 99.24L71.9758 99C72.3278 97.688 72.5038 95.656 72.5038 92.904H64.3118V91.576H74.1678ZM93.0306 101.448C93.0306 102.301 92.5933 102.979 91.7186 103.48C90.844 103.992 89.6386 104.248 88.1026 104.248C86.5773 104.248 85.3773 103.992 84.5026 103.48C83.628 102.979 83.1906 102.301 83.1906 101.448C83.1906 100.584 83.628 99.896 84.5026 99.384C85.3773 98.872 86.5773 98.616 88.1026 98.616C89.6386 98.616 90.844 98.872 91.7186 99.384C92.5933 99.896 93.0306 100.584 93.0306 101.448ZM92.8866 98.696H91.3186V94.952H89.9426V98.088H88.3906V90.264H89.9426V93.576H91.3186V90.008H92.8866V98.696ZM88.0386 96.488L87.2066 97.704C86.6946 97.4693 86.1613 97.0907 85.6066 96.568C85.0626 96.0453 84.7 95.5493 84.5186 95.08C84.3266 95.656 83.9693 96.2373 83.4466 96.824C82.924 97.4 82.3533 97.8427 81.7346 98.152L80.7906 97C81.6653 96.52 82.364 95.8853 82.8866 95.096C83.42 94.3067 83.6866 93.4213 83.6866 92.44V90.888H85.2706V92.392C85.2706 93.3413 85.5373 94.168 86.0706 94.872C86.6146 95.5653 87.2706 96.104 88.0386 96.488ZM91.3346 101.448C91.3346 100.979 91.0466 100.616 90.4706 100.36C89.8946 100.093 89.1053 99.96 88.1026 99.96C87.1 99.96 86.3106 100.093 85.7346 100.36C85.1693 100.616 84.8866 100.979 84.8866 101.448C84.8866 101.907 85.1693 102.269 85.7346 102.536C86.3106 102.803 87.1 102.936 88.1026 102.936C89.1053 102.936 89.8946 102.803 90.4706 102.536C91.0466 102.269 91.3346 101.907 91.3346 101.448ZM106.41 104.28H96.6664V101.288H104.266V100.504H96.6184V99.368H105.898V102.344H98.3144V103.144H106.41V104.28ZM103.418 97.192L103.562 98.376C101.258 98.6853 98.2664 98.8613 94.5864 98.904L94.3464 97.592C95.9997 97.592 97.253 97.5867 98.1064 97.576V96.904C97.3277 96.8187 96.7144 96.6267 96.2664 96.328C95.8184 96.0187 95.5944 95.624 95.5944 95.144C95.5944 94.5893 95.893 94.1467 96.4904 93.816C97.0877 93.4853 97.8877 93.32 98.8904 93.32C99.893 93.32 100.698 93.4853 101.306 93.816C101.914 94.1467 102.218 94.5893 102.218 95.144C102.218 95.6133 101.994 96.0027 101.546 96.312C101.109 96.6107 100.506 96.8027 99.7384 96.888V97.512C101.509 97.4053 102.736 97.2987 103.418 97.192ZM107.946 95.336H105.898V98.6H104.266V90.008H105.898V93.976H107.946V95.336ZM102.922 93H94.8904V91.8H102.922V93ZM96.9384 91.24V90.072H100.922V91.24H96.9384ZM100.618 95.144C100.618 94.92 100.458 94.744 100.138 94.616C99.829 94.488 99.413 94.424 98.8904 94.424C98.3784 94.424 97.9624 94.488 97.6424 94.616C97.333 94.744 97.1784 94.92 97.1784 95.144C97.1784 95.3573 97.333 95.528 97.6424 95.656C97.9624 95.784 98.3784 95.848 98.8904 95.848C99.413 95.848 99.829 95.784 100.138 95.656C100.458 95.528 100.618 95.3573 100.618 95.144ZM124.617 101.464C124.617 102.317 124.185 102.995 123.321 103.496C122.468 104.008 121.279 104.264 119.753 104.264C118.239 104.264 117.055 104.008 116.201 103.496C115.348 102.995 114.921 102.317 114.921 101.464C114.921 100.6 115.348 99.912 116.201 99.4C117.055 98.888 118.239 98.632 119.753 98.632C121.279 98.632 122.468 98.888 123.321 99.4C124.185 99.912 124.617 100.6 124.617 101.464ZM113.257 92.28V90.92H120.761V92.28H117.913V92.328C117.913 93.3413 118.228 94.2267 118.857 94.984C119.497 95.7413 120.265 96.2587 121.161 96.536L120.249 97.832C119.62 97.5867 119.001 97.1973 118.393 96.664C117.796 96.1307 117.353 95.5493 117.065 94.92C116.863 95.592 116.431 96.248 115.769 96.888C115.119 97.5173 114.425 97.9707 113.689 98.248L112.697 96.968C113.732 96.584 114.575 95.9867 115.225 95.176C115.887 94.3547 116.217 93.432 116.217 92.408V92.28H113.257ZM120.537 94.824V93.464H122.857V90.008H124.505V98.584H122.857V94.824H120.537ZM119.753 99.976C118.772 99.976 118.004 100.109 117.449 100.376C116.895 100.632 116.617 100.995 116.617 101.464C116.617 101.923 116.895 102.285 117.449 102.552C118.004 102.808 118.772 102.936 119.753 102.936C120.756 102.936 121.535 102.808 122.089 102.552C122.655 102.296 122.937 101.933 122.937 101.464C122.937 100.995 122.66 100.632 122.105 100.376C121.551 100.109 120.767 99.976 119.753 99.976ZM138.349 104.264H136.717V96.296H133.933V94.92H136.717V90.008H138.349V104.264ZM135.277 99.8L134.285 101.016C133.645 100.611 132.989 100.003 132.317 99.192C131.656 98.3813 131.202 97.6027 130.957 96.856C130.712 97.6987 130.264 98.5307 129.613 99.352C128.973 100.163 128.269 100.803 127.501 101.272L126.477 100.088C127.597 99.352 128.477 98.4187 129.117 97.288C129.757 96.1573 130.077 94.92 130.077 93.576V91.224H131.757V93.48C131.757 94.8133 132.072 96.0347 132.701 97.144C133.341 98.2427 134.2 99.128 135.277 99.8ZM141.121 97.352C141.121 96.9573 141.217 96.68 141.409 96.52C141.601 96.36 141.83 96.28 142.097 96.28C142.374 96.28 142.609 96.36 142.801 96.52C143.003 96.68 143.105 96.9573 143.105 97.352C143.105 97.736 143.003 98.0133 142.801 98.184C142.609 98.3547 142.374 98.44 142.097 98.44C141.83 98.44 141.601 98.3547 141.409 98.184C141.217 98.0133 141.121 97.736 141.121 97.352ZM151.962 104.28H150.33V99.096H144.73V97.8H157.61V99.096H151.962V104.28ZM157.066 95.064L156.314 96.392C155.237 96.2107 154.197 95.8053 153.194 95.176C152.202 94.5467 151.53 93.8427 151.178 93.064C150.879 93.832 150.234 94.5307 149.242 95.16C148.25 95.7893 147.194 96.2053 146.074 96.408L145.354 95.064C146.666 94.9147 147.823 94.456 148.826 93.688C149.829 92.92 150.33 92.04 150.33 91.048V90.328H152.058V91.048C152.058 91.6987 152.314 92.328 152.826 92.936C153.349 93.5333 153.989 94.0187 154.746 94.392C155.514 94.7653 156.287 94.9893 157.066 95.064ZM170.814 94.968L170.094 96.28C169.027 96.1413 168.008 95.8107 167.038 95.288C166.078 94.7653 165.406 94.168 165.022 93.496C164.691 94.1893 164.056 94.7973 163.118 95.32C162.19 95.832 161.139 96.152 159.966 96.28L159.246 95C160.504 94.9147 161.603 94.6 162.542 94.056C163.491 93.5013 164.03 92.8027 164.158 91.96H159.87V90.648H170.19V91.96H165.918C166.014 92.5147 166.328 93.0213 166.862 93.48C167.395 93.9387 168.008 94.2907 168.702 94.536C169.406 94.7813 170.11 94.9253 170.814 94.968ZM165.934 101.144H164.286V98.568H158.574V97.24H171.454V98.568H165.934V101.144ZM169.982 103.848H160.238V99.72H161.886V102.536H169.982V103.848ZM188.237 93.624H183.997C184.231 94.328 184.813 94.92 185.741 95.4C186.679 95.88 187.719 96.1733 188.861 96.28L188.141 97.592C187.138 97.4747 186.141 97.16 185.149 96.648C184.167 96.1253 183.474 95.5333 183.069 94.872C182.706 95.5547 182.045 96.152 181.085 96.664C180.125 97.176 179.09 97.5013 177.981 97.64L177.245 96.328C178.439 96.1893 179.501 95.8853 180.429 95.416C181.357 94.936 181.933 94.3387 182.157 93.624H177.885V92.328H188.237V93.624ZM183.853 104.264H182.221V99.832H176.621V98.536H189.501V99.832H183.853V104.264ZM180.733 91.4V90.088H185.373V91.4H180.733ZM190.96 92.28V90.92H198.448V92.28H195.616V92.456C195.616 93.4693 195.931 94.3493 196.56 95.096C197.19 95.8427 197.952 96.36 198.848 96.648L197.936 97.944C197.318 97.6987 196.704 97.3093 196.096 96.776C195.499 96.2427 195.056 95.6613 194.768 95.032C194.566 95.704 194.134 96.36 193.472 97C192.822 97.6293 192.128 98.0827 191.392 98.36L190.4 97.08C191.435 96.696 192.278 96.0933 192.928 95.272C193.59 94.4507 193.92 93.5333 193.92 92.52V92.28H190.96ZM192.608 99.144H202.224V104.28H200.592V100.456H192.608V99.144ZM202.208 98.408H200.576V94.92H198.256V93.56H200.576V90.008H202.208V98.408Z" fill="#020712"/>
<path d="M58.574 160.594C57.51 160.594 56.67 160.361 56.054 159.894C55.4473 159.427 55.144 158.802 55.144 158.018C55.144 157.449 55.3353 156.949 55.718 156.52C56.11 156.081 56.5953 155.75 57.174 155.526C55.998 155.031 55.41 154.266 55.41 153.23C55.41 152.502 55.6947 151.914 56.264 151.466C56.8427 151.009 57.608 150.78 58.56 150.78C59.5213 150.78 60.282 150.99 60.842 151.41C61.402 151.83 61.682 152.404 61.682 153.132C61.682 154.065 61.08 154.821 59.876 155.4C61.332 155.932 62.06 156.753 62.06 157.864C62.06 158.657 61.7473 159.311 61.122 159.824C60.4967 160.337 59.6473 160.594 58.574 160.594ZM58.56 159.488C59.148 159.488 59.624 159.348 59.988 159.068C60.3613 158.788 60.548 158.424 60.548 157.976C60.548 157.472 60.3707 157.08 60.016 156.8C59.6707 156.511 59.1013 156.254 58.308 156.03C57.8133 156.189 57.398 156.436 57.062 156.772C56.726 157.099 56.558 157.477 56.558 157.906C56.558 158.391 56.74 158.779 57.104 159.068C57.468 159.348 57.9533 159.488 58.56 159.488ZM58.784 154.924C59.7733 154.495 60.268 153.925 60.268 153.216C60.268 152.824 60.1187 152.507 59.82 152.264C59.5307 152.012 59.1153 151.886 58.574 151.886C58.0607 151.886 57.6547 152.003 57.356 152.236C57.0573 152.46 56.908 152.777 56.908 153.188C56.908 154.028 57.5333 154.607 58.784 154.924ZM63.6591 160.44L67.2431 152.138H62.7071V150.976H68.8391V151.858L65.2831 160.44H63.6591ZM69.7515 160.566V159.054H71.2915V160.566H69.7515ZM75.8455 160.594C74.7815 160.594 73.9415 160.361 73.3255 159.894C72.7188 159.427 72.4155 158.802 72.4155 158.018C72.4155 157.449 72.6068 156.949 72.9895 156.52C73.3815 156.081 73.8668 155.75 74.4455 155.526C73.2695 155.031 72.6815 154.266 72.6815 153.23C72.6815 152.502 72.9662 151.914 73.5355 151.466C74.1142 151.009 74.8795 150.78 75.8315 150.78C76.7928 150.78 77.5535 150.99 78.1135 151.41C78.6735 151.83 78.9535 152.404 78.9535 153.132C78.9535 154.065 78.3515 154.821 77.1475 155.4C78.6035 155.932 79.3315 156.753 79.3315 157.864C79.3315 158.657 79.0188 159.311 78.3935 159.824C77.7682 160.337 76.9188 160.594 75.8455 160.594ZM75.8315 159.488C76.4195 159.488 76.8955 159.348 77.2595 159.068C77.6328 158.788 77.8195 158.424 77.8195 157.976C77.8195 157.472 77.6422 157.08 77.2875 156.8C76.9422 156.511 76.3728 156.254 75.5795 156.03C75.0848 156.189 74.6695 156.436 74.3335 156.772C73.9975 157.099 73.8295 157.477 73.8295 157.906C73.8295 158.391 74.0115 158.779 74.3755 159.068C74.7395 159.348 75.2248 159.488 75.8315 159.488ZM76.0555 154.924C77.0448 154.495 77.5395 153.925 77.5395 153.216C77.5395 152.824 77.3902 152.507 77.0915 152.264C76.8022 152.012 76.3868 151.886 75.8455 151.886C75.3322 151.886 74.9262 152.003 74.6275 152.236C74.3288 152.46 74.1795 152.777 74.1795 153.188C74.1795 154.028 74.8048 154.607 76.0555 154.924Z" fill="#215AB8"/>
<path d="M62 175.5C62 172.462 64.4624 170 67.5 170C70.5376 170 73 172.462 73 175.5V295H62V175.5Z" fill="#3F80EA"/>
<rect x="41" y="299" width="53" height="19" rx="9.5" fill="#626280"/>
<path d="M49.671 305.707V304.783H54.83V305.707H52.872V306.004C52.872 306.686 53.092 307.302 53.532 307.852C53.972 308.395 54.4927 308.758 55.094 308.941L54.467 309.843C54.049 309.682 53.631 309.41 53.213 309.029C52.8023 308.64 52.4943 308.222 52.289 307.775C52.1497 308.244 51.849 308.706 51.387 309.161C50.9323 309.616 50.4557 309.935 49.957 310.118L49.286 309.238C49.99 308.981 50.5693 308.56 51.024 307.973C51.4787 307.386 51.706 306.741 51.706 306.037V305.707H49.671ZM57.393 311.185H56.271V307.643H54.687V306.697H56.271V304.068H57.393V311.185ZM57.613 313.583H51.002V310.514H52.124V312.681H57.613V313.583ZM63.1986 310.998L62.5496 311.79C62.1756 311.563 61.8089 311.236 61.4496 310.811C61.0976 310.378 60.8629 309.949 60.7456 309.524C60.6356 309.993 60.3972 310.466 60.0306 310.943C59.6639 311.42 59.2716 311.783 58.8536 312.032L58.1496 311.273C59.4989 310.4 60.1846 309.11 60.2066 307.401H58.5016V306.499H62.9456V307.401H61.3066C61.3212 308.274 61.4972 309.011 61.8346 309.612C62.1792 310.213 62.6339 310.675 63.1986 310.998ZM64.6836 313.407H63.6166V309.282H62.3736V308.347H63.6166V304.266H64.6836V313.407ZM66.6086 313.869H65.5306V304.068H66.6086V313.869ZM62.0436 305.773H59.4806V304.86H62.0436V305.773ZM75.5052 311.944C75.5052 312.523 75.2082 312.985 74.6142 313.33C74.0275 313.675 73.2062 313.847 72.1502 313.847C71.1088 313.847 70.2948 313.675 69.7082 313.33C69.1215 312.985 68.8282 312.523 68.8282 311.944C68.8282 311.357 69.1215 310.892 69.7082 310.547C70.2948 310.195 71.1088 310.019 72.1502 310.019C73.2062 310.019 74.0275 310.195 74.6142 310.547C75.2082 310.892 75.5052 311.357 75.5052 311.944ZM72.1502 310.943C71.4682 310.943 70.9365 311.031 70.5552 311.207C70.1738 311.383 69.9832 311.629 69.9832 311.944C69.9832 312.259 70.1738 312.505 70.5552 312.681C70.9365 312.85 71.4682 312.934 72.1502 312.934C72.8468 312.934 73.3895 312.85 73.7782 312.681C74.1668 312.505 74.3612 312.259 74.3612 311.944C74.3612 311.629 74.1668 311.383 73.7782 311.207C73.3895 311.031 72.8468 310.943 72.1502 310.943ZM73.1402 308.457L73.2282 309.326C72.5902 309.443 71.6625 309.531 70.4452 309.59C69.2792 309.641 68.2598 309.667 67.3872 309.667L67.2772 308.721H68.5862L68.3332 306.18L69.4332 306.081L69.5762 308.699C69.7815 308.684 70.1445 308.67 70.6652 308.655L70.8082 306.07L71.8972 306.158L71.6442 308.6C72.3335 308.563 72.8322 308.516 73.1402 308.457ZM72.9752 306.4V305.476H74.3172V304.068H75.4392V309.92H74.3172V308.204H72.9752V307.269H74.3172V306.4H72.9752ZM72.7442 305.586H67.5852V304.684H72.7442V305.586ZM84.0717 304.563C84.0717 306.154 83.9654 307.379 83.7527 308.237H85.2377V309.139H82.9607V311.526H81.8277V309.139H80.3097V311.504H79.1877V309.139H76.3827V308.237H82.6637C82.8251 307.592 82.9204 306.668 82.9497 305.465H77.5267V304.563H84.0717ZM84.2037 313.583H77.5157V310.569H78.6487V312.681H84.2037V313.583Z" fill="white"/>
<path d="M112.956 179.44L116.54 171.138H112.004V169.976H118.136V170.858L114.58 179.44H112.956ZM122.142 179.594C121.078 179.594 120.238 179.361 119.622 178.894C119.016 178.427 118.712 177.802 118.712 177.018C118.712 176.449 118.904 175.949 119.286 175.52C119.678 175.081 120.164 174.75 120.742 174.526C119.566 174.031 118.978 173.266 118.978 172.23C118.978 171.502 119.263 170.914 119.832 170.466C120.411 170.009 121.176 169.78 122.128 169.78C123.09 169.78 123.85 169.99 124.41 170.41C124.97 170.83 125.25 171.404 125.25 172.132C125.25 173.065 124.648 173.821 123.444 174.4C124.9 174.932 125.628 175.753 125.628 176.864C125.628 177.657 125.316 178.311 124.69 178.824C124.065 179.337 123.216 179.594 122.142 179.594ZM122.128 178.488C122.716 178.488 123.192 178.348 123.556 178.068C123.93 177.788 124.116 177.424 124.116 176.976C124.116 176.472 123.939 176.08 123.584 175.8C123.239 175.511 122.67 175.254 121.876 175.03C121.382 175.189 120.966 175.436 120.63 175.772C120.294 176.099 120.126 176.477 120.126 176.906C120.126 177.391 120.308 177.779 120.672 178.068C121.036 178.348 121.522 178.488 122.128 178.488ZM122.352 173.924C123.342 173.495 123.836 172.925 123.836 172.216C123.836 171.824 123.687 171.507 123.388 171.264C123.099 171.012 122.684 170.886 122.142 170.886C121.629 170.886 121.223 171.003 120.924 171.236C120.626 171.46 120.476 171.777 120.476 172.188C120.476 173.028 121.102 173.607 122.352 173.924ZM126.751 179.566V178.054H128.291V179.566H126.751ZM132.845 179.594C131.781 179.594 130.941 179.361 130.325 178.894C129.719 178.427 129.415 177.802 129.415 177.018C129.415 176.449 129.607 175.949 129.989 175.52C130.381 175.081 130.867 174.75 131.445 174.526C130.269 174.031 129.681 173.266 129.681 172.23C129.681 171.502 129.966 170.914 130.535 170.466C131.114 170.009 131.879 169.78 132.831 169.78C133.793 169.78 134.553 169.99 135.113 170.41C135.673 170.83 135.953 171.404 135.953 172.132C135.953 173.065 135.351 173.821 134.147 174.4C135.603 174.932 136.331 175.753 136.331 176.864C136.331 177.657 136.019 178.311 135.393 178.824C134.768 179.337 133.919 179.594 132.845 179.594ZM132.831 178.488C133.419 178.488 133.895 178.348 134.259 178.068C134.633 177.788 134.819 177.424 134.819 176.976C134.819 176.472 134.642 176.08 134.287 175.8C133.942 175.511 133.373 175.254 132.579 175.03C132.085 175.189 131.669 175.436 131.333 175.772C130.997 176.099 130.829 176.477 130.829 176.906C130.829 177.391 131.011 177.779 131.375 178.068C131.739 178.348 132.225 178.488 132.831 178.488ZM133.055 173.924C134.045 173.495 134.539 172.925 134.539 172.216C134.539 171.824 134.39 171.507 134.091 171.264C133.802 171.012 133.387 170.886 132.845 170.886C132.332 170.886 131.926 171.003 131.627 171.236C131.329 171.46 131.179 171.777 131.179 172.188C131.179 173.028 131.805 173.607 133.055 173.924Z" fill="#818181"/>
<path d="M119 194.5C119 191.462 121.462 189 124.5 189C127.538 189 130 191.462 130 194.5V295H119V194.5Z" fill="white"/>
<rect x="98" y="299" width="53" height="19" rx="9.5" fill="#626280"/>
<path d="M114.69 311.933C114.69 312.52 114.389 312.985 113.788 313.33C113.187 313.682 112.358 313.858 111.302 313.858C110.253 313.858 109.428 313.682 108.827 313.33C108.226 312.985 107.925 312.52 107.925 311.933C107.925 311.339 108.226 310.866 108.827 310.514C109.428 310.162 110.253 309.986 111.302 309.986C112.358 309.986 113.187 310.162 113.788 310.514C114.389 310.866 114.69 311.339 114.69 311.933ZM114.591 310.041H113.513V307.467H112.567V309.623H111.5V304.244H112.567V306.521H113.513V304.068H114.591V310.041ZM111.258 308.523L110.686 309.359C110.334 309.198 109.967 308.937 109.586 308.578C109.212 308.219 108.963 307.878 108.838 307.555C108.706 307.951 108.46 308.351 108.101 308.754C107.742 309.15 107.349 309.454 106.924 309.667L106.275 308.875C106.876 308.545 107.357 308.109 107.716 307.566C108.083 307.023 108.266 306.415 108.266 305.74V304.673H109.355V305.707C109.355 306.36 109.538 306.928 109.905 307.412C110.279 307.889 110.73 308.259 111.258 308.523ZM113.524 311.933C113.524 311.61 113.326 311.361 112.93 311.185C112.534 311.002 111.991 310.91 111.302 310.91C110.613 310.91 110.07 311.002 109.674 311.185C109.285 311.361 109.091 311.61 109.091 311.933C109.091 312.248 109.285 312.498 109.674 312.681C110.07 312.864 110.613 312.956 111.302 312.956C111.991 312.956 112.534 312.864 112.93 312.681C113.326 312.498 113.524 312.248 113.524 311.933ZM123.389 313.88H116.69V311.823H121.915V311.284H116.657V310.503H123.037V312.549H117.823V313.099H123.389V313.88ZM121.332 309.007L121.431 309.821C119.847 310.034 117.79 310.155 115.26 310.184L115.095 309.282C116.231 309.282 117.093 309.278 117.68 309.271V308.809C117.144 308.75 116.723 308.618 116.415 308.413C116.107 308.2 115.953 307.929 115.953 307.599C115.953 307.218 116.158 306.913 116.569 306.686C116.979 306.459 117.529 306.345 118.219 306.345C118.908 306.345 119.462 306.459 119.88 306.686C120.298 306.913 120.507 307.218 120.507 307.599C120.507 307.922 120.353 308.189 120.045 308.402C119.744 308.607 119.33 308.739 118.802 308.798V309.227C120.019 309.154 120.862 309.08 121.332 309.007ZM124.445 307.731H123.037V309.975H121.915V304.068H123.037V306.796H124.445V307.731ZM120.991 306.125H115.469V305.3H120.991V306.125ZM116.877 304.915V304.112H119.616V304.915H116.877ZM119.407 307.599C119.407 307.445 119.297 307.324 119.077 307.236C118.864 307.148 118.578 307.104 118.219 307.104C117.867 307.104 117.581 307.148 117.361 307.236C117.148 307.324 117.042 307.445 117.042 307.599C117.042 307.746 117.148 307.863 117.361 307.951C117.581 308.039 117.867 308.083 118.219 308.083C118.578 308.083 118.864 308.039 119.077 307.951C119.297 307.863 119.407 307.746 119.407 307.599ZM131.977 304.068V306.906H133.418V307.852H131.977V311.174H130.844V304.068H131.977ZM132.263 313.572H125.707V310.459H126.84V312.659H132.263V313.572ZM129.227 309.425H124.673V304.849H129.227V309.425ZM128.094 308.534V305.74H125.806V308.534H128.094ZM141.864 307.203L141.369 308.083C140.628 307.995 139.917 307.768 139.235 307.401C138.553 307.034 138.08 306.62 137.816 306.158C137.588 306.635 137.141 307.056 136.474 307.423C135.814 307.782 135.08 308.006 134.274 308.094L133.79 307.214C134.626 307.155 135.366 306.95 136.012 306.598C136.664 306.246 137.057 305.802 137.189 305.267H134.208V304.354H141.424V305.267H138.465C138.567 305.619 138.806 305.945 139.18 306.246C139.561 306.539 139.986 306.767 140.456 306.928C140.932 307.082 141.402 307.174 141.864 307.203ZM142.238 309.766H133.383V308.853H137.222V307.544H138.344V308.853H142.238V309.766ZM134.417 310.58H141.094V313.902H139.972V311.493H134.417V310.58Z" fill="white"/>
<path d="M171.074 174.594C170.01 174.594 169.17 174.361 168.554 173.894C167.947 173.427 167.644 172.802 167.644 172.018C167.644 171.449 167.835 170.949 168.218 170.52C168.61 170.081 169.095 169.75 169.674 169.526C168.498 169.031 167.91 168.266 167.91 167.23C167.91 166.502 168.195 165.914 168.764 165.466C169.343 165.009 170.108 164.78 171.06 164.78C172.021 164.78 172.782 164.99 173.342 165.41C173.902 165.83 174.182 166.404 174.182 167.132C174.182 168.065 173.58 168.821 172.376 169.4C173.832 169.932 174.56 170.753 174.56 171.864C174.56 172.657 174.247 173.311 173.622 173.824C172.997 174.337 172.147 174.594 171.074 174.594ZM171.06 173.488C171.648 173.488 172.124 173.348 172.488 173.068C172.861 172.788 173.048 172.424 173.048 171.976C173.048 171.472 172.871 171.08 172.516 170.8C172.171 170.511 171.601 170.254 170.808 170.03C170.313 170.189 169.898 170.436 169.562 170.772C169.226 171.099 169.058 171.477 169.058 171.906C169.058 172.391 169.24 172.779 169.604 173.068C169.968 173.348 170.453 173.488 171.06 173.488ZM171.284 168.924C172.273 168.495 172.768 167.925 172.768 167.216C172.768 166.824 172.619 166.507 172.32 166.264C172.031 166.012 171.615 165.886 171.074 165.886C170.561 165.886 170.155 166.003 169.856 166.236C169.557 166.46 169.408 166.777 169.408 167.188C169.408 168.028 170.033 168.607 171.284 168.924ZM179.155 174.58C178.082 174.58 177.214 174.207 176.551 173.46C175.888 172.713 175.557 171.57 175.557 170.03V169.358C175.557 167.771 175.893 166.614 176.565 165.886C177.246 165.149 178.119 164.78 179.183 164.78C180.228 164.78 181.078 165.144 181.731 165.872C182.384 166.6 182.711 167.743 182.711 169.302V170.016C182.711 171.575 182.384 172.727 181.731 173.474C181.078 174.211 180.219 174.58 179.155 174.58ZM179.155 173.432C179.846 173.432 180.359 173.175 180.695 172.662C181.04 172.139 181.213 171.304 181.213 170.156V169.288C181.213 167.048 180.532 165.928 179.169 165.928C177.788 165.928 177.097 167.02 177.097 169.204V170.072C177.097 172.312 177.783 173.432 179.155 173.432ZM184.125 174.566V173.054H185.665V174.566H184.125ZM190.597 174.58C189.523 174.58 188.655 174.207 187.993 173.46C187.33 172.713 186.999 171.57 186.999 170.03V169.358C186.999 167.771 187.335 166.614 188.007 165.886C188.688 165.149 189.561 164.78 190.625 164.78C191.67 164.78 192.519 165.144 193.173 165.872C193.826 166.6 194.153 167.743 194.153 169.302V170.016C194.153 171.575 193.826 172.727 193.173 173.474C192.519 174.211 191.661 174.58 190.597 174.58ZM190.597 173.432C191.287 173.432 191.801 173.175 192.137 172.662C192.482 172.139 192.655 171.304 192.655 170.156V169.288C192.655 167.048 191.973 165.928 190.611 165.928C189.229 165.928 188.539 167.02 188.539 169.204V170.072C188.539 172.312 189.225 173.432 190.597 173.432Z" fill="#818181"/>
<path d="M176 189.5C176 186.462 178.462 184 181.5 184C184.538 184 187 186.462 187 189.5V295H176V189.5Z" fill="white"/>
<rect x="155" y="299" width="53" height="19" rx="9.5" fill="#626280"/>
<path d="M172.427 307.984H171.019V311.372H169.897V304.068H171.019V307.049H172.427V307.984ZM171.327 313.616H164.672V310.745H165.805V312.714H171.327V313.616ZM169.314 308.831L169.413 309.678C167.829 309.891 165.772 310.012 163.242 310.041L163.077 309.106H165.101V307.049H166.212V309.062H166.234C167.503 309.018 168.529 308.941 169.314 308.831ZM168.676 304.783C168.661 306.418 168.566 307.573 168.39 308.248L167.312 308.083C167.481 307.394 167.558 306.598 167.543 305.696H163.759V304.783H168.676ZM178.706 313.407H177.639V310.03H176.297V309.139H177.639V307.566H176.539V306.686H177.639V304.266H178.706V313.407ZM180.609 313.869H179.531V304.068H180.609V313.869ZM176.451 305.245C176.429 308.12 175.244 310.334 172.898 311.889L172.15 311.108C173.11 310.536 173.866 309.821 174.416 308.963C174.966 308.098 175.274 307.166 175.34 306.169H172.733V305.245H176.451ZM188.977 304.068V306.906H190.418V307.852H188.977V311.174H187.844V304.068H188.977ZM189.263 313.572H182.707V310.459H183.84V312.659H189.263V313.572ZM186.227 309.425H181.673V304.849H186.227V309.425ZM185.094 308.534V305.74H182.806V308.534H185.094ZM198.864 307.203L198.369 308.083C197.628 307.995 196.917 307.768 196.235 307.401C195.553 307.034 195.08 306.62 194.816 306.158C194.588 306.635 194.141 307.056 193.474 307.423C192.814 307.782 192.08 308.006 191.274 308.094L190.79 307.214C191.626 307.155 192.366 306.95 193.012 306.598C193.664 306.246 194.057 305.802 194.189 305.267H191.208V304.354H198.424V305.267H195.465C195.567 305.619 195.806 305.945 196.18 306.246C196.561 306.539 196.986 306.767 197.456 306.928C197.932 307.082 198.402 307.174 198.864 307.203ZM199.238 309.766H190.383V308.853H194.222V307.544H195.344V308.853H199.238V309.766ZM191.417 310.58H198.094V313.902H196.972V311.493H191.417V310.58Z" fill="white"/>
</svg>
