<svg width="237" height="226" viewBox="0 0 237 226" fill="none" xmlns="http://www.w3.org/2000/svg">
<line x1="90.8536" y1="31.9705" x2="157.854" y2="102.971" stroke="#99A1AE" stroke-width="3"/>
<line x1="91.2554" y1="33.1478" x2="81.2554" y2="134.148" stroke="#99A1AE" stroke-width="3"/>
<line x1="203.176" y1="200.458" x2="164.403" y2="105.187" stroke="#99A1AE" stroke-width="3"/>
<line x1="99.6194" y1="145.457" x2="164.98" y2="103.36" stroke="#99A1AE" stroke-width="3"/>
<line x1="24.712" y1="196.645" x2="78.712" y2="143.645" stroke="#99A1AE" stroke-width="3"/>
<circle cx="157.034" cy="95.6909" r="29" fill="#F8FAFB" stroke="#99A1AE" stroke-width="2"/>
<g clip-path="url(#clip0_132_4715)">
<path d="M157.284 125.666C164.803 125.666 171.515 122.453 176.29 117.378C174.872 109.647 169.197 103.416 161.559 101.716C164.803 100.116 167.084 96.8534 167.084 92.9909C167.084 87.5784 162.697 83.1909 157.284 83.1909C151.872 83.1909 147.484 87.5784 147.484 92.9909C147.484 96.8534 149.765 100.116 153.009 101.716C145.378 103.416 139.697 109.647 138.284 117.378C143.053 122.453 149.772 125.666 157.284 125.666Z" fill="#99A1AE"/>
</g>
<circle cx="80.0342" cy="144.741" r="24" fill="#F8FAFB" stroke="#99A1AE" stroke-width="2"/>
<g clip-path="url(#clip1_132_4715)">
<path d="M80.2425 169.72C86.5081 169.72 92.1019 167.043 96.0811 162.813C94.8988 156.371 90.1696 151.178 83.805 149.761C86.5081 148.428 88.4092 145.709 88.4092 142.491C88.4092 137.98 84.7529 134.324 80.2425 134.324C75.7321 134.324 72.0758 137.98 72.0758 142.491C72.0758 145.709 73.9769 148.428 76.68 149.761C70.3206 151.178 65.5863 156.371 64.4092 162.813C68.3831 167.043 73.9821 169.72 80.2425 169.72Z" fill="#99A1AE"/>
</g>
<circle cx="20.3052" cy="191.716" r="19" fill="#F8FAFB" stroke="#99A1AE" stroke-width="2"/>
<g clip-path="url(#clip2_132_4715)">
<path d="M20.4718 211.699C25.4843 211.699 29.9593 209.557 33.1427 206.174C32.1968 201.02 28.4135 196.866 23.3218 195.732C25.4843 194.666 27.0052 192.491 27.0052 189.916C27.0052 186.307 24.0802 183.382 20.4718 183.382C16.8635 183.382 13.9385 186.307 13.9385 189.916C13.9385 192.491 15.4593 194.666 17.6218 195.732C12.5343 196.866 8.74684 201.02 7.80518 206.174C10.9843 209.557 15.4635 211.699 20.4718 211.699Z" fill="#99A1AE"/>
</g>
<circle cx="89.7627" cy="25.2595" r="24" fill="#F8FAFB" stroke="#99A1AE" stroke-width="2"/>
<g clip-path="url(#clip3_132_4715)">
<path d="M89.971 50.2387C96.2367 50.2387 101.83 47.5616 105.81 43.3324C104.627 36.8897 99.8981 31.697 93.5335 30.2803C96.2367 28.947 98.1377 26.2283 98.1377 23.0095C98.1377 18.4991 94.4814 14.8428 89.971 14.8428C85.4606 14.8428 81.8044 18.4991 81.8044 23.0095C81.8044 26.2283 83.7054 28.947 86.4085 30.2803C80.0492 31.697 75.3148 36.8897 74.1377 43.3324C78.1117 47.5616 83.7106 50.2387 89.971 50.2387Z" fill="#99A1AE"/>
</g>
<circle cx="191.034" cy="200.741" r="24" fill="#F8FAFB" stroke="#99A1AE" stroke-width="2"/>
<g clip-path="url(#clip4_132_4715)">
<path d="M191.243 225.72C197.508 225.72 203.102 223.043 207.081 218.813C205.899 212.371 201.17 207.178 194.805 205.761C197.508 204.428 199.409 201.709 199.409 198.491C199.409 193.98 195.753 190.324 191.243 190.324C186.732 190.324 183.076 193.98 183.076 198.491C183.076 201.709 184.977 204.428 187.68 205.761C181.321 207.178 176.586 212.371 175.409 218.813C179.383 223.043 184.982 225.72 191.243 225.72Z" fill="#99A1AE"/>
</g>
<circle cx="216.695" cy="35" r="19" fill="#F8FAFB" stroke="#99A1AE" stroke-width="2"/>
<g clip-path="url(#clip5_132_4715)">
<path d="M216.861 54.9834C221.874 54.9834 226.349 52.8417 229.532 49.4584C228.586 44.3042 224.803 40.15 219.711 39.0167C221.874 37.95 223.395 35.775 223.395 33.2C223.395 29.5917 220.47 26.6667 216.861 26.6667C213.253 26.6667 210.328 29.5917 210.328 33.2C210.328 35.775 211.849 37.95 214.011 39.0167C208.924 40.15 205.136 44.3042 204.195 49.4584C207.374 52.8417 211.853 54.9834 216.861 54.9834Z" fill="#0084D1"/>
</g>
<defs>
<clipPath id="clip0_132_4715">
<rect width="38.0062" height="42.475" fill="white" transform="translate(138.284 83.1909)"/>
</clipPath>
<clipPath id="clip1_132_4715">
<rect width="31.6719" height="35.3958" fill="white" transform="translate(64.4092 134.324)"/>
</clipPath>
<clipPath id="clip2_132_4715">
<rect width="25.3375" height="28.3167" fill="white" transform="translate(7.80518 183.382)"/>
</clipPath>
<clipPath id="clip3_132_4715">
<rect width="31.6719" height="35.3958" fill="white" transform="translate(74.1377 14.8428)"/>
</clipPath>
<clipPath id="clip4_132_4715">
<rect width="31.6719" height="35.3958" fill="white" transform="translate(175.409 190.324)"/>
</clipPath>
<clipPath id="clip5_132_4715">
<rect width="25.3375" height="28.3167" fill="white" transform="translate(204.195 26.6667)"/>
</clipPath>
</defs>
</svg>
