<svg width="544" height="348" viewBox="0 0 544 348" fill="none" xmlns="http://www.w3.org/2000/svg">
<g clip-path="url(#clip0_73_6515)">
<path d="M17.1941 43.7654H275.105" stroke="#E7E7E7" stroke-dasharray="2 2"/>
<path d="M17.1941 114.111H275.105" stroke="#E7E7E7" stroke-dasharray="2 2"/>
<path d="M17.1941 184.457H275.105" stroke="#E7E7E7" stroke-dasharray="2 2"/>
<path d="M17.1941 254.802H275.105" stroke="#E7E7E7" stroke-dasharray="2 2"/>
<path d="M108.895 78.4629H82.1492V325.623H108.895V78.4629Z" fill="#FFD840"/>
<path d="M108.895 78.4629H82.1492V325.623H108.895V78.4629Z" fill="#094185"/>
<path d="M145.194 258.13H118.448V325.623H145.194V258.13Z" fill="#1E71D6"/>
<path d="M16.7163 20.4753V324.673" stroke="#B2B3BD"/>
<path d="M16.2388 325.148H246.448" stroke="#B2B3BD"/>
<path d="M0.0148926 48.5146V47.9785L1.84892 46.0849C2.49084 45.4156 2.95316 44.8643 3.23591 44.4308C3.5263 43.9973 3.67149 43.5296 3.67149 43.0277C3.67149 42.0162 3.14421 41.5105 2.08964 41.5105C1.54707 41.5105 0.973939 41.7196 0.370237 42.1379L0.106595 41.4192C0.832565 40.9553 1.54325 40.7234 2.23865 40.7234C3.00283 40.7234 3.59125 40.9211 4.00391 41.3166C4.41657 41.712 4.62289 42.2558 4.62289 42.9478C4.62289 43.5562 4.4586 44.1114 4.13 44.6133C3.8014 45.1152 3.25501 45.7541 2.49083 46.5298L1.28725 47.7389H4.79484V48.5146H0.0148926ZM8.56071 48.6515C7.72011 48.6515 7.03999 48.3511 6.52035 47.7504C6.00071 47.142 5.74089 46.2218 5.74089 44.9898V44.3509C5.74089 43.0885 6.00071 42.1721 6.52035 41.6018C7.04764 41.0238 7.73158 40.7348 8.57217 40.7348C9.39749 40.7348 10.0585 41.02 10.5552 41.5904C11.0596 42.1531 11.3118 43.0581 11.3118 44.3053V45.0012C11.3118 46.2332 11.0596 47.1496 10.5552 47.7504C10.0585 48.3511 9.39366 48.6515 8.56071 48.6515ZM8.56071 47.8986C9.16441 47.8986 9.6191 47.6781 9.92477 47.237C10.2304 46.7959 10.3833 46.0963 10.3833 45.1381V44.2939C10.3833 42.4231 9.77958 41.4877 8.57217 41.4877C7.3342 41.4877 6.71522 42.4041 6.71522 44.2369V45.081C6.71522 46.9594 7.33038 47.8986 8.56071 47.8986Z" fill="#808191"/>
<path d="M3.11327 117.955V111.168L1.69189 111.499V110.974L3.503 110.13H3.98443V117.955H3.11327ZM7.17975 118.047C6.27802 118.047 5.55969 117.853 5.02476 117.465L5.1967 116.735C5.41832 116.887 5.69724 117.016 6.03348 117.123C6.37736 117.229 6.70214 117.282 7.00781 117.282C7.61151 117.282 8.08148 117.126 8.41772 116.815C8.7616 116.495 8.93354 116.062 8.93354 115.514C8.93354 114.427 8.30309 113.883 7.0422 113.883C6.5302 113.883 5.99527 114.008 5.43742 114.259L5.71253 110.244H9.60984V111.02H6.44614L6.28566 113.347C6.69832 113.24 7.06512 113.187 7.38608 113.187C8.18082 113.187 8.79599 113.381 9.23157 113.769C9.66715 114.157 9.88494 114.742 9.88494 115.526C9.88494 116.233 9.64041 116.83 9.15133 117.317C8.66226 117.803 8.00506 118.047 7.17975 118.047Z" fill="#808191"/>
<path d="M2.36351 187.35V180.563L0.942139 180.894V180.369L2.75324 179.525H3.23468V187.35H2.36351ZM7.55324 187.442C6.71265 187.442 6.03253 187.141 5.51288 186.54C4.99324 185.932 4.73342 185.012 4.73342 183.78V183.141C4.73342 181.879 4.99324 180.962 5.51288 180.392C6.04017 179.814 6.72411 179.525 7.56471 179.525C8.39002 179.525 9.05104 179.81 9.54775 180.38C10.0521 180.943 10.3043 181.848 10.3043 183.095V183.791C10.3043 185.023 10.0521 185.94 9.54775 186.54C9.05104 187.141 8.3862 187.442 7.55324 187.442ZM7.55324 186.689C8.15695 186.689 8.61163 186.468 8.9173 186.027C9.22298 185.586 9.37581 184.886 9.37581 183.928V183.084C9.37581 181.213 8.77211 180.278 7.56471 180.278C6.32674 180.278 5.70775 181.194 5.70775 183.027V183.871C5.70775 185.75 6.32292 186.689 7.55324 186.689Z" fill="#808191"/>
<path d="M5.37007 256.837C4.46834 256.837 3.75001 256.643 3.21509 256.255L3.38703 255.525C3.60864 255.677 3.88757 255.806 4.22381 255.913C4.56769 256.019 4.89246 256.073 5.19813 256.073C5.80183 256.073 6.27181 255.917 6.60805 255.605C6.95193 255.285 7.12387 254.852 7.12387 254.304C7.12387 253.217 6.49342 252.673 5.23252 252.673C4.72052 252.673 4.1856 252.799 3.62775 253.05L3.90285 249.034H7.80017V249.81H4.63646L4.47599 252.137C4.88864 252.031 5.25545 251.977 5.5764 251.977C6.37115 251.977 6.98632 252.171 7.4219 252.559C7.85748 252.947 8.07527 253.533 8.07527 254.316C8.07527 255.023 7.83073 255.62 7.34166 256.107C6.85258 256.593 6.19539 256.837 5.37007 256.837Z" fill="#808191"/>
<path d="M5.7434 326.232C4.90281 326.232 4.22269 325.932 3.70305 325.331C3.18341 324.722 2.92358 323.802 2.92358 322.57V321.931C2.92358 320.669 3.18341 319.753 3.70305 319.182C4.23033 318.604 4.91427 318.315 5.75487 318.315C6.58018 318.315 7.2412 318.6 7.73791 319.171C8.24227 319.734 8.49445 320.638 8.49445 321.886V322.582C8.49445 323.814 8.24227 324.73 7.73791 325.331C7.2412 325.932 6.57636 326.232 5.7434 326.232ZM5.7434 325.479C6.34711 325.479 6.80179 325.258 7.10747 324.817C7.41314 324.376 7.56597 323.677 7.56597 322.718V321.874C7.56597 320.003 6.96227 319.068 5.75487 319.068C4.5169 319.068 3.89791 319.984 3.89791 321.817V322.661C3.89791 324.54 4.51308 325.479 5.7434 325.479Z" fill="#808191"/>
<path d="M280.836 278.092C284.001 278.092 286.567 275.539 286.567 272.389C286.567 269.239 284.001 266.685 280.836 266.685C277.671 266.685 275.104 269.239 275.104 272.389C275.104 275.539 277.671 278.092 280.836 278.092Z" fill="#094185"/>
<path d="M286.567 266.685H275.104V278.092H286.567V266.685Z" fill="#094185"/>
<path d="M293.411 268.78C294.328 268.78 294.966 269.301 295.326 270.343H296.758V268.164H297.607V277.439H296.758V274.188H295.326C294.959 275.214 294.321 275.727 293.411 275.727C292.693 275.727 292.143 275.412 291.761 274.781C291.386 274.149 291.199 273.305 291.199 272.248C291.199 271.199 291.39 270.358 291.772 269.727C292.154 269.096 292.701 268.78 293.411 268.78ZM294.775 272.248C294.775 271.419 294.653 270.761 294.409 270.275C294.164 269.78 293.832 269.533 293.411 269.533C292.991 269.533 292.659 269.78 292.414 270.275C292.169 270.761 292.047 271.419 292.047 272.248C292.047 273.092 292.169 273.758 292.414 274.245C292.659 274.731 292.991 274.975 293.411 274.975C293.832 274.975 294.164 274.731 294.409 274.245C294.653 273.758 294.775 273.092 294.775 272.248ZM299.567 277.941H298.707V267.97H299.567V277.941ZM296.758 271.073H295.52C295.589 271.438 295.624 271.83 295.624 272.248C295.624 272.659 295.585 273.062 295.509 273.457H296.758V271.073Z" fill="#808191"/>
<path d="M280.836 302.809C284.001 302.809 286.567 300.255 286.567 297.105C286.567 293.955 284.001 291.401 280.836 291.401C277.671 291.401 275.104 293.955 275.104 297.105C275.104 300.255 277.671 302.809 280.836 302.809Z" fill="#1E71D6"/>
<path d="M286.567 291.401H275.104V302.809H286.567V291.401Z" fill="#1E71D6"/>
<path d="M300.573 297.432H298.934V302.657H298.062V292.687H298.934V296.702H300.573V297.432ZM291.368 296.953C291.368 295.888 291.594 295.036 292.044 294.398C292.503 293.759 293.133 293.439 293.936 293.439C294.738 293.439 295.365 293.759 295.816 294.398C296.267 295.036 296.492 295.892 296.492 296.964C296.492 298.037 296.267 298.892 295.816 299.531C295.365 300.17 294.738 300.489 293.936 300.489C293.133 300.489 292.503 300.17 292.044 299.531C291.594 298.885 291.368 298.025 291.368 296.953ZM295.644 296.964C295.644 296.135 295.487 295.466 295.174 294.957C294.868 294.447 294.455 294.192 293.936 294.192C293.416 294.192 293 294.447 292.686 294.957C292.373 295.466 292.216 296.135 292.216 296.964C292.216 297.786 292.373 298.455 292.686 298.972C293 299.482 293.416 299.736 293.936 299.736C294.455 299.736 294.868 299.482 295.174 298.972C295.487 298.455 295.644 297.786 295.644 296.964ZM308.787 292.687V302.657H307.927V292.687H308.787ZM306.907 298.995L306.987 299.748C306.429 299.877 305.608 299.987 304.523 300.079C303.437 300.162 302.49 300.204 301.68 300.204H301.233V293.725H302.115V299.44C302.796 299.44 303.621 299.398 304.591 299.314C305.569 299.223 306.341 299.117 306.907 298.995ZM318.238 296.029C318.238 296.789 317.947 297.413 317.367 297.9C316.793 298.386 316.022 298.66 315.051 298.721V300.615H319.155V301.345H310.111V300.615H314.18V298.721C313.217 298.653 312.449 298.379 311.876 297.9C311.303 297.413 311.016 296.789 311.016 296.029C311.016 295.208 311.345 294.55 312.002 294.055C312.667 293.561 313.538 293.314 314.615 293.314C315.708 293.314 316.583 293.561 317.24 294.055C317.905 294.55 318.238 295.208 318.238 296.029ZM316.633 297.489C317.145 297.124 317.401 296.641 317.401 296.04C317.401 295.44 317.149 294.957 316.644 294.592C316.14 294.227 315.464 294.044 314.615 294.044C313.782 294.044 313.114 294.227 312.609 294.592C312.113 294.957 311.864 295.44 311.864 296.04C311.864 296.641 312.113 297.124 312.609 297.489C313.114 297.846 313.782 298.025 314.615 298.025C315.456 298.025 316.129 297.846 316.633 297.489Z" fill="#808191"/>
<path d="M280.836 327.525C284.001 327.525 286.567 324.971 286.567 321.821C286.567 318.671 284.001 316.117 280.836 316.117C277.671 316.117 275.104 318.671 275.104 321.821C275.104 324.971 277.671 327.525 280.836 327.525Z" fill="#BABACC"/>
<path d="M286.567 316.117H275.104V327.525H286.567V316.117Z" fill="#BABACC"/>
<path d="M299.14 321.988H292.342V317.962H299.14V321.988ZM298.269 321.27V318.68H293.225V321.27H298.269ZM296.171 327.384H295.3V323.985H291.23V323.255H300.275V323.985H296.171V327.384ZM309.715 322.775H300.671V322.057H309.715V322.775ZM308.764 325.456C308.764 326.042 308.45 326.49 307.824 326.802C307.197 327.122 306.326 327.281 305.21 327.281C304.094 327.281 303.223 327.122 302.597 326.802C301.978 326.49 301.668 326.042 301.668 325.456C301.668 324.878 301.982 324.43 302.608 324.11C303.235 323.791 304.098 323.631 305.199 323.631C306.314 323.631 307.186 323.791 307.812 324.11C308.446 324.43 308.764 324.878 308.764 325.456ZM305.199 324.361C304.373 324.361 303.724 324.456 303.25 324.646C302.776 324.829 302.539 325.099 302.539 325.456C302.539 325.814 302.776 326.087 303.25 326.278C303.724 326.46 304.373 326.551 305.199 326.551C306.039 326.551 306.697 326.46 307.17 326.278C307.644 326.095 307.881 325.821 307.881 325.456C307.881 325.099 307.64 324.829 307.159 324.646C306.685 324.456 306.032 324.361 305.199 324.361ZM308.695 319.467C308.695 320.03 308.382 320.483 307.755 320.825C307.136 321.159 306.28 321.327 305.187 321.327C304.102 321.327 303.25 321.159 302.631 320.825C302.012 320.483 301.703 320.03 301.703 319.467C301.703 318.889 302.012 318.433 302.631 318.098C303.25 317.756 304.102 317.585 305.187 317.585C306.28 317.585 307.136 317.756 307.755 318.098C308.382 318.433 308.695 318.889 308.695 319.467ZM307.124 320.323C307.606 320.118 307.847 319.832 307.847 319.467C307.847 319.102 307.606 318.813 307.124 318.6C306.643 318.387 305.997 318.281 305.187 318.281C304.377 318.281 303.735 318.387 303.262 318.6C302.788 318.813 302.551 319.102 302.551 319.467C302.551 319.832 302.788 320.118 303.262 320.323C303.735 320.528 304.377 320.631 305.187 320.631C305.997 320.631 306.643 320.528 307.124 320.323ZM319.326 320.483H317.802V322.753H316.931V317.403H317.802V319.753H319.326V320.483ZM317.802 327.236H311.509V323.3H312.38V324.555H316.942V323.266H317.802V327.236ZM316.942 326.517V325.251H312.38V326.517H316.942ZM311.371 321.578H311.864C313.347 321.578 314.661 321.464 315.807 321.235L315.876 321.954C314.585 322.182 313.064 322.296 311.314 322.296H310.489V318.064H314.971V318.794H311.371V321.578Z" fill="#808191"/>
</g>
<mask id="mask0_73_6515" style="mask-type:alpha" maskUnits="userSpaceOnUse" x="348" y="58" width="115" height="116">
<circle cx="405.5" cy="116.161" r="57.5" fill="#D9D9D9"/>
</mask>
<g mask="url(#mask0_73_6515)">
<circle cx="405.5" cy="116.161" r="57.5" fill="#99A1AE"/>
<path d="M408.428 116.368V43.9392L454.714 49.5106L408.428 116.368Z" fill="#EF4444"/>
<path d="M407.572 115.939L462.429 39.6536L490.286 70.0821L407.572 115.939Z" fill="#FBBF24"/>
<path d="M375.341 120.632V124.132H377.105V125.49H375.341V129.676H373.689V120.632H375.341ZM375.635 132.742H367.249V128.752H368.887V131.44H375.635V132.742ZM366.689 126.89C366.092 126.321 365.793 125.588 365.793 124.692C365.793 123.796 366.096 123.063 366.703 122.494C367.31 121.925 368.103 121.64 369.083 121.64C370.072 121.64 370.866 121.925 371.463 122.494C372.07 123.063 372.373 123.796 372.373 124.692C372.373 125.588 372.07 126.321 371.463 126.89C370.866 127.459 370.072 127.744 369.083 127.744C368.094 127.744 367.296 127.459 366.689 126.89ZM367.459 124.692C367.459 125.187 367.604 125.593 367.893 125.91C368.192 126.227 368.588 126.386 369.083 126.386C369.578 126.386 369.974 126.227 370.273 125.91C370.572 125.593 370.721 125.187 370.721 124.692C370.721 124.207 370.572 123.81 370.273 123.502C369.974 123.185 369.578 123.026 369.083 123.026C368.598 123.026 368.206 123.185 367.907 123.502C367.608 123.81 367.459 124.207 367.459 124.692ZM378.13 122.97V121.626H384.71V122.97H382.316C382.326 123.875 382.596 124.669 383.128 125.35C383.67 126.022 384.323 126.479 385.088 126.722L384.192 128.01C383.698 127.823 383.184 127.492 382.652 127.016C382.13 126.54 381.742 126.027 381.49 125.476C381.304 126.073 380.926 126.652 380.356 127.212C379.796 127.763 379.208 128.145 378.592 128.36L377.626 127.072C378.541 126.736 379.269 126.209 379.81 125.49C380.361 124.771 380.636 123.945 380.636 123.012V122.97H378.13ZM388.014 129.676H386.376V125.266H384.5V123.95H386.376V120.632H388.014V129.676ZM388.28 132.77H379.67V128.836H381.322V131.482H388.28V132.77ZM399.638 121.192C399.638 123.264 399.507 124.818 399.246 125.854H401.08V127.156H396.25V130.222H394.612V127.156H389.81V125.854H397.664C397.906 124.902 398.018 123.787 398 122.508H391.266V121.192H399.638ZM399.792 132.77H391.252V128.808H392.876V131.482H399.792V132.77ZM405.909 131.426V130.418L407.743 128.486C408.555 127.627 409.157 126.918 409.549 126.358C409.941 125.789 410.137 125.233 410.137 124.692C410.137 124.123 409.983 123.712 409.675 123.46C409.376 123.208 408.914 123.082 408.289 123.082C407.673 123.082 407.01 123.297 406.301 123.726L406.021 122.452C406.851 121.967 407.761 121.724 408.751 121.724C409.787 121.724 410.575 121.962 411.117 122.438C411.658 122.914 411.929 123.591 411.929 124.468C411.929 124.869 411.854 125.275 411.705 125.686C411.565 126.087 411.341 126.498 411.033 126.918C410.725 127.329 410.454 127.665 410.221 127.926C409.997 128.178 409.689 128.509 409.297 128.92L408.163 130.082H412.013V131.426H405.909ZM417.153 131.594C416.033 131.594 415.132 131.216 414.451 130.46C413.77 129.695 413.429 128.537 413.429 126.988V126.386C413.429 125.555 413.527 124.832 413.723 124.216C413.928 123.6 414.208 123.115 414.563 122.76C414.918 122.405 415.31 122.144 415.739 121.976C416.178 121.808 416.654 121.724 417.167 121.724C418.259 121.724 419.146 122.097 419.827 122.844C420.518 123.591 420.863 124.757 420.863 126.344V126.946C420.863 128.533 420.518 129.704 419.827 130.46C419.136 131.216 418.245 131.594 417.153 131.594ZM417.153 130.278C417.806 130.278 418.292 130.026 418.609 129.522C418.926 129.009 419.085 128.187 419.085 127.058V126.344C419.085 124.151 418.446 123.054 417.167 123.054C416.504 123.054 416.014 123.311 415.697 123.824C415.38 124.328 415.221 125.135 415.221 126.246V126.988C415.221 129.181 415.865 130.278 417.153 130.278ZM430.824 123.74H429.116V122.452H430.824V120.632H432.448V127.898H430.824V126.316H429.102V125.028H430.824V123.74ZM428.416 127.156H422.648V121.528H428.416V127.156ZM426.806 125.896V122.788H424.258V125.896H426.806ZM432.546 130.586C432.546 131.361 432.168 131.972 431.412 132.42C430.656 132.877 429.601 133.106 428.248 133.106C426.922 133.106 425.882 132.877 425.126 132.42C424.379 131.972 424.006 131.361 424.006 130.586C424.006 129.802 424.379 129.186 425.126 128.738C425.872 128.281 426.913 128.052 428.248 128.052C429.601 128.052 430.656 128.276 431.412 128.724C432.168 129.172 432.546 129.793 432.546 130.586ZM428.248 129.354C427.454 129.354 426.824 129.466 426.358 129.69C425.9 129.905 425.672 130.203 425.672 130.586C425.672 130.959 425.9 131.253 426.358 131.468C426.824 131.683 427.454 131.79 428.248 131.79C429.069 131.79 429.708 131.683 430.166 131.468C430.623 131.253 430.852 130.959 430.852 130.586C430.852 130.203 430.623 129.905 430.166 129.69C429.708 129.466 429.069 129.354 428.248 129.354Z" fill="white"/>
</g>
<path d="M471.73 82.7036H463.008V79.5116H469.77V78.8676H462.966V77.5796H466.396V76.7396H461.608V75.4936H472.878V76.7396H468.034V77.5796H471.394V80.6596H464.632V81.3596H471.73V82.7036ZM471.436 74.7096H463.05V70.4816H464.688V71.4056H469.812V70.4676H471.436V74.7096ZM469.812 73.4496V72.6516H464.688V73.4496H469.812ZM483.48 70.2856V73.8416H485.258V75.1996H483.48V79.3296H481.814V70.2856H483.48ZM483.774 82.3956H475.388V78.4056H477.026V81.0936H483.774V82.3956ZM479.924 77.1176H474.086V71.2376H479.924V77.1176ZM478.3 75.8296V72.5116H475.71V75.8296H478.3ZM495.663 70.8456C495.663 72.9176 495.532 74.4716 495.271 75.5076H497.105V76.8096H492.275V79.8756H490.637V76.8096H485.835V75.5076H493.689C493.932 74.5556 494.044 73.4402 494.025 72.1616H487.291V70.8456H495.663ZM495.817 82.4236H487.277V78.4616H488.901V81.1356H495.817V82.4236ZM501.934 81.0796V80.0716L503.768 78.1396C504.58 77.2809 505.182 76.5716 505.574 76.0116C505.966 75.4422 506.162 74.8869 506.162 74.3456C506.162 73.7762 506.008 73.3656 505.7 73.1136C505.401 72.8616 504.939 72.7356 504.314 72.7356C503.698 72.7356 503.035 72.9502 502.326 73.3796L502.046 72.1056C502.877 71.6202 503.787 71.3776 504.776 71.3776C505.812 71.3776 506.601 71.6156 507.142 72.0916C507.683 72.5676 507.954 73.2442 507.954 74.1216C507.954 74.5229 507.879 74.9289 507.73 75.3396C507.59 75.7409 507.366 76.1516 507.058 76.5716C506.75 76.9822 506.479 77.3182 506.246 77.5796C506.022 77.8316 505.714 78.1629 505.322 78.5736L504.188 79.7356H508.038V81.0796H501.934ZM517.798 73.3936H516.09V72.1056H517.798V70.2856H519.422V77.5516H517.798V75.9696H516.076V74.6816H517.798V73.3936ZM515.39 76.8096H509.622V71.1816H515.39V76.8096ZM513.78 75.5496V72.4416H511.232V75.5496H513.78ZM519.52 80.2396C519.52 81.0142 519.142 81.6256 518.386 82.0736C517.63 82.5309 516.576 82.7596 515.222 82.7596C513.897 82.7596 512.856 82.5309 512.1 82.0736C511.354 81.6256 510.98 81.0142 510.98 80.2396C510.98 79.4556 511.354 78.8396 512.1 78.3916C512.847 77.9342 513.888 77.7056 515.222 77.7056C516.576 77.7056 517.63 77.9296 518.386 78.3776C519.142 78.8256 519.52 79.4462 519.52 80.2396ZM515.222 79.0076C514.429 79.0076 513.799 79.1196 513.332 79.3436C512.875 79.5582 512.646 79.8569 512.646 80.2396C512.646 80.6129 512.875 80.9069 513.332 81.1216C513.799 81.3362 514.429 81.4436 515.222 81.4436C516.044 81.4436 516.683 81.3362 517.14 81.1216C517.598 80.9069 517.826 80.6129 517.826 80.2396C517.826 79.8569 517.598 79.5582 517.14 79.3436C516.683 79.1196 516.044 79.0076 515.222 79.0076Z" fill="#101727"/>
<path d="M438.815 57.6944H427.545V56.3924H431.591V52.1924H433.229V56.3924H438.815V57.6944ZM437.527 48.0624C437.583 51.2077 437.406 53.5644 436.995 55.1324L435.427 54.9364C435.782 53.6204 435.931 51.7677 435.875 49.3784H428.749V48.0624H437.527ZM449.78 59.3884H441.058V56.1964H447.82V55.5524H441.016V54.2644H444.446V53.4244H439.658V52.1784H450.928V53.4244H446.084V54.2644H449.444V57.3444H442.682V58.0444H449.78V59.3884ZM449.486 51.3944H441.1V47.1664H442.738V48.0904H447.862V47.1524H449.486V51.3944ZM447.862 50.1344V49.3364H442.738V50.1344H447.862ZM461.53 46.9704V50.5264H463.308V51.8844H461.53V56.0144H459.864V46.9704H461.53ZM461.824 59.0804H453.438V55.0904H455.076V57.7784H461.824V59.0804ZM457.974 53.8024H452.136V47.9224H457.974V53.8024ZM456.35 52.5144V49.1964H453.76V52.5144H456.35ZM473.713 47.5304C473.713 49.6024 473.582 51.1564 473.321 52.1924H475.155V53.4944H470.325V56.5604H468.687V53.4944H463.885V52.1924H471.739C471.982 51.2404 472.094 50.125 472.075 48.8464H465.341V47.5304H473.713ZM473.867 59.1084H465.327V55.1464H466.951V57.8204H473.867V59.1084ZM482.56 57.9044C482.009 57.9044 481.473 57.839 480.95 57.7084C480.437 57.5777 480.035 57.419 479.746 57.2324L480.026 55.9864C480.269 56.1357 480.609 56.2664 481.048 56.3784C481.496 56.481 481.902 56.5324 482.266 56.5324C482.919 56.5324 483.423 56.397 483.778 56.1264C484.133 55.8557 484.31 55.4544 484.31 54.9224C484.31 53.9704 483.647 53.485 482.322 53.4664L481.328 53.4384V52.1924L482.21 52.1784C482.77 52.1597 483.218 52.029 483.554 51.7864C483.89 51.5344 484.058 51.189 484.058 50.7504C484.058 49.873 483.489 49.4344 482.35 49.4344C481.715 49.4344 481.034 49.6024 480.306 49.9384L480.11 48.6644C480.409 48.4964 480.815 48.3564 481.328 48.2444C481.841 48.123 482.331 48.0624 482.798 48.0624C483.703 48.0624 484.427 48.2724 484.968 48.6924C485.509 49.103 485.78 49.6864 485.78 50.4424C485.78 51.5344 485.206 52.281 484.058 52.6824C485.421 52.953 486.102 53.737 486.102 55.0344C486.102 55.921 485.785 56.621 485.15 57.1344C484.515 57.6477 483.652 57.9044 482.56 57.9044ZM495.862 50.0784H494.154V48.7904H495.862V46.9704H497.486V54.2364H495.862V52.6544H494.14V51.3664H495.862V50.0784ZM493.454 53.4944H487.686V47.8664H493.454V53.4944ZM491.844 52.2344V49.1264H489.296V52.2344H491.844ZM497.584 56.9244C497.584 57.699 497.206 58.3104 496.45 58.7584C495.694 59.2157 494.639 59.4444 493.286 59.4444C491.96 59.4444 490.92 59.2157 490.164 58.7584C489.417 58.3104 489.044 57.699 489.044 56.9244C489.044 56.1404 489.417 55.5244 490.164 55.0764C490.91 54.619 491.951 54.3904 493.286 54.3904C494.639 54.3904 495.694 54.6144 496.45 55.0624C497.206 55.5104 497.584 56.131 497.584 56.9244ZM493.286 55.6924C492.492 55.6924 491.862 55.8044 491.396 56.0284C490.938 56.243 490.71 56.5417 490.71 56.9244C490.71 57.2977 490.938 57.5917 491.396 57.8064C491.862 58.021 492.492 58.1284 493.286 58.1284C494.107 58.1284 494.746 58.021 495.204 57.8064C495.661 57.5917 495.89 57.2977 495.89 56.9244C495.89 56.5417 495.661 56.243 495.204 56.0284C494.746 55.8044 494.107 55.6924 493.286 55.6924Z" fill="#101727"/>
<path d="M425.5 51.6536H418V89.1536" stroke="#101727"/>
<circle cx="418" cy="88.6536" r="2" fill="#101727"/>
<path d="M458 77.6536H442V93.6536" stroke="#101727"/>
<circle cx="442" cy="92.6536" r="2" fill="#101727"/>
<rect width="86.5" height="32" transform="translate(348 177.661)" fill="#014A70"/>
<path d="M378.713 199.017H367.443V197.715H371.489V193.515H373.127V197.715H378.713V199.017ZM377.425 189.385C377.481 192.531 377.304 194.887 376.893 196.455L375.325 196.259C375.68 194.943 375.829 193.091 375.773 190.701H368.647V189.385H377.425ZM389.679 200.711H380.957V197.519H387.719V196.875H380.915V195.587H384.345V194.747H379.557V193.501H390.827V194.747H385.983V195.587H389.343V198.667H382.581V199.367H389.679V200.711ZM389.385 192.717H380.999V188.489H382.637V189.413H387.761V188.475H389.385V192.717ZM387.761 191.457V190.659H382.637V191.457H387.761ZM401.428 188.293V191.849H403.206V193.207H401.428V197.337H399.762V188.293H401.428ZM401.722 200.403H393.336V196.413H394.974V199.101H401.722V200.403ZM397.872 195.125H392.034V189.245H397.872V195.125ZM396.248 193.837V190.519H393.658V193.837H396.248ZM413.611 188.853C413.611 190.925 413.481 192.479 413.219 193.515H415.053V194.817H410.223V197.883H408.585V194.817H403.783V193.515H411.637C411.88 192.563 411.992 191.448 411.973 190.169H405.239V188.853H413.611ZM413.765 200.431H405.225V196.469H406.849V199.143H413.765V200.431Z" fill="white"/>
<rect width="86.5" height="32" transform="translate(434.5 177.661)" fill="#0068A8"/>
<path d="M463.701 188.293V191.849H465.479V193.207H463.701V197.337H462.035V188.293H463.701ZM463.995 200.403H455.609V196.413H457.247V199.101H463.995V200.403ZM460.145 195.125H454.307V189.245H460.145V195.125ZM458.521 193.837V190.519H455.931V193.837H458.521ZM476.893 192.185L476.179 193.473C475.292 193.399 474.41 193.133 473.533 192.675C472.665 192.218 472.053 191.691 471.699 191.093C471.391 191.719 470.817 192.255 469.977 192.703C469.137 193.142 468.217 193.403 467.219 193.487L466.547 192.213C467.564 192.157 468.469 191.924 469.263 191.513C470.056 191.103 470.555 190.58 470.761 189.945H467.107V188.643H476.305V189.945H472.679C472.912 190.571 473.449 191.093 474.289 191.513C475.138 191.933 476.006 192.157 476.893 192.185ZM477.327 195.629H466.057V194.341H470.845V192.759H472.483V194.341H477.327V195.629ZM467.373 196.609H475.871V200.781H474.247V197.911H467.373V196.609ZM484.596 200.781H482.944V196.343H478.17V195.055H489.44V196.343H484.596V200.781ZM488.978 192.689L488.264 194.019C487.321 193.879 486.416 193.539 485.548 192.997C484.689 192.456 484.111 191.849 483.812 191.177C483.541 191.849 482.977 192.456 482.118 192.997C481.269 193.529 480.359 193.875 479.388 194.033L478.688 192.689C479.827 192.568 480.821 192.181 481.67 191.527C482.519 190.874 482.944 190.099 482.944 189.203V188.559H484.68V189.203C484.68 189.801 484.899 190.361 485.338 190.883C485.786 191.406 486.332 191.821 486.976 192.129C487.629 192.437 488.297 192.624 488.978 192.689ZM500.993 192.465L500.293 193.753C499.407 193.66 498.543 193.394 497.703 192.955C496.873 192.507 496.28 191.989 495.925 191.401C495.617 192.027 495.062 192.554 494.259 192.983C493.457 193.413 492.556 193.669 491.557 193.753L490.871 192.493C491.926 192.437 492.841 192.195 493.615 191.765C494.39 191.327 494.857 190.771 495.015 190.099H491.445V188.783H500.433V190.099H496.863C496.985 190.538 497.269 190.939 497.717 191.303C498.165 191.667 498.679 191.947 499.257 192.143C499.836 192.33 500.415 192.437 500.993 192.465ZM496.849 198.023H495.225V195.783H490.283V194.467H501.553V195.783H496.849V198.023ZM500.265 200.431H491.641V196.791H493.265V199.143H500.265V200.431Z" fill="white"/>
<mask id="path-37-inside-1_73_6515" fill="white">
<path d="M348 209.661H434.5V241.661H348V209.661Z"/>
</mask>
<path d="M348 209.661H434.5V241.661H348V209.661Z" fill="#F2F4F6"/>
<path d="M434.5 241.661V240.661H348V241.661V242.661H434.5V241.661Z" fill="#D0D5DB" mask="url(#path-37-inside-1_73_6515)"/>
<path d="M376.403 224.157V222.869H383.207V224.157H380.743C380.874 224.671 381.219 225.133 381.779 225.543C382.349 225.945 382.946 226.187 383.571 226.271L382.815 227.573C382.283 227.461 381.728 227.205 381.149 226.803C380.571 226.402 380.155 225.982 379.903 225.543C379.67 226.066 379.255 226.551 378.657 226.999C378.069 227.447 377.453 227.751 376.809 227.909L375.997 226.649C376.763 226.481 377.425 226.169 377.985 225.711C378.555 225.254 378.895 224.736 379.007 224.157H376.403ZM386.035 220.293V232.767H384.383V220.293H386.035ZM383.739 228.861L383.865 230.107C381.737 230.397 379.077 230.541 375.885 230.541L375.647 229.211C377.178 229.211 378.307 229.202 379.035 229.183V227.139H380.687V229.113C381.677 229.076 382.694 228.992 383.739 228.861ZM377.999 222.183V220.895H381.723V222.183H377.999ZM392.269 231.241C390.943 231.241 389.893 230.831 389.119 230.009C388.344 229.188 387.957 227.998 387.957 226.439V226.131C387.957 224.61 388.353 223.429 389.147 222.589C389.949 221.749 391.018 221.329 392.353 221.329C393.669 221.329 394.714 221.74 395.489 222.561C396.273 223.383 396.665 224.573 396.665 226.131V226.439C396.665 227.961 396.263 229.141 395.461 229.981C394.667 230.821 393.603 231.241 392.269 231.241ZM392.325 229.911C393.146 229.911 393.767 229.617 394.187 229.029C394.616 228.432 394.831 227.629 394.831 226.621V226.145C394.831 223.84 393.977 222.683 392.269 222.673C391.457 222.673 390.841 222.967 390.421 223.555C390.001 224.134 389.791 224.927 389.791 225.935V226.425C389.791 228.749 390.635 229.911 392.325 229.911ZM402.263 231.241C400.937 231.241 399.887 230.831 399.113 230.009C398.338 229.188 397.951 227.998 397.951 226.439V226.131C397.951 224.61 398.347 223.429 399.141 222.589C399.943 221.749 401.012 221.329 402.347 221.329C403.663 221.329 404.708 221.74 405.483 222.561C406.267 223.383 406.659 224.573 406.659 226.131V226.439C406.659 227.961 406.257 229.141 405.455 229.981C404.661 230.821 403.597 231.241 402.263 231.241ZM402.319 229.911C403.14 229.911 403.761 229.617 404.181 229.029C404.61 228.432 404.825 227.629 404.825 226.621V226.145C404.825 223.84 403.971 222.683 402.263 222.673C401.451 222.673 400.835 222.967 400.415 223.555C399.995 224.134 399.785 224.927 399.785 225.935V226.425C399.785 228.749 400.629 229.911 402.319 229.911Z" fill="#354152"/>
<mask id="path-40-inside-2_73_6515" fill="white">
<path d="M434.5 209.661H521V241.661H434.5V209.661Z"/>
</mask>
<path d="M521 241.661V240.661H434.5V241.661V242.661H521V241.661Z" fill="#D0D5DB" mask="url(#path-40-inside-2_73_6515)"/>
<path d="M477.745 230.485C477.101 230.999 476.219 231.255 475.099 231.255C473.979 231.255 473.101 231.022 472.467 230.555C471.841 230.089 471.529 229.459 471.529 228.665C471.529 228.096 471.715 227.597 472.089 227.167C472.462 226.738 472.933 226.411 473.503 226.187C472.373 225.674 471.809 224.909 471.809 223.891C471.809 223.145 472.107 222.543 472.705 222.085C473.302 221.619 474.1 221.385 475.099 221.385C476.107 221.385 476.9 221.595 477.479 222.015C478.057 222.435 478.347 223.019 478.347 223.765C478.347 224.727 477.763 225.487 476.597 226.047C478.015 226.523 478.725 227.331 478.725 228.469C478.725 229.3 478.398 229.972 477.745 230.485ZM473.657 229.603C474.002 229.865 474.469 229.995 475.057 229.995C475.645 229.995 476.111 229.869 476.457 229.617C476.811 229.356 476.989 229.015 476.989 228.595C476.989 228.119 476.811 227.741 476.457 227.461C476.111 227.172 475.565 226.929 474.819 226.733C474.352 226.892 473.955 227.13 473.629 227.447C473.311 227.765 473.153 228.124 473.153 228.525C473.153 228.983 473.321 229.342 473.657 229.603ZM475.337 225.473C476.261 225.091 476.723 224.563 476.723 223.891C476.723 223.518 476.587 223.215 476.317 222.981C476.046 222.748 475.649 222.631 475.127 222.631C474.632 222.631 474.24 222.743 473.951 222.967C473.671 223.182 473.531 223.476 473.531 223.849C473.531 224.633 474.133 225.175 475.337 225.473ZM481.423 231.143V223.247L479.813 223.569V222.561L482.249 221.469H483.159V231.143H481.423Z" fill="#354152"/>
<mask id="path-43-inside-3_73_6515" fill="white">
<path d="M348 241.661H434.5V273.661H348V241.661Z"/>
</mask>
<path d="M348 241.661H434.5V273.661H348V241.661Z" fill="#F2F4F6"/>
<path d="M434.5 273.661V272.661H348V273.661V274.661H434.5V273.661Z" fill="#D0D5DB" mask="url(#path-43-inside-3_73_6515)"/>
<path d="M387.141 256.661H385.377V259.573H383.711V252.293H385.377V255.331H387.141V256.661ZM377.187 260.189H385.377V264.781H383.725V261.491H377.187V260.189ZM381.835 258.859H375.927V253.049H377.551V254.799H380.183V253.035H381.835V258.859ZM380.183 257.571V256.073H377.551V257.571H380.183ZM392.269 263.241C390.943 263.241 389.893 262.831 389.119 262.009C388.344 261.188 387.957 259.998 387.957 258.439V258.131C387.957 256.61 388.353 255.429 389.147 254.589C389.949 253.749 391.018 253.329 392.353 253.329C393.669 253.329 394.714 253.74 395.489 254.561C396.273 255.383 396.665 256.573 396.665 258.131V258.439C396.665 259.961 396.263 261.141 395.461 261.981C394.667 262.821 393.603 263.241 392.269 263.241ZM392.325 261.911C393.146 261.911 393.767 261.617 394.187 261.029C394.616 260.432 394.831 259.629 394.831 258.621V258.145C394.831 255.84 393.977 254.683 392.269 254.673C391.457 254.673 390.841 254.967 390.421 255.555C390.001 256.134 389.791 256.927 389.791 257.935V258.425C389.791 260.749 390.635 261.911 392.325 261.911ZM402.263 263.241C400.937 263.241 399.887 262.831 399.113 262.009C398.338 261.188 397.951 259.998 397.951 258.439V258.131C397.951 256.61 398.347 255.429 399.141 254.589C399.943 253.749 401.012 253.329 402.347 253.329C403.663 253.329 404.708 253.74 405.483 254.561C406.267 255.383 406.659 256.573 406.659 258.131V258.439C406.659 259.961 406.257 261.141 405.455 261.981C404.661 262.821 403.597 263.241 402.263 263.241ZM402.319 261.911C403.14 261.911 403.761 261.617 404.181 261.029C404.61 260.432 404.825 259.629 404.825 258.621V258.145C404.825 255.84 403.971 254.683 402.263 254.673C401.451 254.673 400.835 254.967 400.415 255.555C399.995 256.134 399.785 256.927 399.785 257.935V258.425C399.785 260.749 400.629 261.911 402.319 261.911Z" fill="#354152"/>
<mask id="path-46-inside-4_73_6515" fill="white">
<path d="M434.5 241.661H521V273.661H434.5V241.661Z"/>
</mask>
<path d="M521 273.661V272.661H434.5V273.661V274.661H521V273.661Z" fill="#D0D5DB" mask="url(#path-46-inside-4_73_6515)"/>
<path d="M471.945 263.087L475.445 254.911H471.091V253.553H477.307V254.575L473.849 263.087H471.945ZM480.928 263.227C479.826 263.227 478.916 263.008 478.198 262.569L478.506 261.253C479.15 261.636 479.812 261.827 480.494 261.827C481.166 261.827 481.688 261.673 482.062 261.365C482.444 261.048 482.636 260.6 482.636 260.021C482.636 258.873 481.945 258.299 480.564 258.299C479.957 258.299 479.308 258.472 478.618 258.817L478.968 253.539H483.98V254.883H480.284L480.102 257.221C480.531 257.109 480.932 257.053 481.306 257.053C482.286 257.053 483.046 257.305 483.588 257.809C484.138 258.313 484.414 259.065 484.414 260.063C484.414 260.978 484.096 261.734 483.462 262.331C482.836 262.929 481.992 263.227 480.928 263.227Z" fill="#354152"/>
<mask id="path-49-inside-5_73_6515" fill="white">
<path d="M348 273.661H434.5V305.661H348V273.661Z"/>
</mask>
<path d="M348 273.661H434.5V305.661H348V273.661Z" fill="#F2F4F6"/>
<path d="M434.5 305.661V304.661H348V305.661V306.661H434.5V305.661Z" fill="#D0D5DB" mask="url(#path-49-inside-5_73_6515)"/>
<path d="M386.889 295.213H375.619V293.911H380.421V291.923C379.283 291.793 378.373 291.419 377.691 290.803C377.019 290.178 376.683 289.413 376.683 288.507C376.683 287.49 377.103 286.664 377.943 286.029C378.783 285.395 379.889 285.077 381.261 285.077C382.633 285.077 383.739 285.395 384.579 286.029C385.419 286.664 385.839 287.49 385.839 288.507C385.839 289.422 385.499 290.192 384.817 290.817C384.136 291.433 383.217 291.802 382.059 291.923V293.911H386.889V295.213ZM384.187 288.521C384.187 287.896 383.921 287.392 383.389 287.009C382.857 286.617 382.148 286.421 381.261 286.421C380.384 286.421 379.679 286.617 379.147 287.009C378.615 287.392 378.349 287.896 378.349 288.521C378.349 289.156 378.615 289.665 379.147 290.047C379.679 290.43 380.384 290.621 381.261 290.621C382.139 290.621 382.843 290.43 383.375 290.047C383.917 289.665 384.187 289.156 384.187 288.521ZM392.269 295.241C390.943 295.241 389.893 294.831 389.119 294.009C388.344 293.188 387.957 291.998 387.957 290.439V290.131C387.957 288.61 388.353 287.429 389.147 286.589C389.949 285.749 391.018 285.329 392.353 285.329C393.669 285.329 394.714 285.74 395.489 286.561C396.273 287.383 396.665 288.573 396.665 290.131V290.439C396.665 291.961 396.263 293.141 395.461 293.981C394.667 294.821 393.603 295.241 392.269 295.241ZM392.325 293.911C393.146 293.911 393.767 293.617 394.187 293.029C394.616 292.432 394.831 291.629 394.831 290.621V290.145C394.831 287.84 393.977 286.683 392.269 286.673C391.457 286.673 390.841 286.967 390.421 287.555C390.001 288.134 389.791 288.927 389.791 289.935V290.425C389.791 292.749 390.635 293.911 392.325 293.911ZM402.263 295.241C400.937 295.241 399.887 294.831 399.113 294.009C398.338 293.188 397.951 291.998 397.951 290.439V290.131C397.951 288.61 398.347 287.429 399.141 286.589C399.943 285.749 401.012 285.329 402.347 285.329C403.663 285.329 404.708 285.74 405.483 286.561C406.267 287.383 406.659 288.573 406.659 290.131V290.439C406.659 291.961 406.257 293.141 405.455 293.981C404.661 294.821 403.597 295.241 402.263 295.241ZM402.319 293.911C403.14 293.911 403.761 293.617 404.181 293.029C404.61 292.432 404.825 291.629 404.825 290.621V290.145C404.825 287.84 403.971 286.683 402.263 286.673C401.451 286.673 400.835 286.967 400.415 287.555C399.995 288.134 399.785 288.927 399.785 289.935V290.425C399.785 292.749 400.629 293.911 402.319 293.911Z" fill="#354152"/>
<mask id="path-52-inside-6_73_6515" fill="white">
<path d="M434.5 273.661H521V305.661H434.5V273.661Z"/>
</mask>
<path d="M521 305.661V304.661H434.5V305.661V306.661H521V305.661Z" fill="#D0D5DB" mask="url(#path-52-inside-6_73_6515)"/>
<path d="M471.008 295.087L474.508 286.911H470.154V285.553H476.37V286.575L472.912 295.087H471.008ZM481.307 295.255C480.187 295.255 479.286 294.877 478.605 294.121C477.924 293.356 477.583 292.199 477.583 290.649V290.047C477.583 289.217 477.681 288.493 477.877 287.877C478.082 287.261 478.362 286.776 478.717 286.421C479.072 286.067 479.464 285.805 479.893 285.637C480.332 285.469 480.808 285.385 481.321 285.385C482.413 285.385 483.3 285.759 483.981 286.505C484.672 287.252 485.017 288.419 485.017 290.005V290.607C485.017 292.194 484.672 293.365 483.981 294.121C483.29 294.877 482.399 295.255 481.307 295.255ZM481.307 293.939C481.96 293.939 482.446 293.687 482.763 293.183C483.08 292.67 483.239 291.849 483.239 290.719V290.005C483.239 287.812 482.6 286.715 481.321 286.715C480.658 286.715 480.168 286.972 479.851 287.485C479.534 287.989 479.375 288.797 479.375 289.907V290.649C479.375 292.843 480.019 293.939 481.307 293.939Z" fill="#354152"/>
<defs>
<clipPath id="clip0_73_6515">
<rect width="320" height="308" fill="white" transform="translate(0 20)"/>
</clipPath>
</defs>
</svg>
