<svg width="328" height="270" viewBox="0 0 328 270" fill="none" xmlns="http://www.w3.org/2000/svg">
<g clip-path="url(#clip0_73_6589)">
<path d="M15.0486 20.9312H238.969" stroke="#E7E7E7" stroke-dasharray="2 2"/>
<path d="M15.0486 82.4104H238.969" stroke="#E7E7E7" stroke-dasharray="2 2"/>
<path d="M15.0486 143.89H238.969" stroke="#E7E7E7" stroke-dasharray="2 2"/>
<path d="M15.0486 205.369H238.969" stroke="#E7E7E7" stroke-dasharray="2 2"/>
<path d="M94.6647 51.2554H71.4434V267.263H94.6647V51.2554Z" fill="#FFD840"/>
<path d="M94.6647 51.2554H71.4434V267.263H94.6647V51.2554Z" fill="#094185"/>
<path d="M126.179 226.554H102.958V267.263H126.179V226.554Z" fill="#1E71D6"/>
<path d="M157.694 226.554H134.473V267.263H157.694V226.554Z" fill="#5BA5FF"/>
<path d="M14.634 0.57666V266.433" stroke="#B2B3BD"/>
<path d="M14.2195 266.848H214.089" stroke="#B2B3BD"/>
<path d="M0.133545 25.0819V24.6134L1.72587 22.9584C2.28318 22.3735 2.68458 21.8917 2.93006 21.5128C3.18218 21.134 3.30823 20.7252 3.30823 20.2866C3.30823 19.4026 2.85044 18.9606 1.93486 18.9606C1.4638 18.9606 0.966197 19.1434 0.442058 19.5089L0.213161 18.8809C0.843455 18.4754 1.46048 18.2727 2.06423 18.2727C2.7277 18.2727 3.23857 18.4455 3.59684 18.7911C3.95511 19.1367 4.13425 19.612 4.13425 20.2168C4.13425 20.7485 3.99161 21.2337 3.70631 21.6723C3.42102 22.111 2.94664 22.6693 2.28318 23.3472L1.23822 24.404H4.28353V25.0819H0.133545ZM7.55309 25.2016C6.82328 25.2016 6.23279 24.939 5.78164 24.414C5.33048 23.8823 5.1049 23.0781 5.1049 22.0013V21.443C5.1049 20.3397 5.33048 19.5388 5.78164 19.0404C6.23943 18.5352 6.83323 18.2827 7.56304 18.2827C8.27959 18.2827 8.85349 18.5319 9.28474 19.0304C9.72263 19.5222 9.94157 20.3132 9.94157 21.4032V22.0113C9.94157 23.088 9.72263 23.8889 9.28474 24.414C8.85349 24.939 8.27627 25.2016 7.55309 25.2016ZM7.55309 24.5436C8.07723 24.5436 8.47199 24.3508 8.73738 23.9654C9.00277 23.5799 9.13546 22.9684 9.13546 22.1309V21.3932C9.13546 19.7582 8.61132 18.9407 7.56304 18.9407C6.48823 18.9407 5.95082 19.7416 5.95082 21.3433V22.0811C5.95082 23.7228 6.48491 24.5436 7.55309 24.5436Z" fill="#808191"/>
<path d="M2.82365 85.7703V79.8384L1.5896 80.1275V79.6689L3.16202 78.9312H3.58V85.7703H2.82365ZM6.3542 85.8501C5.57131 85.8501 4.94765 85.6806 4.48322 85.3416L4.6325 84.7036C4.82491 84.8365 5.06707 84.9495 5.359 85.0425C5.65756 85.1356 5.93953 85.1821 6.20492 85.1821C6.72906 85.1821 7.13709 85.0458 7.42902 84.7733C7.72758 84.4942 7.87686 84.1153 7.87686 83.6368C7.87686 82.6864 7.32949 82.2112 6.23478 82.2112C5.79025 82.2112 5.32583 82.3208 4.8415 82.5402L5.08034 79.0309H8.46402V79.7088H5.71727L5.57794 81.7426C5.93622 81.6495 6.25468 81.603 6.53334 81.603C7.22334 81.603 7.75743 81.7725 8.13561 82.1115C8.51378 82.4504 8.70287 82.9622 8.70287 83.6468C8.70287 84.2649 8.49056 84.7866 8.06594 85.212C7.64132 85.6374 7.07074 85.8501 6.3542 85.8501Z" fill="#808191"/>
<path d="M2.17252 146.419V140.487L0.938477 140.776V140.317L2.51089 139.58H2.92888V146.419H2.17252ZM6.67829 146.498C5.94848 146.498 5.35799 146.236 4.90683 145.711C4.45568 145.179 4.2301 144.375 4.2301 143.298V142.74C4.2301 141.637 4.45568 140.836 4.90683 140.337C5.36463 139.832 5.95843 139.58 6.68824 139.58C7.40479 139.58 7.97869 139.829 8.40994 140.327C8.84783 140.819 9.06677 141.61 9.06677 142.7V143.308C9.06677 144.385 8.84783 145.186 8.40994 145.711C7.97869 146.236 7.40147 146.498 6.67829 146.498ZM6.67829 145.841C7.20243 145.841 7.59719 145.648 7.86258 145.262C8.12797 144.877 8.26066 144.265 8.26066 143.428V142.69C8.26066 141.055 7.73652 140.238 6.68824 140.238C5.61343 140.238 5.07602 141.038 5.07602 142.64V143.378C5.07602 145.02 5.61011 145.841 6.67829 145.841Z" fill="#808191"/>
<path d="M4.78309 207.147C4.00019 207.147 3.37654 206.977 2.91211 206.638L3.06139 206C3.25379 206.133 3.49596 206.246 3.78789 206.339C4.08645 206.432 4.36842 206.479 4.63381 206.479C5.15794 206.479 5.56598 206.343 5.8579 206.07C6.15646 205.791 6.30574 205.412 6.30574 204.934C6.30574 203.983 5.75838 203.508 4.66366 203.508C4.21914 203.508 3.75471 203.618 3.27038 203.837L3.50923 200.328H6.89291V201.006H4.14616L4.00683 203.039C4.3651 202.946 4.68357 202.9 4.96222 202.9C5.65223 202.9 6.18632 203.069 6.5645 203.408C6.94267 203.747 7.13176 204.259 7.13176 204.944C7.13176 205.562 6.91945 206.083 6.49483 206.509C6.07021 206.934 5.49963 207.147 4.78309 207.147Z" fill="#808191"/>
<path d="M5.10713 267.795C4.37731 267.795 3.78683 267.533 3.33567 267.008C2.88452 266.476 2.65894 265.672 2.65894 264.595V264.037C2.65894 262.933 2.88452 262.132 3.33567 261.634C3.79346 261.129 4.38727 260.876 5.11708 260.876C5.83362 260.876 6.40752 261.125 6.83878 261.624C7.27666 262.116 7.49561 262.907 7.49561 263.997V264.605C7.49561 265.682 7.27666 266.482 6.83878 267.008C6.40752 267.533 5.83031 267.795 5.10713 267.795ZM5.10713 267.137C5.63127 267.137 6.02603 266.944 6.29142 266.559C6.5568 266.173 6.6895 265.562 6.6895 264.724V263.987C6.6895 262.352 6.16536 261.534 5.11708 261.534C4.04226 261.534 3.50486 262.335 3.50486 263.937V264.675C3.50486 266.316 4.03895 267.137 5.10713 267.137Z" fill="#808191"/>
<path d="M243.945 204.123C246.693 204.123 248.921 201.891 248.921 199.138C248.921 196.385 246.693 194.153 243.945 194.153C241.197 194.153 238.969 196.385 238.969 199.138C238.969 201.891 241.197 204.123 243.945 204.123Z" fill="#094185"/>
<path d="M248.921 194.153H238.969V204.123H248.921V194.153Z" fill="#094185"/>
<path d="M252.996 196.682V196.044H257.673V196.682H255.723C255.723 197.068 255.726 197.304 255.733 197.39C255.766 197.922 255.998 198.42 256.429 198.885C256.861 199.344 257.342 199.66 257.872 199.832L257.444 200.441C257.027 200.268 256.615 199.995 256.21 199.623C255.806 199.251 255.514 198.872 255.335 198.487C255.215 198.885 254.94 199.294 254.509 199.713C254.084 200.132 253.633 200.444 253.155 200.65L252.717 200.062C253.295 199.836 253.805 199.47 254.25 198.965C254.694 198.46 254.927 197.932 254.947 197.38C254.953 197.3 254.956 197.068 254.956 196.682H252.996ZM259.853 201.657H259.097V198.337H257.365V197.699H259.097V195.276H259.853V201.657ZM260.042 203.701H254.18V201.019H254.937V203.063H260.042V203.701ZM268.039 203.99H267.283V201.039H265.76V200.421H267.283V198.945H265.76V198.327H267.283V195.276H268.039V203.99ZM265.9 197.998H260.904V197.37H265.9V197.998ZM262.138 196.523V195.875H264.695V196.523H262.138ZM265.462 200.371C265.462 200.883 265.273 201.311 264.894 201.657C264.516 201.996 264.025 202.165 263.421 202.165C262.818 202.165 262.327 201.996 261.949 201.657C261.577 201.318 261.391 200.889 261.391 200.371C261.391 199.852 261.577 199.42 261.949 199.075C262.327 198.729 262.818 198.556 263.421 198.556C264.025 198.556 264.516 198.729 264.894 199.075C265.273 199.42 265.462 199.852 265.462 200.371ZM264.337 201.208C264.576 200.989 264.695 200.71 264.695 200.371C264.695 200.032 264.573 199.753 264.327 199.533C264.088 199.307 263.786 199.194 263.421 199.194C263.057 199.194 262.751 199.307 262.506 199.533C262.267 199.753 262.148 200.032 262.148 200.371C262.148 200.71 262.267 200.989 262.506 201.208C262.751 201.421 263.057 201.527 263.421 201.527C263.793 201.527 264.098 201.421 264.337 201.208ZM278.445 199.962H277.688V197.978H276.226V197.35H277.688V195.276H278.445V199.962ZM279.301 203.422L278.853 203.98C278.528 203.787 278.226 203.541 277.947 203.242C277.669 202.936 277.483 202.641 277.39 202.355C277.31 202.647 277.134 202.953 276.862 203.272C276.597 203.591 276.295 203.84 275.957 204.02L275.539 203.461C276.017 203.242 276.385 202.92 276.644 202.494C276.902 202.069 277.032 201.614 277.032 201.129V200.391H277.768V201.129C277.768 201.6 277.907 202.046 278.186 202.464C278.465 202.877 278.836 203.196 279.301 203.422ZM275.33 203.87H272.364V200.49H273.081V201.577H274.613V200.49H275.33V203.87ZM274.613 203.272V202.155H273.081V203.272H274.613ZM273.648 195.705C274.278 195.705 274.806 195.894 275.23 196.273C275.662 196.646 275.877 197.134 275.877 197.739C275.877 198.344 275.662 198.832 275.23 199.204C274.806 199.577 274.278 199.763 273.648 199.763C273.024 199.763 272.494 199.58 272.056 199.214C271.624 198.842 271.409 198.354 271.409 197.749C271.409 197.151 271.624 196.662 272.056 196.283C272.494 195.898 273.024 195.705 273.648 195.705ZM273.648 196.363C273.217 196.363 272.862 196.493 272.583 196.752C272.304 197.004 272.165 197.333 272.165 197.739C272.165 198.151 272.304 198.487 272.583 198.746C272.862 199.005 273.217 199.135 273.648 199.135C274.093 199.135 274.447 199.008 274.713 198.756C274.985 198.497 275.121 198.161 275.121 197.749C275.121 197.337 274.985 197.004 274.713 196.752C274.447 196.493 274.093 196.363 273.648 196.363ZM286.243 195.276V198.736H287.656V199.374H286.243V203.99H285.487V195.276H286.243ZM280.64 201.208H281.138C282.723 201.208 283.951 201.115 284.82 200.929L284.9 201.557C283.858 201.757 282.468 201.856 280.73 201.856H279.874V196.184H284.004V196.822H280.64V201.208Z" fill="#808191"/>
<path d="M243.945 225.724C246.693 225.724 248.921 223.492 248.921 220.739C248.921 217.986 246.693 215.754 243.945 215.754C241.197 215.754 238.969 217.986 238.969 220.739C238.969 223.492 241.197 225.724 243.945 225.724Z" fill="#1E71D6"/>
<path d="M248.921 215.754H238.969V225.724H248.921V215.754Z" fill="#1E71D6"/>
<path d="M260.971 220.466H259.647V223.308H258.891V216.877H259.647V219.828H260.971V220.466ZM259.986 225.311H254.194V223.078H254.95V224.673H259.986V225.311ZM256.672 217.854H254.164V217.186H256.672V217.854ZM258.015 219.14H252.92V218.512H258.015V219.14ZM257.518 221.134C257.518 221.586 257.325 221.955 256.94 222.241C256.555 222.52 256.065 222.66 255.467 222.66C254.884 222.66 254.396 222.52 254.004 222.241C253.62 221.955 253.427 221.586 253.427 221.134C253.427 220.676 253.62 220.307 254.004 220.028C254.389 219.748 254.877 219.609 255.467 219.609C256.065 219.609 256.555 219.748 256.94 220.028C257.325 220.307 257.518 220.676 257.518 221.134ZM256.801 221.134C256.801 220.855 256.672 220.632 256.413 220.466C256.154 220.293 255.839 220.207 255.467 220.207C255.103 220.207 254.791 220.293 254.532 220.466C254.273 220.632 254.144 220.855 254.144 221.134C254.144 221.407 254.273 221.629 254.532 221.802C254.791 221.968 255.103 222.051 255.467 222.051C255.832 222.051 256.144 221.968 256.403 221.802C256.668 221.629 256.801 221.407 256.801 221.134ZM270.332 220.835H264.34V217.406H270.222V218.044H265.097V220.207H270.332V220.835ZM267.644 225.501H266.888V222.61H263.355V221.972H271.207V222.61H267.644V225.501ZM277.901 220.008H276.378V219.37H277.901V216.877H278.657V223.228H277.901V220.008ZM278.876 225.302H273.014V222.65H273.771V224.673H278.876V225.302ZM275.92 221.882H271.88V217.455H272.646V219.041H275.154V217.455H275.92V221.882ZM275.154 221.254V219.669H272.646V221.254H275.154ZM289.949 219.798H288.625V222.091H287.869V216.877H288.625V219.17H289.949V219.798ZM288.734 223.896C288.734 224.394 288.482 224.793 287.978 225.092C287.48 225.398 286.771 225.551 285.848 225.551C284.926 225.551 284.216 225.401 283.719 225.102C283.221 224.803 282.972 224.401 282.972 223.896C282.972 223.384 283.221 222.979 283.719 222.68C284.216 222.38 284.926 222.231 285.848 222.231C286.764 222.231 287.474 222.384 287.978 222.689C288.482 222.989 288.734 223.391 288.734 223.896ZM287.381 224.654C287.759 224.467 287.948 224.215 287.948 223.896C287.948 223.577 287.759 223.328 287.381 223.148C287.009 222.962 286.499 222.869 285.848 222.869C285.198 222.869 284.687 222.962 284.316 223.148C283.944 223.334 283.758 223.583 283.758 223.896C283.758 224.208 283.944 224.457 284.316 224.644C284.687 224.83 285.198 224.923 285.848 224.923C286.499 224.923 287.009 224.833 287.381 224.654ZM282.992 220.865H283.42C284.747 220.865 285.921 220.769 286.943 220.576L287.023 221.194C285.888 221.393 284.528 221.493 282.942 221.493H282.236V217.575H286.157V218.213H282.992V220.865ZM298.155 220.466H296.831V223.308H296.075V216.877H296.831V219.828H298.155V220.466ZM297.17 225.311H291.378V223.078H292.134V224.673H297.17V225.311ZM293.856 217.854H291.348V217.186H293.856V217.854ZM295.199 219.14H290.104V218.512H295.199V219.14ZM294.701 221.134C294.701 221.586 294.509 221.955 294.124 222.241C293.739 222.52 293.249 222.66 292.651 222.66C292.068 222.66 291.58 222.52 291.188 222.241C290.804 221.955 290.611 221.586 290.611 221.134C290.611 220.676 290.804 220.307 291.188 220.028C291.573 219.748 292.061 219.609 292.651 219.609C293.249 219.609 293.739 219.748 294.124 220.028C294.509 220.307 294.701 220.676 294.701 221.134ZM293.985 221.134C293.985 220.855 293.856 220.632 293.597 220.466C293.338 220.293 293.023 220.207 292.651 220.207C292.286 220.207 291.975 220.293 291.716 220.466C291.457 220.632 291.328 220.855 291.328 221.134C291.328 221.407 291.457 221.629 291.716 221.802C291.975 221.968 292.286 222.051 292.651 222.051C293.016 222.051 293.328 221.968 293.587 221.802C293.852 221.629 293.985 221.407 293.985 221.134ZM300.768 218.193V217.555H305.455V218.193H303.515C303.515 218.466 303.518 218.639 303.525 218.712C303.558 219.27 303.784 219.778 304.202 220.237C304.626 220.696 305.107 221.015 305.645 221.194L305.227 221.802C304.809 221.636 304.397 221.36 303.993 220.975C303.594 220.589 303.306 220.2 303.127 219.808C303.007 220.214 302.725 220.642 302.281 221.094C301.836 221.546 301.378 221.875 300.907 222.081L300.499 221.473C301.083 221.247 301.597 220.878 302.042 220.367C302.486 219.855 302.719 219.303 302.739 218.712C302.745 218.639 302.749 218.466 302.749 218.193H300.768ZM301.853 222.53H307.655V225.591H306.889V223.158H301.853V222.53ZM307.645 222.071H306.889V219.828H305.147V219.2H306.889V216.877H307.645V222.071ZM318.041 221.942H317.284V216.877H318.041V221.942ZM318.419 225.611H318.409C318.097 225.458 317.779 225.215 317.453 224.883C317.128 224.55 316.916 224.235 316.817 223.936C316.71 224.261 316.495 224.597 316.17 224.943C315.851 225.295 315.516 225.557 315.164 225.73L314.687 225.222C315.178 224.982 315.589 224.64 315.921 224.195C316.259 223.743 316.428 223.264 316.428 222.759V222.231H317.185V222.729C317.185 223.241 317.354 223.72 317.692 224.165C318.037 224.604 318.432 224.906 318.877 225.072L318.419 225.611ZM315.184 224.414L314.667 224.933C314.441 224.813 314.222 224.65 314.01 224.444C313.804 224.231 313.655 224.009 313.562 223.776C313.456 224.108 313.234 224.457 312.895 224.823C312.564 225.182 312.212 225.451 311.841 225.631L311.383 225.092C311.86 224.886 312.272 224.56 312.617 224.115C312.968 223.67 313.144 223.195 313.144 222.689V222.261H313.901V222.62C313.901 223.052 314.023 223.424 314.269 223.736C314.514 224.049 314.819 224.275 315.184 224.414ZM311.801 217.954C312.239 217.562 312.773 217.366 313.403 217.366C314.033 217.366 314.564 217.562 314.995 217.954C315.433 218.339 315.652 218.841 315.652 219.459C315.652 220.084 315.436 220.586 315.005 220.965C314.574 221.344 314.04 221.533 313.403 221.533C312.766 221.533 312.229 221.344 311.791 220.965C311.359 220.586 311.144 220.087 311.144 219.469C311.144 218.851 311.363 218.346 311.801 217.954ZM313.403 217.984C312.965 217.984 312.6 218.123 312.308 218.403C312.023 218.682 311.88 219.034 311.88 219.459C311.88 219.891 312.023 220.244 312.308 220.516C312.594 220.782 312.958 220.915 313.403 220.915C313.854 220.915 314.219 220.782 314.498 220.516C314.783 220.25 314.926 219.901 314.926 219.469C314.926 219.031 314.786 218.675 314.508 218.403C314.229 218.123 313.861 217.984 313.403 217.984ZM325.839 216.877V220.337H327.252V220.975H325.839V225.591H325.082V216.877H325.839ZM320.236 222.809H320.733C322.319 222.809 323.547 222.716 324.416 222.53L324.495 223.158C323.454 223.357 322.064 223.457 320.325 223.457H319.47V217.784H323.6V218.422H320.236V222.809Z" fill="#808191"/>
<path d="M243.945 247.324C246.693 247.324 248.921 245.093 248.921 242.34C248.921 239.587 246.693 237.355 243.945 237.355C241.197 237.355 238.969 239.587 238.969 242.34C238.969 245.093 241.197 247.324 243.945 247.324Z" fill="#5BA5FF"/>
<path d="M248.921 237.355H238.969V247.324H248.921V237.355Z" fill="#5BA5FF"/>
<path d="M257.902 244.579L257.445 245.148C256.993 244.862 256.552 244.47 256.121 243.971C255.69 243.473 255.401 242.981 255.255 242.496C255.109 243.021 254.84 243.539 254.449 244.051C254.058 244.556 253.596 244.992 253.066 245.357L252.568 244.789C253.225 244.397 253.769 243.848 254.2 243.144C254.638 242.433 254.857 241.695 254.857 240.931V240.033H252.847V239.395H257.654V240.033H255.643V240.911C255.643 241.682 255.859 242.396 256.29 243.054C256.721 243.705 257.259 244.214 257.902 244.579ZM260.848 242.655H259.435V247.191H258.679V238.478H259.435V242.017H260.848V242.655ZM268.427 241.987L268.069 242.625C267.366 242.506 266.706 242.257 266.089 241.878C265.472 241.492 265.064 241.093 264.865 240.681C264.685 241.1 264.291 241.502 263.68 241.888C263.07 242.273 262.403 242.526 261.68 242.645L261.332 242.007C262.101 241.928 262.811 241.672 263.461 241.24C264.118 240.801 264.457 240.296 264.476 239.724H261.66V239.096H268.069V239.724H265.273C265.286 240.11 265.465 240.472 265.81 240.811C266.155 241.15 266.56 241.419 267.024 241.618C267.495 241.811 267.963 241.934 268.427 241.987ZM265.233 247.191H264.476V244.071H260.944V243.433H268.796V244.071H265.233V247.191ZM278.445 243.543H277.689V238.478H278.445V243.543ZM278.823 247.211H278.813C278.501 247.059 278.183 246.816 277.858 246.484C277.533 246.151 277.32 245.836 277.221 245.537C277.115 245.862 276.899 246.198 276.574 246.543C276.256 246.896 275.92 247.158 275.569 247.331L275.091 246.823C275.582 246.583 275.993 246.241 276.325 245.796C276.664 245.344 276.833 244.865 276.833 244.36V243.832H277.589V244.33C277.589 244.842 277.758 245.321 278.097 245.766C278.442 246.204 278.836 246.507 279.281 246.673L278.823 247.211ZM275.589 246.015L275.071 246.533C274.846 246.414 274.627 246.251 274.414 246.045C274.209 245.832 274.059 245.61 273.967 245.377C273.86 245.709 273.638 246.058 273.3 246.424C272.968 246.783 272.616 247.052 272.245 247.231L271.787 246.693C272.265 246.487 272.676 246.161 273.021 245.716C273.373 245.271 273.549 244.795 273.549 244.29V243.862H274.305V244.221C274.305 244.653 274.428 245.025 274.673 245.337C274.919 245.65 275.224 245.875 275.589 246.015ZM272.205 239.555C272.643 239.163 273.177 238.967 273.807 238.967C274.438 238.967 274.968 239.163 275.4 239.555C275.838 239.94 276.056 240.442 276.056 241.06C276.056 241.685 275.841 242.187 275.41 242.566C274.978 242.944 274.444 243.134 273.807 243.134C273.17 243.134 272.633 242.944 272.195 242.566C271.764 242.187 271.548 241.688 271.548 241.07C271.548 240.452 271.767 239.947 272.205 239.555ZM273.807 239.585C273.369 239.585 273.005 239.724 272.713 240.003C272.427 240.283 272.285 240.635 272.285 241.06C272.285 241.492 272.427 241.844 272.713 242.117C272.998 242.383 273.363 242.516 273.807 242.516C274.258 242.516 274.623 242.383 274.902 242.117C275.187 241.851 275.33 241.502 275.33 241.07C275.33 240.631 275.191 240.276 274.912 240.003C274.633 239.724 274.265 239.585 273.807 239.585ZM286.243 238.478V241.937H287.656V242.576H286.243V247.191H285.487V238.478H286.243ZM280.64 244.41H281.138C282.723 244.41 283.951 244.317 284.82 244.131L284.9 244.759C283.858 244.958 282.468 245.058 280.73 245.058H279.874V239.385H284.004V240.023H280.64V244.41Z" fill="#808191"/>
<path d="M243.945 268.925C246.693 268.925 248.921 266.693 248.921 263.94C248.921 261.187 246.693 258.956 243.945 258.956C241.197 258.956 238.969 261.187 238.969 263.94C238.969 266.693 241.197 268.925 243.945 268.925Z" fill="#BABACC"/>
<path d="M248.921 258.956H238.969V268.925H248.921V258.956Z" fill="#BABACC"/>
<path d="M259.836 264.087H253.935V260.567H259.836V264.087ZM259.08 263.459V261.195H254.701V263.459H259.08ZM257.259 268.802H256.502V265.831H252.969V265.193H260.822V265.831H257.259V268.802ZM269.018 264.775H261.166V264.146H269.018V264.775ZM268.192 267.117C268.192 267.629 267.92 268.021 267.376 268.294C266.832 268.573 266.075 268.713 265.107 268.713C264.138 268.713 263.382 268.573 262.838 268.294C262.3 268.021 262.032 267.629 262.032 267.117C262.032 266.612 262.304 266.22 262.848 265.941C263.392 265.662 264.141 265.522 265.097 265.522C266.065 265.522 266.822 265.662 267.366 265.941C267.917 266.22 268.192 266.612 268.192 267.117ZM265.097 266.16C264.38 266.16 263.816 266.243 263.405 266.41C262.994 266.569 262.788 266.805 262.788 267.117C262.788 267.43 262.994 267.669 263.405 267.835C263.816 267.995 264.38 268.075 265.097 268.075C265.827 268.075 266.397 267.995 266.809 267.835C267.22 267.676 267.426 267.436 267.426 267.117C267.426 266.805 267.217 266.569 266.799 266.41C266.387 266.243 265.82 266.16 265.097 266.16ZM268.132 261.883C268.132 262.375 267.86 262.771 267.316 263.07C266.779 263.362 266.036 263.508 265.087 263.508C264.145 263.508 263.405 263.362 262.868 263.07C262.33 262.771 262.061 262.375 262.061 261.883C262.061 261.378 262.33 260.979 262.868 260.687C263.405 260.388 264.145 260.238 265.087 260.238C266.036 260.238 266.779 260.388 267.316 260.687C267.86 260.979 268.132 261.378 268.132 261.883ZM266.769 262.631C267.187 262.452 267.396 262.202 267.396 261.883C267.396 261.564 267.187 261.312 266.769 261.126C266.351 260.94 265.79 260.847 265.087 260.847C264.384 260.847 263.826 260.94 263.415 261.126C263.004 261.312 262.798 261.564 262.798 261.883C262.798 262.202 263.004 262.452 263.415 262.631C263.826 262.811 264.384 262.9 265.087 262.9C265.79 262.9 266.351 262.811 266.769 262.631ZM277.363 262.771H276.039V264.755H275.283V260.079H276.039V262.133H277.363V262.771ZM276.039 268.673H270.575V265.233H271.332V266.33H275.293V265.203H276.039V268.673ZM275.293 268.045V266.938H271.332V268.045H275.293ZM270.456 263.728H270.884C272.171 263.728 273.312 263.628 274.307 263.429L274.367 264.057C273.246 264.256 271.926 264.356 270.406 264.356H269.69V260.657H273.581V261.295H270.456V263.728Z" fill="#808191"/>
</g>
<defs>
<clipPath id="clip0_73_6589">
<rect width="328" height="269.844" fill="white" transform="translate(0 0.078125)"/>
</clipPath>
</defs>
</svg>
