<svg width="340" height="88" viewBox="0 0 340 88" fill="none" xmlns="http://www.w3.org/2000/svg">
<path d="M0.799592 88H318.938C330.57 88 340 78.53 340 66.8476V21.1524C340 9.47 330.57 0 318.938 0H34.4418C22.8091 0 13.3793 9.47 13.3793 21.1524V66.9369C13.3793 75.6403 8.12533 83.2184 0.496708 86.4528C-0.31098 86.7955 -0.0787699 88 0.797572 88H0.799592Z" fill="#F2F4F6"/>
<mask id="path-2-inside-1_78_7368" fill="white">
<path d="M309.003 32.5H44.5625C43.8544 32.5 43.2827 32.2767 43.2827 32C43.2827 31.7233 43.8544 31.5 44.5625 31.5H309.003C309.711 31.5 310.283 31.7233 310.283 32C310.283 32.2767 309.711 32.5 309.003 32.5Z"/>
</mask>
<path d="M309.003 32.5H44.5625C43.8544 32.5 43.2827 32.2767 43.2827 32C43.2827 31.7233 43.8544 31.5 44.5625 31.5H309.003C309.711 31.5 310.283 31.7233 310.283 32C310.283 32.2767 309.711 32.5 309.003 32.5Z" fill="#495565"/>
<path d="M309.003 32.5V30.5H44.5625V32.5V34.5H309.003V32.5ZM44.5625 32.5V30.5C44.3919 30.5 44.3302 30.4695 44.3849 30.4909C44.406 30.4991 44.5596 30.5586 44.7416 30.7271C44.9266 30.8983 45.2827 31.3266 45.2827 32H43.2827H41.2827C41.2827 32.8117 41.7103 33.3717 42.0246 33.6626C42.3359 33.9508 42.6767 34.1179 42.9293 34.2166C43.4467 34.4188 44.025 34.5 44.5625 34.5V32.5ZM43.2827 32H45.2827C45.2827 32.6734 44.9266 33.1017 44.7416 33.2729C44.5596 33.4414 44.406 33.5009 44.3849 33.5091C44.3302 33.5305 44.3919 33.5 44.5625 33.5V31.5V29.5C44.025 29.5 43.4467 29.5812 42.9293 29.7834C42.6767 29.8821 42.3359 30.0492 42.0246 30.3374C41.7103 30.6283 41.2827 31.1883 41.2827 32H43.2827ZM44.5625 31.5V33.5H309.003V31.5V29.5H44.5625V31.5ZM309.003 31.5V33.5C309.174 33.5 309.235 33.5305 309.181 33.5091C309.159 33.5009 309.006 33.4414 308.824 33.2729C308.639 33.1017 308.283 32.6734 308.283 32H310.283H312.283C312.283 31.1883 311.855 30.6283 311.541 30.3374C311.229 30.0492 310.889 29.8821 310.636 29.7834C310.119 29.5812 309.54 29.5 309.003 29.5V31.5ZM310.283 32H308.283C308.283 31.3266 308.639 30.8983 308.824 30.7271C309.006 30.5586 309.159 30.4991 309.181 30.4909C309.235 30.4695 309.174 30.5 309.003 30.5V32.5V34.5C309.54 34.5 310.119 34.4188 310.636 34.2166C310.889 34.1179 311.229 33.9508 311.541 33.6626C311.855 33.3717 312.283 32.8117 312.283 32H310.283Z" fill="#697282" mask="url(#path-2-inside-1_78_7368)"/>
<mask id="path-4-inside-2_78_7368" fill="white">
<path d="M149.487 67H43.5129C43.2291 67 43 66.7767 43 66.5C43 66.2233 43.2291 66 43.5129 66H149.487C149.771 66 150 66.2233 150 66.5C150 66.7767 149.771 67 149.487 67Z"/>
</mask>
<path d="M149.487 67H43.5129C43.2291 67 43 66.7767 43 66.5C43 66.2233 43.2291 66 43.5129 66H149.487C149.771 66 150 66.2233 150 66.5C150 66.7767 149.771 67 149.487 67Z" fill="#495565"/>
<path d="M149.487 67V65H43.5129V67V69H149.487V67ZM43.5129 67V65C44.2854 65 45 65.6245 45 66.5H43H41C41 67.9289 42.1728 69 43.5129 69V67ZM43 66.5H45C45 67.3755 44.2854 68 43.5129 68V66V64C42.1728 64 41 65.0711 41 66.5H43ZM43.5129 66V68H149.487V66V64H43.5129V66ZM149.487 66V68C148.715 68 148 67.3755 148 66.5H150H152C152 65.0711 150.827 64 149.487 64V66ZM150 66.5H148C148 65.6245 148.715 65 149.487 65V67V69C150.827 69 152 67.9289 152 66.5H150Z" fill="#697282" mask="url(#path-4-inside-2_78_7368)"/>
<mask id="path-6-inside-3_78_7368" fill="white">
<path d="M253.984 50H44.0162C43.4539 50 43 49.7767 43 49.5C43 49.2233 43.4539 49 44.0162 49H253.984C254.546 49 255 49.2233 255 49.5C255 49.7767 254.546 50 253.984 50Z"/>
</mask>
<path d="M253.984 50H44.0162C43.4539 50 43 49.7767 43 49.5C43 49.2233 43.4539 49 44.0162 49H253.984C254.546 49 255 49.2233 255 49.5C255 49.7767 254.546 50 253.984 50Z" fill="#495565"/>
<path d="M253.984 50V48H44.0162V50V52H253.984V50ZM44.0162 50V48C43.9726 48 44.0337 47.9871 44.1802 48.0592C44.2538 48.0954 44.4242 48.1905 44.5977 48.3926C44.7824 48.608 45 48.9877 45 49.5H43H41C41 50.8185 42.0265 51.4575 42.4142 51.6483C42.9283 51.9012 43.4975 52 44.0162 52V50ZM43 49.5H45C45 50.0123 44.7824 50.392 44.5977 50.6074C44.4242 50.8095 44.2538 50.9046 44.1802 50.9408C44.0337 51.0129 43.9726 51 44.0162 51V49V47C43.4975 47 42.9283 47.0988 42.4142 47.3517C42.0265 47.5425 41 48.1815 41 49.5H43ZM44.0162 49V51H253.984V49V47H44.0162V49ZM253.984 49V51C254.027 51 253.966 51.0129 253.82 50.9408C253.746 50.9046 253.576 50.8095 253.402 50.6074C253.218 50.392 253 50.0123 253 49.5H255H257C257 48.1815 255.973 47.5425 255.586 47.3517C255.072 47.0988 254.503 47 253.984 47V49ZM255 49.5H253C253 48.9877 253.218 48.608 253.402 48.3926C253.576 48.1905 253.746 48.0954 253.82 48.0592C253.966 47.9871 254.027 48 253.984 48V50V52C254.503 52 255.072 51.9012 255.586 51.6483C255.973 51.4575 257 50.8185 257 49.5H255Z" fill="#697282" mask="url(#path-6-inside-3_78_7368)"/>
</svg>
