<svg width="340" height="92" viewBox="0 0 340 92" fill="none" xmlns="http://www.w3.org/2000/svg">
<path d="M339.172 91.5H21.8144C9.76636 91.5 0 81.7072 0 69.6265V22.3735C0 10.2928 9.76636 0.5 21.8144 0.5H304.329C316.377 0.5 326.143 10.2928 326.143 22.3735V69.7188C326.143 78.719 331.585 86.5554 339.486 89.9C340.322 90.2544 340.082 91.5 339.174 91.5H339.172Z" fill="#F2F4F6"/>
<mask id="path-2-inside-1_78_7374" fill="white">
<path d="M244.984 33.5H35.0162C34.4539 33.5 34 33.2767 34 33C34 32.7233 34.4539 32.5 35.0162 32.5H244.984C245.546 32.5 246 32.7233 246 33C246 33.2767 245.546 33.5 244.984 33.5Z"/>
</mask>
<path d="M244.984 33.5H35.0162C34.4539 33.5 34 33.2767 34 33C34 32.7233 34.4539 32.5 35.0162 32.5H244.984C245.546 32.5 246 32.7233 246 33C246 33.2767 245.546 33.5 244.984 33.5Z" fill="#495565"/>
<path d="M244.984 33.5V31.5H35.0162V33.5V35.5H244.984V33.5ZM35.0162 33.5V31.5C34.9726 31.5 35.0337 31.4871 35.1802 31.5592C35.2538 31.5954 35.4242 31.6905 35.5977 31.8926C35.7824 32.108 36 32.4877 36 33H34H32C32 34.3185 33.0265 34.9575 33.4142 35.1483C33.9283 35.4012 34.4975 35.5 35.0162 35.5V33.5ZM34 33H36C36 33.5123 35.7824 33.892 35.5977 34.1074C35.4242 34.3095 35.2538 34.4046 35.1802 34.4408C35.0337 34.5129 34.9726 34.5 35.0162 34.5V32.5V30.5C34.4975 30.5 33.9283 30.5988 33.4142 30.8517C33.0265 31.0425 32 31.6815 32 33H34ZM35.0162 32.5V34.5H244.984V32.5V30.5H35.0162V32.5ZM244.984 32.5V34.5C245.027 34.5 244.966 34.5129 244.82 34.4408C244.746 34.4046 244.576 34.3095 244.402 34.1074C244.218 33.892 244 33.5123 244 33H246H248C248 31.6815 246.973 31.0425 246.586 30.8517C246.072 30.5988 245.503 30.5 244.984 30.5V32.5ZM246 33H244C244 32.4877 244.218 32.108 244.402 31.8926C244.576 31.6905 244.746 31.5954 244.82 31.5592C244.966 31.4871 245.027 31.5 244.984 31.5V33.5V35.5C245.503 35.5 246.072 35.4012 246.586 35.1483C246.973 34.9575 248 34.3185 248 33H246Z" fill="#697282" mask="url(#path-2-inside-1_78_7374)"/>
<mask id="path-4-inside-2_78_7374" fill="white">
<path d="M140.487 67.5H34.5129C34.2291 67.5 34 67.2767 34 67C34 66.7233 34.2291 66.5 34.5129 66.5H140.487C140.771 66.5 141 66.7233 141 67C141 67.2767 140.771 67.5 140.487 67.5Z"/>
</mask>
<path d="M140.487 67.5H34.5129C34.2291 67.5 34 67.2767 34 67C34 66.7233 34.2291 66.5 34.5129 66.5H140.487C140.771 66.5 141 66.7233 141 67C141 67.2767 140.771 67.5 140.487 67.5Z" fill="#495565"/>
<path d="M140.487 67.5V65.5H34.5129V67.5V69.5H140.487V67.5ZM34.5129 67.5V65.5C35.2854 65.5 36 66.1245 36 67H34H32C32 68.4289 33.1728 69.5 34.5129 69.5V67.5ZM34 67H36C36 67.8755 35.2854 68.5 34.5129 68.5V66.5V64.5C33.1728 64.5 32 65.5711 32 67H34ZM34.5129 66.5V68.5H140.487V66.5V64.5H34.5129V66.5ZM140.487 66.5V68.5C139.715 68.5 139 67.8755 139 67H141H143C143 65.5711 141.827 64.5 140.487 64.5V66.5ZM141 67H139C139 66.1245 139.715 65.5 140.487 65.5V67.5V69.5C141.827 69.5 143 68.4289 143 67H141Z" fill="#697282" mask="url(#path-4-inside-2_78_7374)"/>
<mask id="path-6-inside-3_78_7374" fill="white">
<path d="M244.984 50.5H35.0162C34.4539 50.5 34 50.2767 34 50C34 49.7233 34.4539 49.5 35.0162 49.5H244.984C245.546 49.5 246 49.7233 246 50C246 50.2767 245.546 50.5 244.984 50.5Z"/>
</mask>
<path d="M244.984 50.5H35.0162C34.4539 50.5 34 50.2767 34 50C34 49.7233 34.4539 49.5 35.0162 49.5H244.984C245.546 49.5 246 49.7233 246 50C246 50.2767 245.546 50.5 244.984 50.5Z" fill="#495565"/>
<path d="M244.984 50.5V48.5H35.0162V50.5V52.5H244.984V50.5ZM35.0162 50.5V48.5C34.9726 48.5 35.0337 48.4871 35.1802 48.5592C35.2538 48.5954 35.4242 48.6905 35.5977 48.8926C35.7824 49.108 36 49.4877 36 50H34H32C32 51.3185 33.0265 51.9575 33.4142 52.1483C33.9283 52.4012 34.4975 52.5 35.0162 52.5V50.5ZM34 50H36C36 50.5123 35.7824 50.892 35.5977 51.1074C35.4242 51.3095 35.2538 51.4046 35.1802 51.4408C35.0337 51.5129 34.9726 51.5 35.0162 51.5V49.5V47.5C34.4975 47.5 33.9283 47.5988 33.4142 47.8517C33.0265 48.0425 32 48.6815 32 50H34ZM35.0162 49.5V51.5H244.984V49.5V47.5H35.0162V49.5ZM244.984 49.5V51.5C245.027 51.5 244.966 51.5129 244.82 51.4408C244.746 51.4046 244.576 51.3095 244.402 51.1074C244.218 50.892 244 50.5123 244 50H246H248C248 48.6815 246.973 48.0425 246.586 47.8517C246.072 47.5988 245.503 47.5 244.984 47.5V49.5ZM246 50H244C244 49.4877 244.218 49.108 244.402 48.8926C244.576 48.6905 244.746 48.5954 244.82 48.5592C244.966 48.4871 245.027 48.5 244.984 48.5V50.5V52.5C245.503 52.5 246.072 52.4012 246.586 52.1483C246.973 51.9575 248 51.3185 248 50H246Z" fill="#697282" mask="url(#path-6-inside-3_78_7374)"/>
</svg>
