<svg width="120" height="134" viewBox="0 0 120 134" fill="none" xmlns="http://www.w3.org/2000/svg">
<g clip-path="url(#clip0_78_7316)">
<path d="M119.664 73.4827C119.664 74.5376 119.635 75.5859 119.581 76.6274C119.478 78.583 119.283 80.5119 118.996 82.4161C117.903 89.6889 115.494 96.5326 112.017 102.699C109.343 107.437 106.043 111.773 102.223 115.6C100.345 117.479 98.3419 119.236 96.229 120.854C95.2364 121.614 94.2214 122.343 93.1817 123.042C92.1577 123.728 91.1114 124.386 90.0426 125.007C89.1037 125.559 88.1447 126.084 87.1701 126.583C78.976 130.791 69.6796 133.167 59.8297 133.167C52.5095 133.167 45.4985 131.855 39.0186 129.455C37.0087 128.713 35.0549 127.865 33.1526 126.92C25.996 123.36 19.6572 118.411 14.4903 112.426C11.2772 108.711 8.51893 104.594 6.29621 100.165C2.26753 92.134 0 83.0732 0 73.4827C0 41.4748 25.2633 15.3473 56.9863 13.8677C57.3426 13.8498 57.6988 13.8364 58.0574 13.8275C58.6466 13.8096 59.2382 13.8007 59.8342 13.8007C61.4138 13.8007 62.9801 13.861 64.5261 13.9817C64.7972 14.004 65.0639 14.0242 65.3327 14.051C95.7988 16.8202 119.664 42.3733 119.664 73.4827Z" fill="#DEEDFF"/>
<path d="M56.0363 20.5952H66.5427C71.0889 20.5952 74.7815 24.2763 74.7815 28.8134V34.4234H47.7974V28.8134C47.7974 24.2785 51.49 20.5952 56.0363 20.5952Z" fill="#404040"/>
<path d="M64.5239 10.8236H58.0551V28.3373H64.5239V10.8236Z" fill="#404040"/>
<path d="M68.4847 9.5409C69.4093 5.57451 66.9354 1.61147 62.959 0.689193C58.9827 -0.233084 55.0097 2.23465 54.0851 6.20104C53.1605 10.1674 55.6344 14.1305 59.6108 15.0527C63.5871 15.975 67.5601 13.5073 68.4847 9.5409Z" fill="#6397FF"/>
<path d="M97.905 72.3652C93.0563 72.3652 89.1262 68.4449 89.1262 63.6083V52.9159C89.1262 48.0793 93.0563 44.1591 97.905 44.1591C102.754 44.1591 106.684 48.0793 106.684 52.9159V63.6083C106.684 68.4449 102.754 72.3652 97.905 72.3652Z" fill="#404040"/>
<path d="M102.225 115.597C100.347 117.477 98.3442 119.234 96.2312 120.852C95.2386 121.612 94.2236 122.341 93.184 123.04C92.16 123.726 91.1136 124.383 90.0448 125.005C89.106 125.557 88.147 126.082 87.1723 126.58C78.9783 130.789 69.6818 133.165 59.832 133.165C52.5118 133.165 45.5008 131.853 39.0208 129.452C37.011 128.71 35.0571 127.863 33.1548 126.918C25.9982 123.357 19.6594 118.409 14.4925 112.424C16.7914 107.017 19.7782 102.098 23.3139 97.8334C27.7145 92.5207 32.9666 88.2228 38.8013 85.2546C39.0701 85.1183 39.339 84.982 39.6124 84.8523H39.6168C45.214 82.148 51.3265 80.6594 57.7325 80.6594C64.5956 80.6594 71.1293 82.3692 77.0468 85.4513C77.0468 85.4513 77.0468 85.4513 77.0513 85.4513C77.2216 85.5385 77.3919 85.6301 77.5599 85.7218C81.5595 87.8696 85.2722 90.6478 88.6086 93.9534C88.622 93.9668 88.6377 93.9824 88.6489 93.9936C89.4174 94.7558 90.1658 95.5492 90.894 96.365C95.6845 101.747 99.5653 108.278 102.225 115.591V115.597Z" fill="#6397FF"/>
<path d="M33.1548 126.918C25.9982 123.357 19.6594 118.407 14.4925 112.424C11.2794 108.709 8.52118 104.592 6.29846 100.162C10.8134 96.7092 15.5434 95.2385 19.9261 96.3672C21.1293 96.6779 22.2586 97.1718 23.3139 97.8334C30.1076 102.089 33.7374 113.284 33.1548 126.918Z" fill="#6397FF"/>
<path d="M38.7878 76.6051H77.6003V84.6378C77.6003 92.2101 71.4363 98.3587 63.845 98.3587H52.5432C44.9519 98.3587 38.7878 92.2101 38.7878 84.6378V76.6051Z" fill="#404040"/>
<path d="M79.6908 25.5391H44.8286C32.3054 25.5391 22.1533 35.6657 22.1533 48.1576V62.8373C22.1533 75.3291 32.3054 85.4558 44.8286 85.4558H79.6908C92.214 85.4558 102.366 75.3291 102.366 62.8373V48.1576C102.366 35.6657 92.214 25.5391 79.6908 25.5391Z" fill="#6397FF"/>
<path d="M21.1382 72.3652C16.2895 72.3652 12.3594 68.4449 12.3594 63.6083V52.9159C12.3594 48.0793 16.2895 44.1591 21.1382 44.1591C25.987 44.1591 29.9171 48.0793 29.9171 52.9159V63.6083C29.9171 68.4449 25.987 72.3652 21.1382 72.3652Z" fill="#404040"/>
<path d="M78.6175 42.8672H52.5566C42.1965 42.8672 33.7979 51.2447 33.7979 61.5789V61.5811C33.7979 71.9153 42.1965 80.2928 52.5566 80.2928H78.6175C88.9777 80.2928 97.3762 71.9153 97.3762 61.5811V61.5789C97.3762 51.2447 88.9777 42.8672 78.6175 42.8672Z" fill="#DEEDFF"/>
<path d="M59.7521 63.4768C60.2405 61.4992 59.0293 59.5011 57.0467 59.0139C55.0642 58.5267 53.061 59.7349 52.5726 61.7125C52.0842 63.6901 53.2954 65.6882 55.278 66.1754C57.2605 66.6626 59.2636 65.4544 59.7521 63.4768Z" fill="#404040"/>
<path d="M92.9507 64.527C94.0185 62.791 93.4732 60.5202 91.7328 59.4552C89.9924 58.3901 87.716 58.934 86.6482 60.67C85.5804 62.406 86.1257 64.6768 87.8661 65.7419C89.6065 66.807 91.8829 66.2631 92.9507 64.527Z" fill="#404040"/>
<path d="M67.6204 65.9126H79.2651V66.9273C79.2651 70.1323 76.6569 72.7339 73.4439 72.7339C70.2308 72.7339 67.6227 70.1323 67.6227 66.9273V65.9126H67.6204Z" fill="#6397FF"/>
<path d="M87.1701 126.58C78.976 130.789 69.6796 133.165 59.8297 133.165C52.5095 133.165 45.4986 131.853 39.0186 129.452C41.3713 118.579 47.793 109.97 55.9825 106.653C58.3442 105.694 60.8559 105.18 63.4618 105.18C67.4322 105.18 71.192 106.38 74.544 108.521C76.4262 109.724 78.1784 111.223 79.7647 112.973C81.5797 114.972 83.1773 117.298 84.5082 119.884C85.5792 121.961 86.4755 124.205 87.1723 126.578L87.1701 126.58Z" fill="#DEEDFF"/>
<path d="M74.5441 108.526C73.8898 113.517 70.0045 117.35 65.3104 117.35C60.1546 117.35 55.9758 112.725 55.9758 107.026C55.9758 106.903 55.9781 106.778 55.9848 106.657C58.3487 105.699 60.8582 105.184 63.4641 105.184C67.4367 105.184 71.1965 106.385 74.5441 108.528V108.526Z" fill="white"/>
<path d="M59.832 133.5C52.6305 133.5 45.5882 132.244 38.9043 129.767C36.9146 129.034 34.9317 128.176 33.0047 127.217C25.8145 123.639 19.5004 118.735 14.2371 112.643C10.9881 108.886 8.21646 104.737 5.99823 100.314C4.376 97.0824 3.04057 93.6851 2.03452 90.2163C1.98299 90.0375 2.08606 89.852 2.26307 89.8006C2.44008 89.747 2.6283 89.852 2.67983 90.0286C3.67692 93.4571 4.99442 96.8164 6.60096 100.012C8.79455 104.386 11.5349 108.488 14.7479 112.205C19.9507 118.23 26.1954 123.078 33.305 126.616C35.2073 127.564 37.1701 128.411 39.1374 129.137C45.7473 131.587 52.7112 132.827 59.832 132.827C69.4152 132.827 78.5638 130.626 87.0177 126.281C88.0148 125.769 88.9738 125.242 89.8745 124.714C90.9142 124.108 91.9651 123.451 92.9958 122.758C94.0085 122.079 95.028 121.346 96.0251 120.584C98.1179 118.983 100.123 117.224 101.985 115.358C105.803 111.536 109.079 107.218 111.723 102.531C115.257 96.2621 117.594 89.4765 118.662 82.3624C118.947 80.4649 119.142 78.5294 119.243 76.6072C119.296 75.5635 119.326 74.5108 119.326 73.4804C119.326 45.6319 99.5362 21.2187 72.2698 15.4344C72.0883 15.3964 71.9718 15.2176 72.0099 15.0366C72.048 14.8556 72.2272 14.7393 72.4087 14.7773C85.6801 17.5935 97.7504 24.9445 106.399 35.476C115.167 46.1549 119.998 59.6501 119.998 73.4804C119.998 74.522 119.971 75.5858 119.915 76.6408C119.814 78.5852 119.615 80.5431 119.328 82.4608C118.246 89.6553 115.884 96.5191 112.31 102.858C109.635 107.598 106.323 111.963 102.462 115.83C100.578 117.718 98.5503 119.495 96.4352 121.113C95.4269 121.885 94.3962 122.624 93.3699 123.313C92.3258 124.012 91.2637 124.678 90.2129 125.291C89.3032 125.825 88.3307 126.359 87.3247 126.875C78.7744 131.269 69.5228 133.495 59.832 133.495V133.5Z" fill="#404040"/>
</g>
<defs>
<clipPath id="clip0_78_7316">
<rect width="120" height="133" fill="white" transform="translate(0 0.5)"/>
</clipPath>
</defs>
</svg>
