<svg width="432" height="317" viewBox="0 0 432 317" fill="none" xmlns="http://www.w3.org/2000/svg">
<g clip-path="url(#clip0_114_8054)">
<g clip-path="url(#clip1_114_8054)">
<path d="M79.7759 48.838C79.7759 49.5439 79.7565 50.2454 79.7207 50.9423C79.6519 52.251 79.522 53.5417 79.3308 54.816C78.6018 59.6828 76.996 64.2623 74.6777 68.3888C72.8957 71.5595 70.6953 74.461 68.1485 77.0215C66.8967 78.2793 65.5613 79.4549 64.1527 80.5377C63.4909 81.0462 62.8142 81.5338 62.1211 82.0019C61.4385 82.4611 60.7409 82.9008 60.0284 83.3166C59.4025 83.686 58.7632 84.0375 58.1134 84.371C52.6507 87.1872 46.4531 88.7771 39.8865 88.7771C35.0063 88.7771 30.3324 87.8992 26.0124 86.2929C24.6725 85.7963 23.3699 85.2295 22.1017 84.5968C17.3306 82.2143 13.1048 78.903 9.66017 74.8977C7.51811 72.412 5.67929 69.6571 4.19748 66.6927C1.51169 61.319 0 55.2557 0 48.838C0 27.4192 16.8422 9.93536 37.9909 8.94526C38.2284 8.93329 38.4659 8.92432 38.7049 8.91834C39.0978 8.90637 39.4921 8.90039 39.8895 8.90039C40.9426 8.90039 41.9867 8.94077 43.0174 9.02154C43.1981 9.03649 43.3759 9.04995 43.5552 9.0679C63.8659 10.921 79.7759 28.0204 79.7759 48.838Z" fill="#DEEDFF"/>
<path d="M37.3573 13.4471H44.3616C47.3924 13.4471 49.8541 15.9104 49.8541 18.9465V22.7006H31.8647V18.9465C31.8647 15.9119 34.3265 13.4471 37.3573 13.4471Z" fill="#404040"/>
<path d="M43.0161 6.90833H38.7036V18.628H43.0161V6.90833Z" fill="#404040"/>
<path d="M45.6563 6.04994C46.2727 3.39575 44.6234 0.743785 41.9725 0.126623C39.3216 -0.49054 36.6729 1.1608 36.0565 3.815C35.4401 6.4692 37.0894 9.12116 39.7403 9.73832C42.3912 10.3555 45.0399 8.70414 45.6563 6.04994Z" fill="#6397FF"/>
<path d="M65.27 48.0902C62.0375 48.0902 59.4175 45.4669 59.4175 42.2304V35.0753C59.4175 31.8388 62.0375 29.2155 65.27 29.2155C68.5026 29.2155 71.1226 31.8388 71.1226 35.0753V42.2304C71.1226 45.4669 68.5026 48.0902 65.27 48.0902Z" fill="#404040"/>
<path d="M68.1499 77.0201C66.8982 78.2779 65.5627 79.4534 64.1541 80.5363C63.4924 81.0448 62.8157 81.5324 62.1226 82.0005C61.44 82.4597 60.7424 82.8994 60.0298 83.3151C59.4039 83.6846 58.7646 84.036 58.1148 84.3696C52.6521 87.1858 46.4545 88.7757 39.8879 88.7757C35.0078 88.7757 30.3338 87.8977 26.0139 86.2914C24.6739 85.7949 23.3714 85.228 22.1032 84.5954C17.3321 82.2129 13.1062 78.9016 9.66162 74.8963C11.1942 71.2784 13.1854 67.9865 15.5426 65.1329C18.4763 61.5778 21.9777 58.7017 25.8675 56.7155C26.0467 56.6243 26.226 56.533 26.4082 56.4463H26.4112C30.1426 54.6366 34.2176 53.6405 38.4883 53.6405C43.0637 53.6405 47.4195 54.7847 51.3645 56.8471C51.3645 56.8471 51.3645 56.8471 51.3675 56.8471C51.481 56.9054 51.5946 56.9668 51.7066 57.0281C54.373 58.4654 56.8481 60.3244 59.0723 62.5365C59.0813 62.5454 59.0918 62.5559 59.0992 62.5634C59.6116 63.0734 60.1105 63.6043 60.596 64.1502C63.7896 67.7517 66.3768 72.1219 68.1499 77.0156V77.0201Z" fill="#6397FF"/>
<path d="M22.103 84.5954C17.3319 82.2129 13.106 78.9001 9.66142 74.8963C7.51937 72.4106 5.68054 69.6556 4.19873 66.6913C7.20866 64.3806 10.362 63.3964 13.2838 64.1517C14.086 64.3596 14.8388 64.6902 15.5424 65.1329C20.0715 67.9805 22.4914 75.4721 22.103 84.5954Z" fill="#6397FF"/>
<path d="M25.8584 50.9275H51.7334V56.3028C51.7334 61.3699 47.624 65.4844 42.5632 65.4844H35.0286C29.9677 65.4844 25.8584 61.3699 25.8584 56.3028V50.9275Z" fill="#404040"/>
<path d="M53.1274 16.7555H29.8859C21.5371 16.7555 14.769 23.532 14.769 31.8912V41.7144C14.769 50.0737 21.5371 56.8501 29.8859 56.8501H53.1274C61.4762 56.8501 68.2443 50.0737 68.2443 41.7144V31.8912C68.2443 23.532 61.4762 16.7555 53.1274 16.7555Z" fill="#6397FF"/>
<path d="M14.0923 48.0902C10.8598 48.0902 8.23975 45.4669 8.23975 42.2304V35.0753C8.23975 31.8388 10.8598 29.2155 14.0923 29.2155C17.3248 29.2155 19.9449 31.8388 19.9449 35.0753V42.2304C19.9449 45.4669 17.3248 48.0902 14.0923 48.0902Z" fill="#404040"/>
<path d="M52.4115 28.3511H35.0375C28.1308 28.3511 22.5317 33.9571 22.5317 40.8724V40.8739C22.5317 47.7893 28.1308 53.3953 35.0375 53.3953H52.4115C59.3182 53.3953 64.9173 47.7893 64.9173 40.8739V40.8724C64.9173 33.9571 59.3182 28.3511 52.4115 28.3511Z" fill="#DEEDFF"/>
<path d="M39.8349 42.1424C40.1605 40.8191 39.353 39.482 38.0313 39.156C36.7096 38.8299 35.3742 39.6384 35.0486 40.9618C34.723 42.2851 35.5304 43.6222 36.8521 43.9482C38.1738 44.2743 39.5093 43.4658 39.8349 42.1424Z" fill="#404040"/>
<path d="M61.9671 42.8451C62.679 41.6834 62.3155 40.1639 61.1552 39.4512C59.995 38.7384 58.4773 39.1024 57.7655 40.2641C57.0536 41.4258 57.4171 42.9453 58.5774 43.6581C59.7377 44.3708 61.2553 44.0068 61.9671 42.8451Z" fill="#404040"/>
<path d="M45.0801 43.7723H52.8432V44.4513C52.8432 46.5961 51.1044 48.337 48.9624 48.337C46.8203 48.337 45.0816 46.5961 45.0816 44.4513V43.7723H45.0801Z" fill="#6397FF"/>
<path d="M58.1132 84.3695C52.6505 87.1858 46.4529 88.7756 39.8863 88.7756C35.0062 88.7756 30.3322 87.8977 26.0122 86.2914C27.5807 79.0152 31.8618 73.2541 37.3215 71.0346C38.8959 70.3929 40.5704 70.049 42.3077 70.049C44.9546 70.049 47.4612 70.8521 49.6958 72.2849C50.9506 73.0896 52.1187 74.0931 53.1763 75.2642C54.3862 76.6013 55.4513 78.1582 56.3386 79.8887C57.0526 81.2781 57.6501 82.7797 58.1147 84.368L58.1132 84.3695Z" fill="#DEEDFF"/>
<path d="M49.6962 72.288C49.26 75.6277 46.6698 78.1927 43.5404 78.1927C40.1033 78.1927 37.3174 75.0982 37.3174 71.2844C37.3174 71.2021 37.3189 71.1184 37.3234 71.0376C38.8993 70.396 40.5723 70.052 42.3095 70.052C44.958 70.052 47.4645 70.8551 49.6962 72.2895V72.288Z" fill="white"/>
<path d="M39.8881 89C35.0872 89 30.3923 88.1594 25.9364 86.5023C24.6099 86.0117 23.2879 85.4374 22.0033 84.7958C17.2098 82.4013 13.0004 79.1199 9.49155 75.0428C7.32559 72.5287 5.47781 69.7528 3.99898 66.793C2.9175 64.6303 2.02721 62.357 1.35651 60.0358C1.32216 59.9161 1.39087 59.792 1.50888 59.7576C1.62688 59.7217 1.75236 59.792 1.78672 59.9101C2.45144 62.2044 3.32977 64.4523 4.4008 66.5911C5.8632 69.518 7.69007 72.2625 9.83213 74.7497C13.3006 78.7819 17.4638 82.0259 22.2035 84.3935C23.4717 85.0276 24.7802 85.5944 26.0917 86.0805C30.4983 87.7197 35.141 88.5498 39.8881 88.5498C46.277 88.5498 52.376 87.0766 58.012 84.1691C58.6767 83.8266 59.316 83.4736 59.9165 83.1207C60.6096 82.7154 61.3102 82.2757 61.9973 81.812C62.6725 81.3573 63.3522 80.8668 64.0169 80.3568C65.4121 79.2859 66.749 78.1089 67.9903 76.86C70.5357 74.3025 72.7196 71.413 74.4822 68.2766C76.8379 64.0814 78.3959 59.5407 79.1084 54.7801C79.2981 53.5103 79.4281 52.2151 79.4953 50.9289C79.5311 50.2304 79.5506 49.526 79.5506 48.8365C79.5506 30.2011 66.3576 13.8644 48.18 9.99372C48.059 9.9683 47.9814 9.84865 48.0067 9.7275C48.0321 9.60636 48.1516 9.52859 48.2726 9.55401C57.1202 11.4385 65.1671 16.3576 70.933 23.405C76.7781 30.5511 79.9987 39.5816 79.9987 48.8365C79.9987 49.5335 79.9808 50.2454 79.9434 50.9513C79.8762 52.2525 79.7433 53.5627 79.5521 54.8459C78.8306 59.6604 77.2561 64.2534 74.8736 68.495C73.09 71.6672 70.8822 74.5882 68.3085 77.1756C67.0522 78.4394 65.7004 79.6284 64.2903 80.7112C63.6181 81.2272 62.9309 81.7223 62.2468 82.1829C61.5507 82.6511 60.8427 83.0968 60.1421 83.5066C59.5356 83.864 58.8873 84.2215 58.2166 84.5669C52.5164 87.5073 46.3487 88.997 39.8881 88.997V89Z" fill="#404040"/>
</g>
<path d="M92.7996 88.5H410.938C422.57 88.5 432 79.03 432 67.3476V21.6524C432 9.97 422.57 0.5 410.938 0.5H126.442C114.809 0.5 105.379 9.97 105.379 21.6524V67.4369C105.379 76.1403 100.125 83.7184 92.4967 86.9528C91.689 87.2955 91.9212 88.5 92.7976 88.5H92.7996Z" fill="#F2F4F6"/>
<mask id="path-19-inside-1_114_8054" fill="white">
<path d="M401.003 33H136.563C135.854 33 135.283 32.7767 135.283 32.5C135.283 32.2233 135.854 32 136.563 32H401.003C401.711 32 402.283 32.2233 402.283 32.5C402.283 32.7767 401.711 33 401.003 33Z"/>
</mask>
<path d="M401.003 33H136.563C135.854 33 135.283 32.7767 135.283 32.5C135.283 32.2233 135.854 32 136.563 32H401.003C401.711 32 402.283 32.2233 402.283 32.5C402.283 32.7767 401.711 33 401.003 33Z" fill="#495565"/>
<path d="M401.003 33V31H136.563V33V35H401.003V33ZM136.563 33V31C136.392 31 136.33 30.9695 136.385 30.9909C136.406 30.9991 136.56 31.0586 136.742 31.2271C136.927 31.3983 137.283 31.8266 137.283 32.5H135.283H133.283C133.283 33.3117 133.71 33.8717 134.025 34.1626C134.336 34.4508 134.677 34.6179 134.929 34.7166C135.447 34.9188 136.025 35 136.563 35V33ZM135.283 32.5H137.283C137.283 33.1734 136.927 33.6017 136.742 33.7729C136.56 33.9414 136.406 34.0009 136.385 34.0091C136.33 34.0305 136.392 34 136.563 34V32V30C136.025 30 135.447 30.0812 134.929 30.2834C134.677 30.3821 134.336 30.5492 134.025 30.8374C133.71 31.1283 133.283 31.6883 133.283 32.5H135.283ZM136.563 32V34H401.003V32V30H136.563V32ZM401.003 32V34C401.174 34 401.235 34.0305 401.181 34.0091C401.159 34.0009 401.006 33.9414 400.824 33.7729C400.639 33.6017 400.283 33.1734 400.283 32.5H402.283H404.283C404.283 31.6883 403.855 31.1283 403.541 30.8374C403.229 30.5492 402.889 30.3821 402.636 30.2834C402.119 30.0812 401.54 30 401.003 30V32ZM402.283 32.5H400.283C400.283 31.8266 400.639 31.3983 400.824 31.2271C401.006 31.0586 401.159 30.9991 401.181 30.9909C401.235 30.9695 401.174 31 401.003 31V33V35C401.54 35 402.119 34.9188 402.636 34.7166C402.889 34.6179 403.229 34.4508 403.541 34.1626C403.855 33.8717 404.283 33.3117 404.283 32.5H402.283Z" fill="#697282" mask="url(#path-19-inside-1_114_8054)"/>
<mask id="path-21-inside-2_114_8054" fill="white">
<path d="M241.487 67.5H135.513C135.229 67.5 135 67.2767 135 67C135 66.7233 135.229 66.5 135.513 66.5H241.487C241.771 66.5 242 66.7233 242 67C242 67.2767 241.771 67.5 241.487 67.5Z"/>
</mask>
<path d="M241.487 67.5H135.513C135.229 67.5 135 67.2767 135 67C135 66.7233 135.229 66.5 135.513 66.5H241.487C241.771 66.5 242 66.7233 242 67C242 67.2767 241.771 67.5 241.487 67.5Z" fill="#495565"/>
<path d="M241.487 67.5V65.5H135.513V67.5V69.5H241.487V67.5ZM135.513 67.5V65.5C136.285 65.5 137 66.1245 137 67H135H133C133 68.4289 134.173 69.5 135.513 69.5V67.5ZM135 67H137C137 67.8755 136.285 68.5 135.513 68.5V66.5V64.5C134.173 64.5 133 65.5711 133 67H135ZM135.513 66.5V68.5H241.487V66.5V64.5H135.513V66.5ZM241.487 66.5V68.5C240.715 68.5 240 67.8755 240 67H242H244C244 65.5711 242.827 64.5 241.487 64.5V66.5ZM242 67H240C240 66.1245 240.715 65.5 241.487 65.5V67.5V69.5C242.827 69.5 244 68.4289 244 67H242Z" fill="#697282" mask="url(#path-21-inside-2_114_8054)"/>
<mask id="path-23-inside-3_114_8054" fill="white">
<path d="M345.984 50.5H136.016C135.454 50.5 135 50.2767 135 50C135 49.7233 135.454 49.5 136.016 49.5H345.984C346.546 49.5 347 49.7233 347 50C347 50.2767 346.546 50.5 345.984 50.5Z"/>
</mask>
<path d="M345.984 50.5H136.016C135.454 50.5 135 50.2767 135 50C135 49.7233 135.454 49.5 136.016 49.5H345.984C346.546 49.5 347 49.7233 347 50C347 50.2767 346.546 50.5 345.984 50.5Z" fill="#495565"/>
<path d="M345.984 50.5V48.5H136.016V50.5V52.5H345.984V50.5ZM136.016 50.5V48.5C135.973 48.5 136.034 48.4871 136.18 48.5592C136.254 48.5954 136.424 48.6905 136.598 48.8926C136.782 49.108 137 49.4877 137 50H135H133C133 51.3185 134.027 51.9575 134.414 52.1483C134.928 52.4012 135.497 52.5 136.016 52.5V50.5ZM135 50H137C137 50.5123 136.782 50.892 136.598 51.1074C136.424 51.3095 136.254 51.4046 136.18 51.4408C136.034 51.5129 135.973 51.5 136.016 51.5V49.5V47.5C135.497 47.5 134.928 47.5988 134.414 47.8517C134.027 48.0425 133 48.6815 133 50H135ZM136.016 49.5V51.5H345.984V49.5V47.5H136.016V49.5ZM345.984 49.5V51.5C346.027 51.5 345.966 51.5129 345.82 51.4408C345.746 51.4046 345.576 51.3095 345.402 51.1074C345.218 50.892 345 50.5123 345 50H347H349C349 48.6815 347.973 48.0425 347.586 47.8517C347.072 47.5988 346.503 47.5 345.984 47.5V49.5ZM347 50H345C345 49.4877 345.218 49.108 345.402 48.8926C345.576 48.6905 345.746 48.5954 345.82 48.5592C345.966 48.4871 346.027 48.5 345.984 48.5V50.5V52.5C346.503 52.5 347.072 52.4012 347.586 52.1483C347.973 51.9575 349 51.3185 349 50H347Z" fill="#697282" mask="url(#path-23-inside-3_114_8054)"/>
<path d="M339.172 204H21.8144C9.76636 204 0 194.207 0 182.127V134.873C0 122.793 9.76636 113 21.8144 113H304.329C316.377 113 326.143 122.793 326.143 134.873V182.219C326.143 191.219 331.585 199.055 339.486 202.4C340.322 202.754 340.082 204 339.174 204H339.172Z" fill="#F2F4F6"/>
<mask id="path-26-inside-4_114_8054" fill="white">
<path d="M244.984 146H35.0162C34.4539 146 34 145.777 34 145.5C34 145.223 34.4539 145 35.0162 145H244.984C245.546 145 246 145.223 246 145.5C246 145.777 245.546 146 244.984 146Z"/>
</mask>
<path d="M244.984 146H35.0162C34.4539 146 34 145.777 34 145.5C34 145.223 34.4539 145 35.0162 145H244.984C245.546 145 246 145.223 246 145.5C246 145.777 245.546 146 244.984 146Z" fill="#495565"/>
<path d="M244.984 146V144H35.0162V146V148H244.984V146ZM35.0162 146V144C34.9726 144 35.0337 143.987 35.1802 144.059C35.2538 144.095 35.4242 144.19 35.5977 144.393C35.7824 144.608 36 144.988 36 145.5H34H32C32 146.819 33.0265 147.458 33.4142 147.648C33.9283 147.901 34.4975 148 35.0162 148V146ZM34 145.5H36C36 146.012 35.7824 146.392 35.5977 146.607C35.4242 146.81 35.2538 146.905 35.1802 146.941C35.0337 147.013 34.9726 147 35.0162 147V145V143C34.4975 143 33.9283 143.099 33.4142 143.352C33.0265 143.542 32 144.181 32 145.5H34ZM35.0162 145V147H244.984V145V143H35.0162V145ZM244.984 145V147C245.027 147 244.966 147.013 244.82 146.941C244.746 146.905 244.576 146.81 244.402 146.607C244.218 146.392 244 146.012 244 145.5H246H248C248 144.181 246.973 143.542 246.586 143.352C246.072 143.099 245.503 143 244.984 143V145ZM246 145.5H244C244 144.988 244.218 144.608 244.402 144.393C244.576 144.19 244.746 144.095 244.82 144.059C244.966 143.987 245.027 144 244.984 144V146V148C245.503 148 246.072 147.901 246.586 147.648C246.973 147.458 248 146.819 248 145.5H246Z" fill="#697282" mask="url(#path-26-inside-4_114_8054)"/>
<mask id="path-28-inside-5_114_8054" fill="white">
<path d="M140.487 180H34.5129C34.2291 180 34 179.777 34 179.5C34 179.223 34.2291 179 34.5129 179H140.487C140.771 179 141 179.223 141 179.5C141 179.777 140.771 180 140.487 180Z"/>
</mask>
<path d="M140.487 180H34.5129C34.2291 180 34 179.777 34 179.5C34 179.223 34.2291 179 34.5129 179H140.487C140.771 179 141 179.223 141 179.5C141 179.777 140.771 180 140.487 180Z" fill="#495565"/>
<path d="M140.487 180V178H34.5129V180V182H140.487V180ZM34.5129 180V178C35.2854 178 36 178.624 36 179.5H34H32C32 180.929 33.1728 182 34.5129 182V180ZM34 179.5H36C36 180.376 35.2854 181 34.5129 181V179V177C33.1728 177 32 178.071 32 179.5H34ZM34.5129 179V181H140.487V179V177H34.5129V179ZM140.487 179V181C139.715 181 139 180.376 139 179.5H141H143C143 178.071 141.827 177 140.487 177V179ZM141 179.5H139C139 178.624 139.715 178 140.487 178V180V182C141.827 182 143 180.929 143 179.5H141Z" fill="#697282" mask="url(#path-28-inside-5_114_8054)"/>
<mask id="path-30-inside-6_114_8054" fill="white">
<path d="M244.984 163H35.0162C34.4539 163 34 162.777 34 162.5C34 162.223 34.4539 162 35.0162 162H244.984C245.546 162 246 162.223 246 162.5C246 162.777 245.546 163 244.984 163Z"/>
</mask>
<path d="M244.984 163H35.0162C34.4539 163 34 162.777 34 162.5C34 162.223 34.4539 162 35.0162 162H244.984C245.546 162 246 162.223 246 162.5C246 162.777 245.546 163 244.984 163Z" fill="#495565"/>
<path d="M244.984 163V161H35.0162V163V165H244.984V163ZM35.0162 163V161C34.9726 161 35.0337 160.987 35.1802 161.059C35.2538 161.095 35.4242 161.19 35.5977 161.393C35.7824 161.608 36 161.988 36 162.5H34H32C32 163.819 33.0265 164.458 33.4142 164.648C33.9283 164.901 34.4975 165 35.0162 165V163ZM34 162.5H36C36 163.012 35.7824 163.392 35.5977 163.607C35.4242 163.81 35.2538 163.905 35.1802 163.941C35.0337 164.013 34.9726 164 35.0162 164V162V160C34.4975 160 33.9283 160.099 33.4142 160.352C33.0265 160.542 32 161.181 32 162.5H34ZM35.0162 162V164H244.984V162V160H35.0162V162ZM244.984 162V164C245.027 164 244.966 164.013 244.82 163.941C244.746 163.905 244.576 163.81 244.402 163.607C244.218 163.392 244 163.012 244 162.5H246H248C248 161.181 246.973 160.542 246.586 160.352C246.072 160.099 245.503 160 244.984 160V162ZM246 162.5H244C244 161.988 244.218 161.608 244.402 161.393C244.576 161.19 244.746 161.095 244.82 161.059C244.966 160.987 245.027 161 244.984 161V163V165C245.503 165 246.072 164.901 246.586 164.648C246.973 164.458 248 163.819 248 162.5H246Z" fill="#697282" mask="url(#path-30-inside-6_114_8054)"/>
<g clip-path="url(#clip2_114_8054)">
<path d="M428.856 142.93C426.842 138.167 423.958 133.889 420.285 130.215C416.611 126.542 412.333 123.658 407.57 121.644C402.638 119.557 397.4 118.5 392 118.5C386.6 118.5 381.362 119.557 376.43 121.644C371.667 123.658 367.389 126.542 363.715 130.215C360.042 133.889 357.158 138.167 355.144 142.93C353.057 147.862 352 153.1 352 158.5C352 165.557 353.863 172.497 357.389 178.565C360.809 184.452 365.711 189.407 371.562 192.891C377.723 196.561 384.79 198.5 392 198.5C399.579 198.5 406.958 196.369 413.334 192.341C418.939 188.801 423.622 183.878 426.872 178.108C430.228 172.155 432 165.374 432 158.5C432 153.1 430.943 147.862 428.856 142.93ZM425.064 177.087C422.109 182.33 417.912 186.831 412.893 190.152C412.986 188.895 413.032 184.954 413.032 183.611C413.032 177.321 407.8 172.824 399.45 171.247C398.848 170.526 398.396 169.658 398.119 168.761C397.963 168.262 397.855 167.752 397.78 167.237C401.794 165.307 404.688 161.42 405.228 156.814C405.433 156.867 405.647 156.897 405.868 156.897C407.234 156.897 408.227 155.783 408.338 154.426C408.474 152.766 409.568 152.2 409.568 150.317C409.568 148.434 408.066 146.96 406.213 146.96C405.903 146.96 405.603 147 405.321 147.081V145.794C405.321 142.122 403.832 138.799 401.426 136.392C399.019 133.986 395.696 132.497 392.024 132.497C384.683 132.497 378.73 138.449 378.73 145.794V147.081C378.446 147.004 378.146 146.96 377.836 146.96C375.983 146.96 374.48 148.46 374.48 150.317C374.48 152.174 375.578 152.766 375.711 154.426C375.822 155.783 376.814 156.897 378.18 156.897C378.401 156.897 378.619 156.867 378.822 156.81C379.36 161.418 382.254 165.307 386.268 167.237C386.194 167.752 386.085 168.262 385.93 168.761C385.628 169.738 385.118 170.681 384.431 171.438C376.627 173.168 371.786 177.558 371.786 183.611C371.786 185.153 371.848 189.278 371.969 190.706C366.71 187.427 362.3 182.883 359.184 177.522C355.843 171.77 354.076 165.193 354.076 158.5C354.076 153.38 355.079 148.414 357.057 143.739C358.966 139.222 361.701 135.168 365.184 131.684C368.668 128.201 372.722 125.466 377.239 123.557C381.914 121.579 386.88 120.576 392 120.576C397.12 120.576 402.086 121.579 406.761 123.557C411.278 125.466 415.332 128.201 418.816 131.684C422.299 135.168 425.034 139.222 426.943 143.739C428.921 148.414 429.924 153.38 429.924 158.5C429.924 165.017 428.244 171.446 425.064 177.087Z" fill="#0068A8"/>
</g>
<g clip-path="url(#clip3_114_8054)">
<path d="M79.7759 276.838C79.7759 277.544 79.7565 278.245 79.7207 278.942C79.6519 280.251 79.522 281.542 79.3308 282.816C78.6018 287.683 76.996 292.262 74.6777 296.389C72.8957 299.559 70.6953 302.461 68.1485 305.021C66.8967 306.279 65.5613 307.455 64.1527 308.538C63.4909 309.046 62.8142 309.534 62.1211 310.002C61.4385 310.461 60.7409 310.901 60.0284 311.317C59.4025 311.686 58.7632 312.037 58.1134 312.371C52.6507 315.187 46.4531 316.777 39.8865 316.777C35.0063 316.777 30.3324 315.899 26.0124 314.293C24.6725 313.796 23.3699 313.229 22.1017 312.597C17.3306 310.214 13.1048 306.903 9.66017 302.898C7.51811 300.412 5.67929 297.657 4.19748 294.693C1.51169 289.319 0 283.256 0 276.838C0 255.419 16.8422 237.935 37.9909 236.945C38.2284 236.933 38.4659 236.924 38.7049 236.918C39.0978 236.906 39.4921 236.9 39.8895 236.9C40.9426 236.9 41.9867 236.941 43.0174 237.022C43.1981 237.036 43.3759 237.05 43.5552 237.068C63.8659 238.921 79.7759 256.02 79.7759 276.838Z" fill="#DEEDFF"/>
<path d="M37.3573 241.447H44.3616C47.3924 241.447 49.8541 243.91 49.8541 246.947V250.701H31.8647V246.947C31.8647 243.912 34.3265 241.447 37.3573 241.447Z" fill="#404040"/>
<path d="M43.0161 234.908H38.7036V246.628H43.0161V234.908Z" fill="#404040"/>
<path d="M45.6563 234.05C46.2727 231.396 44.6234 228.744 41.9725 228.127C39.3216 227.509 36.6729 229.161 36.0565 231.815C35.4401 234.469 37.0894 237.121 39.7403 237.738C42.3912 238.355 45.0399 236.704 45.6563 234.05Z" fill="#6397FF"/>
<path d="M65.27 276.09C62.0375 276.09 59.4175 273.467 59.4175 270.23V263.075C59.4175 259.839 62.0375 257.215 65.27 257.215C68.5026 257.215 71.1226 259.839 71.1226 263.075V270.23C71.1226 273.467 68.5026 276.09 65.27 276.09Z" fill="#404040"/>
<path d="M68.1499 305.02C66.8982 306.278 65.5627 307.453 64.1541 308.536C63.4924 309.045 62.8157 309.532 62.1226 310C61.44 310.46 60.7424 310.899 60.0298 311.315C59.4039 311.685 58.7646 312.036 58.1148 312.37C52.6521 315.186 46.4545 316.776 39.8879 316.776C35.0078 316.776 30.3338 315.898 26.0139 314.291C24.6739 313.795 23.3714 313.228 22.1032 312.595C17.3321 310.213 13.1062 306.902 9.66162 302.896C11.1942 299.278 13.1854 295.987 15.5426 293.133C18.4763 289.578 21.9777 286.702 25.8675 284.716C26.0467 284.624 26.226 284.533 26.4082 284.446H26.4112C30.1426 282.637 34.2176 281.641 38.4883 281.641C43.0637 281.641 47.4195 282.785 51.3645 284.847C51.3645 284.847 51.3645 284.847 51.3675 284.847C51.481 284.905 51.5946 284.967 51.7066 285.028C54.373 286.465 56.8481 288.324 59.0723 290.536C59.0813 290.545 59.0918 290.556 59.0992 290.563C59.6116 291.073 60.1105 291.604 60.596 292.15C63.7896 295.752 66.3768 300.122 68.1499 305.016V305.02Z" fill="#6397FF"/>
<path d="M22.103 312.595C17.3319 310.213 13.106 306.9 9.66142 302.896C7.51937 300.411 5.68054 297.656 4.19873 294.691C7.20866 292.381 10.362 291.396 13.2838 292.152C14.086 292.36 14.8388 292.69 15.5424 293.133C20.0715 295.981 22.4914 303.472 22.103 312.595Z" fill="#6397FF"/>
<path d="M25.8584 278.927H51.7334V284.303C51.7334 289.37 47.624 293.484 42.5632 293.484H35.0286C29.9677 293.484 25.8584 289.37 25.8584 284.303V278.927Z" fill="#404040"/>
<path d="M53.1274 244.755H29.8859C21.5371 244.755 14.769 251.532 14.769 259.891V269.714C14.769 278.074 21.5371 284.85 29.8859 284.85H53.1274C61.4762 284.85 68.2443 278.074 68.2443 269.714V259.891C68.2443 251.532 61.4762 244.755 53.1274 244.755Z" fill="#6397FF"/>
<path d="M14.0923 276.09C10.8598 276.09 8.23975 273.467 8.23975 270.23V263.075C8.23975 259.839 10.8598 257.215 14.0923 257.215C17.3248 257.215 19.9449 259.839 19.9449 263.075V270.23C19.9449 273.467 17.3248 276.09 14.0923 276.09Z" fill="#404040"/>
<path d="M52.4115 256.351H35.0375C28.1308 256.351 22.5317 261.957 22.5317 268.872V268.874C22.5317 275.789 28.1308 281.395 35.0375 281.395H52.4115C59.3182 281.395 64.9173 275.789 64.9173 268.874V268.872C64.9173 261.957 59.3182 256.351 52.4115 256.351Z" fill="#DEEDFF"/>
<path d="M39.8349 270.142C40.1605 268.819 39.353 267.482 38.0313 267.156C36.7096 266.83 35.3742 267.638 35.0486 268.962C34.723 270.285 35.5304 271.622 36.8521 271.948C38.1738 272.274 39.5093 271.466 39.8349 270.142Z" fill="#404040"/>
<path d="M61.9671 270.845C62.679 269.683 62.3155 268.164 61.1552 267.451C59.995 266.738 58.4773 267.102 57.7655 268.264C57.0536 269.426 57.4171 270.945 58.5774 271.658C59.7377 272.371 61.2553 272.007 61.9671 270.845Z" fill="#404040"/>
<path d="M45.0801 271.772H52.8432V272.451C52.8432 274.596 51.1044 276.337 48.9624 276.337C46.8203 276.337 45.0816 274.596 45.0816 272.451V271.772H45.0801Z" fill="#6397FF"/>
<path d="M58.1132 312.37C52.6505 315.186 46.4529 316.776 39.8863 316.776C35.0062 316.776 30.3322 315.898 26.0122 314.291C27.5807 307.015 31.8618 301.254 37.3215 299.035C38.8959 298.393 40.5704 298.049 42.3077 298.049C44.9546 298.049 47.4612 298.852 49.6958 300.285C50.9506 301.09 52.1187 302.093 53.1763 303.264C54.3862 304.601 55.4513 306.158 56.3386 307.889C57.0526 309.278 57.6501 310.78 58.1147 312.368L58.1132 312.37Z" fill="#DEEDFF"/>
<path d="M49.6962 300.288C49.26 303.628 46.6698 306.193 43.5404 306.193C40.1033 306.193 37.3174 303.098 37.3174 299.284C37.3174 299.202 37.3189 299.118 37.3234 299.038C38.8993 298.396 40.5723 298.052 42.3095 298.052C44.958 298.052 47.4645 298.855 49.6962 300.289V300.288Z" fill="white"/>
<path d="M39.8881 317C35.0872 317 30.3923 316.159 25.9364 314.502C24.6099 314.012 23.2879 313.437 22.0033 312.796C17.2098 310.401 13.0004 307.12 9.49155 303.043C7.32559 300.529 5.47781 297.753 3.99898 294.793C2.9175 292.63 2.02721 290.357 1.35651 288.036C1.32216 287.916 1.39087 287.792 1.50888 287.758C1.62688 287.722 1.75236 287.792 1.78672 287.91C2.45144 290.204 3.32977 292.452 4.4008 294.591C5.8632 297.518 7.69007 300.262 9.83213 302.75C13.3006 306.782 17.4638 310.026 22.2035 312.393C23.4717 313.028 24.7802 313.594 26.0917 314.081C30.4983 315.72 35.141 316.55 39.8881 316.55C46.277 316.55 52.376 315.077 58.012 312.169C58.6767 311.827 59.316 311.474 59.9165 311.121C60.6096 310.715 61.3102 310.276 61.9973 309.812C62.6725 309.357 63.3522 308.867 64.0169 308.357C65.4121 307.286 66.749 306.109 67.9903 304.86C70.5357 302.302 72.7196 299.413 74.4822 296.277C76.8379 292.081 78.3959 287.541 79.1084 282.78C79.2981 281.51 79.4281 280.215 79.4953 278.929C79.5311 278.23 79.5506 277.526 79.5506 276.837C79.5506 258.201 66.3576 241.864 48.18 237.994C48.059 237.968 47.9814 237.849 48.0067 237.728C48.0321 237.606 48.1516 237.529 48.2726 237.554C57.1202 239.438 65.1671 244.358 70.933 251.405C76.7781 258.551 79.9987 267.582 79.9987 276.837C79.9987 277.533 79.9808 278.245 79.9434 278.951C79.8762 280.253 79.7433 281.563 79.5521 282.846C78.8306 287.66 77.2561 292.253 74.8736 296.495C73.09 299.667 70.8822 302.588 68.3085 305.176C67.0522 306.439 65.7004 307.628 64.2903 308.711C63.6181 309.227 62.9309 309.722 62.2468 310.183C61.5507 310.651 60.8427 311.097 60.1421 311.507C59.5356 311.864 58.8873 312.221 58.2166 312.567C52.5164 315.507 46.3487 316.997 39.8881 316.997V317Z" fill="#404040"/>
</g>
<path d="M92.8595 306.5L209.36 306.5C221.864 306.5 232 299.182 232 290.155V254.845C232 245.818 221.864 238.5 209.36 238.5L129.022 238.5C116.518 238.5 106.382 245.818 106.382 254.845V290.224C106.382 296.949 100.734 302.805 92.5339 305.304C91.6657 305.569 91.9153 306.5 92.8573 306.5H92.8595Z" fill="#E5E7EB"/>
<path d="M192.919 276.779C195.189 274.519 195.189 270.854 192.919 268.593C190.65 266.333 186.971 266.333 184.702 268.593C182.432 270.854 182.432 274.519 184.702 276.779C186.971 279.039 190.65 279.039 192.919 276.779Z" fill="white"/>
<path d="M173.411 276.779C175.681 274.518 175.681 270.853 173.411 268.593C171.142 266.332 167.463 266.332 165.194 268.593C162.925 270.853 162.925 274.518 165.194 276.779C167.463 279.039 171.142 279.039 173.411 276.779Z" fill="white"/>
<path d="M154.993 275.269C156.424 272.407 155.256 268.932 152.383 267.507C149.511 266.081 146.022 267.245 144.591 270.107C143.16 272.968 144.329 276.443 147.201 277.869C150.074 279.294 153.562 278.13 154.993 275.269Z" fill="white"/>
</g>
<defs>
<clipPath id="clip0_114_8054">
<rect width="432" height="317" fill="white"/>
</clipPath>
<clipPath id="clip1_114_8054">
<rect width="80" height="89" fill="white"/>
</clipPath>
<clipPath id="clip2_114_8054">
<rect width="80" height="80" fill="white" transform="translate(352 118.5)"/>
</clipPath>
<clipPath id="clip3_114_8054">
<rect width="80" height="89" fill="white" transform="translate(0 228)"/>
</clipPath>
</defs>
</svg>
