<svg width="344" height="328" viewBox="0 0 344 328" fill="none" xmlns="http://www.w3.org/2000/svg">
<g clip-path="url(#clip0_83_13022)">
<path d="M321.096 486H96.402C83.9102 486 73.7491 475.848 73.7491 463.364V22.632C73.7491 10.1517 83.9102 0 96.402 0H321.092C333.584 0 343.745 10.1517 343.745 22.632V463.364C343.745 475.844 333.584 486 321.092 486H321.096ZM96.402 1.21918C84.5854 1.21918 74.9694 10.8263 74.9694 22.632V463.364C74.9694 475.174 84.5854 484.781 96.402 484.781H321.092C332.913 484.781 342.525 475.174 342.525 463.364V22.632C342.525 10.8222 332.909 1.21918 321.092 1.21918H96.402Z" fill="#D0D5DB"/>
<path d="M312.884 472.24H104.615C95.6332 472.24 88.3236 464.937 88.3236 455.964V30.0364C88.3236 21.0592 95.6332 13.7604 104.615 13.7604H312.88C321.865 13.7604 329.171 21.0633 329.171 30.0364V455.964C329.171 464.937 321.861 472.24 312.88 472.24H312.884ZM104.615 14.9796C96.3044 14.9796 89.5439 21.7338 89.5439 30.0364V455.964C89.5439 464.266 96.3044 471.02 104.615 471.02H312.88C321.19 471.02 327.95 464.266 327.95 455.964V30.0364C327.95 21.7338 321.19 14.9796 312.88 14.9796H104.615Z" fill="#D0D5DB"/>
<path d="M235.773 30.1136H175.457V31.3328H235.773V30.1136Z" fill="#D0D5DB"/>
<path d="M248.683 195H157.409C130.671 195 108.995 216.655 108.995 243.367C108.995 270.079 130.671 291.733 157.409 291.733H248.683C275.421 291.733 297.097 270.079 297.097 243.367C297.097 216.655 275.421 195 248.683 195Z" fill="#DEEDFF"/>
</g>
<g clip-path="url(#clip1_83_13022)">
<path d="M253.523 195.833L253.8 222L227.554 208.917L253.523 195.833Z" fill="#0068A8"/>
<path d="M184.398 212.773H225.321C247.158 212.773 264.859 195.14 264.859 173.388V173.386C264.859 151.634 247.158 134 225.321 134H184.398C162.561 134 144.859 151.634 144.859 173.386V173.388C144.859 195.14 162.561 212.773 184.398 212.773Z" fill="#0068A8"/>
<path d="M236.323 178.839C239.347 175.828 239.347 170.945 236.323 167.934C233.3 164.922 228.399 164.922 225.376 167.934C222.352 170.945 222.352 175.828 225.376 178.839C228.399 181.851 233.3 181.851 236.323 178.839Z" fill="white"/>
<path d="M210.334 178.839C213.357 175.828 213.357 170.945 210.334 167.933C207.311 164.922 202.41 164.922 199.386 167.933C196.363 170.945 196.363 175.828 199.386 178.839C202.41 181.851 207.311 181.851 210.334 178.839Z" fill="white"/>
<path d="M185.797 176.827C187.703 173.015 186.146 168.385 182.319 166.486C178.493 164.587 173.845 166.138 171.939 169.95C170.032 173.762 171.589 178.392 175.416 180.291C179.243 182.19 183.891 180.639 185.797 176.827Z" fill="white"/>
</g>
<path d="M259.227 234.336H151.272C150.983 234.336 150.749 234.038 150.749 233.668C150.749 233.298 150.983 233 151.272 233H259.227C259.516 233 259.749 233.298 259.749 233.668C259.749 234.038 259.516 234.336 259.227 234.336Z" fill="#6397FF"/>
<path d="M259.227 260H151.272C150.983 260 150.749 259.702 150.749 259.332C150.749 258.962 150.983 258.664 151.272 258.664H259.227C259.516 258.664 259.749 258.962 259.749 259.332C259.749 259.702 259.516 260 259.227 260Z" fill="#6397FF"/>
<g clip-path="url(#clip2_83_13022)">
<path d="M119.915 172.983C119.915 174.038 119.886 175.086 119.832 176.127C119.729 178.083 119.534 180.012 119.247 181.916C118.154 189.189 115.745 196.033 112.267 202.199C109.594 206.937 106.294 211.273 102.474 215.1C100.596 216.979 98.5928 218.736 96.4799 220.354C95.4872 221.114 94.4722 221.843 93.4326 222.542C92.4086 223.228 91.3622 223.886 90.2934 224.507C89.3546 225.059 88.3956 225.584 87.4209 226.083C79.2269 230.291 69.9304 232.667 60.0806 232.667C52.7604 232.667 45.7494 231.355 39.2695 228.955C37.2596 228.213 35.3058 227.365 33.4034 226.42C26.2468 222.86 19.908 217.911 14.7411 211.926C11.528 208.211 8.76979 204.094 6.54707 199.665C2.51839 191.634 0.250854 182.573 0.250854 172.983C0.250854 140.975 25.5141 114.847 57.2372 113.368C57.5934 113.35 57.9497 113.336 58.3082 113.327C58.8975 113.31 59.489 113.301 60.085 113.301C61.6647 113.301 63.2309 113.361 64.777 113.482C65.0481 113.504 65.3147 113.524 65.5836 113.551C96.0496 116.32 119.915 141.873 119.915 172.983Z" fill="#DEEDFF"/>
<path d="M56.2871 120.095H66.7935C71.3398 120.095 75.0324 123.776 75.0324 128.313V133.923H48.0483V128.313C48.0483 123.778 51.7409 120.095 56.2871 120.095Z" fill="#404040"/>
<path d="M64.7747 110.324H58.306V127.837H64.7747V110.324Z" fill="#404040"/>
<path d="M68.7356 109.041C69.6602 105.075 67.1862 101.112 63.2099 100.189C59.2335 99.2669 55.2605 101.735 54.3359 105.701C53.4113 109.667 55.8853 113.63 59.8616 114.553C63.838 115.475 67.811 113.007 68.7356 109.041Z" fill="#6397FF"/>
<path d="M98.1559 171.865C93.3071 171.865 89.377 167.945 89.377 163.108V152.416C89.377 147.579 93.3071 143.659 98.1559 143.659C103.005 143.659 106.935 147.579 106.935 152.416V163.108C106.935 167.945 103.005 171.865 98.1559 171.865Z" fill="#404040"/>
<path d="M102.476 215.097C100.598 216.977 98.595 218.734 96.4821 220.352C95.4895 221.112 94.4745 221.84 93.4348 222.54C92.4108 223.226 91.3645 223.883 90.2957 224.505C89.3568 225.057 88.3978 225.582 87.4232 226.08C79.2291 230.289 69.9327 232.665 60.0828 232.665C52.7626 232.665 45.7516 231.353 39.2717 228.952C37.2618 228.21 35.308 227.363 33.4057 226.418C26.2491 222.857 19.9103 217.909 14.7433 211.924C17.0422 206.517 20.029 201.598 23.5648 197.333C27.9654 192.021 33.2175 187.723 39.0521 184.755C39.321 184.618 39.5899 184.482 39.8632 184.352H39.8677C45.4648 181.648 51.5773 180.159 57.9833 180.159C64.8464 180.159 71.3801 181.869 77.2977 184.951C77.2977 184.951 77.2977 184.951 77.3022 184.951C77.4725 185.038 77.6427 185.13 77.8108 185.222C81.8103 187.37 85.5231 190.148 88.8594 193.453C88.8729 193.467 88.8885 193.482 88.8997 193.494C89.6683 194.256 90.4167 195.049 91.1449 195.865C95.9354 201.247 99.8162 207.778 102.476 215.091V215.097Z" fill="#6397FF"/>
<path d="M33.4057 226.418C26.2491 222.857 19.9103 217.907 14.7434 211.924C11.5303 208.209 8.77204 204.092 6.54932 199.662C11.0642 196.209 15.7942 194.738 20.1769 195.867C21.3801 196.178 22.5094 196.672 23.5648 197.333C30.3584 201.589 33.9883 212.784 33.4057 226.418Z" fill="#6397FF"/>
<path d="M39.0387 176.105H77.8512V184.138C77.8512 191.71 71.6871 197.859 64.0958 197.859H52.794C45.2027 197.859 39.0387 191.71 39.0387 184.138V176.105Z" fill="#404040"/>
<path d="M79.9416 125.039H45.0794C32.5562 125.039 22.4041 135.166 22.4041 147.658V162.337C22.4041 174.829 32.5562 184.956 45.0794 184.956H79.9416C92.4649 184.956 102.617 174.829 102.617 162.337V147.658C102.617 135.166 92.4649 125.039 79.9416 125.039Z" fill="#6397FF"/>
<path d="M21.3891 171.865C16.5403 171.865 12.6102 167.945 12.6102 163.108V152.416C12.6102 147.579 16.5403 143.659 21.3891 143.659C26.2378 143.659 30.1679 147.579 30.1679 152.416V163.108C30.1679 167.945 26.2378 171.865 21.3891 171.865Z" fill="#404040"/>
<path d="M78.8684 142.367H52.8074C42.4473 142.367 34.0488 150.745 34.0488 161.079V161.081C34.0488 171.415 42.4473 179.793 52.8074 179.793H78.8684C89.2285 179.793 97.6271 171.415 97.6271 161.081V161.079C97.6271 150.745 89.2285 142.367 78.8684 142.367Z" fill="#DEEDFF"/>
<path d="M60.0029 162.977C60.4914 160.999 59.2801 159.001 57.2976 158.514C55.315 158.027 53.3119 159.235 52.8235 161.213C52.335 163.19 53.5463 165.188 55.5288 165.675C57.5114 166.163 59.5145 164.954 60.0029 162.977Z" fill="#404040"/>
<path d="M93.2016 164.027C94.2693 162.291 93.7241 160.02 91.9837 158.955C90.2433 157.89 87.9668 158.434 86.8991 160.17C85.8313 161.906 86.3766 164.177 88.117 165.242C89.8573 166.307 92.1338 165.763 93.2016 164.027Z" fill="#404040"/>
<path d="M67.8713 165.413H79.5159V166.427C79.5159 169.632 76.9078 172.234 73.6947 172.234C70.4816 172.234 67.8735 169.632 67.8735 166.427V165.413H67.8713Z" fill="#6397FF"/>
<path d="M87.4209 226.08C79.2269 230.289 69.9305 232.665 60.0806 232.665C52.7604 232.665 45.7494 231.353 39.2695 228.952C41.6221 218.079 48.0438 209.47 56.2334 206.153C58.595 205.194 61.1068 204.68 63.7127 204.68C67.6831 204.68 71.4429 205.88 74.7949 208.021C76.677 209.224 78.4292 210.723 80.0156 212.473C81.8305 214.472 83.4281 216.798 84.7591 219.384C85.8301 221.461 86.7263 223.705 87.4232 226.078L87.4209 226.08Z" fill="#DEEDFF"/>
<path d="M74.7949 208.026C74.1406 213.017 70.2554 216.85 65.5612 216.85C60.4055 216.85 56.2267 212.225 56.2267 206.526C56.2267 206.403 56.2289 206.278 56.2356 206.157C58.5995 205.198 61.109 204.684 63.7149 204.684C67.6876 204.684 71.4474 205.885 74.7949 208.028V208.026Z" fill="white"/>
<path d="M60.0828 233C52.8814 233 45.839 231.744 39.1552 229.267C37.1655 228.534 35.1825 227.676 33.2556 226.717C26.0653 223.139 19.7512 218.235 14.4879 212.143C11.239 208.386 8.46732 204.237 6.24908 199.814C4.62685 196.582 3.29143 193.185 2.28538 189.716C2.23384 189.538 2.33691 189.352 2.51392 189.301C2.69094 189.247 2.87915 189.352 2.93068 189.529C3.92777 192.957 5.24527 196.316 6.85181 199.513C9.04541 203.886 11.7857 207.988 14.9988 211.705C20.2016 217.73 26.4463 222.578 33.5558 226.116C35.4581 227.064 37.4209 227.911 39.3882 228.637C45.9981 231.087 52.9621 232.327 60.0828 232.327C69.6661 232.327 78.8146 230.126 87.2686 225.781C88.2657 225.269 89.2247 224.742 90.1254 224.214C91.165 223.608 92.2159 222.951 93.2466 222.258C94.2594 221.579 95.2789 220.846 96.276 220.084C98.3687 218.483 100.374 216.724 102.236 214.858C106.054 211.036 109.33 206.718 111.974 202.031C115.507 195.762 117.844 188.977 118.913 181.862C119.198 179.965 119.393 178.029 119.494 176.107C119.547 175.064 119.576 174.011 119.576 172.98C119.576 145.132 99.7871 120.719 72.5206 114.934C72.3392 114.896 72.2226 114.718 72.2607 114.537C72.2988 114.356 72.4781 114.239 72.6596 114.277C85.9309 117.094 98.0013 124.445 106.65 134.976C115.418 145.655 120.249 159.15 120.249 172.98C120.249 174.022 120.222 175.086 120.166 176.141C120.065 178.085 119.865 180.043 119.579 181.961C118.496 189.155 116.135 196.019 112.561 202.358C109.886 207.098 106.574 211.463 102.713 215.33C100.829 217.218 98.8012 218.995 96.686 220.613C95.6777 221.385 94.647 222.124 93.6208 222.813C92.5767 223.512 91.5146 224.178 90.4637 224.791C89.554 225.325 88.5816 225.859 87.5755 226.375C79.0252 230.769 69.7736 232.996 60.0828 232.996V233Z" fill="#404040"/>
</g>
<defs>
<clipPath id="clip0_83_13022">
<rect width="270" height="486" fill="white" transform="translate(73.7491)"/>
</clipPath>
<clipPath id="clip1_83_13022">
<rect width="120" height="88" fill="white" transform="translate(144.859 134)"/>
</clipPath>
<clipPath id="clip2_83_13022">
<rect width="120" height="133" fill="white" transform="translate(0.250854 100)"/>
</clipPath>
</defs>
</svg>
