<svg width="80" height="80" viewBox="0 0 80 80" fill="none" xmlns="http://www.w3.org/2000/svg">
<g clip-path="url(#clip0_78_7379)">
<path d="M76.8561 24.4298C74.8421 19.6667 71.9581 15.389 68.2846 11.7154C64.611 8.04189 60.3333 5.15785 55.5702 3.14385C50.6379 1.05735 45.3995 0 40 0C34.6005 0 29.3621 1.05735 24.4298 3.14385C19.6667 5.15785 15.389 8.04189 11.7154 11.7154C8.04189 15.389 5.15785 19.6667 3.14385 24.4298C1.05735 29.3621 0 34.6005 0 40C0 47.057 1.86295 53.9973 5.38946 60.0655C8.80922 65.9524 13.7113 70.9068 19.562 74.391C25.7228 78.0605 32.7899 80 40 80C47.5787 80 54.958 77.8692 61.3343 73.8412C66.9392 70.3006 71.6218 65.3784 74.8724 59.6083C78.2277 53.6549 80 46.8738 80 40C80 34.6005 78.9426 29.3621 76.8561 24.4298ZM73.0638 58.5872C70.1093 63.8296 65.9121 68.3309 60.8932 71.652C60.9859 70.3952 61.0322 66.4539 61.0322 65.1105C61.0322 58.8208 55.7998 54.3235 47.4498 52.7466C46.8476 52.0256 46.3965 51.1575 46.1185 50.2613C45.9634 49.7618 45.8547 49.2523 45.7802 48.7367C49.7941 46.8073 52.6882 42.9203 53.2279 38.3143C53.4334 38.3666 53.6468 38.3969 53.8684 38.3969C55.2339 38.3969 56.2268 37.2831 56.3375 35.9257C56.4745 34.2662 57.5681 33.7002 57.5681 31.8171C57.5681 29.934 56.0657 28.4598 54.2128 28.4598C53.9026 28.4598 53.6025 28.5001 53.3206 28.5806V27.2937C53.3206 23.6222 51.8322 20.2991 49.4255 17.8924C47.0188 15.4856 43.6957 13.9973 40.0242 13.9973C32.6831 13.9973 26.7298 19.9486 26.7298 27.2937V28.5806C26.4458 28.5041 26.1457 28.4598 25.8356 28.4598C23.9827 28.4598 22.4802 29.9602 22.4802 31.8171C22.4802 33.674 23.5779 34.2662 23.7108 35.9257C23.8216 37.2831 24.8145 38.3969 26.18 38.3969C26.4015 38.3969 26.619 38.3666 26.8224 38.3103C27.3602 42.9183 30.2543 46.8073 34.2682 48.7367C34.1936 49.2523 34.0849 49.7618 33.9298 50.2613C33.6277 51.2381 33.1182 52.1807 32.4314 52.9379C24.6272 54.6679 19.7855 59.0585 19.7855 65.1105C19.7855 66.6532 19.8479 70.7779 19.9688 72.2058C14.7102 68.927 10.2996 64.3835 7.18393 59.0222C3.84271 53.2702 2.07643 46.6925 2.07643 40C2.07643 34.8804 3.0794 29.9139 5.05715 25.2394C6.96642 20.722 9.70142 16.6678 13.1836 13.1836C16.6678 9.70142 20.722 6.96642 25.2394 5.05715C29.9139 3.0794 34.8804 2.07643 40 2.07643C45.1196 2.07643 50.0861 3.0794 54.7606 5.05715C59.278 6.96642 63.3322 9.70142 66.8164 13.1836C70.2986 16.6678 73.0336 20.722 74.9428 25.2394C76.9206 29.9139 77.9236 34.8804 77.9236 40C77.9236 46.5173 76.2439 52.946 73.0638 58.5872Z" fill="#0068A8"/>
</g>
<defs>
<clipPath id="clip0_78_7379">
<rect width="80" height="80" fill="white"/>
</clipPath>
</defs>
</svg>
