<svg width="140" height="68" viewBox="0 0 140 68" fill="none" xmlns="http://www.w3.org/2000/svg">
<path d="M0.85949 67.9998L117.36 68C129.864 68 140 60.6823 140 51.655V16.3452C140 7.31792 129.864 0.000220765 117.36 0.000220765L37.0219 0C24.5177 0 14.3816 7.3177 14.3816 16.345V51.7238C14.3816 58.4492 8.734 64.3049 0.533917 66.8042C-0.334276 67.069 -0.0846705 67.9998 0.857319 67.9998H0.85949Z" fill="#E5E7EB"/>
<path d="M100.92 38.279C103.189 36.0185 103.189 32.3536 100.92 30.0931C98.6503 27.8326 94.9711 27.8326 92.7018 30.0931C90.4326 32.3536 90.4326 36.0185 92.7018 38.279C94.9711 40.5395 98.6503 40.5395 100.92 38.279Z" fill="white"/>
<path d="M81.4115 38.2789C83.6807 36.0184 83.6807 32.3534 81.4114 30.093C79.1422 27.8325 75.463 27.8325 73.1938 30.093C70.9245 32.3534 70.9245 36.0184 73.1938 38.2789C75.463 40.5394 79.1422 40.5394 81.4115 38.2789Z" fill="white"/>
<path d="M62.9932 36.7688C64.4242 33.9073 63.2555 30.4322 60.383 29.0068C57.5105 27.5814 54.0219 28.7455 52.5909 31.6069C51.16 34.4683 52.3286 37.9435 55.2012 39.3689C58.0737 40.7943 61.5623 39.6302 62.9932 36.7688Z" fill="white"/>
</svg>
